<?xml version="1.0" encoding="utf-8"?>
<!-- Generator: Adobe Illustrator 19.0.0, SVG Export Plug-In . SVG Version: 6.00 Build 0)  -->
<svg version="1.1" id="Capa_1" xmlns="http://www.w3.org/2000/svg" xmlns:xlink="http://www.w3.org/1999/xlink" x="0px" y="0px"
	 viewBox="0 0 350.7 316.6" style="enable-background:new 0 0 350.7 316.6;" xml:space="preserve">
<style type="text/css">
	.st0{clip-path:url(#XMLID_682_);}
	.st1{fill:#E3E3E3;}
</style>
<g id="XMLID_3_">
	<defs>
		<rect id="XMLID_4_" width="342.5" height="316.6"/>
	</defs>
	<clipPath id="XMLID_682_">
		<use xlink:href="#XMLID_4_"  style="overflow:visible;"/>
	</clipPath>
	<g id="XMLID_5_" class="st0">
		<g id="XMLID_619_">
			<ellipse id="XMLID_642_" class="st1" cx="-154.8" cy="-13.3" rx="4.1" ry="3.7"/>
			<ellipse id="XMLID_641_" class="st1" cx="-122.5" cy="-13.3" rx="4.1" ry="3.7"/>
			<path id="XMLID_640_" class="st1" d="M-84-13.3c0,2.1-1.8,3.7-4.1,3.7c-2.3,0-4.1-1.7-4.1-3.7c0-2.1,1.8-3.7,4.1-3.7
				C-85.8-17.1-84-15.4-84-13.3z"/>
			<ellipse id="XMLID_639_" class="st1" cx="-53.6" cy="-13.3" rx="4.1" ry="3.7"/>
			<path id="XMLID_638_" class="st1" d="M-15-13.3c0,2.1-1.8,3.7-4.1,3.7c-2.3,0-4.1-1.7-4.1-3.7c0-2.1,1.8-3.7,4.1-3.7
				C-16.9-17.1-15-15.4-15-13.3z"/>
			<ellipse id="XMLID_637_" class="st1" cx="15.4" cy="-13.3" rx="4.1" ry="3.7"/>
			<path id="XMLID_636_" class="st1" d="M53.9-13.3c0,2.1-1.8,3.7-4.1,3.7c-2.3,0-4.1-1.7-4.1-3.7c0-2.1,1.8-3.7,4.1-3.7
				C52.1-17.1,53.9-15.4,53.9-13.3z"/>
			<ellipse id="XMLID_635_" class="st1" cx="84.3" cy="-13.3" rx="4.1" ry="3.7"/>
			<ellipse id="XMLID_634_" class="st1" cx="118.8" cy="-13.3" rx="4.1" ry="3.7"/>
			<ellipse id="XMLID_633_" class="st1" cx="153.3" cy="-13.3" rx="4.1" ry="3.7"/>
			<ellipse id="XMLID_632_" class="st1" cx="187.7" cy="-13.3" rx="4.1" ry="3.7"/>
			<ellipse id="XMLID_631_" class="st1" cx="222.2" cy="-13.3" rx="4.1" ry="3.7"/>
			<ellipse id="XMLID_630_" class="st1" cx="256.7" cy="-13.3" rx="4.1" ry="3.7"/>
			<ellipse id="XMLID_629_" class="st1" cx="291.2" cy="-13.3" rx="4.1" ry="3.7"/>
			<path id="XMLID_628_" class="st1" d="M329.7-13.3c0,2.1-1.8,3.7-4.1,3.7c-2.3,0-4.1-1.7-4.1-3.7c0-2.1,1.8-3.7,4.1-3.7
				C327.9-17.1,329.7-15.4,329.7-13.3z"/>
			<ellipse id="XMLID_627_" class="st1" cx="360.1" cy="-13.3" rx="4.1" ry="3.7"/>
			<path id="XMLID_626_" class="st1" d="M398.7-13.3c0,2.1-1.8,3.7-4.1,3.7c-2.3,0-4.1-1.7-4.1-3.7c0-2.1,1.8-3.7,4.1-3.7
				C396.8-17.1,398.7-15.4,398.7-13.3z"/>
			<path id="XMLID_625_" class="st1" d="M433.1-13.3c0,2.1-1.8,3.7-4.1,3.7s-4.1-1.7-4.1-3.7c0-2.1,1.8-3.7,4.1-3.7
				S433.1-15.4,433.1-13.3z"/>
			<path id="XMLID_624_" class="st1" d="M467.6-13.3c0,2.1-1.8,3.7-4.1,3.7s-4.1-1.7-4.1-3.7c0-2.1,1.8-3.7,4.1-3.7
				S467.6-15.4,467.6-13.3z"/>
			<ellipse id="XMLID_623_" class="st1" cx="498" cy="-13.3" rx="4.1" ry="3.7"/>
			<path id="XMLID_622_" class="st1" d="M536.6-13.3c0,2.1-1.8,3.7-4.1,3.7c-2.3,0-4.1-1.7-4.1-3.7c0-2.1,1.8-3.7,4.1-3.7
				C534.7-17.1,536.6-15.4,536.6-13.3z"/>
			<path id="XMLID_621_" class="st1" d="M571-13.3c0,2.1-1.8,3.7-4.1,3.7s-4.1-1.7-4.1-3.7c0-2.1,1.8-3.7,4.1-3.7S571-15.4,571-13.3
				z"/>
			<ellipse id="XMLID_620_" class="st1" cx="601.4" cy="-13.3" rx="4.1" ry="3.7"/>
		</g>
		<g id="XMLID_594_">
			<ellipse id="XMLID_618_" class="st1" cx="-136.8" cy="1.1" rx="4.1" ry="3.7"/>
			<ellipse id="XMLID_617_" class="st1" cx="-175.1" cy="1.1" rx="4.1" ry="3.7"/>
			<ellipse id="XMLID_616_" class="st1" cx="-104.6" cy="1.1" rx="4.1" ry="3.7"/>
			<ellipse id="XMLID_615_" class="st1" cx="-70.1" cy="1.1" rx="4.1" ry="3.7"/>
			<ellipse id="XMLID_614_" class="st1" cx="-35.6" cy="1.1" rx="4.1" ry="3.7"/>
			<ellipse id="XMLID_613_" class="st1" cx="-1.1" cy="1.1" rx="4.1" ry="3.7"/>
			<ellipse id="XMLID_612_" class="st1" cx="33.3" cy="1.1" rx="4.1" ry="3.7"/>
			<ellipse id="XMLID_611_" class="st1" cx="67.8" cy="1.1" rx="4.1" ry="3.7"/>
			<ellipse id="XMLID_610_" class="st1" cx="102.3" cy="1.1" rx="4.1" ry="3.7"/>
			<ellipse id="XMLID_609_" class="st1" cx="136.8" cy="1.1" rx="4.1" ry="3.7"/>
			<ellipse id="XMLID_608_" class="st1" cx="171.2" cy="1.1" rx="4.1" ry="3.7"/>
			<ellipse id="XMLID_607_" class="st1" cx="205.7" cy="1.1" rx="4.1" ry="3.7"/>
			<ellipse id="XMLID_606_" class="st1" cx="240.2" cy="1.1" rx="4.1" ry="3.7"/>
			<path id="XMLID_605_" class="st1" d="M278.7,1.1c0,2.1-1.8,3.7-4.1,3.7c-2.3,0-4.1-1.7-4.1-3.7c0-2.1,1.8-3.7,4.1-3.7
				C276.9-2.6,278.7-0.9,278.7,1.1z"/>
			<ellipse id="XMLID_604_" class="st1" cx="309.1" cy="1.1" rx="4.1" ry="3.7"/>
			<ellipse id="XMLID_603_" class="st1" cx="343.6" cy="1.1" rx="4.1" ry="3.7"/>
			<ellipse id="XMLID_602_" class="st1" cx="378.1" cy="1.1" rx="4.1" ry="3.7"/>
			<ellipse id="XMLID_601_" class="st1" cx="412.6" cy="1.1" rx="4.1" ry="3.7"/>
			<path id="XMLID_600_" class="st1" d="M451.1,1.1c0,2.1-1.8,3.7-4.1,3.7c-2.3,0-4.1-1.7-4.1-3.7c0-2.1,1.8-3.7,4.1-3.7
				C449.3-2.6,451.1-0.9,451.1,1.1z"/>
			<ellipse id="XMLID_599_" class="st1" cx="481.5" cy="1.1" rx="4.1" ry="3.7"/>
			<ellipse id="XMLID_598_" class="st1" cx="516" cy="1.1" rx="4.1" ry="3.7"/>
			<ellipse id="XMLID_597_" class="st1" cx="550.5" cy="1.1" rx="4.1" ry="3.7"/>
			<ellipse id="XMLID_596_" class="st1" cx="584.9" cy="1.1" rx="4.1" ry="3.7"/>
			<ellipse id="XMLID_595_" class="st1" cx="619.4" cy="1.1" rx="4.1" ry="3.7"/>
		</g>
		<g id="XMLID_570_">
			<path id="XMLID_593_" class="st1" d="M-150.6,15.1c0,2.1-1.8,3.7-4.1,3.7c-2.3,0-4.1-1.7-4.1-3.7c0-2.1,1.8-3.7,4.1-3.7
				C-152.4,11.4-150.6,13.1-150.6,15.1z"/>
			<path id="XMLID_592_" class="st1" d="M-118.4,15.1c0,2.1-1.8,3.7-4.1,3.7c-2.3,0-4.1-1.7-4.1-3.7c0-2.1,1.8-3.7,4.1-3.7
				C-120.2,11.4-118.4,13.1-118.4,15.1z"/>
			<path id="XMLID_591_" class="st1" d="M-83.9,15.1c0,2.1-1.8,3.7-4.1,3.7c-2.3,0-4.1-1.7-4.1-3.7c0-2.1,1.8-3.7,4.1-3.7
				C-85.8,11.4-83.9,13.1-83.9,15.1z"/>
			<path id="XMLID_590_" class="st1" d="M-49.4,15.1c0,2.1-1.8,3.7-4.1,3.7c-2.3,0-4.1-1.7-4.1-3.7c0-2.1,1.8-3.7,4.1-3.7
				C-51.3,11.4-49.4,13.1-49.4,15.1z"/>
			<path id="XMLID_589_" class="st1" d="M-15,15.1c0,2.1-1.8,3.7-4.1,3.7c-2.3,0-4.1-1.7-4.1-3.7c0-2.1,1.8-3.7,4.1-3.7
				C-16.8,11.4-15,13.1-15,15.1z"/>
			<path id="XMLID_588_" class="st1" d="M19.5,15.1c0,2.1-1.8,3.7-4.1,3.7c-2.3,0-4.1-1.7-4.1-3.7c0-2.1,1.8-3.7,4.1-3.7
				C17.7,11.4,19.5,13.1,19.5,15.1z"/>
			<path id="XMLID_587_" class="st1" d="M54,15.1c0,2.1-1.8,3.7-4.1,3.7c-2.3,0-4.1-1.7-4.1-3.7c0-2.1,1.8-3.7,4.1-3.7
				C52.1,11.4,54,13.1,54,15.1z"/>
			<path id="XMLID_586_" class="st1" d="M88.5,15.1c0,2.1-1.8,3.7-4.1,3.7c-2.3,0-4.1-1.7-4.1-3.7c0-2.1,1.8-3.7,4.1-3.7
				C86.6,11.4,88.5,13.1,88.5,15.1z"/>
			<path id="XMLID_585_" class="st1" d="M122.9,15.1c0,2.1-1.8,3.7-4.1,3.7c-2.3,0-4.1-1.7-4.1-3.7c0-2.1,1.8-3.7,4.1-3.7
				C121.1,11.4,122.9,13.1,122.9,15.1z"/>
			<path id="XMLID_584_" class="st1" d="M157.4,15.1c0,2.1-1.8,3.7-4.1,3.7c-2.3,0-4.1-1.7-4.1-3.7c0-2.1,1.8-3.7,4.1-3.7
				C155.6,11.4,157.4,13.1,157.4,15.1z"/>
			<path id="XMLID_583_" class="st1" d="M191.9,15.1c0,2.1-1.8,3.7-4.1,3.7c-2.3,0-4.1-1.7-4.1-3.7c0-2.1,1.8-3.7,4.1-3.7
				C190,11.4,191.9,13.1,191.9,15.1z"/>
			<path id="XMLID_582_" class="st1" d="M226.4,15.1c0,2.1-1.8,3.7-4.1,3.7c-2.3,0-4.1-1.7-4.1-3.7c0-2.1,1.8-3.7,4.1-3.7
				C224.5,11.4,226.4,13.1,226.4,15.1z"/>
			<path id="XMLID_581_" class="st1" d="M260.8,15.1c0,2.1-1.8,3.7-4.1,3.7c-2.3,0-4.1-1.7-4.1-3.7c0-2.1,1.8-3.7,4.1-3.7
				C259,11.4,260.8,13.1,260.8,15.1z"/>
			<path id="XMLID_580_" class="st1" d="M295.3,15.1c0,2.1-1.8,3.7-4.1,3.7c-2.3,0-4.1-1.7-4.1-3.7c0-2.1,1.8-3.7,4.1-3.7
				C293.5,11.4,295.3,13.1,295.3,15.1z"/>
			<path id="XMLID_579_" class="st1" d="M329.8,15.1c0,2.1-1.8,3.7-4.1,3.7s-4.1-1.7-4.1-3.7c0-2.1,1.8-3.7,4.1-3.7
				S329.8,13.1,329.8,15.1z"/>
			<path id="XMLID_578_" class="st1" d="M364.3,15.1c0,2.1-1.8,3.7-4.1,3.7c-2.3,0-4.1-1.7-4.1-3.7c0-2.1,1.8-3.7,4.1-3.7
				C362.4,11.4,364.3,13.1,364.3,15.1z"/>
			<path id="XMLID_577_" class="st1" d="M398.7,15.1c0,2.1-1.8,3.7-4.1,3.7c-2.3,0-4.1-1.7-4.1-3.7c0-2.1,1.8-3.7,4.1-3.7
				C396.9,11.4,398.7,13.1,398.7,15.1z"/>
			<path id="XMLID_576_" class="st1" d="M433.2,15.1c0,2.1-1.8,3.7-4.1,3.7c-2.3,0-4.1-1.7-4.1-3.7c0-2.1,1.8-3.7,4.1-3.7
				C431.4,11.4,433.2,13.1,433.2,15.1z"/>
			<path id="XMLID_575_" class="st1" d="M467.7,15.1c0,2.1-1.8,3.7-4.1,3.7s-4.1-1.7-4.1-3.7c0-2.1,1.8-3.7,4.1-3.7
				S467.7,13.1,467.7,15.1z"/>
			<path id="XMLID_574_" class="st1" d="M502.2,15.1c0,2.1-1.8,3.7-4.1,3.7c-2.3,0-4.1-1.7-4.1-3.7c0-2.1,1.8-3.7,4.1-3.7
				C500.3,11.4,502.2,13.1,502.2,15.1z"/>
			<path id="XMLID_573_" class="st1" d="M536.6,15.1c0,2.1-1.8,3.7-4.1,3.7c-2.3,0-4.1-1.7-4.1-3.7c0-2.1,1.8-3.7,4.1-3.7
				C534.8,11.4,536.6,13.1,536.6,15.1z"/>
			<path id="XMLID_572_" class="st1" d="M571.1,15.1c0,2.1-1.8,3.7-4.1,3.7c-2.3,0-4.1-1.7-4.1-3.7c0-2.1,1.8-3.7,4.1-3.7
				C569.3,11.4,571.1,13.1,571.1,15.1z"/>
			<path id="XMLID_571_" class="st1" d="M605.6,15.1c0,2.1-1.8,3.7-4.1,3.7c-2.3,0-4.1-1.7-4.1-3.7c0-2.1,1.8-3.7,4.1-3.7
				C603.8,11.4,605.6,13.1,605.6,15.1z"/>
		</g>
		<g id="XMLID_545_">
			<path id="XMLID_569_" class="st1" d="M-132.6,29.6c0,2.1-1.8,3.7-4.1,3.7c-2.3,0-4.1-1.7-4.1-3.7c0-2.1,1.8-3.7,4.1-3.7
				C-134.5,25.9-132.6,27.5-132.6,29.6z"/>
			<path id="XMLID_568_" class="st1" d="M-171,29.6c0,2.1-1.8,3.7-4.1,3.7c-2.3,0-4.1-1.7-4.1-3.7c0-2.1,1.8-3.7,4.1-3.7
				C-172.8,25.9-171,27.5-171,29.6z"/>
			<ellipse id="XMLID_567_" class="st1" cx="-104.5" cy="29.6" rx="4.1" ry="3.7"/>
			<ellipse id="XMLID_566_" class="st1" cx="-70" cy="29.6" rx="4.1" ry="3.7"/>
			<ellipse id="XMLID_565_" class="st1" cx="-35.6" cy="29.6" rx="4.1" ry="3.7"/>
			<ellipse id="XMLID_564_" class="st1" cx="-1.1" cy="29.6" rx="4.1" ry="3.7"/>
			<ellipse id="XMLID_563_" class="st1" cx="33.4" cy="29.6" rx="4.1" ry="3.7"/>
			<ellipse id="XMLID_562_" class="st1" cx="67.9" cy="29.6" rx="4.1" ry="3.7"/>
			<ellipse id="XMLID_561_" class="st1" cx="102.3" cy="29.6" rx="4.1" ry="3.7"/>
			<path id="XMLID_560_" class="st1" d="M140.9,29.6c0,2.1-1.8,3.7-4.1,3.7c-2.3,0-4.1-1.7-4.1-3.7c0-2.1,1.8-3.7,4.1-3.7
				C139.1,25.9,140.9,27.5,140.9,29.6z"/>
			<ellipse id="XMLID_559_" class="st1" cx="171.3" cy="29.6" rx="4.1" ry="3.7"/>
			<ellipse id="XMLID_558_" class="st1" cx="205.8" cy="29.6" rx="4.1" ry="3.7"/>
			<ellipse id="XMLID_557_" class="st1" cx="240.2" cy="29.6" rx="4.1" ry="3.7"/>
			<ellipse id="XMLID_556_" class="st1" cx="274.7" cy="29.6" rx="4.1" ry="3.7"/>
			<ellipse id="XMLID_555_" class="st1" cx="309.2" cy="29.6" rx="4.1" ry="3.7"/>
			<ellipse id="XMLID_554_" class="st1" cx="343.7" cy="29.6" rx="4.1" ry="3.7"/>
			<ellipse id="XMLID_553_" class="st1" cx="378.1" cy="29.6" rx="4.1" ry="3.7"/>
			<ellipse id="XMLID_552_" class="st1" cx="412.6" cy="29.6" rx="4.1" ry="3.7"/>
			<ellipse id="XMLID_551_" class="st1" cx="447.1" cy="29.6" rx="4.1" ry="3.7"/>
			<ellipse id="XMLID_550_" class="st1" cx="481.6" cy="29.6" rx="4.1" ry="3.7"/>
			<ellipse id="XMLID_549_" class="st1" cx="516" cy="29.6" rx="4.1" ry="3.7"/>
			<ellipse id="XMLID_548_" class="st1" cx="550.5" cy="29.6" rx="4.1" ry="3.7"/>
			<ellipse id="XMLID_547_" class="st1" cx="585" cy="29.6" rx="4.1" ry="3.7"/>
			<ellipse id="XMLID_546_" class="st1" cx="619.5" cy="29.6" rx="4.1" ry="3.7"/>
		</g>
		<g id="XMLID_521_">
			<path id="XMLID_544_" class="st1" d="M-150.6,43.6c0,2.1-1.8,3.7-4.1,3.7c-2.3,0-4.1-1.7-4.1-3.7c0-2.1,1.8-3.7,4.1-3.7
				C-152.4,39.9-150.6,41.5-150.6,43.6z"/>
			<path id="XMLID_543_" class="st1" d="M-118.3,43.6c0,2.1-1.8,3.7-4.1,3.7c-2.3,0-4.1-1.7-4.1-3.7c0-2.1,1.8-3.7,4.1-3.7
				C-120.2,39.9-118.3,41.5-118.3,43.6z"/>
			<path id="XMLID_542_" class="st1" d="M-83.9,43.6c0,2.1-1.8,3.7-4.1,3.7c-2.3,0-4.1-1.7-4.1-3.7c0-2.1,1.8-3.7,4.1-3.7
				C-85.7,39.9-83.9,41.5-83.9,43.6z"/>
			<path id="XMLID_541_" class="st1" d="M-49.4,43.6c0,2.1-1.8,3.7-4.1,3.7c-2.3,0-4.1-1.7-4.1-3.7c0-2.1,1.8-3.7,4.1-3.7
				C-51.2,39.9-49.4,41.5-49.4,43.6z"/>
			<path id="XMLID_540_" class="st1" d="M-14.9,43.6c0,2.1-1.8,3.7-4.1,3.7c-2.3,0-4.1-1.7-4.1-3.7c0-2.1,1.8-3.7,4.1-3.7
				C-16.7,39.9-14.9,41.5-14.9,43.6z"/>
			<path id="XMLID_539_" class="st1" d="M19.6,43.6c0,2.1-1.8,3.7-4.1,3.7c-2.3,0-4.1-1.7-4.1-3.7c0-2.1,1.8-3.7,4.1-3.7
				C17.7,39.9,19.6,41.5,19.6,43.6z"/>
			<path id="XMLID_538_" class="st1" d="M54,43.6c0,2.1-1.8,3.7-4.1,3.7c-2.3,0-4.1-1.7-4.1-3.7c0-2.1,1.8-3.7,4.1-3.7
				C52.2,39.9,54,41.5,54,43.6z"/>
			<path id="XMLID_537_" class="st1" d="M88.5,43.6c0,2.1-1.8,3.7-4.1,3.7c-2.3,0-4.1-1.7-4.1-3.7c0-2.1,1.8-3.7,4.1-3.7
				C86.7,39.9,88.5,41.5,88.5,43.6z"/>
			<path id="XMLID_536_" class="st1" d="M123,43.6c0,2.1-1.8,3.7-4.1,3.7c-2.3,0-4.1-1.7-4.1-3.7c0-2.1,1.8-3.7,4.1-3.7
				C121.2,39.9,123,41.5,123,43.6z"/>
			<path id="XMLID_535_" class="st1" d="M157.5,43.6c0,2.1-1.8,3.7-4.1,3.7c-2.3,0-4.1-1.7-4.1-3.7c0-2.1,1.8-3.7,4.1-3.7
				C155.6,39.9,157.5,41.5,157.5,43.6z"/>
			<path id="XMLID_534_" class="st1" d="M191.9,43.6c0,2.1-1.8,3.7-4.1,3.7c-2.3,0-4.1-1.7-4.1-3.7c0-2.1,1.8-3.7,4.1-3.7
				C190.1,39.9,191.9,41.5,191.9,43.6z"/>
			<path id="XMLID_533_" class="st1" d="M226.4,43.6c0,2.1-1.8,3.7-4.1,3.7c-2.3,0-4.1-1.7-4.1-3.7c0-2.1,1.8-3.7,4.1-3.7
				C224.6,39.9,226.4,41.5,226.4,43.6z"/>
			<path id="XMLID_532_" class="st1" d="M260.9,43.6c0,2.1-1.8,3.7-4.1,3.7c-2.3,0-4.1-1.7-4.1-3.7c0-2.1,1.8-3.7,4.1-3.7
				C259.1,39.9,260.9,41.5,260.9,43.6z"/>
			<path id="XMLID_531_" class="st1" d="M295.4,43.6c0,2.1-1.8,3.7-4.1,3.7c-2.3,0-4.1-1.7-4.1-3.7c0-2.1,1.8-3.7,4.1-3.7
				C293.5,39.9,295.4,41.5,295.4,43.6z"/>
			<path id="XMLID_530_" class="st1" d="M329.8,43.6c0,2.1-1.8,3.7-4.1,3.7c-2.3,0-4.1-1.7-4.1-3.7c0-2.1,1.8-3.7,4.1-3.7
				C328,39.9,329.8,41.5,329.8,43.6z"/>
			<path id="XMLID_529_" class="st1" d="M364.3,43.6c0,2.1-1.8,3.7-4.1,3.7c-2.3,0-4.1-1.7-4.1-3.7c0-2.1,1.8-3.7,4.1-3.7
				C362.5,39.9,364.3,41.5,364.3,43.6z"/>
			<path id="XMLID_528_" class="st1" d="M398.8,43.6c0,2.1-1.8,3.7-4.1,3.7s-4.1-1.7-4.1-3.7c0-2.1,1.8-3.7,4.1-3.7
				S398.8,41.5,398.8,43.6z"/>
			<path id="XMLID_527_" class="st1" d="M433.3,43.6c0,2.1-1.8,3.7-4.1,3.7c-2.3,0-4.1-1.7-4.1-3.7c0-2.1,1.8-3.7,4.1-3.7
				C431.4,39.9,433.3,41.5,433.3,43.6z"/>
			<path id="XMLID_526_" class="st1" d="M467.7,43.6c0,2.1-1.8,3.7-4.1,3.7c-2.3,0-4.1-1.7-4.1-3.7c0-2.1,1.8-3.7,4.1-3.7
				C465.9,39.9,467.7,41.5,467.7,43.6z"/>
			<path id="XMLID_525_" class="st1" d="M502.2,43.6c0,2.1-1.8,3.7-4.1,3.7c-2.3,0-4.1-1.7-4.1-3.7c0-2.1,1.8-3.7,4.1-3.7
				C500.4,39.9,502.2,41.5,502.2,43.6z"/>
			<path id="XMLID_524_" class="st1" d="M536.7,43.6c0,2.1-1.8,3.7-4.1,3.7c-2.3,0-4.1-1.7-4.1-3.7c0-2.1,1.8-3.7,4.1-3.7
				C534.9,39.9,536.7,41.5,536.7,43.6z"/>
			<path id="XMLID_523_" class="st1" d="M571.2,43.6c0,2.1-1.8,3.7-4.1,3.7c-2.3,0-4.1-1.7-4.1-3.7c0-2.1,1.8-3.7,4.1-3.7
				C569.3,39.9,571.2,41.5,571.2,43.6z"/>
			<path id="XMLID_522_" class="st1" d="M605.6,43.6c0,2.1-1.8,3.7-4.1,3.7s-4.1-1.7-4.1-3.7c0-2.1,1.8-3.7,4.1-3.7
				S605.6,41.5,605.6,43.6z"/>
		</g>
		<g id="XMLID_496_">
			<path id="XMLID_520_" class="st1" d="M-132.6,58.1c0,2.1-1.8,3.7-4.1,3.7c-2.3,0-4.1-1.7-4.1-3.7c0-2.1,1.8-3.7,4.1-3.7
				C-134.4,54.3-132.6,56-132.6,58.1z"/>
			<ellipse id="XMLID_519_" class="st1" cx="-175" cy="58.1" rx="4.1" ry="3.7"/>
			<ellipse id="XMLID_518_" class="st1" cx="-104.5" cy="58.1" rx="4.1" ry="3.7"/>
			<ellipse id="XMLID_517_" class="st1" cx="-70" cy="58.1" rx="4.1" ry="3.7"/>
			<ellipse id="XMLID_516_" class="st1" cx="-35.5" cy="58.1" rx="4.1" ry="3.7"/>
			<ellipse id="XMLID_515_" class="st1" cx="-1" cy="58.1" rx="4.1" ry="3.7"/>
			<ellipse id="XMLID_514_" class="st1" cx="33.4" cy="58.1" rx="4.1" ry="3.7"/>
			<ellipse id="XMLID_513_" class="st1" cx="67.9" cy="58.1" rx="4.1" ry="3.7"/>
			<ellipse id="XMLID_512_" class="st1" cx="102.4" cy="58.1" rx="4.1" ry="3.7"/>
			<ellipse id="XMLID_511_" class="st1" cx="136.9" cy="58.1" rx="4.1" ry="3.7"/>
			<ellipse id="XMLID_510_" class="st1" cx="171.3" cy="58.1" rx="4.1" ry="3.7"/>
			<ellipse id="XMLID_509_" class="st1" cx="205.8" cy="58.1" rx="4.1" ry="3.7"/>
			<ellipse id="XMLID_508_" class="st1" cx="240.3" cy="58.1" rx="4.1" ry="3.7"/>
			<ellipse id="XMLID_507_" class="st1" cx="274.8" cy="58.1" rx="4.1" ry="3.7"/>
			<path id="XMLID_506_" class="st1" d="M313.3,58.1c0,2.1-1.8,3.7-4.1,3.7c-2.3,0-4.1-1.7-4.1-3.7c0-2.1,1.8-3.7,4.1-3.7
				C311.5,54.3,313.3,56,313.3,58.1z"/>
			<ellipse id="XMLID_505_" class="st1" cx="343.7" cy="58.1" rx="4.1" ry="3.7"/>
			<ellipse id="XMLID_504_" class="st1" cx="378.2" cy="58.1" rx="4.1" ry="3.7"/>
			<ellipse id="XMLID_503_" class="st1" cx="412.7" cy="58.1" rx="4.1" ry="3.7"/>
			<ellipse id="XMLID_502_" class="st1" cx="447.1" cy="58.1" rx="4.1" ry="3.7"/>
			<ellipse id="XMLID_501_" class="st1" cx="481.6" cy="58.1" rx="4.1" ry="3.7"/>
			<ellipse id="XMLID_500_" class="st1" cx="516.1" cy="58.1" rx="4.1" ry="3.7"/>
			<ellipse id="XMLID_499_" class="st1" cx="550.6" cy="58.1" rx="4.1" ry="3.7"/>
			<path id="XMLID_498_" class="st1" d="M589.1,58.1c0,2.1-1.8,3.7-4.1,3.7c-2.3,0-4.1-1.7-4.1-3.7c0-2.1,1.8-3.7,4.1-3.7
				C587.3,54.3,589.1,56,589.1,58.1z"/>
			<ellipse id="XMLID_497_" class="st1" cx="619.5" cy="58.1" rx="4.1" ry="3.7"/>
		</g>
		<g id="XMLID_472_">
			<path id="XMLID_495_" class="st1" d="M-150.5,72.1c0,2.1-1.8,3.7-4.1,3.7c-2.3,0-4.1-1.7-4.1-3.7c0-2.1,1.8-3.7,4.1-3.7
				C-152.3,68.4-150.5,70-150.5,72.1z"/>
			<ellipse id="XMLID_494_" class="st1" cx="-122.4" cy="72.1" rx="4.1" ry="3.7"/>
			<ellipse id="XMLID_493_" class="st1" cx="-87.9" cy="72.1" rx="4.1" ry="3.7"/>
			<ellipse id="XMLID_492_" class="st1" cx="-53.4" cy="72.1" rx="4.1" ry="3.7"/>
			<ellipse id="XMLID_491_" class="st1" cx="-18.9" cy="72.1" rx="4.1" ry="3.7"/>
			<ellipse id="XMLID_490_" class="st1" cx="15.5" cy="72.1" rx="4.1" ry="3.7"/>
			<ellipse id="XMLID_489_" class="st1" cx="50" cy="72.1" rx="4.1" ry="3.7"/>
			<ellipse id="XMLID_488_" class="st1" cx="84.5" cy="72.1" rx="4.1" ry="3.7"/>
			<ellipse id="XMLID_487_" class="st1" cx="119" cy="72.1" rx="4.1" ry="3.7"/>
			<ellipse id="XMLID_486_" class="st1" cx="153.4" cy="72.1" rx="4.1" ry="3.7"/>
			<ellipse id="XMLID_485_" class="st1" cx="187.9" cy="72.1" rx="4.1" ry="3.7"/>
			<ellipse id="XMLID_484_" class="st1" cx="222.4" cy="72.1" rx="4.1" ry="3.7"/>
			<ellipse id="XMLID_483_" class="st1" cx="256.9" cy="72.1" rx="4.1" ry="3.7"/>
			<ellipse id="XMLID_482_" class="st1" cx="291.3" cy="72.1" rx="4.1" ry="3.7"/>
			<ellipse id="XMLID_481_" class="st1" cx="325.8" cy="72.1" rx="4.1" ry="3.7"/>
			<ellipse id="XMLID_480_" class="st1" cx="360.3" cy="72.1" rx="4.1" ry="3.7"/>
			<ellipse id="XMLID_479_" class="st1" cx="394.8" cy="72.1" rx="4.1" ry="3.7"/>
			<ellipse id="XMLID_478_" class="st1" cx="429.2" cy="72.1" rx="4.1" ry="3.7"/>
			<ellipse id="XMLID_477_" class="st1" cx="463.7" cy="72.1" rx="4.1" ry="3.7"/>
			<ellipse id="XMLID_476_" class="st1" cx="498.2" cy="72.1" rx="4.1" ry="3.7"/>
			<ellipse id="XMLID_475_" class="st1" cx="532.7" cy="72.1" rx="4.1" ry="3.7"/>
			<ellipse id="XMLID_474_" class="st1" cx="567.1" cy="72.1" rx="4.1" ry="3.7"/>
			<ellipse id="XMLID_473_" class="st1" cx="601.6" cy="72.1" rx="4.1" ry="3.7"/>
		</g>
		<g id="XMLID_447_">
			<path id="XMLID_471_" class="st1" d="M-132.5,86.5c0,2.1-1.8,3.7-4.1,3.7c-2.3,0-4.1-1.7-4.1-3.7c0-2.1,1.8-3.7,4.1-3.7
				C-134.3,82.8-132.5,84.5-132.5,86.5z"/>
			<path id="XMLID_470_" class="st1" d="M-170.8,86.5c0,2.1-1.8,3.7-4.1,3.7c-2.3,0-4.1-1.7-4.1-3.7c0-2.1,1.8-3.7,4.1-3.7
				C-172.7,82.8-170.8,84.5-170.8,86.5z"/>
			<path id="XMLID_469_" class="st1" d="M-100.3,86.5c0,2.1-1.8,3.7-4.1,3.7c-2.3,0-4.1-1.7-4.1-3.7c0-2.1,1.8-3.7,4.1-3.7
				C-102.1,82.8-100.3,84.5-100.3,86.5z"/>
			<path id="XMLID_468_" class="st1" d="M-65.8,86.5c0,2.1-1.8,3.7-4.1,3.7c-2.3,0-4.1-1.7-4.1-3.7c0-2.1,1.8-3.7,4.1-3.7
				C-67.7,82.8-65.8,84.5-65.8,86.5z"/>
			<path id="XMLID_467_" class="st1" d="M-31.3,86.5c0,2.1-1.8,3.7-4.1,3.7c-2.3,0-4.1-1.7-4.1-3.7c0-2.1,1.8-3.7,4.1-3.7
				C-33.2,82.8-31.3,84.5-31.3,86.5z"/>
			<ellipse id="XMLID_466_" class="st1" cx="-1" cy="86.5" rx="4.1" ry="3.7"/>
			<ellipse id="XMLID_465_" class="st1" cx="33.5" cy="86.5" rx="4.1" ry="3.7"/>
			<ellipse id="XMLID_464_" class="st1" cx="68" cy="86.5" rx="4.1" ry="3.7"/>
			<path id="XMLID_463_" class="st1" d="M106.6,86.5c0,2.1-1.8,3.7-4.1,3.7c-2.3,0-4.1-1.7-4.1-3.7c0-2.1,1.8-3.7,4.1-3.7
				C104.7,82.8,106.6,84.5,106.6,86.5z"/>
			<path id="XMLID_462_" class="st1" d="M141,86.5c0,2.1-1.8,3.7-4.1,3.7c-2.3,0-4.1-1.7-4.1-3.7c0-2.1,1.8-3.7,4.1-3.7
				C139.2,82.8,141,84.5,141,86.5z"/>
			<ellipse id="XMLID_461_" class="st1" cx="171.4" cy="86.5" rx="4.1" ry="3.7"/>
			<ellipse id="XMLID_460_" class="st1" cx="205.9" cy="86.5" rx="4.1" ry="3.7"/>
			<ellipse id="XMLID_459_" class="st1" cx="240.4" cy="86.5" rx="4.1" ry="3.7"/>
			<ellipse id="XMLID_458_" class="st1" cx="274.8" cy="86.5" rx="4.1" ry="3.7"/>
			<ellipse id="XMLID_457_" class="st1" cx="309.3" cy="86.5" rx="4.1" ry="3.7"/>
			<ellipse id="XMLID_456_" class="st1" cx="343.8" cy="86.5" rx="4.1" ry="3.7"/>
			<path id="XMLID_455_" class="st1" d="M382.4,86.5c0,2.1-1.8,3.7-4.1,3.7c-2.3,0-4.1-1.7-4.1-3.7c0-2.1,1.8-3.7,4.1-3.7
				C380.5,82.8,382.4,84.5,382.4,86.5z"/>
			<path id="XMLID_454_" class="st1" d="M416.8,86.5c0,2.1-1.8,3.7-4.1,3.7c-2.3,0-4.1-1.7-4.1-3.7c0-2.1,1.8-3.7,4.1-3.7
				C415,82.8,416.8,84.5,416.8,86.5z"/>
			<path id="XMLID_453_" class="st1" d="M451.3,86.5c0,2.1-1.8,3.7-4.1,3.7c-2.3,0-4.1-1.7-4.1-3.7c0-2.1,1.8-3.7,4.1-3.7
				C449.5,82.8,451.3,84.5,451.3,86.5z"/>
			<ellipse id="XMLID_452_" class="st1" cx="481.7" cy="86.5" rx="4.1" ry="3.7"/>
			<ellipse id="XMLID_451_" class="st1" cx="516.2" cy="86.5" rx="4.1" ry="3.7"/>
			<path id="XMLID_450_" class="st1" d="M554.7,86.5c0,2.1-1.8,3.7-4.1,3.7c-2.3,0-4.1-1.7-4.1-3.7c0-2.1,1.8-3.7,4.1-3.7
				C552.9,82.8,554.7,84.5,554.7,86.5z"/>
			<path id="XMLID_449_" class="st1" d="M589.2,86.5c0,2.1-1.8,3.7-4.1,3.7s-4.1-1.7-4.1-3.7c0-2.1,1.8-3.7,4.1-3.7
				S589.2,84.5,589.2,86.5z"/>
			<path id="XMLID_448_" class="st1" d="M623.7,86.5c0,2.1-1.8,3.7-4.1,3.7s-4.1-1.7-4.1-3.7c0-2.1,1.8-3.7,4.1-3.7
				S623.7,84.5,623.7,86.5z"/>
		</g>
		<g id="XMLID_423_">
			<path id="XMLID_446_" class="st1" d="M-150.4,100.5c0,2.1-1.8,3.7-4.1,3.7c-2.3,0-4.1-1.7-4.1-3.7c0-2.1,1.8-3.7,4.1-3.7
				C-152.3,96.8-150.4,98.5-150.4,100.5z"/>
			<path id="XMLID_445_" class="st1" d="M-118.2,100.5c0,2.1-1.8,3.7-4.1,3.7c-2.3,0-4.1-1.7-4.1-3.7c0-2.1,1.8-3.7,4.1-3.7
				C-120,96.8-118.2,98.5-118.2,100.5z"/>
			<path id="XMLID_444_" class="st1" d="M-83.7,100.5c0,2.1-1.8,3.7-4.1,3.7s-4.1-1.7-4.1-3.7c0-2.1,1.8-3.7,4.1-3.7
				S-83.7,98.5-83.7,100.5z"/>
			<path id="XMLID_443_" class="st1" d="M-49.3,100.5c0,2.1-1.8,3.7-4.1,3.7c-2.3,0-4.1-1.7-4.1-3.7c0-2.1,1.8-3.7,4.1-3.7
				C-51.1,96.8-49.3,98.5-49.3,100.5z"/>
			<path id="XMLID_442_" class="st1" d="M-14.8,100.5c0,2.1-1.8,3.7-4.1,3.7c-2.3,0-4.1-1.7-4.1-3.7c0-2.1,1.8-3.7,4.1-3.7
				C-16.6,96.8-14.8,98.5-14.8,100.5z"/>
			<path id="XMLID_441_" class="st1" d="M19.7,100.5c0,2.1-1.8,3.7-4.1,3.7c-2.3,0-4.1-1.7-4.1-3.7c0-2.1,1.8-3.7,4.1-3.7
				C17.9,96.8,19.7,98.5,19.7,100.5z"/>
			<path id="XMLID_440_" class="st1" d="M54.2,100.5c0,2.1-1.8,3.7-4.1,3.7c-2.3,0-4.1-1.7-4.1-3.7c0-2.1,1.8-3.7,4.1-3.7
				C52.3,96.8,54.2,98.5,54.2,100.5z"/>
			<path id="XMLID_439_" class="st1" d="M88.6,100.5c0,2.1-1.8,3.7-4.1,3.7c-2.3,0-4.1-1.7-4.1-3.7c0-2.1,1.8-3.7,4.1-3.7
				C86.8,96.8,88.6,98.5,88.6,100.5z"/>
			<path id="XMLID_438_" class="st1" d="M123.1,100.5c0,2.1-1.8,3.7-4.1,3.7c-2.3,0-4.1-1.7-4.1-3.7c0-2.1,1.8-3.7,4.1-3.7
				C121.3,96.8,123.1,98.5,123.1,100.5z"/>
			<path id="XMLID_437_" class="st1" d="M157.6,100.5c0,2.1-1.8,3.7-4.1,3.7c-2.3,0-4.1-1.7-4.1-3.7c0-2.1,1.8-3.7,4.1-3.7
				C155.8,96.8,157.6,98.5,157.6,100.5z"/>
			<path id="XMLID_436_" class="st1" d="M192.1,100.5c0,2.1-1.8,3.7-4.1,3.7c-2.3,0-4.1-1.7-4.1-3.7c0-2.1,1.8-3.7,4.1-3.7
				C190.2,96.8,192.1,98.5,192.1,100.5z"/>
			<path id="XMLID_435_" class="st1" d="M226.5,100.5c0,2.1-1.8,3.7-4.1,3.7c-2.3,0-4.1-1.7-4.1-3.7c0-2.1,1.8-3.7,4.1-3.7
				C224.7,96.8,226.5,98.5,226.5,100.5z"/>
			<path id="XMLID_434_" class="st1" d="M261,100.5c0,2.1-1.8,3.7-4.1,3.7c-2.3,0-4.1-1.7-4.1-3.7c0-2.1,1.8-3.7,4.1-3.7
				C259.2,96.8,261,98.5,261,100.5z"/>
			<path id="XMLID_433_" class="st1" d="M295.5,100.5c0,2.1-1.8,3.7-4.1,3.7c-2.3,0-4.1-1.7-4.1-3.7c0-2.1,1.8-3.7,4.1-3.7
				C293.7,96.8,295.5,98.5,295.5,100.5z"/>
			<path id="XMLID_432_" class="st1" d="M330,100.5c0,2.1-1.8,3.7-4.1,3.7c-2.3,0-4.1-1.7-4.1-3.7c0-2.1,1.8-3.7,4.1-3.7
				C328.1,96.8,330,98.5,330,100.5z"/>
			<path id="XMLID_431_" class="st1" d="M364.4,100.5c0,2.1-1.8,3.7-4.1,3.7s-4.1-1.7-4.1-3.7c0-2.1,1.8-3.7,4.1-3.7
				S364.4,98.5,364.4,100.5z"/>
			<path id="XMLID_430_" class="st1" d="M398.9,100.5c0,2.1-1.8,3.7-4.1,3.7c-2.3,0-4.1-1.7-4.1-3.7c0-2.1,1.8-3.7,4.1-3.7
				C397.1,96.8,398.9,98.5,398.9,100.5z"/>
			<path id="XMLID_429_" class="st1" d="M433.4,100.5c0,2.1-1.8,3.7-4.1,3.7c-2.3,0-4.1-1.7-4.1-3.7c0-2.1,1.8-3.7,4.1-3.7
				C431.6,96.8,433.4,98.5,433.4,100.5z"/>
			<path id="XMLID_428_" class="st1" d="M467.9,100.5c0,2.1-1.8,3.7-4.1,3.7c-2.3,0-4.1-1.7-4.1-3.7c0-2.1,1.8-3.7,4.1-3.7
				C466,96.8,467.9,98.5,467.9,100.5z"/>
			<path id="XMLID_427_" class="st1" d="M502.3,100.5c0,2.1-1.8,3.7-4.1,3.7s-4.1-1.7-4.1-3.7c0-2.1,1.8-3.7,4.1-3.7
				S502.3,98.5,502.3,100.5z"/>
			<path id="XMLID_426_" class="st1" d="M536.8,100.5c0,2.1-1.8,3.7-4.1,3.7c-2.3,0-4.1-1.7-4.1-3.7c0-2.1,1.8-3.7,4.1-3.7
				C535,96.8,536.8,98.5,536.8,100.5z"/>
			<path id="XMLID_425_" class="st1" d="M571.3,100.5c0,2.1-1.8,3.7-4.1,3.7c-2.3,0-4.1-1.7-4.1-3.7c0-2.1,1.8-3.7,4.1-3.7
				C569.5,96.8,571.3,98.5,571.3,100.5z"/>
			<path id="XMLID_424_" class="st1" d="M605.8,100.5c0,2.1-1.8,3.7-4.1,3.7c-2.3,0-4.1-1.7-4.1-3.7c0-2.1,1.8-3.7,4.1-3.7
				C603.9,96.8,605.8,98.5,605.8,100.5z"/>
		</g>
		<g id="XMLID_398_">
			<path id="XMLID_422_" class="st1" d="M-132.5,115c0,2.1-1.8,3.7-4.1,3.7c-2.3,0-4.1-1.7-4.1-3.7c0-2.1,1.8-3.7,4.1-3.7
				C-134.3,111.3-132.5,113-132.5,115z"/>
			<path id="XMLID_421_" class="st1" d="M-170.8,115c0,2.1-1.8,3.7-4.1,3.7c-2.3,0-4.1-1.7-4.1-3.7c0-2.1,1.8-3.7,4.1-3.7
				C-172.6,111.3-170.8,113-170.8,115z"/>
			<path id="XMLID_420_" class="st1" d="M-100.2,115c0,2.1-1.8,3.7-4.1,3.7c-2.3,0-4.1-1.7-4.1-3.7c0-2.1,1.8-3.7,4.1-3.7
				C-102.1,111.3-100.2,113-100.2,115z"/>
			<path id="XMLID_419_" class="st1" d="M-65.8,115c0,2.1-1.8,3.7-4.1,3.7c-2.3,0-4.1-1.7-4.1-3.7c0-2.1,1.8-3.7,4.1-3.7
				C-67.6,111.3-65.8,113-65.8,115z"/>
			<path id="XMLID_418_" class="st1" d="M-31.3,115c0,2.1-1.8,3.7-4.1,3.7c-2.3,0-4.1-1.7-4.1-3.7c0-2.1,1.8-3.7,4.1-3.7
				C-33.1,111.3-31.3,113-31.3,115z"/>
			<path id="XMLID_417_" class="st1" d="M3.2,115c0,2.1-1.8,3.7-4.1,3.7c-2.3,0-4.1-1.7-4.1-3.7c0-2.1,1.8-3.7,4.1-3.7
				C1.4,111.3,3.2,113,3.2,115z"/>
			<path id="XMLID_416_" class="st1" d="M37.7,115c0,2.1-1.8,3.7-4.1,3.7c-2.3,0-4.1-1.7-4.1-3.7c0-2.1,1.8-3.7,4.1-3.7
				C35.8,111.3,37.7,113,37.7,115z"/>
			<path id="XMLID_415_" class="st1" d="M72.1,115c0,2.1-1.8,3.7-4.1,3.7c-2.3,0-4.1-1.7-4.1-3.7c0-2.1,1.8-3.7,4.1-3.7
				C70.3,111.3,72.1,113,72.1,115z"/>
			<path id="XMLID_414_" class="st1" d="M106.6,115c0,2.1-1.8,3.7-4.1,3.7c-2.3,0-4.1-1.7-4.1-3.7c0-2.1,1.8-3.7,4.1-3.7
				C104.8,111.3,106.6,113,106.6,115z"/>
			<path id="XMLID_413_" class="st1" d="M141.1,115c0,2.1-1.8,3.7-4.1,3.7c-2.3,0-4.1-1.7-4.1-3.7c0-2.1,1.8-3.7,4.1-3.7
				C139.3,111.3,141.1,113,141.1,115z"/>
			<path id="XMLID_412_" class="st1" d="M175.6,115c0,2.1-1.8,3.7-4.1,3.7c-2.3,0-4.1-1.7-4.1-3.7c0-2.1,1.8-3.7,4.1-3.7
				C173.7,111.3,175.6,113,175.6,115z"/>
			<path id="XMLID_411_" class="st1" d="M210,115c0,2.1-1.8,3.7-4.1,3.7c-2.3,0-4.1-1.7-4.1-3.7c0-2.1,1.8-3.7,4.1-3.7
				C208.2,111.3,210,113,210,115z"/>
			<path id="XMLID_410_" class="st1" d="M244.5,115c0,2.1-1.8,3.7-4.1,3.7c-2.3,0-4.1-1.7-4.1-3.7c0-2.1,1.8-3.7,4.1-3.7
				C242.7,111.3,244.5,113,244.5,115z"/>
			<path id="XMLID_409_" class="st1" d="M279,115c0,2.1-1.8,3.7-4.1,3.7c-2.3,0-4.1-1.7-4.1-3.7c0-2.1,1.8-3.7,4.1-3.7
				C277.2,111.3,279,113,279,115z"/>
			<path id="XMLID_408_" class="st1" d="M313.5,115c0,2.1-1.8,3.7-4.1,3.7c-2.3,0-4.1-1.7-4.1-3.7c0-2.1,1.8-3.7,4.1-3.7
				C311.6,111.3,313.5,113,313.5,115z"/>
			<path id="XMLID_407_" class="st1" d="M347.9,115c0,2.1-1.8,3.7-4.1,3.7c-2.3,0-4.1-1.7-4.1-3.7c0-2.1,1.8-3.7,4.1-3.7
				C346.1,111.3,347.9,113,347.9,115z"/>
			<path id="XMLID_406_" class="st1" d="M382.4,115c0,2.1-1.8,3.7-4.1,3.7c-2.3,0-4.1-1.7-4.1-3.7c0-2.1,1.8-3.7,4.1-3.7
				C380.6,111.3,382.4,113,382.4,115z"/>
			<path id="XMLID_405_" class="st1" d="M416.9,115c0,2.1-1.8,3.7-4.1,3.7s-4.1-1.7-4.1-3.7c0-2.1,1.8-3.7,4.1-3.7
				S416.9,113,416.9,115z"/>
			<path id="XMLID_404_" class="st1" d="M451.4,115c0,2.1-1.8,3.7-4.1,3.7c-2.3,0-4.1-1.7-4.1-3.7c0-2.1,1.8-3.7,4.1-3.7
				C449.5,111.3,451.4,113,451.4,115z"/>
			<path id="XMLID_403_" class="st1" d="M485.8,115c0,2.1-1.8,3.7-4.1,3.7c-2.3,0-4.1-1.7-4.1-3.7c0-2.1,1.8-3.7,4.1-3.7
				C484,111.3,485.8,113,485.8,115z"/>
			<path id="XMLID_402_" class="st1" d="M520.3,115c0,2.1-1.8,3.7-4.1,3.7c-2.3,0-4.1-1.7-4.1-3.7c0-2.1,1.8-3.7,4.1-3.7
				C518.5,111.3,520.3,113,520.3,115z"/>
			<path id="XMLID_401_" class="st1" d="M554.8,115c0,2.1-1.8,3.7-4.1,3.7c-2.3,0-4.1-1.7-4.1-3.7c0-2.1,1.8-3.7,4.1-3.7
				C553,111.3,554.8,113,554.8,115z"/>
			<path id="XMLID_400_" class="st1" d="M589.3,115c0,2.1-1.8,3.7-4.1,3.7c-2.3,0-4.1-1.7-4.1-3.7c0-2.1,1.8-3.7,4.1-3.7
				C587.4,111.3,589.3,113,589.3,115z"/>
			<path id="XMLID_399_" class="st1" d="M623.7,115c0,2.1-1.8,3.7-4.1,3.7c-2.3,0-4.1-1.7-4.1-3.7c0-2.1,1.8-3.7,4.1-3.7
				C621.9,111.3,623.7,113,623.7,115z"/>
		</g>
		<g id="XMLID_374_">
			<ellipse id="XMLID_397_" class="st1" cx="-154.5" cy="129" rx="4.1" ry="3.7"/>
			<ellipse id="XMLID_396_" class="st1" cx="-122.2" cy="129" rx="4.1" ry="3.7"/>
			<ellipse id="XMLID_395_" class="st1" cx="-87.8" cy="129" rx="4.1" ry="3.7"/>
			<ellipse id="XMLID_394_" class="st1" cx="-53.3" cy="129" rx="4.1" ry="3.7"/>
			<ellipse id="XMLID_393_" class="st1" cx="-18.8" cy="129" rx="4.1" ry="3.7"/>
			<ellipse id="XMLID_392_" class="st1" cx="15.7" cy="129" rx="4.1" ry="3.7"/>
			<path id="XMLID_391_" class="st1" d="M54.2,129c0,2.1-1.8,3.7-4.1,3.7c-2.3,0-4.1-1.7-4.1-3.7c0-2.1,1.8-3.7,4.1-3.7
				C52.4,125.3,54.2,127,54.2,129z"/>
			<ellipse id="XMLID_390_" class="st1" cx="84.6" cy="129" rx="4.1" ry="3.7"/>
			<ellipse id="XMLID_389_" class="st1" cx="119.1" cy="129" rx="4.1" ry="3.7"/>
			<ellipse id="XMLID_388_" class="st1" cx="153.6" cy="129" rx="4.1" ry="3.7"/>
			<ellipse id="XMLID_387_" class="st1" cx="188" cy="129" rx="4.1" ry="3.7"/>
			<ellipse id="XMLID_386_" class="st1" cx="222.5" cy="129" rx="4.1" ry="3.7"/>
			<ellipse id="XMLID_385_" class="st1" cx="257" cy="129" rx="4.1" ry="3.7"/>
			<path id="XMLID_384_" class="st1" d="M295.6,129c0,2.1-1.8,3.7-4.1,3.7c-2.3,0-4.1-1.7-4.1-3.7c0-2.1,1.8-3.7,4.1-3.7
				C293.7,125.3,295.6,127,295.6,129z"/>
			<ellipse id="XMLID_383_" class="st1" cx="325.9" cy="129" rx="4.1" ry="3.7"/>
			<ellipse id="XMLID_382_" class="st1" cx="360.4" cy="129" rx="4.1" ry="3.7"/>
			<ellipse id="XMLID_381_" class="st1" cx="394.9" cy="129" rx="4.1" ry="3.7"/>
			<ellipse id="XMLID_380_" class="st1" cx="429.4" cy="129" rx="4.1" ry="3.7"/>
			<ellipse id="XMLID_379_" class="st1" cx="463.8" cy="129" rx="4.1" ry="3.7"/>
			<ellipse id="XMLID_378_" class="st1" cx="498.3" cy="129" rx="4.1" ry="3.7"/>
			<ellipse id="XMLID_377_" class="st1" cx="532.8" cy="129" rx="4.1" ry="3.7"/>
			<path id="XMLID_376_" class="st1" d="M571.4,129c0,2.1-1.8,3.7-4.1,3.7c-2.3,0-4.1-1.7-4.1-3.7c0-2.1,1.8-3.7,4.1-3.7
				C569.5,125.3,571.4,127,571.4,129z"/>
			<path id="XMLID_375_" class="st1" d="M605.8,129c0,2.1-1.8,3.7-4.1,3.7c-2.3,0-4.1-1.7-4.1-3.7c0-2.1,1.8-3.7,4.1-3.7
				C604,125.3,605.8,127,605.8,129z"/>
		</g>
		<g id="XMLID_349_">
			<ellipse id="XMLID_373_" class="st1" cx="-136.5" cy="143.5" rx="4.1" ry="3.7"/>
			<ellipse id="XMLID_372_" class="st1" cx="-174.8" cy="143.5" rx="4.1" ry="3.7"/>
			<path id="XMLID_371_" class="st1" d="M-100.2,143.5c0,2.1-1.8,3.7-4.1,3.7c-2.3,0-4.1-1.7-4.1-3.7c0-2.1,1.8-3.7,4.1-3.7
				C-102,139.8-100.2,141.4-100.2,143.5z"/>
			<ellipse id="XMLID_370_" class="st1" cx="-69.8" cy="143.5" rx="4.1" ry="3.7"/>
			<path id="XMLID_369_" class="st1" d="M-31.2,143.5c0,2.1-1.8,3.7-4.1,3.7c-2.3,0-4.1-1.7-4.1-3.7c0-2.1,1.8-3.7,4.1-3.7
				C-33.1,139.8-31.2,141.4-31.2,143.5z"/>
			<ellipse id="XMLID_368_" class="st1" cx="-0.8" cy="143.5" rx="4.1" ry="3.7"/>
			<path id="XMLID_367_" class="st1" d="M37.7,143.5c0,2.1-1.8,3.7-4.1,3.7c-2.3,0-4.1-1.7-4.1-3.7c0-2.1,1.8-3.7,4.1-3.7
				C35.9,139.8,37.7,141.4,37.7,143.5z"/>
			<ellipse id="XMLID_366_" class="st1" cx="68.1" cy="143.5" rx="4.1" ry="3.7"/>
			<path id="XMLID_365_" class="st1" d="M106.7,143.5c0,2.1-1.8,3.7-4.1,3.7c-2.3,0-4.1-1.7-4.1-3.7c0-2.1,1.8-3.7,4.1-3.7
				C104.8,139.8,106.7,141.4,106.7,143.5z"/>
			<ellipse id="XMLID_364_" class="st1" cx="137.1" cy="143.5" rx="4.1" ry="3.7"/>
			<ellipse id="XMLID_363_" class="st1" cx="171.5" cy="143.5" rx="4.1" ry="3.7"/>
			<path id="XMLID_362_" class="st1" d="M210.1,143.5c0,2.1-1.8,3.7-4.1,3.7c-2.3,0-4.1-1.7-4.1-3.7c0-2.1,1.8-3.7,4.1-3.7
				C208.3,139.8,210.1,141.4,210.1,143.5z"/>
			<ellipse id="XMLID_361_" class="st1" cx="240.5" cy="143.5" rx="4.1" ry="3.7"/>
			<path id="XMLID_360_" class="st1" d="M279.1,143.5c0,2.1-1.8,3.7-4.1,3.7c-2.3,0-4.1-1.7-4.1-3.7c0-2.1,1.8-3.7,4.1-3.7
				C277.2,139.8,279.1,141.4,279.1,143.5z"/>
			<ellipse id="XMLID_359_" class="st1" cx="309.4" cy="143.5" rx="4.1" ry="3.7"/>
			<path id="XMLID_358_" class="st1" d="M348,143.5c0,2.1-1.8,3.7-4.1,3.7c-2.3,0-4.1-1.7-4.1-3.7c0-2.1,1.8-3.7,4.1-3.7
				C346.2,139.8,348,141.4,348,143.5z"/>
			<ellipse id="XMLID_357_" class="st1" cx="378.4" cy="143.5" rx="4.1" ry="3.7"/>
			<path id="XMLID_356_" class="st1" d="M417,143.5c0,2.1-1.8,3.7-4.1,3.7c-2.3,0-4.1-1.7-4.1-3.7c0-2.1,1.8-3.7,4.1-3.7
				C415.1,139.8,417,141.4,417,143.5z"/>
			<ellipse id="XMLID_355_" class="st1" cx="447.3" cy="143.5" rx="4.1" ry="3.7"/>
			<ellipse id="XMLID_354_" class="st1" cx="481.8" cy="143.5" rx="4.1" ry="3.7"/>
			<path id="XMLID_353_" class="st1" d="M520.4,143.5c0,2.1-1.8,3.7-4.1,3.7c-2.3,0-4.1-1.7-4.1-3.7c0-2.1,1.8-3.7,4.1-3.7
				C518.5,139.8,520.4,141.4,520.4,143.5z"/>
			<ellipse id="XMLID_352_" class="st1" cx="550.8" cy="143.5" rx="4.1" ry="3.7"/>
			<path id="XMLID_351_" class="st1" d="M589.3,143.5c0,2.1-1.8,3.7-4.1,3.7c-2.3,0-4.1-1.7-4.1-3.7c0-2.1,1.8-3.7,4.1-3.7
				C587.5,139.8,589.3,141.4,589.3,143.5z"/>
			<ellipse id="XMLID_350_" class="st1" cx="619.7" cy="143.5" rx="4.1" ry="3.7"/>
		</g>
		<g id="XMLID_325_">
			<path id="XMLID_348_" class="st1" d="M-150.3,157.5c0,2.1-1.8,3.7-4.1,3.7c-2.3,0-4.1-1.7-4.1-3.7c0-2.1,1.8-3.7,4.1-3.7
				C-152.1,153.8-150.3,155.4-150.3,157.5z"/>
			<path id="XMLID_347_" class="st1" d="M-118.1,157.5c0,2.1-1.8,3.7-4.1,3.7c-2.3,0-4.1-1.7-4.1-3.7c0-2.1,1.8-3.7,4.1-3.7
				C-119.9,153.8-118.1,155.4-118.1,157.5z"/>
			<path id="XMLID_346_" class="st1" d="M-83.6,157.5c0,2.1-1.8,3.7-4.1,3.7s-4.1-1.7-4.1-3.7c0-2.1,1.8-3.7,4.1-3.7
				S-83.6,155.4-83.6,157.5z"/>
			<path id="XMLID_345_" class="st1" d="M-49.1,157.5c0,2.1-1.8,3.7-4.1,3.7c-2.3,0-4.1-1.7-4.1-3.7c0-2.1,1.8-3.7,4.1-3.7
				C-51,153.8-49.1,155.4-49.1,157.5z"/>
			<path id="XMLID_344_" class="st1" d="M-14.7,157.5c0,2.1-1.8,3.7-4.1,3.7s-4.1-1.7-4.1-3.7c0-2.1,1.8-3.7,4.1-3.7
				S-14.7,155.4-14.7,157.5z"/>
			<path id="XMLID_343_" class="st1" d="M19.8,157.5c0,2.1-1.8,3.7-4.1,3.7c-2.3,0-4.1-1.7-4.1-3.7c0-2.1,1.8-3.7,4.1-3.7
				C18,153.8,19.8,155.4,19.8,157.5z"/>
			<path id="XMLID_342_" class="st1" d="M54.3,157.5c0,2.1-1.8,3.7-4.1,3.7s-4.1-1.7-4.1-3.7c0-2.1,1.8-3.7,4.1-3.7
				S54.3,155.4,54.3,157.5z"/>
			<path id="XMLID_341_" class="st1" d="M88.8,157.5c0,2.1-1.8,3.7-4.1,3.7c-2.3,0-4.1-1.7-4.1-3.7c0-2.1,1.8-3.7,4.1-3.7
				C86.9,153.8,88.8,155.4,88.8,157.5z"/>
			<path id="XMLID_340_" class="st1" d="M123.2,157.5c0,2.1-1.8,3.7-4.1,3.7c-2.3,0-4.1-1.7-4.1-3.7c0-2.1,1.8-3.7,4.1-3.7
				C121.4,153.8,123.2,155.4,123.2,157.5z"/>
			<path id="XMLID_339_" class="st1" d="M157.7,157.5c0,2.1-1.8,3.7-4.1,3.7c-2.3,0-4.1-1.7-4.1-3.7c0-2.1,1.8-3.7,4.1-3.7
				C155.9,153.8,157.7,155.4,157.7,157.5z"/>
			<path id="XMLID_338_" class="st1" d="M192.2,157.5c0,2.1-1.8,3.7-4.1,3.7c-2.3,0-4.1-1.7-4.1-3.7c0-2.1,1.8-3.7,4.1-3.7
				C190.4,153.8,192.2,155.4,192.2,157.5z"/>
			<path id="XMLID_337_" class="st1" d="M226.7,157.5c0,2.1-1.8,3.7-4.1,3.7c-2.3,0-4.1-1.7-4.1-3.7c0-2.1,1.8-3.7,4.1-3.7
				C224.8,153.8,226.7,155.4,226.7,157.5z"/>
			<path id="XMLID_336_" class="st1" d="M261.1,157.5c0,2.1-1.8,3.7-4.1,3.7c-2.3,0-4.1-1.7-4.1-3.7c0-2.1,1.8-3.7,4.1-3.7
				C259.3,153.8,261.1,155.4,261.1,157.5z"/>
			<path id="XMLID_335_" class="st1" d="M295.6,157.5c0,2.1-1.8,3.7-4.1,3.7c-2.3,0-4.1-1.7-4.1-3.7c0-2.1,1.8-3.7,4.1-3.7
				C293.8,153.8,295.6,155.4,295.6,157.5z"/>
			<path id="XMLID_334_" class="st1" d="M330.1,157.5c0,2.1-1.8,3.7-4.1,3.7c-2.3,0-4.1-1.7-4.1-3.7c0-2.1,1.8-3.7,4.1-3.7
				C328.3,153.8,330.1,155.4,330.1,157.5z"/>
			<path id="XMLID_333_" class="st1" d="M364.6,157.5c0,2.1-1.8,3.7-4.1,3.7c-2.3,0-4.1-1.7-4.1-3.7c0-2.1,1.8-3.7,4.1-3.7
				C362.7,153.8,364.6,155.4,364.6,157.5z"/>
			<path id="XMLID_332_" class="st1" d="M399,157.5c0,2.1-1.8,3.7-4.1,3.7s-4.1-1.7-4.1-3.7c0-2.1,1.8-3.7,4.1-3.7
				S399,155.4,399,157.5z"/>
			<path id="XMLID_331_" class="st1" d="M433.5,157.5c0,2.1-1.8,3.7-4.1,3.7c-2.3,0-4.1-1.7-4.1-3.7c0-2.1,1.8-3.7,4.1-3.7
				C431.7,153.8,433.5,155.4,433.5,157.5z"/>
			<path id="XMLID_330_" class="st1" d="M468,157.5c0,2.1-1.8,3.7-4.1,3.7c-2.3,0-4.1-1.7-4.1-3.7c0-2.1,1.8-3.7,4.1-3.7
				C466.2,153.8,468,155.4,468,157.5z"/>
			<path id="XMLID_329_" class="st1" d="M502.5,157.5c0,2.1-1.8,3.7-4.1,3.7c-2.3,0-4.1-1.7-4.1-3.7c0-2.1,1.8-3.7,4.1-3.7
				C500.6,153.8,502.5,155.4,502.5,157.5z"/>
			<path id="XMLID_328_" class="st1" d="M536.9,157.5c0,2.1-1.8,3.7-4.1,3.7s-4.1-1.7-4.1-3.7c0-2.1,1.8-3.7,4.1-3.7
				S536.9,155.4,536.9,157.5z"/>
			<path id="XMLID_327_" class="st1" d="M571.4,157.5c0,2.1-1.8,3.7-4.1,3.7c-2.3,0-4.1-1.7-4.1-3.7c0-2.1,1.8-3.7,4.1-3.7
				C569.6,153.8,571.4,155.4,571.4,157.5z"/>
			<path id="XMLID_326_" class="st1" d="M605.9,157.5c0,2.1-1.8,3.7-4.1,3.7c-2.3,0-4.1-1.7-4.1-3.7c0-2.1,1.8-3.7,4.1-3.7
				C604.1,153.8,605.9,155.4,605.9,157.5z"/>
		</g>
		<g id="XMLID_300_">
			<ellipse id="XMLID_324_" class="st1" cx="-136.4" cy="172" rx="4.1" ry="3.7"/>
			<ellipse id="XMLID_323_" class="st1" cx="-174.8" cy="172" rx="4.1" ry="3.7"/>
			<ellipse id="XMLID_322_" class="st1" cx="-104.2" cy="172" rx="4.1" ry="3.7"/>
			<ellipse id="XMLID_321_" class="st1" cx="-69.7" cy="172" rx="4.1" ry="3.7"/>
			<ellipse id="XMLID_320_" class="st1" cx="-35.3" cy="172" rx="4.1" ry="3.7"/>
			<path id="XMLID_319_" class="st1" d="M3.3,172c0,2.1-1.8,3.7-4.1,3.7c-2.3,0-4.1-1.7-4.1-3.7c0-2.1,1.8-3.7,4.1-3.7
				C1.5,168.2,3.3,169.9,3.3,172z"/>
			<ellipse id="XMLID_318_" class="st1" cx="33.7" cy="172" rx="4.1" ry="3.7"/>
			<ellipse id="XMLID_317_" class="st1" cx="68.2" cy="172" rx="4.1" ry="3.7"/>
			<ellipse id="XMLID_316_" class="st1" cx="102.6" cy="172" rx="4.1" ry="3.7"/>
			<ellipse id="XMLID_315_" class="st1" cx="137.1" cy="172" rx="4.1" ry="3.7"/>
			<ellipse id="XMLID_314_" class="st1" cx="171.6" cy="172" rx="4.1" ry="3.7"/>
			<ellipse id="XMLID_313_" class="st1" cx="206.1" cy="172" rx="4.1" ry="3.7"/>
			<ellipse id="XMLID_312_" class="st1" cx="240.5" cy="172" rx="4.1" ry="3.7"/>
			<ellipse id="XMLID_311_" class="st1" cx="275" cy="172" rx="4.1" ry="3.7"/>
			<ellipse id="XMLID_310_" class="st1" cx="309.5" cy="172" rx="4.1" ry="3.7"/>
			<ellipse id="XMLID_309_" class="st1" cx="344" cy="172" rx="4.1" ry="3.7"/>
			<ellipse id="XMLID_308_" class="st1" cx="378.4" cy="172" rx="4.1" ry="3.7"/>
			<path id="XMLID_307_" class="st1" d="M417,172c0,2.1-1.8,3.7-4.1,3.7c-2.3,0-4.1-1.7-4.1-3.7c0-2.1,1.8-3.7,4.1-3.7
				C415.2,168.2,417,169.9,417,172z"/>
			<ellipse id="XMLID_306_" class="st1" cx="447.4" cy="172" rx="4.1" ry="3.7"/>
			<ellipse id="XMLID_305_" class="st1" cx="481.9" cy="172" rx="4.1" ry="3.7"/>
			<ellipse id="XMLID_304_" class="st1" cx="516.3" cy="172" rx="4.1" ry="3.7"/>
			<ellipse id="XMLID_303_" class="st1" cx="550.8" cy="172" rx="4.1" ry="3.7"/>
			<ellipse id="XMLID_302_" class="st1" cx="585.3" cy="172" rx="4.1" ry="3.7"/>
			<ellipse id="XMLID_301_" class="st1" cx="619.8" cy="172" rx="4.1" ry="3.7"/>
		</g>
		<g id="XMLID_276_">
			<path id="XMLID_299_" class="st1" d="M-150.2,186c0,2.1-1.8,3.7-4.1,3.7c-2.3,0-4.1-1.7-4.1-3.7c0-2.1,1.8-3.7,4.1-3.7
				C-152.1,182.2-150.2,183.9-150.2,186z"/>
			<path id="XMLID_298_" class="st1" d="M-118,186c0,2.1-1.8,3.7-4.1,3.7c-2.3,0-4.1-1.7-4.1-3.7c0-2.1,1.8-3.7,4.1-3.7
				C-119.9,182.2-118,183.9-118,186z"/>
			<path id="XMLID_297_" class="st1" d="M-83.5,186c0,2.1-1.8,3.7-4.1,3.7c-2.3,0-4.1-1.7-4.1-3.7c0-2.1,1.8-3.7,4.1-3.7
				C-85.4,182.2-83.5,183.9-83.5,186z"/>
			<path id="XMLID_296_" class="st1" d="M-49.1,186c0,2.1-1.8,3.7-4.1,3.7c-2.3,0-4.1-1.7-4.1-3.7c0-2.1,1.8-3.7,4.1-3.7
				C-50.9,182.2-49.1,183.9-49.1,186z"/>
			<path id="XMLID_295_" class="st1" d="M-14.6,186c0,2.1-1.8,3.7-4.1,3.7c-2.3,0-4.1-1.7-4.1-3.7c0-2.1,1.8-3.7,4.1-3.7
				C-16.4,182.2-14.6,183.9-14.6,186z"/>
			<path id="XMLID_294_" class="st1" d="M19.9,186c0,2.1-1.8,3.7-4.1,3.7c-2.3,0-4.1-1.7-4.1-3.7c0-2.1,1.8-3.7,4.1-3.7
				C18,182.2,19.9,183.9,19.9,186z"/>
			<path id="XMLID_293_" class="st1" d="M54.3,186c0,2.1-1.8,3.7-4.1,3.7c-2.3,0-4.1-1.7-4.1-3.7c0-2.1,1.8-3.7,4.1-3.7
				C52.5,182.2,54.3,183.9,54.3,186z"/>
			<path id="XMLID_292_" class="st1" d="M88.8,186c0,2.1-1.8,3.7-4.1,3.7c-2.3,0-4.1-1.7-4.1-3.7c0-2.1,1.8-3.7,4.1-3.7
				C87,182.2,88.8,183.9,88.8,186z"/>
			<path id="XMLID_291_" class="st1" d="M123.3,186c0,2.1-1.8,3.7-4.1,3.7c-2.3,0-4.1-1.7-4.1-3.7c0-2.1,1.8-3.7,4.1-3.7
				C121.5,182.2,123.3,183.9,123.3,186z"/>
			<path id="XMLID_290_" class="st1" d="M157.8,186c0,2.1-1.8,3.7-4.1,3.7c-2.3,0-4.1-1.7-4.1-3.7c0-2.1,1.8-3.7,4.1-3.7
				C155.9,182.2,157.8,183.9,157.8,186z"/>
			<path id="XMLID_289_" class="st1" d="M192.3,186c0,2.1-1.8,3.7-4.1,3.7c-2.3,0-4.1-1.7-4.1-3.7c0-2.1,1.8-3.7,4.1-3.7
				C190.4,182.2,192.3,183.9,192.3,186z"/>
			<path id="XMLID_288_" class="st1" d="M226.7,186c0,2.1-1.8,3.7-4.1,3.7c-2.3,0-4.1-1.7-4.1-3.7c0-2.1,1.8-3.7,4.1-3.7
				C224.9,182.2,226.7,183.9,226.7,186z"/>
			<path id="XMLID_287_" class="st1" d="M261.2,186c0,2.1-1.8,3.7-4.1,3.7c-2.3,0-4.1-1.7-4.1-3.7c0-2.1,1.8-3.7,4.1-3.7
				C259.4,182.2,261.2,183.9,261.2,186z"/>
			<path id="XMLID_286_" class="st1" d="M295.7,186c0,2.1-1.8,3.7-4.1,3.7c-2.3,0-4.1-1.7-4.1-3.7c0-2.1,1.8-3.7,4.1-3.7
				C293.8,182.2,295.7,183.9,295.7,186z"/>
			<path id="XMLID_285_" class="st1" d="M330.2,186c0,2.1-1.8,3.7-4.1,3.7c-2.3,0-4.1-1.7-4.1-3.7c0-2.1,1.8-3.7,4.1-3.7
				C328.3,182.2,330.2,183.9,330.2,186z"/>
			<path id="XMLID_284_" class="st1" d="M364.6,186c0,2.1-1.8,3.7-4.1,3.7s-4.1-1.7-4.1-3.7c0-2.1,1.8-3.7,4.1-3.7
				S364.6,183.9,364.6,186z"/>
			<path id="XMLID_283_" class="st1" d="M399.1,186c0,2.1-1.8,3.7-4.1,3.7c-2.3,0-4.1-1.7-4.1-3.7c0-2.1,1.8-3.7,4.1-3.7
				C397.3,182.2,399.1,183.9,399.1,186z"/>
			<path id="XMLID_282_" class="st1" d="M433.6,186c0,2.1-1.8,3.7-4.1,3.7c-2.3,0-4.1-1.7-4.1-3.7c0-2.1,1.8-3.7,4.1-3.7
				C431.7,182.2,433.6,183.9,433.6,186z"/>
			<path id="XMLID_281_" class="st1" d="M468.1,186c0,2.1-1.8,3.7-4.1,3.7c-2.3,0-4.1-1.7-4.1-3.7c0-2.1,1.8-3.7,4.1-3.7
				C466.2,182.2,468.1,183.9,468.1,186z"/>
			<path id="XMLID_280_" class="st1" d="M502.5,186c0,2.1-1.8,3.7-4.1,3.7c-2.3,0-4.1-1.7-4.1-3.7c0-2.1,1.8-3.7,4.1-3.7
				C500.7,182.2,502.5,183.9,502.5,186z"/>
			<path id="XMLID_279_" class="st1" d="M537,186c0,2.1-1.8,3.7-4.1,3.7c-2.3,0-4.1-1.7-4.1-3.7c0-2.1,1.8-3.7,4.1-3.7
				C535.2,182.2,537,183.9,537,186z"/>
			<path id="XMLID_278_" class="st1" d="M571.5,186c0,2.1-1.8,3.7-4.1,3.7c-2.3,0-4.1-1.7-4.1-3.7c0-2.1,1.8-3.7,4.1-3.7
				C569.6,182.2,571.5,183.9,571.5,186z"/>
			<path id="XMLID_277_" class="st1" d="M606,186c0,2.1-1.8,3.7-4.1,3.7c-2.3,0-4.1-1.7-4.1-3.7c0-2.1,1.8-3.7,4.1-3.7
				C604.1,182.2,606,183.9,606,186z"/>
		</g>
		<g id="XMLID_251_">
			<path id="XMLID_275_" class="st1" d="M-132.3,200.4c0,2.1-1.8,3.7-4.1,3.7c-2.3,0-4.1-1.7-4.1-3.7c0-2.1,1.8-3.7,4.1-3.7
				C-134.1,196.7-132.3,198.4-132.3,200.4z"/>
			<ellipse id="XMLID_274_" class="st1" cx="-174.7" cy="200.4" rx="4.1" ry="3.7"/>
			<ellipse id="XMLID_273_" class="st1" cx="-104.1" cy="200.4" rx="4.1" ry="3.7"/>
			<ellipse id="XMLID_272_" class="st1" cx="-69.7" cy="200.4" rx="4.1" ry="3.7"/>
			<ellipse id="XMLID_271_" class="st1" cx="-35.2" cy="200.4" rx="4.1" ry="3.7"/>
			<ellipse id="XMLID_270_" class="st1" cx="-0.7" cy="200.4" rx="4.1" ry="3.7"/>
			<ellipse id="XMLID_269_" class="st1" cx="33.8" cy="200.4" rx="4.1" ry="3.7"/>
			<ellipse id="XMLID_268_" class="st1" cx="68.2" cy="200.4" rx="4.1" ry="3.7"/>
			<ellipse id="XMLID_267_" class="st1" cx="102.7" cy="200.4" rx="4.1" ry="3.7"/>
			<ellipse id="XMLID_266_" class="st1" cx="137.2" cy="200.4" rx="4.1" ry="3.7"/>
			<ellipse id="XMLID_265_" class="st1" cx="171.7" cy="200.4" rx="4.1" ry="3.7"/>
			<ellipse id="XMLID_264_" class="st1" cx="206.1" cy="200.4" rx="4.1" ry="3.7"/>
			<ellipse id="XMLID_263_" class="st1" cx="240.6" cy="200.4" rx="4.1" ry="3.7"/>
			<ellipse id="XMLID_262_" class="st1" cx="275.1" cy="200.4" rx="4.1" ry="3.7"/>
			<ellipse id="XMLID_261_" class="st1" cx="309.6" cy="200.4" rx="4.1" ry="3.7"/>
			<ellipse id="XMLID_260_" class="st1" cx="344" cy="200.4" rx="4.1" ry="3.7"/>
			<ellipse id="XMLID_259_" class="st1" cx="378.5" cy="200.4" rx="4.1" ry="3.7"/>
			<ellipse id="XMLID_258_" class="st1" cx="413" cy="200.4" rx="4.1" ry="3.7"/>
			<ellipse id="XMLID_257_" class="st1" cx="447.5" cy="200.4" rx="4.1" ry="3.7"/>
			<ellipse id="XMLID_256_" class="st1" cx="481.9" cy="200.4" rx="4.1" ry="3.7"/>
			<ellipse id="XMLID_255_" class="st1" cx="516.4" cy="200.4" rx="4.1" ry="3.7"/>
			<path id="XMLID_254_" class="st1" d="M555,200.4c0,2.1-1.8,3.7-4.1,3.7c-2.3,0-4.1-1.7-4.1-3.7c0-2.1,1.8-3.7,4.1-3.7
				C553.1,196.7,555,198.4,555,200.4z"/>
			<ellipse id="XMLID_253_" class="st1" cx="585.4" cy="200.4" rx="4.1" ry="3.7"/>
			<ellipse id="XMLID_252_" class="st1" cx="619.8" cy="200.4" rx="4.1" ry="3.7"/>
		</g>
		<g id="XMLID_227_">
			<ellipse id="XMLID_250_" class="st1" cx="-154.3" cy="214.4" rx="4.1" ry="3.7"/>
			<ellipse id="XMLID_249_" class="st1" cx="-122.1" cy="214.4" rx="4.1" ry="3.7"/>
			<ellipse id="XMLID_248_" class="st1" cx="-87.6" cy="214.4" rx="4.1" ry="3.7"/>
			<path id="XMLID_247_" class="st1" d="M-49,214.4c0,2.1-1.8,3.7-4.1,3.7c-2.3,0-4.1-1.7-4.1-3.7c0-2.1,1.8-3.7,4.1-3.7
				C-50.8,210.7-49,212.4-49,214.4z"/>
			<ellipse id="XMLID_246_" class="st1" cx="-18.6" cy="214.4" rx="4.1" ry="3.7"/>
			<ellipse id="XMLID_245_" class="st1" cx="15.8" cy="214.4" rx="4.1" ry="3.7"/>
			<ellipse id="XMLID_244_" class="st1" cx="50.3" cy="214.4" rx="4.1" ry="3.7"/>
			<ellipse id="XMLID_243_" class="st1" cx="84.8" cy="214.4" rx="4.1" ry="3.7"/>
			<ellipse id="XMLID_242_" class="st1" cx="119.3" cy="214.4" rx="4.1" ry="3.7"/>
			<ellipse id="XMLID_241_" class="st1" cx="153.7" cy="214.4" rx="4.1" ry="3.7"/>
			<ellipse id="XMLID_240_" class="st1" cx="188.2" cy="214.4" rx="4.1" ry="3.7"/>
			<ellipse id="XMLID_239_" class="st1" cx="222.7" cy="214.4" rx="4.1" ry="3.7"/>
			<ellipse id="XMLID_238_" class="st1" cx="257.2" cy="214.4" rx="4.1" ry="3.7"/>
			<ellipse id="XMLID_237_" class="st1" cx="291.6" cy="214.4" rx="4.1" ry="3.7"/>
			<ellipse id="XMLID_236_" class="st1" cx="326.1" cy="214.4" rx="4.1" ry="3.7"/>
			<ellipse id="XMLID_235_" class="st1" cx="360.6" cy="214.4" rx="4.1" ry="3.7"/>
			<ellipse id="XMLID_234_" class="st1" cx="395.1" cy="214.4" rx="4.1" ry="3.7"/>
			<ellipse id="XMLID_233_" class="st1" cx="429.5" cy="214.4" rx="4.1" ry="3.7"/>
			<ellipse id="XMLID_232_" class="st1" cx="464" cy="214.4" rx="4.1" ry="3.7"/>
			<ellipse id="XMLID_231_" class="st1" cx="498.5" cy="214.4" rx="4.1" ry="3.7"/>
			<ellipse id="XMLID_230_" class="st1" cx="533" cy="214.4" rx="4.1" ry="3.7"/>
			<ellipse id="XMLID_229_" class="st1" cx="567.4" cy="214.4" rx="4.1" ry="3.7"/>
			<ellipse id="XMLID_228_" class="st1" cx="601.9" cy="214.4" rx="4.1" ry="3.7"/>
		</g>
		<g id="XMLID_202_">
			<ellipse id="XMLID_226_" class="st1" cx="-136.3" cy="228.9" rx="4.1" ry="3.7"/>
			<ellipse id="XMLID_225_" class="st1" cx="-174.6" cy="228.9" rx="4.1" ry="3.7"/>
			<ellipse id="XMLID_224_" class="st1" cx="-104.1" cy="228.9" rx="4.1" ry="3.7"/>
			<ellipse id="XMLID_223_" class="st1" cx="-69.6" cy="228.9" rx="4.1" ry="3.7"/>
			<ellipse id="XMLID_222_" class="st1" cx="-35.1" cy="228.9" rx="4.1" ry="3.7"/>
			<ellipse id="XMLID_221_" class="st1" cx="-0.7" cy="228.9" rx="4.1" ry="3.7"/>
			<ellipse id="XMLID_220_" class="st1" cx="33.8" cy="228.9" rx="4.1" ry="3.7"/>
			<ellipse id="XMLID_219_" class="st1" cx="68.3" cy="228.9" rx="4.1" ry="3.7"/>
			<path id="XMLID_218_" class="st1" d="M106.9,228.9c0,2.1-1.8,3.7-4.1,3.7c-2.3,0-4.1-1.7-4.1-3.7c0-2.1,1.8-3.7,4.1-3.7
				C105,225.2,106.9,226.9,106.9,228.9z"/>
			<ellipse id="XMLID_217_" class="st1" cx="137.2" cy="228.9" rx="4.1" ry="3.7"/>
			<ellipse id="XMLID_216_" class="st1" cx="171.7" cy="228.9" rx="4.1" ry="3.7"/>
			<ellipse id="XMLID_215_" class="st1" cx="206.2" cy="228.9" rx="4.1" ry="3.7"/>
			<ellipse id="XMLID_214_" class="st1" cx="240.7" cy="228.9" rx="4.1" ry="3.7"/>
			<ellipse id="XMLID_213_" class="st1" cx="275.1" cy="228.9" rx="4.1" ry="3.7"/>
			<ellipse id="XMLID_212_" class="st1" cx="309.6" cy="228.9" rx="4.1" ry="3.7"/>
			<ellipse id="XMLID_211_" class="st1" cx="344.1" cy="228.9" rx="4.1" ry="3.7"/>
			<ellipse id="XMLID_210_" class="st1" cx="378.6" cy="228.9" rx="4.1" ry="3.7"/>
			<ellipse id="XMLID_209_" class="st1" cx="413" cy="228.9" rx="4.1" ry="3.7"/>
			<ellipse id="XMLID_208_" class="st1" cx="447.5" cy="228.9" rx="4.1" ry="3.7"/>
			<ellipse id="XMLID_207_" class="st1" cx="482" cy="228.9" rx="4.1" ry="3.7"/>
			<ellipse id="XMLID_206_" class="st1" cx="516.5" cy="228.9" rx="4.1" ry="3.7"/>
			<ellipse id="XMLID_205_" class="st1" cx="550.9" cy="228.9" rx="4.1" ry="3.7"/>
			<ellipse id="XMLID_204_" class="st1" cx="585.4" cy="228.9" rx="4.1" ry="3.7"/>
			<ellipse id="XMLID_203_" class="st1" cx="619.9" cy="228.9" rx="4.1" ry="3.7"/>
		</g>
		<g id="XMLID_178_">
			<ellipse id="XMLID_201_" class="st1" cx="-154.2" cy="242.9" rx="4.1" ry="3.7"/>
			<ellipse id="XMLID_200_" class="st1" cx="-122" cy="242.9" rx="4.1" ry="3.7"/>
			<ellipse id="XMLID_199_" class="st1" cx="-87.5" cy="242.9" rx="4.1" ry="3.7"/>
			<ellipse id="XMLID_198_" class="st1" cx="-53" cy="242.9" rx="4.1" ry="3.7"/>
			<ellipse id="XMLID_197_" class="st1" cx="-18.6" cy="242.9" rx="4.1" ry="3.7"/>
			<ellipse id="XMLID_196_" class="st1" cx="15.9" cy="242.9" rx="4.1" ry="3.7"/>
			<ellipse id="XMLID_195_" class="st1" cx="50.4" cy="242.9" rx="4.1" ry="3.7"/>
			<ellipse id="XMLID_194_" class="st1" cx="84.9" cy="242.9" rx="4.1" ry="3.7"/>
			<ellipse id="XMLID_193_" class="st1" cx="119.3" cy="242.9" rx="4.1" ry="3.7"/>
			<ellipse id="XMLID_192_" class="st1" cx="153.8" cy="242.9" rx="4.1" ry="3.7"/>
			<ellipse id="XMLID_191_" class="st1" cx="188.3" cy="242.9" rx="4.1" ry="3.7"/>
			<ellipse id="XMLID_190_" class="st1" cx="222.8" cy="242.9" rx="4.1" ry="3.7"/>
			<ellipse id="XMLID_189_" class="st1" cx="257.2" cy="242.9" rx="4.1" ry="3.7"/>
			<ellipse id="XMLID_188_" class="st1" cx="291.7" cy="242.9" rx="4.1" ry="3.7"/>
			<ellipse id="XMLID_187_" class="st1" cx="326.2" cy="242.9" rx="4.1" ry="3.7"/>
			<ellipse id="XMLID_186_" class="st1" cx="360.7" cy="242.9" rx="4.1" ry="3.7"/>
			<ellipse id="XMLID_185_" class="st1" cx="395.1" cy="242.9" rx="4.1" ry="3.7"/>
			<ellipse id="XMLID_184_" class="st1" cx="429.6" cy="242.9" rx="4.1" ry="3.7"/>
			<ellipse id="XMLID_183_" class="st1" cx="464.1" cy="242.9" rx="4.1" ry="3.7"/>
			<ellipse id="XMLID_182_" class="st1" cx="498.6" cy="242.9" rx="4.1" ry="3.7"/>
			<ellipse id="XMLID_181_" class="st1" cx="533" cy="242.9" rx="4.1" ry="3.7"/>
			<ellipse id="XMLID_180_" class="st1" cx="567.5" cy="242.9" rx="4.1" ry="3.7"/>
			<ellipse id="XMLID_179_" class="st1" cx="602" cy="242.9" rx="4.1" ry="3.7"/>
		</g>
		<g id="XMLID_153_">
			<path id="XMLID_177_" class="st1" d="M-132.1,257.4c0,2.1-1.8,3.7-4.1,3.7c-2.3,0-4.1-1.7-4.1-3.7c0-2.1,1.8-3.7,4.1-3.7
				C-134,253.7-132.1,255.3-132.1,257.4z"/>
			<path id="XMLID_176_" class="st1" d="M-170.5,257.4c0,2.1-1.8,3.7-4.1,3.7c-2.3,0-4.1-1.7-4.1-3.7c0-2.1,1.8-3.7,4.1-3.7
				C-172.3,253.7-170.5,255.3-170.5,257.4z"/>
			<path id="XMLID_175_" class="st1" d="M-99.9,257.4c0,2.1-1.8,3.7-4.1,3.7c-2.3,0-4.1-1.7-4.1-3.7c0-2.1,1.8-3.7,4.1-3.7
				C-101.8,253.7-99.9,255.3-99.9,257.4z"/>
			<path id="XMLID_174_" class="st1" d="M-65.5,257.4c0,2.1-1.8,3.7-4.1,3.7c-2.3,0-4.1-1.7-4.1-3.7c0-2.1,1.8-3.7,4.1-3.7
				C-67.3,253.7-65.5,255.3-65.5,257.4z"/>
			<path id="XMLID_173_" class="st1" d="M-31,257.4c0,2.1-1.8,3.7-4.1,3.7c-2.3,0-4.1-1.7-4.1-3.7c0-2.1,1.8-3.7,4.1-3.7
				C-32.8,253.7-31,255.3-31,257.4z"/>
			<path id="XMLID_172_" class="st1" d="M3.5,257.4c0,2.1-1.8,3.7-4.1,3.7c-2.3,0-4.1-1.7-4.1-3.7c0-2.1,1.8-3.7,4.1-3.7
				C1.7,253.7,3.5,255.3,3.5,257.4z"/>
			<path id="XMLID_171_" class="st1" d="M38,257.4c0,2.1-1.8,3.7-4.1,3.7c-2.3,0-4.1-1.7-4.1-3.7c0-2.1,1.8-3.7,4.1-3.7
				C36.1,253.7,38,255.3,38,257.4z"/>
			<path id="XMLID_170_" class="st1" d="M72.4,257.4c0,2.1-1.8,3.7-4.1,3.7c-2.3,0-4.1-1.7-4.1-3.7c0-2.1,1.8-3.7,4.1-3.7
				C70.6,253.7,72.4,255.3,72.4,257.4z"/>
			<path id="XMLID_169_" class="st1" d="M106.9,257.4c0,2.1-1.8,3.7-4.1,3.7c-2.3,0-4.1-1.7-4.1-3.7c0-2.1,1.8-3.7,4.1-3.7
				C105.1,253.7,106.9,255.3,106.9,257.4z"/>
			<path id="XMLID_168_" class="st1" d="M141.4,257.4c0,2.1-1.8,3.7-4.1,3.7c-2.3,0-4.1-1.7-4.1-3.7c0-2.1,1.8-3.7,4.1-3.7
				C139.6,253.7,141.4,255.3,141.4,257.4z"/>
			<path id="XMLID_167_" class="st1" d="M175.9,257.4c0,2.1-1.8,3.7-4.1,3.7c-2.3,0-4.1-1.7-4.1-3.7c0-2.1,1.8-3.7,4.1-3.7
				C174,253.7,175.9,255.3,175.9,257.4z"/>
			<path id="XMLID_166_" class="st1" d="M210.3,257.4c0,2.1-1.8,3.7-4.1,3.7c-2.3,0-4.1-1.7-4.1-3.7c0-2.1,1.8-3.7,4.1-3.7
				C208.5,253.7,210.3,255.3,210.3,257.4z"/>
			<path id="XMLID_165_" class="st1" d="M244.8,257.4c0,2.1-1.8,3.7-4.1,3.7s-4.1-1.7-4.1-3.7c0-2.1,1.8-3.7,4.1-3.7
				S244.8,255.3,244.8,257.4z"/>
			<path id="XMLID_164_" class="st1" d="M279.3,257.4c0,2.1-1.8,3.7-4.1,3.7c-2.3,0-4.1-1.7-4.1-3.7c0-2.1,1.8-3.7,4.1-3.7
				C277.5,253.7,279.3,255.3,279.3,257.4z"/>
			<path id="XMLID_163_" class="st1" d="M313.8,257.4c0,2.1-1.8,3.7-4.1,3.7c-2.3,0-4.1-1.7-4.1-3.7c0-2.1,1.8-3.7,4.1-3.7
				C311.9,253.7,313.8,255.3,313.8,257.4z"/>
			<path id="XMLID_162_" class="st1" d="M348.2,257.4c0,2.1-1.8,3.7-4.1,3.7c-2.3,0-4.1-1.7-4.1-3.7c0-2.1,1.8-3.7,4.1-3.7
				C346.4,253.7,348.2,255.3,348.2,257.4z"/>
			<path id="XMLID_161_" class="st1" d="M382.7,257.4c0,2.1-1.8,3.7-4.1,3.7c-2.3,0-4.1-1.7-4.1-3.7c0-2.1,1.8-3.7,4.1-3.7
				C380.9,253.7,382.7,255.3,382.7,257.4z"/>
			<path id="XMLID_160_" class="st1" d="M417.2,257.4c0,2.1-1.8,3.7-4.1,3.7c-2.3,0-4.1-1.7-4.1-3.7c0-2.1,1.8-3.7,4.1-3.7
				C415.4,253.7,417.2,255.3,417.2,257.4z"/>
			<path id="XMLID_159_" class="st1" d="M451.7,257.4c0,2.1-1.8,3.7-4.1,3.7c-2.3,0-4.1-1.7-4.1-3.7c0-2.1,1.8-3.7,4.1-3.7
				C449.8,253.7,451.7,255.3,451.7,257.4z"/>
			<path id="XMLID_158_" class="st1" d="M486.1,257.4c0,2.1-1.8,3.7-4.1,3.7c-2.3,0-4.1-1.7-4.1-3.7c0-2.1,1.8-3.7,4.1-3.7
				C484.3,253.7,486.1,255.3,486.1,257.4z"/>
			<path id="XMLID_157_" class="st1" d="M520.6,257.4c0,2.1-1.8,3.7-4.1,3.7c-2.3,0-4.1-1.7-4.1-3.7c0-2.1,1.8-3.7,4.1-3.7
				C518.8,253.7,520.6,255.3,520.6,257.4z"/>
			<path id="XMLID_156_" class="st1" d="M555.1,257.4c0,2.1-1.8,3.7-4.1,3.7c-2.3,0-4.1-1.7-4.1-3.7c0-2.1,1.8-3.7,4.1-3.7
				C553.3,253.7,555.1,255.3,555.1,257.4z"/>
			<path id="XMLID_155_" class="st1" d="M589.6,257.4c0,2.1-1.8,3.7-4.1,3.7c-2.3,0-4.1-1.7-4.1-3.7c0-2.1,1.8-3.7,4.1-3.7
				C587.7,253.7,589.6,255.3,589.6,257.4z"/>
			<path id="XMLID_154_" class="st1" d="M624,257.4c0,2.1-1.8,3.7-4.1,3.7s-4.1-1.7-4.1-3.7c0-2.1,1.8-3.7,4.1-3.7
				S624,255.3,624,257.4z"/>
		</g>
		<g id="XMLID_129_">
			<ellipse id="XMLID_152_" class="st1" cx="-154.2" cy="271.4" rx="4.1" ry="3.7"/>
			<ellipse id="XMLID_151_" class="st1" cx="-121.9" cy="271.4" rx="4.1" ry="3.7"/>
			<path id="XMLID_150_" class="st1" d="M-83.4,271.4c0,2.1-1.8,3.7-4.1,3.7c-2.3,0-4.1-1.7-4.1-3.7c0-2.1,1.8-3.7,4.1-3.7
				C-85.2,267.7-83.4,269.3-83.4,271.4z"/>
			<ellipse id="XMLID_149_" class="st1" cx="-53" cy="271.4" rx="4.1" ry="3.7"/>
			<ellipse id="XMLID_148_" class="st1" cx="-18.5" cy="271.4" rx="4.1" ry="3.7"/>
			<ellipse id="XMLID_147_" class="st1" cx="16" cy="271.4" rx="4.1" ry="3.7"/>
			<ellipse id="XMLID_146_" class="st1" cx="50.4" cy="271.4" rx="4.1" ry="3.7"/>
			<ellipse id="XMLID_145_" class="st1" cx="84.9" cy="271.4" rx="4.1" ry="3.7"/>
			<ellipse id="XMLID_144_" class="st1" cx="119.4" cy="271.4" rx="4.1" ry="3.7"/>
			<path id="XMLID_143_" class="st1" d="M158,271.4c0,2.1-1.8,3.7-4.1,3.7c-2.3,0-4.1-1.7-4.1-3.7c0-2.1,1.8-3.7,4.1-3.7
				C156.1,267.7,158,269.3,158,271.4z"/>
			<ellipse id="XMLID_142_" class="st1" cx="188.3" cy="271.4" rx="4.1" ry="3.7"/>
			<ellipse id="XMLID_141_" class="st1" cx="222.8" cy="271.4" rx="4.1" ry="3.7"/>
			<ellipse id="XMLID_140_" class="st1" cx="257.3" cy="271.4" rx="4.1" ry="3.7"/>
			<ellipse id="XMLID_139_" class="st1" cx="291.8" cy="271.4" rx="4.1" ry="3.7"/>
			<ellipse id="XMLID_138_" class="st1" cx="326.2" cy="271.4" rx="4.1" ry="3.7"/>
			<ellipse id="XMLID_137_" class="st1" cx="360.7" cy="271.4" rx="4.1" ry="3.7"/>
			<ellipse id="XMLID_136_" class="st1" cx="395.2" cy="271.4" rx="4.1" ry="3.7"/>
			<ellipse id="XMLID_135_" class="st1" cx="429.7" cy="271.4" rx="4.1" ry="3.7"/>
			<ellipse id="XMLID_134_" class="st1" cx="464.1" cy="271.4" rx="4.1" ry="3.7"/>
			<ellipse id="XMLID_133_" class="st1" cx="498.6" cy="271.4" rx="4.1" ry="3.7"/>
			<ellipse id="XMLID_132_" class="st1" cx="533.1" cy="271.4" rx="4.1" ry="3.7"/>
			<ellipse id="XMLID_131_" class="st1" cx="567.6" cy="271.4" rx="4.1" ry="3.7"/>
			<ellipse id="XMLID_130_" class="st1" cx="602" cy="271.4" rx="4.1" ry="3.7"/>
		</g>
		<g id="XMLID_104_">
			<ellipse id="XMLID_128_" class="st1" cx="-136.2" cy="285.9" rx="4.1" ry="3.7"/>
			<path id="XMLID_127_" class="st1" d="M-170.4,285.9c0,2.1-1.8,3.7-4.1,3.7c-2.3,0-4.1-1.7-4.1-3.7c0-2.1,1.8-3.7,4.1-3.7
				C-172.2,282.1-170.4,283.8-170.4,285.9z"/>
			<ellipse id="XMLID_126_" class="st1" cx="-104" cy="285.9" rx="4.1" ry="3.7"/>
			<ellipse id="XMLID_125_" class="st1" cx="-69.5" cy="285.9" rx="4.1" ry="3.7"/>
			<ellipse id="XMLID_124_" class="st1" cx="-35" cy="285.9" rx="4.1" ry="3.7"/>
			<ellipse id="XMLID_123_" class="st1" cx="-0.5" cy="285.9" rx="4.1" ry="3.7"/>
			<path id="XMLID_122_" class="st1" d="M38,285.9c0,2.1-1.8,3.7-4.1,3.7c-2.3,0-4.1-1.7-4.1-3.7c0-2.1,1.8-3.7,4.1-3.7
				C36.2,282.1,38,283.8,38,285.9z"/>
			<ellipse id="XMLID_121_" class="st1" cx="68.4" cy="285.9" rx="4.1" ry="3.7"/>
			<ellipse id="XMLID_120_" class="st1" cx="102.9" cy="285.9" rx="4.1" ry="3.7"/>
			<path id="XMLID_119_" class="st1" d="M141.5,285.9c0,2.1-1.8,3.7-4.1,3.7c-2.3,0-4.1-1.7-4.1-3.7c0-2.1,1.8-3.7,4.1-3.7
				C139.6,282.1,141.5,283.8,141.5,285.9z"/>
			<ellipse id="XMLID_118_" class="st1" cx="171.8" cy="285.9" rx="4.1" ry="3.7"/>
			<ellipse id="XMLID_117_" class="st1" cx="206.3" cy="285.9" rx="4.1" ry="3.7"/>
			<ellipse id="XMLID_116_" class="st1" cx="240.8" cy="285.9" rx="4.1" ry="3.7"/>
			<path id="XMLID_115_" class="st1" d="M279.4,285.9c0,2.1-1.8,3.7-4.1,3.7c-2.3,0-4.1-1.7-4.1-3.7c0-2.1,1.8-3.7,4.1-3.7
				C277.5,282.1,279.4,283.8,279.4,285.9z"/>
			<path id="XMLID_114_" class="st1" d="M313.8,285.9c0,2.1-1.8,3.7-4.1,3.7c-2.3,0-4.1-1.7-4.1-3.7c0-2.1,1.8-3.7,4.1-3.7
				C312,282.1,313.8,283.8,313.8,285.9z"/>
			<ellipse id="XMLID_113_" class="st1" cx="344.2" cy="285.9" rx="4.1" ry="3.7"/>
			<ellipse id="XMLID_112_" class="st1" cx="378.7" cy="285.9" rx="4.1" ry="3.7"/>
			<path id="XMLID_111_" class="st1" d="M417.3,285.9c0,2.1-1.8,3.7-4.1,3.7c-2.3,0-4.1-1.7-4.1-3.7c0-2.1,1.8-3.7,4.1-3.7
				C415.4,282.1,417.3,283.8,417.3,285.9z"/>
			<ellipse id="XMLID_110_" class="st1" cx="447.6" cy="285.9" rx="4.1" ry="3.7"/>
			<path id="XMLID_109_" class="st1" d="M486.2,285.9c0,2.1-1.8,3.7-4.1,3.7c-2.3,0-4.1-1.7-4.1-3.7c0-2.1,1.8-3.7,4.1-3.7
				C484.4,282.1,486.2,283.8,486.2,285.9z"/>
			<ellipse id="XMLID_108_" class="st1" cx="516.6" cy="285.9" rx="4.1" ry="3.7"/>
			<ellipse id="XMLID_107_" class="st1" cx="551.1" cy="285.9" rx="4.1" ry="3.7"/>
			<ellipse id="XMLID_106_" class="st1" cx="585.5" cy="285.9" rx="4.1" ry="3.7"/>
			<path id="XMLID_105_" class="st1" d="M624.1,285.9c0,2.1-1.8,3.7-4.1,3.7c-2.3,0-4.1-1.7-4.1-3.7c0-2.1,1.8-3.7,4.1-3.7
				C622.3,282.1,624.1,283.8,624.1,285.9z"/>
		</g>
		<g id="XMLID_80_">
			<path id="XMLID_103_" class="st1" d="M-150,299.9c0,2.1-1.8,3.7-4.1,3.7c-2.3,0-4.1-1.7-4.1-3.7c0-2.1,1.8-3.7,4.1-3.7
				C-151.8,296.1-150,297.8-150,299.9z"/>
			<path id="XMLID_102_" class="st1" d="M-117.8,299.9c0,2.1-1.8,3.7-4.1,3.7c-2.3,0-4.1-1.7-4.1-3.7c0-2.1,1.8-3.7,4.1-3.7
				C-119.6,296.1-117.8,297.8-117.8,299.9z"/>
			<path id="XMLID_101_" class="st1" d="M-83.3,299.9c0,2.1-1.8,3.7-4.1,3.7c-2.3,0-4.1-1.7-4.1-3.7c0-2.1,1.8-3.7,4.1-3.7
				C-85.1,296.1-83.3,297.8-83.3,299.9z"/>
			<path id="XMLID_100_" class="st1" d="M-48.8,299.9c0,2.1-1.8,3.7-4.1,3.7c-2.3,0-4.1-1.7-4.1-3.7c0-2.1,1.8-3.7,4.1-3.7
				C-50.7,296.1-48.8,297.8-48.8,299.9z"/>
			<path id="XMLID_99_" class="st1" d="M-14.4,299.9c0,2.1-1.8,3.7-4.1,3.7c-2.3,0-4.1-1.7-4.1-3.7c0-2.1,1.8-3.7,4.1-3.7
				C-16.2,296.1-14.4,297.8-14.4,299.9z"/>
			<path id="XMLID_98_" class="st1" d="M20.1,299.9c0,2.1-1.8,3.7-4.1,3.7c-2.3,0-4.1-1.7-4.1-3.7c0-2.1,1.8-3.7,4.1-3.7
				C18.3,296.1,20.1,297.8,20.1,299.9z"/>
			<path id="XMLID_97_" class="st1" d="M54.6,299.9c0,2.1-1.8,3.7-4.1,3.7s-4.1-1.7-4.1-3.7c0-2.1,1.8-3.7,4.1-3.7
				S54.6,297.8,54.6,299.9z"/>
			<path id="XMLID_96_" class="st1" d="M89.1,299.9c0,2.1-1.8,3.7-4.1,3.7c-2.3,0-4.1-1.7-4.1-3.7c0-2.1,1.8-3.7,4.1-3.7
				C87.2,296.1,89.1,297.8,89.1,299.9z"/>
			<path id="XMLID_95_" class="st1" d="M123.5,299.9c0,2.1-1.8,3.7-4.1,3.7c-2.3,0-4.1-1.7-4.1-3.7c0-2.1,1.8-3.7,4.1-3.7
				C121.7,296.1,123.5,297.8,123.5,299.9z"/>
			<path id="XMLID_94_" class="st1" d="M158,299.9c0,2.1-1.8,3.7-4.1,3.7c-2.3,0-4.1-1.7-4.1-3.7c0-2.1,1.8-3.7,4.1-3.7
				C156.2,296.1,158,297.8,158,299.9z"/>
			<path id="XMLID_93_" class="st1" d="M192.5,299.9c0,2.1-1.8,3.7-4.1,3.7c-2.3,0-4.1-1.7-4.1-3.7c0-2.1,1.8-3.7,4.1-3.7
				C190.7,296.1,192.5,297.8,192.5,299.9z"/>
			<path id="XMLID_92_" class="st1" d="M227,299.9c0,2.1-1.8,3.7-4.1,3.7c-2.3,0-4.1-1.7-4.1-3.7c0-2.1,1.8-3.7,4.1-3.7
				C225.1,296.1,227,297.8,227,299.9z"/>
			<path id="XMLID_91_" class="st1" d="M261.4,299.9c0,2.1-1.8,3.7-4.1,3.7c-2.3,0-4.1-1.7-4.1-3.7c0-2.1,1.8-3.7,4.1-3.7
				C259.6,296.1,261.4,297.8,261.4,299.9z"/>
			<path id="XMLID_90_" class="st1" d="M295.9,299.9c0,2.1-1.8,3.7-4.1,3.7c-2.3,0-4.1-1.7-4.1-3.7c0-2.1,1.8-3.7,4.1-3.7
				C294.1,296.1,295.9,297.8,295.9,299.9z"/>
			<path id="XMLID_89_" class="st1" d="M330.4,299.9c0,2.1-1.8,3.7-4.1,3.7c-2.3,0-4.1-1.7-4.1-3.7c0-2.1,1.8-3.7,4.1-3.7
				C328.6,296.1,330.4,297.8,330.4,299.9z"/>
			<path id="XMLID_88_" class="st1" d="M364.9,299.9c0,2.1-1.8,3.7-4.1,3.7c-2.3,0-4.1-1.7-4.1-3.7c0-2.1,1.8-3.7,4.1-3.7
				C363,296.1,364.9,297.8,364.9,299.9z"/>
			<path id="XMLID_87_" class="st1" d="M399.3,299.9c0,2.1-1.8,3.7-4.1,3.7c-2.3,0-4.1-1.7-4.1-3.7c0-2.1,1.8-3.7,4.1-3.7
				C397.5,296.1,399.3,297.8,399.3,299.9z"/>
			<path id="XMLID_86_" class="st1" d="M433.8,299.9c0,2.1-1.8,3.7-4.1,3.7c-2.3,0-4.1-1.7-4.1-3.7c0-2.1,1.8-3.7,4.1-3.7
				C432,296.1,433.8,297.8,433.8,299.9z"/>
			<path id="XMLID_85_" class="st1" d="M468.3,299.9c0,2.1-1.8,3.7-4.1,3.7c-2.3,0-4.1-1.7-4.1-3.7c0-2.1,1.8-3.7,4.1-3.7
				C466.5,296.1,468.3,297.8,468.3,299.9z"/>
			<path id="XMLID_84_" class="st1" d="M502.8,299.9c0,2.1-1.8,3.7-4.1,3.7c-2.3,0-4.1-1.7-4.1-3.7c0-2.1,1.8-3.7,4.1-3.7
				C500.9,296.1,502.8,297.8,502.8,299.9z"/>
			<path id="XMLID_83_" class="st1" d="M537.2,299.9c0,2.1-1.8,3.7-4.1,3.7c-2.3,0-4.1-1.7-4.1-3.7c0-2.1,1.8-3.7,4.1-3.7
				C535.4,296.1,537.2,297.8,537.2,299.9z"/>
			<path id="XMLID_82_" class="st1" d="M571.7,299.9c0,2.1-1.8,3.7-4.1,3.7c-2.3,0-4.1-1.7-4.1-3.7c0-2.1,1.8-3.7,4.1-3.7
				C569.9,296.1,571.7,297.8,571.7,299.9z"/>
			<path id="XMLID_81_" class="st1" d="M606.2,299.9c0,2.1-1.8,3.7-4.1,3.7c-2.3,0-4.1-1.7-4.1-3.7c0-2.1,1.8-3.7,4.1-3.7
				C604.4,296.1,606.2,297.8,606.2,299.9z"/>
		</g>
		<g id="XMLID_55_">
			<ellipse id="XMLID_79_" class="st1" cx="-136.1" cy="314.3" rx="4.1" ry="3.7"/>
			<ellipse id="XMLID_78_" class="st1" cx="-174.4" cy="314.3" rx="4.1" ry="3.7"/>
			<ellipse id="XMLID_77_" class="st1" cx="-103.9" cy="314.3" rx="4.1" ry="3.7"/>
			<ellipse id="XMLID_76_" class="st1" cx="-69.4" cy="314.3" rx="4.1" ry="3.7"/>
			<ellipse id="XMLID_75_" class="st1" cx="-35" cy="314.3" rx="4.1" ry="3.7"/>
			<ellipse id="XMLID_74_" class="st1" cx="-0.5" cy="314.3" rx="4.1" ry="3.7"/>
			<ellipse id="XMLID_73_" class="st1" cx="34" cy="314.3" rx="4.1" ry="3.7"/>
			<ellipse id="XMLID_72_" class="st1" cx="68.5" cy="314.3" rx="4.1" ry="3.7"/>
			<path id="XMLID_71_" class="st1" d="M107,314.3c0,2.1-1.8,3.7-4.1,3.7c-2.3,0-4.1-1.7-4.1-3.7c0-2.1,1.8-3.7,4.1-3.7
				C105.2,310.6,107,312.3,107,314.3z"/>
			<path id="XMLID_70_" class="st1" d="M141.5,314.3c0,2.1-1.8,3.7-4.1,3.7c-2.3,0-4.1-1.7-4.1-3.7c0-2.1,1.8-3.7,4.1-3.7
				C139.7,310.6,141.5,312.3,141.5,314.3z"/>
			<ellipse id="XMLID_69_" class="st1" cx="171.9" cy="314.3" rx="4.1" ry="3.7"/>
			<ellipse id="XMLID_68_" class="st1" cx="206.4" cy="314.3" rx="4.1" ry="3.7"/>
			<ellipse id="XMLID_67_" class="st1" cx="240.8" cy="314.3" rx="4.1" ry="3.7"/>
			<path id="XMLID_66_" class="st1" d="M279.4,314.3c0,2.1-1.8,3.7-4.1,3.7c-2.3,0-4.1-1.7-4.1-3.7c0-2.1,1.8-3.7,4.1-3.7
				C277.6,310.6,279.4,312.3,279.4,314.3z"/>
			<ellipse id="XMLID_65_" class="st1" cx="309.8" cy="314.3" rx="4.1" ry="3.7"/>
			<ellipse id="XMLID_64_" class="st1" cx="344.3" cy="314.3" rx="4.1" ry="3.7"/>
			<path id="XMLID_63_" class="st1" d="M382.8,314.3c0,2.1-1.8,3.7-4.1,3.7c-2.3,0-4.1-1.7-4.1-3.7c0-2.1,1.8-3.7,4.1-3.7
				C381,310.6,382.8,312.3,382.8,314.3z"/>
			<ellipse id="XMLID_62_" class="st1" cx="413.2" cy="314.3" rx="4.1" ry="3.7"/>
			<ellipse id="XMLID_61_" class="st1" cx="447.7" cy="314.3" rx="4.1" ry="3.7"/>
			<ellipse id="XMLID_60_" class="st1" cx="482.2" cy="314.3" rx="4.1" ry="3.7"/>
			<path id="XMLID_59_" class="st1" d="M520.7,314.3c0,2.1-1.8,3.7-4.1,3.7c-2.3,0-4.1-1.7-4.1-3.7c0-2.1,1.8-3.7,4.1-3.7
				C518.9,310.6,520.7,312.3,520.7,314.3z"/>
			<ellipse id="XMLID_58_" class="st1" cx="551.1" cy="314.3" rx="4.1" ry="3.7"/>
			<ellipse id="XMLID_57_" class="st1" cx="585.6" cy="314.3" rx="4.1" ry="3.7"/>
			<ellipse id="XMLID_56_" class="st1" cx="620.1" cy="314.3" rx="4.1" ry="3.7"/>
		</g>
		<g id="XMLID_31_">
			<path id="XMLID_54_" class="st1" d="M-149.9,328.3c0,2.1-1.8,3.7-4.1,3.7c-2.3,0-4.1-1.7-4.1-3.7c0-2.1,1.8-3.7,4.1-3.7
				C-151.8,324.6-149.9,326.3-149.9,328.3z"/>
			<path id="XMLID_53_" class="st1" d="M-117.7,328.3c0,2.1-1.8,3.7-4.1,3.7c-2.3,0-4.1-1.7-4.1-3.7c0-2.1,1.8-3.7,4.1-3.7
				C-119.6,324.6-117.7,326.3-117.7,328.3z"/>
			<path id="XMLID_52_" class="st1" d="M-83.2,328.3c0,2.1-1.8,3.7-4.1,3.7c-2.3,0-4.1-1.7-4.1-3.7c0-2.1,1.8-3.7,4.1-3.7
				C-85.1,324.6-83.2,326.3-83.2,328.3z"/>
			<path id="XMLID_51_" class="st1" d="M-48.8,328.3c0,2.1-1.8,3.7-4.1,3.7c-2.3,0-4.1-1.7-4.1-3.7c0-2.1,1.8-3.7,4.1-3.7
				C-50.6,324.6-48.8,326.3-48.8,328.3z"/>
			<path id="XMLID_50_" class="st1" d="M-14.3,328.3c0,2.1-1.8,3.7-4.1,3.7c-2.3,0-4.1-1.7-4.1-3.7c0-2.1,1.8-3.7,4.1-3.7
				C-16.1,324.6-14.3,326.3-14.3,328.3z"/>
			<path id="XMLID_49_" class="st1" d="M20.2,328.3c0,2.1-1.8,3.7-4.1,3.7s-4.1-1.7-4.1-3.7c0-2.1,1.8-3.7,4.1-3.7
				S20.2,326.3,20.2,328.3z"/>
			<path id="XMLID_48_" class="st1" d="M54.7,328.3c0,2.1-1.8,3.7-4.1,3.7c-2.3,0-4.1-1.7-4.1-3.7c0-2.1,1.8-3.7,4.1-3.7
				C52.8,324.6,54.7,326.3,54.7,328.3z"/>
			<path id="XMLID_47_" class="st1" d="M89.1,328.3c0,2.1-1.8,3.7-4.1,3.7c-2.3,0-4.1-1.7-4.1-3.7c0-2.1,1.8-3.7,4.1-3.7
				C87.3,324.6,89.1,326.3,89.1,328.3z"/>
			<path id="XMLID_46_" class="st1" d="M123.6,328.3c0,2.1-1.8,3.7-4.1,3.7c-2.3,0-4.1-1.7-4.1-3.7c0-2.1,1.8-3.7,4.1-3.7
				C121.8,324.6,123.6,326.3,123.6,328.3z"/>
			<path id="XMLID_45_" class="st1" d="M158.1,328.3c0,2.1-1.8,3.7-4.1,3.7s-4.1-1.7-4.1-3.7c0-2.1,1.8-3.7,4.1-3.7
				S158.1,326.3,158.1,328.3z"/>
			<path id="XMLID_44_" class="st1" d="M192.6,328.3c0,2.1-1.8,3.7-4.1,3.7c-2.3,0-4.1-1.7-4.1-3.7c0-2.1,1.8-3.7,4.1-3.7
				C190.7,324.6,192.6,326.3,192.6,328.3z"/>
			<path id="XMLID_43_" class="st1" d="M227,328.3c0,2.1-1.8,3.7-4.1,3.7c-2.3,0-4.1-1.7-4.1-3.7c0-2.1,1.8-3.7,4.1-3.7
				C225.2,324.6,227,326.3,227,328.3z"/>
			<path id="XMLID_42_" class="st1" d="M261.5,328.3c0,2.1-1.8,3.7-4.1,3.7c-2.3,0-4.1-1.7-4.1-3.7c0-2.1,1.8-3.7,4.1-3.7
				C259.7,324.6,261.5,326.3,261.5,328.3z"/>
			<path id="XMLID_41_" class="st1" d="M296,328.3c0,2.1-1.8,3.7-4.1,3.7c-2.3,0-4.1-1.7-4.1-3.7c0-2.1,1.8-3.7,4.1-3.7
				C294.1,324.6,296,326.3,296,328.3z"/>
			<path id="XMLID_40_" class="st1" d="M330.5,328.3c0,2.1-1.8,3.7-4.1,3.7c-2.3,0-4.1-1.7-4.1-3.7c0-2.1,1.8-3.7,4.1-3.7
				C328.6,324.6,330.5,326.3,330.5,328.3z"/>
			<path id="XMLID_39_" class="st1" d="M364.9,328.3c0,2.1-1.8,3.7-4.1,3.7c-2.3,0-4.1-1.7-4.1-3.7c0-2.1,1.8-3.7,4.1-3.7
				C363.1,324.6,364.9,326.3,364.9,328.3z"/>
			<path id="XMLID_38_" class="st1" d="M399.4,328.3c0,2.1-1.8,3.7-4.1,3.7c-2.3,0-4.1-1.7-4.1-3.7c0-2.1,1.8-3.7,4.1-3.7
				C397.6,324.6,399.4,326.3,399.4,328.3z"/>
			<path id="XMLID_37_" class="st1" d="M433.9,328.3c0,2.1-1.8,3.7-4.1,3.7c-2.3,0-4.1-1.7-4.1-3.7c0-2.1,1.8-3.7,4.1-3.7
				C432,324.6,433.9,326.3,433.9,328.3z"/>
			<path id="XMLID_36_" class="st1" d="M468.4,328.3c0,2.1-1.8,3.7-4.1,3.7c-2.3,0-4.1-1.7-4.1-3.7c0-2.1,1.8-3.7,4.1-3.7
				C466.5,324.6,468.4,326.3,468.4,328.3z"/>
			<path id="XMLID_35_" class="st1" d="M502.8,328.3c0,2.1-1.8,3.7-4.1,3.7c-2.3,0-4.1-1.7-4.1-3.7c0-2.1,1.8-3.7,4.1-3.7
				C501,324.6,502.8,326.3,502.8,328.3z"/>
			<path id="XMLID_34_" class="st1" d="M537.3,328.3c0,2.1-1.8,3.7-4.1,3.7c-2.3,0-4.1-1.7-4.1-3.7c0-2.1,1.8-3.7,4.1-3.7
				C535.5,324.6,537.3,326.3,537.3,328.3z"/>
			<path id="XMLID_33_" class="st1" d="M571.8,328.3c0,2.1-1.8,3.7-4.1,3.7s-4.1-1.7-4.1-3.7c0-2.1,1.8-3.7,4.1-3.7
				S571.8,326.3,571.8,328.3z"/>
			<path id="XMLID_32_" class="st1" d="M606.3,328.3c0,2.1-1.8,3.7-4.1,3.7c-2.3,0-4.1-1.7-4.1-3.7c0-2.1,1.8-3.7,4.1-3.7
				C604.4,324.6,606.3,326.3,606.3,328.3z"/>
		</g>
		<g id="XMLID_6_">
			<path id="XMLID_30_" class="st1" d="M-132,342.8c0,2.1-1.8,3.7-4.1,3.7c-2.3,0-4.1-1.7-4.1-3.7c0-2.1,1.8-3.7,4.1-3.7
				C-133.8,339.1-132,340.7-132,342.8z"/>
			<ellipse id="XMLID_29_" class="st1" cx="-174.4" cy="342.8" rx="4.1" ry="3.7"/>
			<ellipse id="XMLID_28_" class="st1" cx="-103.8" cy="342.8" rx="4.1" ry="3.7"/>
			<ellipse id="XMLID_27_" class="st1" cx="-69.4" cy="342.8" rx="4.1" ry="3.7"/>
			<ellipse id="XMLID_26_" class="st1" cx="-34.9" cy="342.8" rx="4.1" ry="3.7"/>
			<path id="XMLID_25_" class="st1" d="M3.7,342.8c0,2.1-1.8,3.7-4.1,3.7c-2.3,0-4.1-1.7-4.1-3.7c0-2.1,1.8-3.7,4.1-3.7
				C1.8,339.1,3.7,340.7,3.7,342.8z"/>
			<path id="XMLID_24_" class="st1" d="M38.2,342.8c0,2.1-1.8,3.7-4.1,3.7c-2.3,0-4.1-1.7-4.1-3.7c0-2.1,1.8-3.7,4.1-3.7
				C36.3,339.1,38.2,340.7,38.2,342.8z"/>
			<ellipse id="XMLID_23_" class="st1" cx="68.5" cy="342.8" rx="4.1" ry="3.7"/>
			<path id="XMLID_22_" class="st1" d="M107.1,342.8c0,2.1-1.8,3.7-4.1,3.7c-2.3,0-4.1-1.7-4.1-3.7c0-2.1,1.8-3.7,4.1-3.7
				C105.3,339.1,107.1,340.7,107.1,342.8z"/>
			<path id="XMLID_21_" class="st1" d="M141.6,342.8c0,2.1-1.8,3.7-4.1,3.7c-2.3,0-4.1-1.7-4.1-3.7c0-2.1,1.8-3.7,4.1-3.7
				C139.7,339.1,141.6,340.7,141.6,342.8z"/>
			<ellipse id="XMLID_20_" class="st1" cx="172" cy="342.8" rx="4.1" ry="3.7"/>
			<path id="XMLID_19_" class="st1" d="M210.5,342.8c0,2.1-1.8,3.7-4.1,3.7c-2.3,0-4.1-1.7-4.1-3.7c0-2.1,1.8-3.7,4.1-3.7
				C208.7,339.1,210.5,340.7,210.5,342.8z"/>
			<path id="XMLID_18_" class="st1" d="M245,342.8c0,2.1-1.8,3.7-4.1,3.7s-4.1-1.7-4.1-3.7c0-2.1,1.8-3.7,4.1-3.7
				S245,340.7,245,342.8z"/>
			<path id="XMLID_17_" class="st1" d="M279.5,342.8c0,2.1-1.8,3.7-4.1,3.7c-2.3,0-4.1-1.7-4.1-3.7c0-2.1,1.8-3.7,4.1-3.7
				C277.6,339.1,279.5,340.7,279.5,342.8z"/>
			<ellipse id="XMLID_16_" class="st1" cx="309.9" cy="342.8" rx="4.1" ry="3.7"/>
			<ellipse id="XMLID_15_" class="st1" cx="344.3" cy="342.8" rx="4.1" ry="3.7"/>
			<path id="XMLID_14_" class="st1" d="M382.9,342.8c0,2.1-1.8,3.7-4.1,3.7c-2.3,0-4.1-1.7-4.1-3.7c0-2.1,1.8-3.7,4.1-3.7
				C381.1,339.1,382.9,340.7,382.9,342.8z"/>
			<ellipse id="XMLID_13_" class="st1" cx="413.3" cy="342.8" rx="4.1" ry="3.7"/>
			<ellipse id="XMLID_12_" class="st1" cx="447.8" cy="342.8" rx="4.1" ry="3.7"/>
			<ellipse id="XMLID_11_" class="st1" cx="482.2" cy="342.8" rx="4.1" ry="3.7"/>
			<ellipse id="XMLID_10_" class="st1" cx="516.7" cy="342.8" rx="4.1" ry="3.7"/>
			<path id="XMLID_9_" class="st1" d="M555.3,342.8c0,2.1-1.8,3.7-4.1,3.7c-2.3,0-4.1-1.7-4.1-3.7c0-2.1,1.8-3.7,4.1-3.7
				C553.4,339.1,555.3,340.7,555.3,342.8z"/>
			<path id="XMLID_8_" class="st1" d="M589.8,342.8c0,2.1-1.8,3.7-4.1,3.7c-2.3,0-4.1-1.7-4.1-3.7c0-2.1,1.8-3.7,4.1-3.7
				C587.9,339.1,589.8,340.7,589.8,342.8z"/>
			<ellipse id="XMLID_7_" class="st1" cx="620.1" cy="342.8" rx="4.1" ry="3.7"/>
		</g>
	</g>
</g>
</svg>
