<?xml version="1.0" encoding="utf-8"?>
<!-- Generator: Adobe Illustrator 19.0.0, SVG Export Plug-In . SVG Version: 6.00 Build 0)  -->
<svg version="1.1" id="Capa_1" xmlns="http://www.w3.org/2000/svg" xmlns:xlink="http://www.w3.org/1999/xlink" x="0px" y="0px"
	 viewBox="0 0 478.7 302.9" style="enable-background:new 0 0 478.7 302.9;" xml:space="preserve">
<style type="text/css">
	.st0{clip-path:url(#XMLID_997_);}
	.st1{fill:#CFB471;}
</style>
<g id="XMLID_3_">
	<defs>
		<rect id="XMLID_4_" y="0" width="478.7" height="302.9"/>
	</defs>
	<clipPath id="XMLID_997_">
		<use xlink:href="#XMLID_4_"  style="overflow:visible;"/>
	</clipPath>
	<g id="XMLID_5_" class="st0">
		<g id="XMLID_450_">
			<path id="XMLID_968_" class="st1" d="M-627.6-279.9c-16.6,0-30.2,13.5-30.2,30.1s13.5,30.1,30.2,30.1c16.6,0,30.2-13.5,30.2-30.1
				S-611-279.9-627.6-279.9z M-627.6-227.1c-12.5,0-22.6-10.1-22.6-22.6c0-12.5,10.2-22.6,22.6-22.6c12.5,0,22.6,10.1,22.6,22.6
				C-605-237.3-615.2-227.1-627.6-227.1z"/>
			<path id="XMLID_965_" class="st1" d="M-504.2-219.6c16.6,0,30.2-13.5,30.2-30.1s-13.5-30.1-30.2-30.1
				c-16.6,0-30.2,13.5-30.2,30.1S-520.8-219.6-504.2-219.6z M-504.2-272.3c12.5,0,22.6,10.1,22.6,22.6c0,12.5-10.2,22.6-22.6,22.6
				c-12.5,0-22.6-10.1-22.6-22.6C-526.8-262.2-516.7-272.3-504.2-272.3z"/>
			<path id="XMLID_962_" class="st1" d="M-380.7-219.6c16.6,0,30.2-13.5,30.2-30.1s-13.5-30.1-30.2-30.1
				c-16.6,0-30.2,13.5-30.2,30.1S-397.4-219.6-380.7-219.6z M-380.7-272.3c12.5,0,22.6,10.1,22.6,22.6c0,12.5-10.2,22.6-22.6,22.6
				c-12.5,0-22.6-10.1-22.6-22.6C-403.3-262.2-393.2-272.3-380.7-272.3z"/>
			<path id="XMLID_959_" class="st1" d="M-257.2-219.6c16.6,0,30.2-13.5,30.2-30.1s-13.5-30.1-30.2-30.1
				c-16.7,0-30.2,13.5-30.2,30.1S-273.9-219.6-257.2-219.6z M-257.2-272.3c12.5,0,22.6,10.1,22.6,22.6c0,12.5-10.2,22.6-22.6,22.6
				c-12.5,0-22.6-10.1-22.6-22.6C-279.9-262.2-269.7-272.3-257.2-272.3z"/>
			<path id="XMLID_956_" class="st1" d="M-133.8-279.9c-16.6,0-30.2,13.5-30.2,30.1s13.5,30.1,30.2,30.1c16.6,0,30.2-13.5,30.2-30.1
				S-117.1-279.9-133.8-279.9z M-133.8-227.1c-12.5,0-22.6-10.1-22.6-22.6c0-12.5,10.2-22.6,22.6-22.6s22.6,10.1,22.6,22.6
				C-111.2-237.3-121.3-227.1-133.8-227.1z"/>
			<path id="XMLID_953_" class="st1" d="M-627.6-156.6c-16.6,0-30.2,13.5-30.2,30.1s13.5,30.1,30.2,30.1c16.6,0,30.2-13.5,30.2-30.1
				S-611-156.6-627.6-156.6z M-627.6-103.8c-12.5,0-22.6-10.1-22.6-22.6c0-12.5,10.2-22.6,22.6-22.6c12.5,0,22.6,10.1,22.6,22.6
				C-605-114-615.2-103.8-627.6-103.8z"/>
			<path id="XMLID_950_" class="st1" d="M-504.2-156.6c-16.6,0-30.2,13.5-30.2,30.1s13.5,30.1,30.2,30.1c16.6,0,30.2-13.5,30.2-30.1
				S-487.5-156.6-504.2-156.6z M-504.2-103.8c-12.5,0-22.6-10.1-22.6-22.6c0-12.5,10.2-22.6,22.6-22.6c12.5,0,22.6,10.1,22.6,22.6
				C-481.5-114-491.7-103.8-504.2-103.8z"/>
			<path id="XMLID_947_" class="st1" d="M-380.7-96.3c16.6,0,30.2-13.5,30.2-30.1s-13.5-30.1-30.2-30.1c-16.6,0-30.2,13.5-30.2,30.1
				S-397.4-96.3-380.7-96.3z M-380.7-149c12.5,0,22.6,10.1,22.6,22.6c0,12.5-10.2,22.6-22.6,22.6c-12.5,0-22.6-10.1-22.6-22.6
				C-403.3-138.9-393.2-149-380.7-149z"/>
			<path id="XMLID_944_" class="st1" d="M-257.2-96.3c16.6,0,30.2-13.5,30.2-30.1s-13.5-30.1-30.2-30.1c-16.7,0-30.2,13.5-30.2,30.1
				S-273.9-96.3-257.2-96.3z M-257.2-149c12.5,0,22.6,10.1,22.6,22.6c0,12.5-10.2,22.6-22.6,22.6c-12.5,0-22.6-10.1-22.6-22.6
				C-279.9-138.9-269.7-149-257.2-149z"/>
			<path id="XMLID_941_" class="st1" d="M-133.8-96.3c16.6,0,30.2-13.5,30.2-30.1s-13.5-30.1-30.2-30.1c-16.6,0-30.2,13.5-30.2,30.1
				S-150.4-96.3-133.8-96.3z M-133.8-149c12.5,0,22.6,10.1,22.6,22.6c0,12.5-10.2,22.6-22.6,22.6s-22.6-10.1-22.6-22.6
				C-156.4-138.9-146.3-149-133.8-149z"/>
			<path id="XMLID_938_" class="st1" d="M-504.2-33.3c-16.6,0-30.2,13.5-30.2,30.1c0,16.6,13.5,30.1,30.2,30.1
				c16.6,0,30.2-13.5,30.2-30.1C-474-19.8-487.5-33.3-504.2-33.3z M-504.2,19.4c-12.5,0-22.6-10.1-22.6-22.6
				c0-12.5,10.2-22.6,22.6-22.6c12.5,0,22.6,10.1,22.6,22.6C-481.5,9.3-491.7,19.4-504.2,19.4z"/>
			<path id="XMLID_935_" class="st1" d="M-380.7,27c16.6,0,30.2-13.5,30.2-30.1c0-16.6-13.5-30.1-30.2-30.1
				c-16.6,0-30.2,13.5-30.2,30.1C-410.9,13.5-397.4,27-380.7,27z M-380.7-25.7c12.5,0,22.6,10.1,22.6,22.6
				c0,12.5-10.2,22.6-22.6,22.6c-12.5,0-22.6-10.1-22.6-22.6C-403.3-15.6-393.2-25.7-380.7-25.7z"/>
			<path id="XMLID_932_" class="st1" d="M-257.2,27c16.6,0,30.2-13.5,30.2-30.1c0-16.6-13.5-30.1-30.2-30.1
				c-16.7,0-30.2,13.5-30.2,30.1C-287.4,13.5-273.9,27-257.2,27z M-257.2-25.7c12.5,0,22.6,10.1,22.6,22.6
				c0,12.5-10.2,22.6-22.6,22.6c-12.5,0-22.6-10.1-22.6-22.6C-279.9-15.6-269.7-25.7-257.2-25.7z"/>
			<path id="XMLID_929_" class="st1" d="M-133.8,27c16.6,0,30.2-13.5,30.2-30.1c0-16.6-13.5-30.1-30.2-30.1
				c-16.6,0-30.2,13.5-30.2,30.1C-164,13.5-150.4,27-133.8,27z M-133.8-25.7c12.5,0,22.6,10.1,22.6,22.6c0,12.5-10.2,22.6-22.6,22.6
				s-22.6-10.1-22.6-22.6C-156.4-15.6-146.3-25.7-133.8-25.7z"/>
			<path id="XMLID_926_" class="st1" d="M-627.6,90c-16.6,0-30.2,13.5-30.2,30.1c0,16.6,13.5,30.1,30.2,30.1
				c16.6,0,30.2-13.5,30.2-30.1C-597.4,103.5-611,90-627.6,90z M-627.6,142.7c-12.5,0-22.6-10.1-22.6-22.6
				c0-12.5,10.2-22.6,22.6-22.6c12.5,0,22.6,10.1,22.6,22.6C-605,132.6-615.2,142.7-627.6,142.7z"/>
			<path id="XMLID_923_" class="st1" d="M-504.2,90c-16.6,0-30.2,13.5-30.2,30.1c0,16.6,13.5,30.1,30.2,30.1
				c16.6,0,30.2-13.5,30.2-30.1C-474,103.5-487.5,90-504.2,90z M-504.2,142.7c-12.5,0-22.6-10.1-22.6-22.6
				c0-12.5,10.2-22.6,22.6-22.6c12.5,0,22.6,10.1,22.6,22.6C-481.5,132.6-491.7,142.7-504.2,142.7z"/>
			<path id="XMLID_920_" class="st1" d="M-380.7,90c-16.6,0-30.2,13.5-30.2,30.1c0,16.6,13.5,30.1,30.2,30.1
				c16.6,0,30.2-13.5,30.2-30.1C-350.5,103.5-364.1,90-380.7,90z M-380.7,142.7c-12.5,0-22.6-10.1-22.6-22.6
				c0-12.5,10.2-22.6,22.6-22.6c12.5,0,22.6,10.1,22.6,22.6C-358.1,132.6-368.2,142.7-380.7,142.7z"/>
			<path id="XMLID_917_" class="st1" d="M-257.2,150.3c16.6,0,30.2-13.5,30.2-30.1c0-16.6-13.5-30.1-30.2-30.1
				c-16.7,0-30.2,13.5-30.2,30.1C-287.4,136.8-273.9,150.3-257.2,150.3z M-257.2,97.5c12.5,0,22.6,10.1,22.6,22.6
				c0,12.5-10.2,22.6-22.6,22.6c-12.5,0-22.6-10.1-22.6-22.6C-279.9,107.7-269.7,97.5-257.2,97.5z"/>
			<path id="XMLID_914_" class="st1" d="M-133.8,150.3c16.6,0,30.2-13.5,30.2-30.1c0-16.6-13.5-30.1-30.2-30.1
				c-16.6,0-30.2,13.5-30.2,30.1C-164,136.8-150.4,150.3-133.8,150.3z M-133.8,97.5c12.5,0,22.6,10.1,22.6,22.6
				c0,12.5-10.2,22.6-22.6,22.6s-22.6-10.1-22.6-22.6C-156.4,107.7-146.3,97.5-133.8,97.5z"/>
			<path id="XMLID_911_" class="st1" d="M-627.6,213.3c-16.6,0-30.2,13.5-30.2,30.1c0,16.6,13.5,30.1,30.2,30.1
				c16.6,0,30.2-13.5,30.2-30.1C-597.4,226.8-611,213.3-627.6,213.3z M-627.6,266c-12.5,0-22.6-10.1-22.6-22.6
				c0-12.5,10.2-22.6,22.6-22.6c12.5,0,22.6,10.1,22.6,22.6C-605,255.9-615.2,266-627.6,266z"/>
			<path id="XMLID_908_" class="st1" d="M-504.2,213.3c-16.6,0-30.2,13.5-30.2,30.1c0,16.6,13.5,30.1,30.2,30.1
				c16.6,0,30.2-13.5,30.2-30.1C-474,226.8-487.5,213.3-504.2,213.3z M-504.2,266c-12.5,0-22.6-10.1-22.6-22.6
				c0-12.5,10.2-22.6,22.6-22.6c12.5,0,22.6,10.1,22.6,22.6C-481.5,255.9-491.7,266-504.2,266z"/>
			<path id="XMLID_905_" class="st1" d="M-380.7,213.3c-16.6,0-30.2,13.5-30.2,30.1c0,16.6,13.5,30.1,30.2,30.1
				c16.6,0,30.2-13.5,30.2-30.1C-350.5,226.8-364.1,213.3-380.7,213.3z M-380.7,266c-12.5,0-22.6-10.1-22.6-22.6
				c0-12.5,10.2-22.6,22.6-22.6c12.5,0,22.6,10.1,22.6,22.6C-358.1,255.9-368.2,266-380.7,266z"/>
			<path id="XMLID_902_" class="st1" d="M-257.2,213.3c-16.7,0-30.2,13.5-30.2,30.1c0,16.6,13.5,30.1,30.2,30.1
				c16.6,0,30.2-13.5,30.2-30.1C-227.1,226.8-240.6,213.3-257.2,213.3z M-257.2,266c-12.5,0-22.6-10.1-22.6-22.6
				c0-12.5,10.2-22.6,22.6-22.6c12.5,0,22.6,10.1,22.6,22.6C-234.6,255.9-244.8,266-257.2,266z"/>
			<path id="XMLID_899_" class="st1" d="M-133.8,273.6c16.6,0,30.2-13.5,30.2-30.1c0-16.6-13.5-30.1-30.2-30.1
				c-16.6,0-30.2,13.5-30.2,30.1C-164,260-150.4,273.6-133.8,273.6z M-133.8,220.8c12.5,0,22.6,10.1,22.6,22.6
				c0,12.5-10.2,22.6-22.6,22.6s-22.6-10.1-22.6-22.6C-156.4,231-146.3,220.8-133.8,220.8z"/>
			<path id="XMLID_898_" class="st1" d="M-659.2-311.8h-7.6c0,12.5-10.1,22.6-22.6,22.6v7.6C-672.7-281.7-659.2-295.2-659.2-311.8z"
				/>
			<path id="XMLID_895_" class="st1" d="M-292.6-129.3c1.4-17.4,15.4-31.2,32.8-32.5v-24h-23.9c-1.3,17.4-15.3,31.4-32.7,32.7v23.8
				H-292.6z M-277.2-178.2h9.9v10c-15.5,3.7-27.8,15.9-31.7,31.4h-9.8v-9.8C-293.2-150.4-281-162.7-277.2-178.2z"/>
			<path id="XMLID_892_" class="st1" d="M-283.6-191h23.9v-23.4c-17.6-1.2-31.8-15.4-32.9-33.1h-23.7v23.9
				C-298.9-222.3-284.9-208.4-283.6-191z M-308.8-239.9h9.7c3.7,15.8,16.1,28.2,31.8,32v9.4h-9.9c-3.8-15.5-16.1-27.8-31.6-31.6
				V-239.9z"/>
			<path id="XMLID_889_" class="st1" d="M-316.3-29.6v23.8h23.8c1.3-17.5,15.3-31.4,32.8-32.6v-23.8h-23.9
				C-284.9-44.8-298.9-30.9-316.3-29.6z M-277.2-54.7h9.9v9.8c-15.6,3.7-27.9,16-31.7,31.5h-9.8v-9.8
				C-293.2-26.9-281-39.2-277.2-54.7z"/>
			<path id="XMLID_886_" class="st1" d="M-254.5-285c17.3,1.3,31.1,15,32.6,32.2h23.8v-23.8c-17.5-1.3-31.4-15.2-32.7-32.7h-23.6
				V-285z M-246.9-301.6h9.6c3.8,15.5,16,27.8,31.6,31.5v9.8h-9.9c-3.9-15.3-16-27.3-31.4-31.1V-301.6z"/>
			<path id="XMLID_883_" class="st1" d="M-378-214.4v23.5h23.6c1.3-17.4,15.3-31.4,32.7-32.7v-23.9h-23.7
				C-346.4-229.9-360.4-215.8-378-214.4z M-338.8-239.9h9.7v9.9c-15.5,3.8-27.8,16-31.6,31.6h-9.6v-9.5
				C-354.8-211.9-342.5-224.3-338.8-239.9z"/>
			<path id="XMLID_880_" class="st1" d="M-663,241.1c1.1-17.6,15.2-31.8,32.9-33v-23.4H-654c-1.3,17.4-15.3,31.4-32.7,32.7v23.8
				H-663z M-679.2,223.8c15.5-3.8,27.8-16,31.6-31.5h9.9v9.4c-15.7,3.8-28.1,16.2-31.8,31.9h-9.7V223.8z"/>
			<path id="XMLID_877_" class="st1" d="M-378-285c17.3,1.3,31.1,15,32.6,32.2h23.8v-23.8c-17.5-1.3-31.4-15.2-32.7-32.7H-378V-285z
				 M-370.4-301.6h9.6c3.8,15.5,16.1,27.8,31.6,31.5v9.8h-9.9c-3.9-15.3-16-27.3-31.4-31.1V-301.6z"/>
			<path id="XMLID_874_" class="st1" d="M-592.3,246.4c-1.4,17.2-15.3,31-32.6,32.3v24.2h23.6c1.3-17.4,15.3-31.4,32.7-32.7v-23.9
				H-592.3z M-607.7,295.3h-9.6v-10.2c15.4-3.8,27.5-15.9,31.4-31.2h9.8v9.9C-591.6,267.6-603.9,279.8-607.7,295.3z"/>
			<path id="XMLID_871_" class="st1" d="M-292.6-124h-23.8v23.9c17.5,1.3,31.4,15.2,32.7,32.7h23.9v-23.6
				C-277.3-92.4-291.4-106.5-292.6-124z M-267.3-75.1h-9.9c-3.8-15.5-16.1-27.8-31.6-31.5v-9.9h9.7c3.7,15.7,16.1,28,31.8,31.8
				V-75.1z"/>
			<path id="XMLID_868_" class="st1" d="M-98.5,122.9c-1.4,17.3-15.2,31.2-32.6,32.5v24h23.6c1.3-17.4,15.3-31.4,32.7-32.7v-23.8
				H-98.5z M-82.2,140.3c-15.5,3.8-27.8,16-31.6,31.5h-9.6v-10h-0.3c15.6-3.7,27.9-15.9,31.7-31.4h9.8V140.3z"/>
			<path id="XMLID_865_" class="st1" d="M-254.5-161.7c17.3,1.3,31.2,15.1,32.6,32.4h23.8v-23.8c-17.5-1.3-31.4-15.2-32.7-32.7
				h-23.6V-161.7z M-246.9-168.2v-10h9.6c3.8,15.5,16.1,27.8,31.6,31.5v9.8h-9.8c-3.9-15.5-16.1-27.6-31.7-31.4H-246.9z"/>
			<path id="XMLID_862_" class="st1" d="M-254.5-214.4v23.5h23.6c1.3-17.4,15.3-31.4,32.7-32.7v-23.9h-23.7
				C-223-229.9-237-215.8-254.5-214.4z M-215.4-239.9h9.7v9.9c-15.5,3.8-27.8,16-31.6,31.6h-9.6v-9.5
				C-231.3-211.9-219-224.3-215.4-239.9z"/>
			<path id="XMLID_859_" class="st1" d="M-131,84.9c17.4,1.3,31.4,15.3,32.6,32.8h23.8V93.9c-17.5-1.3-31.4-15.2-32.7-32.7H-131
				V84.9z M-123.5,68.8h9.6c3.8,15.5,16,27.8,31.6,31.5v9.8H-92c-3.7-15.6-16-27.8-31.5-31.7V68.8z"/>
			<path id="XMLID_856_" class="st1" d="M-407.1-191h23.9v-23.4c-17.6-1.2-31.8-15.4-32.9-33.1h-23.7v23.9
				C-422.4-222.3-408.4-208.4-407.1-191z M-432.3-239.9h9.7c3.7,15.8,16.1,28.2,31.8,32v9.4h-9.9c-3.8-15.5-16.1-27.8-31.6-31.6
				V-239.9z"/>
			<path id="XMLID_853_" class="st1" d="M-169.1,122.9h-23.8v23.9c17.5,1.3,31.4,15.2,32.7,32.7h23.9v-24
				C-153.7,154.2-167.7,140.3-169.1,122.9z M-143.8,171.9h-9.9c-3.8-15.5-16.1-27.8-31.6-31.5v-9.9h9.8
				c3.8,15.5,16.1,27.7,31.7,31.4C-143.8,161.9-143.8,171.9-143.8,171.9z"/>
			<path id="XMLID_850_" class="st1" d="M-630.1,278.7c-17.4-1.2-31.4-15-32.8-32.3h-23.8v23.9c17.5,1.3,31.4,15.2,32.7,32.7h23.9
				V278.7z M-637.7,295.3h-9.9c-3.8-15.5-16-27.8-31.6-31.5v-9.9h9.8c3.9,15.4,16.1,27.5,31.6,31.2V295.3z"/>
			<path id="XMLID_847_" class="st1" d="M-630.2,32.1c-17.5-1.2-31.6-15.2-32.8-32.7h-23.8v23.8c17.5,1.3,31.4,15.2,32.7,32.7h23.9
				V32.1z M-637.7,48.4h-9.9c-3.8-15.5-16-27.8-31.6-31.5V7h9.8c3.8,15.6,16.1,27.9,31.7,31.6V48.4z"/>
			<path id="XMLID_844_" class="st1" d="M-568.5-223.6v-23.9h-23.7c-1.1,17.6-15.1,31.7-32.6,33.1v23.5h23.6
				C-600-208.4-586-222.3-568.5-223.6z M-607.7-198.5h-9.6v-9.5c15.6-3.9,27.9-16.3,31.6-31.9h9.7v9.9
				C-591.6-226.3-603.9-214-607.7-198.5z"/>
			<path id="XMLID_841_" class="st1" d="M-169.1-124h-23.7v23.9c17.5,1.3,31.4,15.2,32.7,32.7h23.9v-23.6
				C-153.9-92.4-167.9-106.5-169.1-124z M-143.8-75.1h-9.9c-3.8-15.5-16.1-27.8-31.6-31.5v-9.9h9.7c3.7,15.7,16.1,28,31.8,31.8
				V-75.1z"/>
			<path id="XMLID_838_" class="st1" d="M-292.6-0.6h-23.8v23.9c17.5,1.3,31.4,15.2,32.7,32.7h23.9V32.1
				C-277.3,30.9-291.3,16.9-292.6-0.6z M-267.3,48.4h-9.9c-3.8-15.5-16.1-27.8-31.6-31.5V7h9.8c3.8,15.6,16.1,27.9,31.7,31.6V48.4z"
				/>
			<path id="XMLID_835_" class="st1" d="M-98.4-0.6c-1.3,17.4-15.2,31.3-32.6,32.7V56h23.6c1.3-17.4,15.3-31.4,32.7-32.7V-0.6H-98.4
				z M-82.2,16.9c-15.5,3.8-27.8,16-31.6,31.5h-9.6v-9.9C-108,34.7-95.8,22.5-92,7h9.8V16.9z"/>
			<path id="XMLID_832_" class="st1" d="M-468.8-5.8h23.8v-23.8c-17.5-1.3-31.4-15.2-32.7-32.7h-23.6v23.8
				C-484-37.1-470.1-23.2-468.8-5.8z M-493.9-54.7h9.6c3.8,15.5,16.1,27.8,31.6,31.5v9.8h-9.8c-3.8-15.5-16-27.7-31.5-31.5V-54.7z"
				/>
			<path id="XMLID_829_" class="st1" d="M-592.3-129.3h23.8v-23.8c-17.5-1.3-31.4-15.2-32.7-32.7h-23.6v24
				C-607.6-160.4-593.7-146.6-592.3-129.3z M-617.3-168.2v-10h9.6c3.8,15.5,16.1,27.8,31.6,31.5v9.8h-9.8
				c-3.9-15.5-16.1-27.6-31.7-31.4H-617.3z"/>
			<path id="XMLID_826_" class="st1" d="M-131-38.4c17.4,1.3,31.3,15.2,32.6,32.6h23.8v-23.8c-17.5-1.3-31.4-15.2-32.7-32.7H-131
				V-38.4z M-123.5-54.7h9.6c3.8,15.5,16,27.8,31.6,31.5v9.8H-92c-3.8-15.5-16-27.7-31.5-31.5V-54.7z"/>
			<path id="XMLID_823_" class="st1" d="M-169.1-0.6h-23.8v23.9c17.5,1.3,31.4,15.2,32.7,32.7h23.9V32.1
				C-153.8,30.9-167.8,16.9-169.1-0.6z M-143.8,48.4h-9.9c-3.8-15.5-16.1-27.8-31.6-31.5V7h9.7c3.8,15.6,16.1,27.9,31.7,31.6V48.4z"
				/>
			<path id="XMLID_820_" class="st1" d="M-663,117.7c1.2-17.5,15.3-31.6,32.8-32.8V61.2H-654c-1.3,17.4-15.3,31.4-32.7,32.7v23.8
				H-663z M-679.2,100.3c15.5-3.8,27.8-16,31.6-31.5h9.9v9.6c-15.7,3.8-28,16.1-31.8,31.7h-9.7V100.3z"/>
			<path id="XMLID_817_" class="st1" d="M-630.2,155.4c-17.5-1.2-31.5-15.1-32.8-32.5h-23.8v23.8c17.5,1.3,31.4,15.2,32.7,32.7h23.9
				V155.4z M-637.7,171.9h-9.9c-3.8-15.5-16-27.8-31.6-31.5v-9.9h9.8c3.8,15.5,16.1,27.7,31.7,31.4
				C-637.7,161.9-637.7,171.9-637.7,171.9z"/>
			<path id="XMLID_814_" class="st1" d="M-501.4-214.4v23.5h23.6c1.3-17.4,15.3-31.4,32.7-32.7v-23.9h-23.7
				C-469.9-229.9-483.9-215.8-501.4-214.4z M-462.3-239.9h9.7v9.9c-15.5,3.8-27.8,16-31.6,31.6h-9.6v-9.5
				C-478.2-211.9-466-224.3-462.3-239.9z"/>
			<path id="XMLID_811_" class="st1" d="M-530.6-191h23.9v-23.4c-17.6-1.2-31.8-15.4-32.9-33.1h-23.7v23.9
				C-545.8-222.3-531.9-208.4-530.6-191z M-555.7-239.9h9.7c3.7,15.8,16.1,28.2,31.8,32v9.4h-9.9c-3.8-15.5-16.1-27.8-31.6-31.6
				V-239.9z"/>
			<path id="XMLID_808_" class="st1" d="M-169.1-247.5h-23.7v23.9c17.5,1.3,31.4,15.2,32.7,32.7h23.9v-23.4
				C-153.9-215.7-168-229.8-169.1-247.5z M-143.8-198.5h-9.9c-3.8-15.5-16.1-27.8-31.6-31.6v-9.9h9.7c3.7,15.8,16.1,28.2,31.8,32
				V-198.5z"/>
			<path id="XMLID_805_" class="st1" d="M-192.9-153.1v23.8h23.8c1.4-17.4,15.4-31.2,32.8-32.5v-24h-23.9
				C-161.5-168.3-175.4-154.3-192.9-153.1z M-153.7-178.2h9.9v10c-15.5,3.7-27.8,15.9-31.7,31.4h-9.8v-9.8
				C-169.8-150.4-157.5-162.7-153.7-178.2z"/>
			<path id="XMLID_802_" class="st1" d="M-131-285c17.3,1.3,31.1,15,32.6,32.2h23.8v-23.8c-17.5-1.3-31.4-15.2-32.7-32.7H-131V-285z
				 M-123.5-301.6h9.6c3.8,15.5,16,27.8,31.6,31.5v9.8h-9.9c-3.9-15.3-16-27.3-31.4-31.1V-301.6z"/>
			<path id="XMLID_799_" class="st1" d="M-254.5-38.4c17.4,1.3,31.3,15.2,32.6,32.6h23.8v-23.8c-17.5-1.3-31.4-15.2-32.7-32.7h-23.6
				V-38.4z M-246.9-54.7h9.6c3.8,15.5,16.1,27.8,31.6,31.5v9.8h-9.8c-3.8-15.5-16-27.7-31.5-31.5V-54.7z"/>
			<path id="XMLID_796_" class="st1" d="M-407.1-67.5h23.9v-23.6c-17.6-1.2-31.7-15.3-32.9-32.9h-23.8v23.9
				C-422.4-98.9-408.4-84.9-407.1-67.5z M-432.3-116.5h9.7c3.7,15.7,16.1,28,31.8,31.8v9.6h-9.9c-3.8-15.5-16.1-27.8-31.6-31.5
				V-116.5z"/>
			<path id="XMLID_793_" class="st1" d="M-345.4,246.4c-1.4,17.2-15.3,31-32.6,32.3v24.2h23.6c1.3-17.4,15.3-31.4,32.7-32.7v-23.9
				H-345.4z M-360.8,295.3h-9.6v-10.2c15.4-3.8,27.5-15.9,31.4-31.2h9.8v9.9C-344.7,267.6-357,279.8-360.8,295.3z"/>
			<path id="XMLID_790_" class="st1" d="M-345.4,122.9c-1.3,17.3-15.2,31.2-32.6,32.5v24h23.6c1.3-17.4,15.3-31.4,32.7-32.7v-23.9
				H-345.4z M-360.8,171.9h-9.6v-10h-0.3c15.6-3.7,27.9-15.9,31.7-31.4h9.8v9.9C-344.7,144.1-357,156.4-360.8,171.9z"/>
			<path id="XMLID_787_" class="st1" d="M-136.3,278.7c-17.4-1.2-31.4-15-32.8-32.3h-23.8v23.9c17.5,1.3,31.4,15.2,32.7,32.7h23.9
				V278.7z M-143.8,295.3h-9.9c-3.8-15.5-16.1-27.8-31.6-31.5v-9.9h9.8c3.9,15.4,16.1,27.5,31.6,31.2V295.3z"/>
			<path id="XMLID_784_" class="st1" d="M-259.7,155.4c-17.5-1.2-31.5-15.1-32.8-32.5h-23.8v23.9c17.5,1.3,31.4,15.2,32.7,32.7h23.9
				V155.4z M-267.3,171.9h-9.9c-3.8-15.5-16.1-27.8-31.6-31.5v-9.9h9.8c3.8,15.5,16.1,27.7,31.7,31.4
				C-267.3,161.9-267.3,171.9-267.3,171.9z"/>
			<path id="XMLID_781_" class="st1" d="M-506.7,32.1c-17.5-1.2-31.6-15.2-32.8-32.7h-23.8v23.9c17.5,1.3,31.4,15.2,32.7,32.7h23.9
				V32.1z M-514.2,48.4h-9.9c-3.8-15.5-16.1-27.8-31.6-31.5V7h9.8c3.8,15.6,16.1,27.9,31.7,31.6V48.4z"/>
			<path id="XMLID_778_" class="st1" d="M-192.9-29.6v23.8h23.8c1.3-17.5,15.3-31.4,32.8-32.6v-23.8h-23.9
				C-161.5-44.8-175.4-30.9-192.9-29.6z M-153.7-54.7h9.9v9.8c-15.6,3.7-27.9,16-31.7,31.5h-9.8v-9.8
				C-169.8-26.9-157.5-39.2-153.7-54.7z"/>
			<path id="XMLID_775_" class="st1" d="M-383.2,278.7c-17.4-1.2-31.4-15-32.8-32.3h-23.8v23.9c17.5,1.3,31.4,15.2,32.7,32.7h23.9
				V278.7z M-390.8,295.3h-9.9c-3.8-15.5-16-27.8-31.6-31.5v-9.9h9.8c3.9,15.4,16.1,27.5,31.6,31.2V295.3z"/>
			<path id="XMLID_772_" class="st1" d="M-468.9,122.9c-1.3,17.3-15.2,31.2-32.6,32.5v24h23.6c1.3-17.4,15.3-31.4,32.7-32.7v-23.9
				H-468.9z M-484.2,171.9h-9.6v-10h-0.3c15.6-3.7,27.9-15.9,31.7-31.4h9.8v9.9C-468.2,144.1-480.4,156.4-484.2,171.9z"/>
			<path id="XMLID_769_" class="st1" d="M-221.9,246.4c-1.4,17.2-15.3,31-32.6,32.3v24.2h23.6c1.3-17.4,15.3-31.4,32.7-32.7v-23.9
				H-221.9z M-237.3,295.3h-9.6v-10.2c15.4-3.8,27.5-15.9,31.4-31.2h9.8v9.9C-221.2,267.6-233.5,279.8-237.3,295.3z"/>
			<path id="XMLID_766_" class="st1" d="M-259.7,278.7c-17.4-1.2-31.4-15-32.8-32.3h-23.8v23.9c17.5,1.3,31.4,15.2,32.7,32.7h23.9
				V278.7z M-267.3,295.3h-9.9c-3.8-15.5-16.1-27.8-31.6-31.5v-9.9h9.8c3.9,15.4,16.1,27.5,31.6,31.2V295.3z"/>
			<path id="XMLID_763_" class="st1" d="M-506.7,155.4c-17.5-1.2-31.5-15.1-32.8-32.5h-23.8v23.9c17.5,1.3,31.4,15.2,32.7,32.7h23.9
				V155.4z M-514.2,171.9h-9.9c-3.8-15.5-16.1-27.8-31.6-31.5v-9.9h9.8c3.8,15.5,16.1,27.7,31.7,31.4
				C-514.2,161.9-514.2,171.9-514.2,171.9z"/>
			<path id="XMLID_760_" class="st1" d="M-539.5,117.7c1.2-17.5,15.3-31.6,32.8-32.8V61.2h-23.9c-1.3,17.4-15.3,31.4-32.7,32.7v23.8
				H-539.5z M-524.1,68.8h9.9v9.6c-15.7,3.8-28,16.1-31.8,31.7h-9.7v-9.8C-540.2,96.5-527.9,84.3-524.1,68.8z"/>
			<path id="XMLID_757_" class="st1" d="M-221.9-124c-1.2,17.5-15.1,31.5-32.6,32.9v23.7h23.6c1.3-17.4,15.3-31.4,32.7-32.7V-124
				H-221.9z M-237.3-75.1h-9.6v-9.7c15.6-3.8,27.8-16.2,31.5-31.7h9.7v9.9C-221.2-102.8-233.5-90.6-237.3-75.1z"/>
			<path id="XMLID_754_" class="st1" d="M-383.2,155.4c-17.5-1.2-31.5-15.1-32.8-32.5h-23.8v23.9c17.5,1.3,31.4,15.2,32.7,32.7h23.9
				V155.4z M-390.8,171.9h-9.9c-3.8-15.5-16.1-27.8-31.6-31.5v-9.9h9.8c3.8,15.5,16.1,27.7,31.7,31.4
				C-390.8,161.9-390.8,171.9-390.8,171.9z"/>
			<path id="XMLID_751_" class="st1" d="M-445.1-100.2V-124h-23.8c-1.2,17.5-15.1,31.5-32.6,32.9v23.7h23.6
				C-476.5-84.9-462.5-98.9-445.1-100.2z M-484.2-75.1h-9.6v-9.7c15.6-3.8,27.8-16.2,31.5-31.7h9.7v9.9
				C-468.2-102.8-480.4-90.6-484.2-75.1z"/>
			<path id="XMLID_748_" class="st1" d="M-378-91.2v23.7h23.6c1.3-17.4,15.3-31.4,32.7-32.7V-124h-23.8
				C-346.5-106.5-360.5-92.5-378-91.2z M-338.9-116.5h9.7v9.9c-15.5,3.8-27.8,16-31.6,31.5h-9.6v-9.7
				C-354.8-88.6-342.6-100.9-338.9-116.5z"/>
			<path id="XMLID_745_" class="st1" d="M-416-129.3c1.4-17.4,15.4-31.2,32.8-32.5v-24h-23.9c-1.3,17.4-15.3,31.4-32.7,32.7v23.8
				H-416z M-400.7-178.2h9.9v10c-15.5,3.7-27.8,15.9-31.7,31.4h-9.8v-9.8C-416.7-150.4-404.5-162.7-400.7-178.2z"/>
			<path id="XMLID_742_" class="st1" d="M-539.5-5.8c1.3-17.5,15.3-31.4,32.8-32.6v-23.8h-23.9c-1.3,17.4-15.3,31.4-32.7,32.7v23.8
				H-539.5z M-524.1-54.7h9.9v9.8c-15.6,3.7-27.9,16-31.7,31.5h-9.8v-9.8C-540.2-26.9-527.9-39.2-524.1-54.7z"/>
			<path id="XMLID_739_" class="st1" d="M-501.4-161.7c17.3,1.3,31.2,15.1,32.6,32.4h23.8v-23.8c-17.5-1.3-31.4-15.2-32.7-32.7
				h-23.6V-161.7z M-493.9-168.2v-10h9.6c3.8,15.5,16.1,27.8,31.6,31.5v9.8h-9.8c-3.9-15.5-16.1-27.6-31.7-31.4H-493.9z"/>
			<path id="XMLID_736_" class="st1" d="M-506.7,278.7c-17.4-1.2-31.4-15-32.8-32.3h-23.8v23.9c17.5,1.3,31.4,15.2,32.7,32.7h23.9
				V278.7z M-514.2,295.3h-9.9c-3.8-15.5-16.1-27.8-31.6-31.5v-9.9h9.8c3.9,15.4,16.1,27.5,31.6,31.2V295.3z"/>
			<path id="XMLID_733_" class="st1" d="M-663-5.8c1.3-17.4,15.3-31.4,32.8-32.6v-23.8H-654c-1.3,17.4-15.3,31.4-32.7,32.7v23.8
				H-663z M-679.2-23.2c15.5-3.8,27.8-16,31.6-31.5h9.9v9.8c-15.6,3.8-27.9,16-31.7,31.5h-9.8V-23.2z"/>
			<path id="XMLID_730_" class="st1" d="M-539.5-129.3c1.4-17.4,15.4-31.2,32.8-32.5v-24h-23.9c-1.3,17.4-15.3,31.4-32.7,32.7v23.8
				H-539.5z M-524.1-178.2h9.9v10c-15.5,3.7-27.8,15.9-31.7,31.4h-9.8v-9.8C-540.2-150.4-527.9-162.7-524.1-178.2z"/>
			<path id="XMLID_727_" class="st1" d="M-378-161.7c17.3,1.3,31.2,15.1,32.6,32.4h23.8v-23.8c-17.5-1.3-31.4-15.2-32.7-32.7H-378
				V-161.7z M-370.4-168.2v-10h9.6c3.8,15.5,16.1,27.8,31.6,31.5v9.8h-9.8c-3.9-15.5-16.1-27.6-31.7-31.4H-370.4z"/>
			<path id="XMLID_724_" class="st1" d="M-131,208.1c17.5,1.4,31.5,15.4,32.6,33h23.7v-23.8c-17.5-1.3-31.4-15.2-32.7-32.7H-131
				V208.1z M-123.5,192.2h9.6c3.8,15.5,16,27.8,31.6,31.5v9.8h-9.7c-3.7-15.6-16-28-31.6-31.9V192.2z"/>
			<path id="XMLID_721_" class="st1" d="M-254.5,84.9c17.4,1.3,31.4,15.3,32.6,32.8h23.8V93.9c-17.5-1.3-31.4-15.2-32.7-32.7h-23.6
				V84.9z M-246.9,68.8h9.6c3.8,15.5,16.1,27.8,31.6,31.5v9.8h-9.7c-3.7-15.6-16-27.8-31.5-31.7V68.8z"/>
			<path id="XMLID_641_" class="st1" d="M-98.5,246.4c-1.4,17.2-15.3,31-32.6,32.3v24.2h23.6c1.3-17.4,15.3-31.4,32.7-32.7v-23.9
				H-98.5z M-82.2,263.8c-15.5,3.8-27.8,16-31.6,31.5h-9.6v-10.2c15.4-3.8,27.5-15.9,31.4-31.2h9.8V263.8z"/>
			<path id="XMLID_638_" class="st1" d="M-506.7-91.1c-17.6-1.2-31.7-15.3-32.8-32.9h-23.8v23.9c17.5,1.3,31.4,15.2,32.7,32.7h23.9
				V-91.1z M-514.2-75.1h-9.9c-3.8-15.5-16.1-27.8-31.6-31.5v-9.9h9.7c3.7,15.7,16.1,28,31.8,31.8V-75.1z"/>
			<path id="XMLID_635_" class="st1" d="M-378-38.4c17.4,1.3,31.3,15.2,32.6,32.6h23.8v-23.8c-17.5-1.3-31.4-15.2-32.7-32.7H-378
				V-38.4z M-370.4-54.7h9.6c3.8,15.5,16.1,27.8,31.6,31.5v9.8h-9.8c-3.8-15.5-16-27.7-31.5-31.5V-54.7z"/>
			<path id="XMLID_632_" class="st1" d="M-230.8,184.7h-23.6v23.5c17.5,1.3,31.5,15.4,32.6,33h23.7v-23.8
				C-215.6,216.1-229.6,202.1-230.8,184.7z M-205.7,233.6h-9.7c-3.7-15.6-16-28-31.6-31.9v-9.5h9.6c3.8,15.5,16,27.8,31.6,31.6
				V233.6z"/>
			<path id="XMLID_629_" class="st1" d="M-221.9-0.6c-1.3,17.4-15.2,31.3-32.6,32.7V56h23.6c1.3-17.4,15.3-31.4,32.7-32.7V-0.6
				H-221.9z M-237.3,48.4h-9.6v-9.9c15.5-3.8,27.7-16.1,31.5-31.6h9.8v9.9C-221.2,20.6-233.5,32.9-237.3,48.4z"/>
			<path id="XMLID_626_" class="st1" d="M-468.9,246.4c-1.4,17.2-15.3,31-32.6,32.3v24.2h23.6c1.3-17.4,15.3-31.4,32.7-32.7v-23.9
				H-468.9z M-484.2,295.3h-9.6v-10.2c15.4-3.8,27.5-15.9,31.4-31.2h9.8v9.9C-468.2,267.6-480.4,279.8-484.2,295.3z"/>
			<path id="XMLID_623_" class="st1" d="M-221.9,122.9c-1.3,17.3-15.2,31.2-32.6,32.5v24h23.6c1.3-17.4,15.3-31.4,32.7-32.7v-23.9
				H-221.9z M-237.3,171.9h-9.6v-10h-0.3c15.6-3.7,27.9-15.9,31.7-31.4h9.8v9.9C-221.2,144.1-233.5,156.4-237.3,171.9z"/>
			<path id="XMLID_620_" class="st1" d="M-501.4-285c17.3,1.3,31.1,15,32.6,32.2h23.8v-23.8c-17.5-1.3-31.4-15.2-32.7-32.7h-23.6
				V-285z M-493.9-301.6h9.6c3.8,15.5,16.1,27.8,31.6,31.5v9.8h-9.9c-3.9-15.3-16-27.3-31.4-31.1V-301.6z"/>
			<path id="XMLID_617_" class="st1" d="M-477.8,184.7h-23.6v23.5c17.5,1.3,31.5,15.4,32.6,33h23.7v-23.8
				C-462.5,216.1-476.5,202.1-477.8,184.7z M-452.6,233.6h-9.7c-3.7-15.6-16-28-31.6-31.9v-9.5h9.6c3.8,15.5,16.1,27.8,31.6,31.6
				V233.6z"/>
			<path id="XMLID_614_" class="st1" d="M-416-5.8c1.3-17.5,15.3-31.4,32.8-32.6v-23.8h-23.9c-1.3,17.4-15.3,31.4-32.7,32.7v23.8
				H-416z M-400.7-54.7h9.9v9.8c-15.6,3.7-27.9,16-31.7,31.5h-9.8v-9.8C-416.7-26.9-404.5-39.2-400.7-54.7z"/>
			<path id="XMLID_611_" class="st1" d="M-592.3,117.7h23.8V93.9c-17.5-1.3-31.4-15.2-32.7-32.7h-23.6v23.7
				C-607.5,86.2-593.5,100.2-592.3,117.7z M-617.3,68.8h9.6c3.8,15.5,16.1,27.8,31.6,31.5v9.8h-9.7c-3.7-15.6-16-27.8-31.5-31.7
				V68.8z"/>
			<path id="XMLID_608_" class="st1" d="M-383.2,84.8V61.2h-23.9c-1.3,17.4-15.3,31.4-32.7,32.7v23.8h23.8
				C-414.8,100.1-400.8,86.1-383.2,84.8z M-422.5,110.1h-9.7v-9.8c15.5-3.8,27.8-16,31.6-31.5h9.9v9.6
				C-406.4,82.1-418.8,94.5-422.5,110.1z"/>
			<path id="XMLID_605_" class="st1" d="M-98.4-247.5c-1.1,17.6-15.1,31.7-32.6,33.1v23.5h23.6c1.3-17.4,15.3-31.4,32.7-32.7v-23.8
				H-98.4z M-82.2-230.1c-15.5,3.8-27.8,16-31.6,31.5h-9.6v-9.5c15.6-3.9,27.9-16.3,31.6-31.9h9.7V-230.1z"/>
			<path id="XMLID_602_" class="st1" d="M-630.2-214.4c-17.6-1.2-31.8-15.4-32.9-33.1h-23.7v23.8c17.5,1.3,31.4,15.2,32.7,32.7h23.9
				V-214.4z M-637.7-198.5h-9.9c-3.8-15.5-16-27.8-31.6-31.5v-9.9h9.7c3.7,15.8,16.1,28.2,31.8,32V-198.5z"/>
			<path id="XMLID_599_" class="st1" d="M-663-129.3c1.4-17.4,15.4-31.2,32.8-32.5v-24H-654c-1.3,17.4-15.3,31.4-32.7,32.7v23.8
				H-663z M-679.2-146.6c15.5-3.8,27.8-16,31.6-31.5h9.9v10c-15.5,3.7-27.8,15.9-31.7,31.4h-9.8V-146.6z"/>
			<path id="XMLID_596_" class="st1" d="M-259.7,208.1v-23.4h-23.9c-1.3,17.4-15.3,31.4-32.7,32.7v23.8h23.7
				C-291.5,223.5-277.4,209.4-259.7,208.1z M-299.1,233.6h-9.7v-9.8c15.5-3.8,27.8-16,31.6-31.6h9.9v9.4
				C-283,205.4-295.4,217.9-299.1,233.6z"/>
			<path id="XMLID_593_" class="st1" d="M-316.3,93.9v23.8h23.8c1.2-17.5,15.3-31.6,32.8-32.8V61.2h-23.9
				C-284.9,78.6-298.9,92.6-316.3,93.9z M-277.2,68.8h9.9v9.6c-15.7,3.8-28,16.1-31.8,31.7h-9.7v-9.8
				C-293.2,96.5-281,84.3-277.2,68.8z"/>
			<path id="XMLID_590_" class="st1" d="M-506.7,208.1v-23.4h-23.9c-1.3,17.4-15.3,31.4-32.7,32.7v23.8h23.7
				C-538.4,223.5-524.3,209.4-506.7,208.1z M-546,233.6h-9.7v-9.8c15.5-3.8,27.8-16,31.6-31.6h9.9v9.4
				C-530,205.4-542.3,217.9-546,233.6z"/>
			<path id="XMLID_587_" class="st1" d="M-568.5,23.3V-0.6h-23.8c-1.3,17.4-15.2,31.4-32.6,32.7V56h23.6
				C-600,38.5-586,24.6-568.5,23.3z M-607.7,48.4h-9.6v-9.9c15.5-3.8,27.7-16.1,31.5-31.6h9.7v9.9
				C-591.6,20.6-603.9,32.9-607.7,48.4z"/>
			<path id="XMLID_584_" class="st1" d="M-445.1,23.3V-0.6h-23.8c-1.3,17.4-15.2,31.3-32.6,32.7V56h23.6
				C-476.5,38.5-462.5,24.6-445.1,23.3z M-484.2,48.4h-9.6v-9.9c15.5-3.8,27.7-16.1,31.5-31.6h9.7v9.9
				C-468.2,20.6-480.4,32.9-484.2,48.4z"/>
			<path id="XMLID_581_" class="st1" d="M-539.5-252.7c1.5-17.3,15.4-31,32.8-32.3v-24.2h-23.9c-1.3,17.4-15.3,31.4-32.7,32.7v23.8
				H-539.5z M-524.1-301.6h9.9v10.2c-15.5,3.7-27.7,15.8-31.6,31.2h-9.9v-9.8C-540.2-273.9-527.9-286.1-524.1-301.6z"/>
			<path id="XMLID_578_" class="st1" d="M-624.9-285c17.3,1.3,31.1,15,32.6,32.2h23.8v-23.8c-17.5-1.3-31.4-15.2-32.7-32.7h-23.6
				V-285z M-617.3-301.6h9.6c3.8,15.5,16.1,27.8,31.6,31.5v9.8h-9.9c-3.9-15.3-16-27.3-31.4-31.1V-301.6z"/>
			<path id="XMLID_575_" class="st1" d="M-192.9,93.9v23.8h23.8c1.2-17.5,15.3-31.6,32.8-32.8V61.2h-23.9
				C-161.5,78.6-175.4,92.6-192.9,93.9z M-153.7,68.8h9.9v9.6c-15.7,3.8-28,16.1-31.8,31.7h-9.7v-9.8
				C-169.8,96.5-157.5,84.3-153.7,68.8z"/>
			<path id="XMLID_572_" class="st1" d="M-383.2,32.1c-17.5-1.2-31.6-15.2-32.8-32.7h-23.8v23.9c17.5,1.3,31.4,15.2,32.7,32.7h23.9
				V32.1z M-390.8,48.4h-9.9c-3.8-15.5-16.1-27.8-31.6-31.5V7h9.8c3.8,15.6,16.1,27.9,31.7,31.6V48.4z"/>
			<path id="XMLID_569_" class="st1" d="M-292.6-252.7c1.5-17.3,15.4-31,32.8-32.3v-24.2h-23.9c-1.3,17.4-15.3,31.4-32.7,32.7v23.8
				H-292.6z M-277.2-301.6h9.9v10.2c-15.5,3.7-27.7,15.8-31.6,31.2h-9.9v-9.8C-293.2-273.9-281-286.1-277.2-301.6z"/>
			<path id="XMLID_566_" class="st1" d="M-601.2,184.7h-23.6v23.5c17.5,1.3,31.5,15.4,32.6,33h23.7v-23.8
				C-586,216.1-600,202.1-601.2,184.7z M-576.1,233.6h-9.7c-3.7-15.6-16-28-31.6-31.9v-9.5h9.6c3.8,15.5,16.1,27.8,31.6,31.6V233.6z
				"/>
			<path id="XMLID_563_" class="st1" d="M-662.9-252.7c1.5-17.3,15.4-31,32.8-32.3v-24.2H-654c-1.3,17.4-15.3,31.4-32.7,32.7v23.8
				H-662.9z M-679.2-270.1c15.5-3.8,27.8-16,31.6-31.5h9.9v10.2c-15.5,3.7-27.7,15.8-31.6,31.2h-9.9V-270.1z"/>
			<path id="XMLID_560_" class="st1" d="M-354.3,184.7H-378v23.5c17.5,1.3,31.5,15.4,32.6,33h23.7v-23.8
				C-339.1,216.1-353,202.1-354.3,184.7z M-329.2,233.6h-9.7c-3.7-15.6-16-28-31.6-31.9v-9.5h9.6c3.8,15.5,16.1,27.8,31.6,31.6
				V233.6z"/>
			<path id="XMLID_557_" class="st1" d="M-477.8,61.2h-23.6v23.7c17.4,1.3,31.4,15.3,32.6,32.8h23.8V93.9
				C-462.5,92.6-476.5,78.6-477.8,61.2z M-452.6,110.1h-9.7c-3.7-15.6-16-27.8-31.5-31.7v-9.7h9.6c3.8,15.5,16.1,27.8,31.6,31.5
				V110.1z"/>
			<path id="XMLID_554_" class="st1" d="M-345.4-0.6c-1.3,17.4-15.2,31.3-32.6,32.7V56h23.6c1.3-17.4,15.3-31.4,32.7-32.7V-0.6
				H-345.4z M-360.8,48.4h-9.6v-9.9c15.5-3.8,27.7-16.1,31.5-31.6h9.8v9.9C-344.7,20.6-357,32.9-360.8,48.4z"/>
			<path id="XMLID_551_" class="st1" d="M-568.5,146.8v-23.9h-23.8c-1.4,17.3-15.2,31.2-32.6,32.5v24h23.6
				C-600,162-586,148.1-568.5,146.8z M-607.7,171.9h-9.6v-10h-0.3c15.6-3.7,27.9-15.9,31.7-31.4h9.8v9.9
				C-591.6,144.1-603.9,156.4-607.7,171.9z"/>
			<path id="XMLID_548_" class="st1" d="M-131-161.7c17.3,1.3,31.2,15.2,32.6,32.4h23.8V-153c-17.5-1.3-31.4-15.2-32.7-32.7H-131
				V-161.7z M-123.5-168.2v-10h9.6c3.8,15.5,16,27.8,31.6,31.5v9.8H-92c-3.9-15.5-16.1-27.6-31.7-31.4H-123.5z"/>
			<path id="XMLID_545_" class="st1" d="M-98.4-124c-1.2,17.5-15.1,31.5-32.6,32.9v23.7h23.6c1.3-17.4,15.3-31.4,32.7-32.7V-124
				H-98.4z M-82.2-106.6c-15.5,3.8-27.8,16-31.6,31.5h-9.6v-9.7c15.6-3.8,27.8-16.2,31.5-31.7h9.7V-106.6z"/>
			<path id="XMLID_542_" class="st1" d="M-592.3-5.8h23.8v-23.8c-17.5-1.3-31.4-15.2-32.7-32.7h-23.6v23.8
				C-607.5-37.1-593.6-23.2-592.3-5.8z M-617.3-54.7h9.6c3.8,15.5,16.1,27.8,31.6,31.5v9.8h-9.8c-3.8-15.5-16-27.7-31.5-31.5V-54.7z
				"/>
			<path id="XMLID_539_" class="st1" d="M-630.2-91.1c-17.6-1.2-31.7-15.3-32.8-32.9h-23.8v23.9c17.5,1.3,31.4,15.2,32.7,32.7h23.9
				V-91.1z M-637.7-75.1h-9.9c-3.8-15.5-16-27.8-31.6-31.5v-9.9h9.7c3.7,15.7,16.1,28,31.8,31.8V-75.1z"/>
			<path id="XMLID_536_" class="st1" d="M-192.9,217.3v23.8h23.7c1.1-17.6,15.2-31.8,32.9-33v-23.4h-23.9
				C-161.5,202.1-175.4,216.1-192.9,217.3z M-153.7,192.2h9.9v9.4c-15.7,3.8-28.1,16.2-31.8,31.9h-9.7v-9.8
				C-169.8,220-157.5,207.8-153.7,192.2z"/>
			<path id="XMLID_533_" class="st1" d="M-383.2,208.1v-23.4h-23.9c-1.3,17.4-15.3,31.4-32.7,32.7v23.8h23.7
				C-414.9,223.5-400.8,209.4-383.2,208.1z M-422.6,233.6h-9.7v-9.8c15.5-3.8,27.8-16,31.6-31.6h9.9v9.4
				C-406.5,205.4-418.9,217.9-422.6,233.6z"/>
			<path id="XMLID_530_" class="st1" d="M-416-252.7c1.5-17.3,15.4-31,32.8-32.3v-24.2h-23.9c-1.3,17.4-15.3,31.4-32.7,32.7v23.8
				H-416z M-400.7-301.6h9.9v10.2c-15.5,3.7-27.7,15.8-31.6,31.2h-9.9v-9.8C-416.7-273.9-404.4-286.1-400.7-301.6z"/>
			<path id="XMLID_527_" class="st1" d="M-568.5-100.2V-124h-23.7c-1.2,17.5-15.1,31.5-32.6,32.9v23.7h23.6
				C-600-84.9-586-98.9-568.5-100.2z M-607.7-75.1h-9.6v-9.7c15.6-3.8,27.8-16.2,31.5-31.7h9.7v9.9
				C-591.6-102.8-603.9-90.6-607.7-75.1z"/>
			<path id="XMLID_524_" class="st1" d="M-354.3,61.2H-378v23.7c17.4,1.3,31.4,15.3,32.6,32.8h23.8V93.9
				C-339.1,92.6-353,78.6-354.3,61.2z M-329.2,110.1h-9.7c-3.7-15.6-16-27.8-31.5-31.7v-9.7h9.6c3.8,15.5,16.1,27.8,31.6,31.5V110.1
				z"/>
			<path id="XMLID_521_" class="st1" d="M-169.1-252.7c1.5-17.3,15.4-31,32.8-32.3v-24.2h-23.9c-1.3,17.4-15.3,31.4-32.7,32.7v23.8
				H-169.1z M-153.7-301.6h9.9v10.2c-15.5,3.7-27.7,15.8-31.6,31.2h-9.9v-9.8C-169.8-273.9-157.5-286.1-153.7-301.6z"/>
			<path id="XMLID_520_" class="st1" d="M-94.7-311.8h-7.6c0,16.6,13.5,30.1,30.2,30.1v-7.6C-84.5-289.2-94.7-299.4-94.7-311.8z"/>
			<path id="XMLID_519_" class="st1" d="M-102.2-188.4c0,16.6,13.5,30.2,30.2,30.2v-7.6c-12.5,0-22.6-10.1-22.6-22.6
				c0-12.5,10.2-22.6,22.6-22.6v-7.6C-88.7-218.5-102.2-205-102.2-188.4z"/>
			<path id="XMLID_518_" class="st1" d="M-102.2-64.9c0,16.6,13.5,30.1,30.2,30.1v-7.6c-12.5,0-22.6-10.1-22.6-22.6
				c0-12.5,10.2-22.6,22.6-22.6V-95C-88.7-95-102.2-81.5-102.2-64.9z"/>
			<path id="XMLID_517_" class="st1" d="M-102.2,58.6c0,16.6,13.5,30.1,30.2,30.1v-7.6c-12.5,0-22.6-10.1-22.6-22.6
				C-94.7,46.1-84.5,36-72,36v-7.6C-88.7,28.4-102.2,42-102.2,58.6z"/>
			<path id="XMLID_516_" class="st1" d="M-102.2,182.1c0,16.6,13.5,30.2,30.2,30.2v-7.6c-12.5,0-22.6-10.1-22.6-22.6
				c0-12.5,10.2-22.6,22.6-22.6v-7.6C-88.7,151.9-102.2,165.4-102.2,182.1z"/>
			<path id="XMLID_515_" class="st1" d="M-689.4,275.4v7.6c12.5,0,22.6,10.1,22.6,22.6h7.6C-659.2,288.9-672.7,275.4-689.4,275.4z"
				/>
			<path id="XMLID_514_" class="st1" d="M-565.9,275.4c-16.7,0-30.2,13.5-30.2,30.1h7.6c0-12.5,10.1-22.6,22.6-22.6
				c12.5,0,22.6,10.1,22.6,22.6h7.6C-535.7,288.9-549.3,275.4-565.9,275.4z"/>
			<path id="XMLID_513_" class="st1" d="M-442.4,275.4c-16.6,0-30.2,13.5-30.2,30.1h7.6c0-12.5,10.1-22.6,22.6-22.6
				c12.5,0,22.6,10.1,22.6,22.6h7.6C-412.3,288.9-425.8,275.4-442.4,275.4z"/>
			<path id="XMLID_512_" class="st1" d="M-319,275.4c-16.7,0-30.2,13.5-30.2,30.1h7.6c0-12.5,10.2-22.6,22.6-22.6
				c12.5,0,22.6,10.1,22.6,22.6h7.6C-288.8,288.9-302.3,275.4-319,275.4z"/>
			<path id="XMLID_511_" class="st1" d="M-195.5,275.4c-16.7,0-30.2,13.5-30.2,30.1h7.6c0-12.5,10.2-22.6,22.6-22.6
				c12.5,0,22.6,10.1,22.6,22.6h7.6C-165.3,288.9-178.9,275.4-195.5,275.4z"/>
			<path id="XMLID_510_" class="st1" d="M-102.2,305.5h7.6c0-12.5,10.2-22.6,22.6-22.6v-7.6C-88.7,275.4-102.2,288.9-102.2,305.5z"
				/>
			<path id="XMLID_509_" class="st1" d="M-565.9-281.7c16.7,0,30.2-13.5,30.2-30.1h-7.6c0,12.5-10.2,22.6-22.6,22.6
				c-12.5,0-22.6-10.1-22.6-22.6h-7.6C-596.1-295.2-582.6-281.7-565.9-281.7z"/>
			<path id="XMLID_508_" class="st1" d="M-442.4-281.7c16.7,0,30.2-13.5,30.2-30.1h-7.6c0,12.5-10.1,22.6-22.6,22.6
				c-12.5,0-22.6-10.1-22.6-22.6h-7.6C-472.6-295.2-459.1-281.7-442.4-281.7z"/>
			<path id="XMLID_507_" class="st1" d="M-319-281.7c16.7,0,30.2-13.5,30.2-30.1h-7.6c0,12.5-10.2,22.6-22.6,22.6
				c-12.5,0-22.6-10.1-22.6-22.6h-7.6C-349.2-295.2-335.6-281.7-319-281.7z"/>
			<path id="XMLID_506_" class="st1" d="M-195.5-281.7c16.7,0,30.2-13.5,30.2-30.1h-7.6c0,12.5-10.1,22.6-22.6,22.6
				c-12.5,0-22.6-10.1-22.6-22.6h-7.6C-225.7-295.2-212.2-281.7-195.5-281.7z"/>
			<path id="XMLID_505_" class="st1" d="M-659.2-188.4c0-16.6-13.5-30.1-30.2-30.1v7.6c12.5,0,22.6,10.1,22.6,22.6
				c0,12.5-10.1,22.6-22.6,22.6v7.6C-672.7-158.2-659.2-171.7-659.2-188.4z"/>
			<path id="XMLID_502_" class="st1" d="M-565.9-158.2c16.6,0,30.2-13.5,30.2-30.1c0-16.6-13.5-30.1-30.2-30.1
				c-16.6,0-30.2,13.5-30.2,30.1C-596.1-171.7-582.6-158.2-565.9-158.2z M-565.9-210.9c12.5,0,22.6,10.1,22.6,22.6
				c0,12.5-10.2,22.6-22.6,22.6s-22.6-10.1-22.6-22.6C-588.5-200.8-578.4-210.9-565.9-210.9z"/>
			<path id="XMLID_499_" class="st1" d="M-442.4-158.2c16.6,0,30.2-13.5,30.2-30.1c0-16.6-13.5-30.1-30.2-30.1
				c-16.6,0-30.2,13.5-30.2,30.1C-472.6-171.7-459.1-158.2-442.4-158.2z M-442.4-210.9c12.5,0,22.6,10.1,22.6,22.6
				c0,12.5-10.2,22.6-22.6,22.6c-12.5,0-22.6-10.1-22.6-22.6C-465.1-200.8-454.9-210.9-442.4-210.9z"/>
			<path id="XMLID_496_" class="st1" d="M-319-158.2c16.6,0,30.2-13.5,30.2-30.1c0-16.6-13.5-30.1-30.2-30.1
				c-16.6,0-30.2,13.5-30.2,30.1C-349.2-171.7-335.6-158.2-319-158.2z M-319-210.9c12.5,0,22.6,10.1,22.6,22.6
				c0,12.5-10.2,22.6-22.6,22.6c-12.5,0-22.6-10.1-22.6-22.6C-341.6-200.8-331.5-210.9-319-210.9z"/>
			<path id="XMLID_493_" class="st1" d="M-195.5-218.5c-16.6,0-30.2,13.5-30.2,30.1c0,16.6,13.5,30.1,30.2,30.1
				c16.6,0,30.2-13.5,30.2-30.1C-165.3-205-178.9-218.5-195.5-218.5z M-195.5-165.8c-12.5,0-22.6-10.1-22.6-22.6
				c0-12.5,10.2-22.6,22.6-22.6c12.5,0,22.6,10.1,22.6,22.6C-172.9-175.9-183-165.8-195.5-165.8z"/>
			<path id="XMLID_492_" class="st1" d="M-659.2-64.9c0-16.6-13.5-30.1-30.2-30.1v7.6c12.5,0,22.6,10.1,22.6,22.6
				c0,12.5-10.1,22.6-22.6,22.6v7.6C-672.7-34.7-659.2-48.3-659.2-64.9z"/>
			<path id="XMLID_489_" class="st1" d="M-565.9-34.7c16.6,0,30.2-13.5,30.2-30.1S-549.3-95-565.9-95c-16.6,0-30.2,13.5-30.2,30.1
				S-582.6-34.7-565.9-34.7z M-565.9-87.5c12.5,0,22.6,10.1,22.6,22.6c0,12.5-10.2,22.6-22.6,22.6s-22.6-10.1-22.6-22.6
				C-588.5-77.3-578.4-87.5-565.9-87.5z"/>
			<path id="XMLID_486_" class="st1" d="M-442.4-34.7c16.6,0,30.2-13.5,30.2-30.1S-425.8-95-442.4-95c-16.6,0-30.2,13.5-30.2,30.1
				S-459.1-34.7-442.4-34.7z M-442.4-87.5c12.5,0,22.6,10.1,22.6,22.6c0,12.5-10.2,22.6-22.6,22.6c-12.5,0-22.6-10.1-22.6-22.6
				C-465.1-77.3-454.9-87.5-442.4-87.5z"/>
			<path id="XMLID_483_" class="st1" d="M-319-95c-16.6,0-30.2,13.5-30.2,30.1s13.5,30.1,30.2,30.1c16.6,0,30.2-13.5,30.2-30.1
				S-302.3-95-319-95z M-319-42.3c-12.5,0-22.6-10.1-22.6-22.6c0-12.5,10.2-22.6,22.6-22.6c12.5,0,22.6,10.1,22.6,22.6
				C-296.3-52.4-306.5-42.3-319-42.3z"/>
			<path id="XMLID_480_" class="st1" d="M-195.5-95c-16.6,0-30.2,13.5-30.2,30.1s13.5,30.1,30.2,30.1c16.6,0,30.2-13.5,30.2-30.1
				S-178.9-95-195.5-95z M-195.5-42.3c-12.5,0-22.6-10.1-22.6-22.6c0-12.5,10.2-22.6,22.6-22.6c12.5,0,22.6,10.1,22.6,22.6
				C-172.9-52.4-183-42.3-195.5-42.3z"/>
			<path id="XMLID_479_" class="st1" d="M-659.2,58.6c0-16.6-13.5-30.1-30.2-30.1V36c12.5,0,22.6,10.1,22.6,22.6
				c0,12.5-10.1,22.6-22.6,22.6v7.6C-672.7,88.7-659.2,75.2-659.2,58.6z"/>
			<path id="XMLID_476_" class="st1" d="M-565.9,88.7c16.6,0,30.2-13.5,30.2-30.1c0-16.6-13.5-30.1-30.2-30.1
				c-16.6,0-30.2,13.5-30.2,30.1C-596.1,75.2-582.6,88.7-565.9,88.7z M-565.9,36c12.5,0,22.6,10.1,22.6,22.6
				c0,12.5-10.2,22.6-22.6,22.6s-22.6-10.1-22.6-22.6C-588.5,46.1-578.4,36-565.9,36z"/>
			<path id="XMLID_473_" class="st1" d="M-442.4,28.4c-16.6,0-30.2,13.5-30.2,30.1c0,16.6,13.5,30.1,30.2,30.1
				c16.6,0,30.2-13.5,30.2-30.1C-412.3,42-425.8,28.4-442.4,28.4z M-442.4,81.2c-12.5,0-22.6-10.1-22.6-22.6
				c0-12.5,10.2-22.6,22.6-22.6c12.5,0,22.6,10.1,22.6,22.6C-419.8,71-430,81.2-442.4,81.2z"/>
			<path id="XMLID_470_" class="st1" d="M-319,28.4c-16.6,0-30.2,13.5-30.2,30.1c0,16.6,13.5,30.1,30.2,30.1
				c16.6,0,30.2-13.5,30.2-30.1C-288.8,42-302.3,28.4-319,28.4z M-319,81.2c-12.5,0-22.6-10.1-22.6-22.6c0-12.5,10.2-22.6,22.6-22.6
				c12.5,0,22.6,10.1,22.6,22.6C-296.3,71-306.5,81.2-319,81.2z"/>
			<path id="XMLID_467_" class="st1" d="M-195.5,28.4c-16.6,0-30.2,13.5-30.2,30.1c0,16.6,13.5,30.1,30.2,30.1
				c16.6,0,30.2-13.5,30.2-30.1C-165.3,42-178.9,28.4-195.5,28.4z M-195.5,81.2c-12.5,0-22.6-10.1-22.6-22.6
				c0-12.5,10.2-22.6,22.6-22.6c12.5,0,22.6,10.1,22.6,22.6C-172.9,71-183,81.2-195.5,81.2z"/>
			<path id="XMLID_466_" class="st1" d="M-659.2,182.1c0-16.6-13.5-30.1-30.2-30.1v7.6c12.5,0,22.6,10.1,22.6,22.6
				c0,12.5-10.1,22.6-22.6,22.6v7.6C-672.7,212.2-659.2,198.7-659.2,182.1z"/>
			<path id="XMLID_463_" class="st1" d="M-565.9,151.9c-16.6,0-30.2,13.5-30.2,30.2c0,16.6,13.5,30.1,30.2,30.1
				c16.6,0,30.2-13.5,30.2-30.1C-535.7,165.4-549.3,151.9-565.9,151.9z M-565.9,204.7c-12.5,0-22.6-10.1-22.6-22.6
				c0-12.5,10.2-22.6,22.6-22.6s22.6,10.1,22.6,22.6C-543.3,194.5-553.4,204.7-565.9,204.7z"/>
			<path id="XMLID_460_" class="st1" d="M-442.4,151.9c-16.6,0-30.2,13.5-30.2,30.2c0,16.6,13.5,30.1,30.2,30.1
				c16.6,0,30.2-13.5,30.2-30.1C-412.3,165.4-425.8,151.9-442.4,151.9z M-442.4,204.7c-12.5,0-22.6-10.1-22.6-22.6
				c0-12.5,10.2-22.6,22.6-22.6c12.5,0,22.6,10.1,22.6,22.6C-419.8,194.5-430,204.7-442.4,204.7z"/>
			<path id="XMLID_457_" class="st1" d="M-319,151.9c-16.6,0-30.2,13.5-30.2,30.2c0,16.6,13.5,30.1,30.2,30.1
				c16.6,0,30.2-13.5,30.2-30.1C-288.8,165.4-302.3,151.9-319,151.9z M-319,204.7c-12.5,0-22.6-10.1-22.6-22.6
				c0-12.5,10.2-22.6,22.6-22.6c12.5,0,22.6,10.1,22.6,22.6C-296.3,194.5-306.5,204.7-319,204.7z"/>
			<path id="XMLID_454_" class="st1" d="M-195.5,151.9c-16.6,0-30.2,13.5-30.2,30.2c0,16.6,13.5,30.1,30.2,30.1
				c16.6,0,30.2-13.5,30.2-30.1C-165.3,165.4-178.9,151.9-195.5,151.9z M-195.5,204.7c-12.5,0-22.6-10.1-22.6-22.6
				c0-12.5,10.2-22.6,22.6-22.6c12.5,0,22.6,10.1,22.6,22.6C-172.9,194.5-183,204.7-195.5,204.7z"/>
			<path id="XMLID_451_" class="st1" d="M-627.6-33.3c-16.6,0-30.2,13.5-30.2,30.1c0,16.6,13.5,30.1,30.2,30.1
				c16.6,0,30.2-13.5,30.2-30.1C-597.4-19.8-611-33.3-627.6-33.3z M-627.6,19.4c-12.5,0-22.6-10.1-22.6-22.6
				c0-12.5,10.2-22.6,22.6-22.6c12.5,0,22.6,10.1,22.6,22.6C-605,9.3-615.2,19.4-627.6,19.4z"/>
		</g>
		<g id="XMLID_6_">
			<path id="XMLID_447_" class="st1" d="M-10.3-279.9c-16.6,0-30.2,13.5-30.2,30.1s13.5,30.1,30.2,30.1c16.7,0,30.2-13.5,30.2-30.1
				S6.3-279.9-10.3-279.9z M-10.3-227.1c-12.5,0-22.6-10.1-22.6-22.6c0-12.5,10.2-22.6,22.6-22.6c12.5,0,22.6,10.1,22.6,22.6
				C12.3-237.3,2.2-227.1-10.3-227.1z"/>
			<path id="XMLID_444_" class="st1" d="M113.2-219.6c16.6,0,30.2-13.5,30.2-30.1s-13.5-30.1-30.2-30.1c-16.6,0-30.2,13.5-30.2,30.1
				S96.5-219.6,113.2-219.6z M113.2-272.3c12.5,0,22.6,10.1,22.6,22.6c0,12.5-10.2,22.6-22.6,22.6s-22.6-10.1-22.6-22.6
				C90.5-262.2,100.7-272.3,113.2-272.3z"/>
			<path id="XMLID_441_" class="st1" d="M236.6-219.6c16.6,0,30.2-13.5,30.2-30.1s-13.5-30.1-30.2-30.1c-16.7,0-30.2,13.5-30.2,30.1
				S220-219.6,236.6-219.6z M236.6-272.3c12.5,0,22.6,10.1,22.6,22.6c0,12.5-10.2,22.6-22.6,22.6c-12.5,0-22.6-10.1-22.6-22.6
				C214-262.2,224.2-272.3,236.6-272.3z"/>
			<path id="XMLID_438_" class="st1" d="M360.1-219.6c16.6,0,30.2-13.5,30.2-30.1s-13.5-30.1-30.2-30.1c-16.7,0-30.2,13.5-30.2,30.1
				S343.4-219.6,360.1-219.6z M360.1-272.3c12.5,0,22.6,10.1,22.6,22.6c0,12.5-10.2,22.6-22.6,22.6c-12.5,0-22.6-10.1-22.6-22.6
				C337.5-262.2,347.6-272.3,360.1-272.3z"/>
			<path id="XMLID_435_" class="st1" d="M483.6-279.9c-16.7,0-30.2,13.5-30.2,30.1s13.5,30.1,30.2,30.1c16.6,0,30.2-13.5,30.2-30.1
				S500.2-279.9,483.6-279.9z M483.6-227.1c-12.5,0-22.6-10.1-22.6-22.6c0-12.5,10.2-22.6,22.6-22.6c12.5,0,22.6,10.1,22.6,22.6
				C506.2-237.3,496-227.1,483.6-227.1z"/>
			<path id="XMLID_432_" class="st1" d="M-10.3-156.6c-16.6,0-30.2,13.5-30.2,30.1S-27-96.3-10.3-96.3c16.7,0,30.2-13.5,30.2-30.1
				S6.3-156.6-10.3-156.6z M-10.3-103.8c-12.5,0-22.6-10.1-22.6-22.6c0-12.5,10.2-22.6,22.6-22.6c12.5,0,22.6,10.1,22.6,22.6
				C12.3-114,2.2-103.8-10.3-103.8z"/>
			<path id="XMLID_429_" class="st1" d="M113.2-156.6c-16.6,0-30.2,13.5-30.2,30.1s13.5,30.1,30.2,30.1c16.6,0,30.2-13.5,30.2-30.1
				S129.8-156.6,113.2-156.6z M113.2-103.8c-12.5,0-22.6-10.1-22.6-22.6c0-12.5,10.2-22.6,22.6-22.6s22.6,10.1,22.6,22.6
				C135.8-114,125.6-103.8,113.2-103.8z"/>
			<path id="XMLID_426_" class="st1" d="M236.6-96.3c16.6,0,30.2-13.5,30.2-30.1s-13.5-30.1-30.2-30.1c-16.7,0-30.2,13.5-30.2,30.1
				S220-96.3,236.6-96.3z M236.6-149c12.5,0,22.6,10.1,22.6,22.6c0,12.5-10.2,22.6-22.6,22.6c-12.5,0-22.6-10.1-22.6-22.6
				C214-138.9,224.2-149,236.6-149z"/>
			<path id="XMLID_423_" class="st1" d="M360.1-96.3c16.6,0,30.2-13.5,30.2-30.1s-13.5-30.1-30.2-30.1c-16.7,0-30.2,13.5-30.2,30.1
				S343.4-96.3,360.1-96.3z M360.1-149c12.5,0,22.6,10.1,22.6,22.6c0,12.5-10.2,22.6-22.6,22.6c-12.5,0-22.6-10.1-22.6-22.6
				C337.5-138.9,347.6-149,360.1-149z"/>
			<path id="XMLID_420_" class="st1" d="M483.6-96.3c16.6,0,30.2-13.5,30.2-30.1s-13.5-30.1-30.2-30.1c-16.7,0-30.2,13.5-30.2,30.1
				S466.9-96.3,483.6-96.3z M483.6-149c12.5,0,22.6,10.1,22.6,22.6c0,12.5-10.2,22.6-22.6,22.6c-12.5,0-22.6-10.1-22.6-22.6
				C460.9-138.9,471.1-149,483.6-149z"/>
			<path id="XMLID_417_" class="st1" d="M113.2-33.3C96.5-33.3,83-19.8,83-3.1C83,13.5,96.5,27,113.2,27c16.6,0,30.2-13.5,30.2-30.1
				C143.4-19.8,129.8-33.3,113.2-33.3z M113.2,19.4c-12.5,0-22.6-10.1-22.6-22.6c0-12.5,10.2-22.6,22.6-22.6s22.6,10.1,22.6,22.6
				C135.8,9.3,125.6,19.4,113.2,19.4z"/>
			<path id="XMLID_414_" class="st1" d="M236.6,27c16.6,0,30.2-13.5,30.2-30.1c0-16.6-13.5-30.1-30.2-30.1
				c-16.7,0-30.2,13.5-30.2,30.1C206.4,13.5,220,27,236.6,27z M236.6-25.7c12.5,0,22.6,10.1,22.6,22.6c0,12.5-10.2,22.6-22.6,22.6
				C224.2,19.4,214,9.3,214-3.1C214-15.6,224.2-25.7,236.6-25.7z"/>
			<path id="XMLID_411_" class="st1" d="M360.1,27c16.6,0,30.2-13.5,30.2-30.1c0-16.6-13.5-30.1-30.2-30.1
				c-16.7,0-30.2,13.5-30.2,30.1C329.9,13.5,343.4,27,360.1,27z M360.1-25.7c12.5,0,22.6,10.1,22.6,22.6c0,12.5-10.2,22.6-22.6,22.6
				c-12.5,0-22.6-10.1-22.6-22.6C337.5-15.6,347.6-25.7,360.1-25.7z"/>
			<path id="XMLID_408_" class="st1" d="M483.6,27c16.6,0,30.2-13.5,30.2-30.1c0-16.6-13.5-30.1-30.2-30.1
				c-16.7,0-30.2,13.5-30.2,30.1C453.4,13.5,466.9,27,483.6,27z M483.6-25.7c12.5,0,22.6,10.1,22.6,22.6c0,12.5-10.2,22.6-22.6,22.6
				c-12.5,0-22.6-10.1-22.6-22.6C460.9-15.6,471.1-25.7,483.6-25.7z"/>
			<path id="XMLID_405_" class="st1" d="M-10.3,90c-16.6,0-30.2,13.5-30.2,30.1c0,16.6,13.5,30.1,30.2,30.1
				c16.7,0,30.2-13.5,30.2-30.1C19.9,103.5,6.3,90-10.3,90z M-10.3,142.7c-12.5,0-22.6-10.1-22.6-22.6c0-12.5,10.2-22.6,22.6-22.6
				c12.5,0,22.6,10.1,22.6,22.6C12.3,132.6,2.2,142.7-10.3,142.7z"/>
			<path id="XMLID_402_" class="st1" d="M113.2,90C96.5,90,83,103.5,83,120.1c0,16.6,13.5,30.1,30.2,30.1
				c16.6,0,30.2-13.5,30.2-30.1C143.4,103.5,129.8,90,113.2,90z M113.2,142.7c-12.5,0-22.6-10.1-22.6-22.6
				c0-12.5,10.2-22.6,22.6-22.6s22.6,10.1,22.6,22.6C135.8,132.6,125.6,142.7,113.2,142.7z"/>
			<path id="XMLID_399_" class="st1" d="M236.6,90c-16.7,0-30.2,13.5-30.2,30.1c0,16.6,13.5,30.1,30.2,30.1
				c16.6,0,30.2-13.5,30.2-30.1C266.8,103.5,253.3,90,236.6,90z M236.6,142.7c-12.5,0-22.6-10.1-22.6-22.6
				c0-12.5,10.2-22.6,22.6-22.6c12.5,0,22.6,10.1,22.6,22.6C259.3,132.6,249.1,142.7,236.6,142.7z"/>
			<path id="XMLID_396_" class="st1" d="M360.1,150.3c16.6,0,30.2-13.5,30.2-30.1c0-16.6-13.5-30.1-30.2-30.1
				c-16.7,0-30.2,13.5-30.2,30.1C329.9,136.8,343.4,150.3,360.1,150.3z M360.1,97.5c12.5,0,22.6,10.1,22.6,22.6
				c0,12.5-10.2,22.6-22.6,22.6c-12.5,0-22.6-10.1-22.6-22.6C337.5,107.7,347.6,97.5,360.1,97.5z"/>
			<path id="XMLID_393_" class="st1" d="M483.6,150.3c16.6,0,30.2-13.5,30.2-30.1c0-16.6-13.5-30.1-30.2-30.1
				c-16.7,0-30.2,13.5-30.2,30.1C453.4,136.8,466.9,150.3,483.6,150.3z M483.6,97.5c12.5,0,22.6,10.1,22.6,22.6
				c0,12.5-10.2,22.6-22.6,22.6c-12.5,0-22.6-10.1-22.6-22.6C460.9,107.7,471.1,97.5,483.6,97.5z"/>
			<path id="XMLID_390_" class="st1" d="M-10.3,213.3c-16.6,0-30.2,13.5-30.2,30.1c0,16.6,13.5,30.1,30.2,30.1
				c16.7,0,30.2-13.5,30.2-30.1C19.9,226.8,6.3,213.3-10.3,213.3z M-10.3,266c-12.5,0-22.6-10.1-22.6-22.6
				c0-12.5,10.2-22.6,22.6-22.6c12.5,0,22.6,10.1,22.6,22.6C12.3,255.9,2.2,266-10.3,266z"/>
			<path id="XMLID_387_" class="st1" d="M113.2,213.3c-16.6,0-30.2,13.5-30.2,30.1c0,16.6,13.5,30.1,30.2,30.1
				c16.6,0,30.2-13.5,30.2-30.1C143.4,226.8,129.8,213.3,113.2,213.3z M113.2,266c-12.5,0-22.6-10.1-22.6-22.6
				c0-12.5,10.2-22.6,22.6-22.6s22.6,10.1,22.6,22.6C135.8,255.9,125.6,266,113.2,266z"/>
			<path id="XMLID_384_" class="st1" d="M236.6,213.3c-16.7,0-30.2,13.5-30.2,30.1c0,16.6,13.5,30.1,30.2,30.1
				c16.6,0,30.2-13.5,30.2-30.1C266.8,226.8,253.3,213.3,236.6,213.3z M236.6,266c-12.5,0-22.6-10.1-22.6-22.6
				c0-12.5,10.2-22.6,22.6-22.6c12.5,0,22.6,10.1,22.6,22.6C259.3,255.9,249.1,266,236.6,266z"/>
			<path id="XMLID_381_" class="st1" d="M360.1,213.3c-16.7,0-30.2,13.5-30.2,30.1c0,16.6,13.5,30.1,30.2,30.1
				c16.6,0,30.2-13.5,30.2-30.1C390.3,226.8,376.7,213.3,360.1,213.3z M360.1,266c-12.5,0-22.6-10.1-22.6-22.6
				c0-12.5,10.2-22.6,22.6-22.6c12.5,0,22.6,10.1,22.6,22.6C382.7,255.9,372.6,266,360.1,266z"/>
			<path id="XMLID_378_" class="st1" d="M483.6,273.6c16.6,0,30.2-13.5,30.2-30.1c0-16.6-13.5-30.1-30.2-30.1
				c-16.7,0-30.2,13.5-30.2,30.1C453.4,260,466.9,273.6,483.6,273.6z M483.6,220.8c12.5,0,22.6,10.1,22.6,22.6
				c0,12.5-10.2,22.6-22.6,22.6c-12.5,0-22.6-10.1-22.6-22.6C460.9,231,471.1,220.8,483.6,220.8z"/>
			<path id="XMLID_377_" class="st1" d="M-41.9-311.8h-7.6c0,12.5-10.1,22.6-22.6,22.6v7.6C-55.4-281.7-41.9-295.2-41.9-311.8z"/>
			<path id="XMLID_374_" class="st1" d="M324.8-129.3c1.4-17.4,15.4-31.2,32.8-32.5v-24h-23.9c-1.3,17.4-15.3,31.4-32.7,32.7v23.8
				H324.8z M340.1-178.2h9.9v10c-15.5,3.7-27.8,15.9-31.7,31.4h-9.8v-9.8C324.1-150.4,336.4-162.7,340.1-178.2z"/>
			<path id="XMLID_371_" class="st1" d="M333.7-191h23.9v-23.4c-17.6-1.2-31.8-15.4-32.9-33.1H301v23.9
				C318.4-222.3,332.4-208.4,333.7-191z M308.5-239.9h9.7c3.7,15.8,16.1,28.2,31.8,32v9.4h-9.9c-3.8-15.5-16.1-27.8-31.6-31.6
				V-239.9z"/>
			<path id="XMLID_368_" class="st1" d="M301-29.6v23.8h23.8c1.3-17.5,15.3-31.4,32.8-32.6v-23.8h-23.9
				C332.4-44.8,318.4-30.9,301-29.6z M340.1-54.7h9.9v9.8c-15.6,3.7-27.9,16-31.7,31.5h-9.8v-9.8C324.1-26.9,336.4-39.2,340.1-54.7z
				"/>
			<path id="XMLID_365_" class="st1" d="M362.8-285c17.3,1.3,31.1,15,32.6,32.2h23.8v-23.8c-17.5-1.3-31.4-15.2-32.7-32.7h-23.6
				V-285z M370.4-301.6h9.6c3.8,15.5,16.1,27.8,31.6,31.5v9.8h-9.9c-3.9-15.3-16-27.3-31.4-31.1V-301.6z"/>
			<path id="XMLID_362_" class="st1" d="M239.4-214.4v23.5H263c1.3-17.4,15.3-31.4,32.7-32.7v-23.9H272
				C270.9-229.9,256.9-215.8,239.4-214.4z M278.5-239.9h9.7v9.9c-15.5,3.8-27.8,16-31.6,31.6h-9.6v-9.5
				C262.6-211.9,274.8-224.3,278.5-239.9z"/>
			<path id="XMLID_359_" class="st1" d="M-45.7,241.1c1.1-17.6,15.2-31.8,32.9-33v-23.4h-23.9c-1.3,17.4-15.3,31.4-32.7,32.7v23.8
				H-45.7z M-61.9,223.8c15.5-3.8,27.8-16,31.6-31.5h9.9v9.4c-15.7,3.8-28.1,16.2-31.8,31.9h-9.7V223.8z"/>
			<path id="XMLID_356_" class="st1" d="M239.4-285c17.3,1.3,31.1,15,32.6,32.2h23.8v-23.8c-17.5-1.3-31.4-15.2-32.7-32.7h-23.6
				V-285z M246.9-301.6h9.6c3.8,15.5,16.1,27.8,31.6,31.5v9.8h-9.9c-3.9-15.3-16-27.3-31.4-31.1V-301.6z"/>
			<path id="XMLID_353_" class="st1" d="M25,246.4c-1.4,17.2-15.3,31-32.6,32.3v24.2h23.6c1.3-17.4,15.3-31.4,32.7-32.7v-23.9H25z
				 M9.6,295.3H0v-10.2c15.4-3.8,27.5-15.9,31.4-31.2h9.8v9.9C25.7,267.6,13.4,279.8,9.6,295.3z"/>
			<path id="XMLID_350_" class="st1" d="M324.7-124H301v23.9c17.5,1.3,31.4,15.2,32.7,32.7h23.9v-23.6
				C340-92.4,325.9-106.5,324.7-124z M350-75.1h-9.9c-3.8-15.5-16.1-27.8-31.6-31.5v-9.9h9.7c3.7,15.7,16.1,28,31.8,31.8V-75.1z"/>
			<path id="XMLID_347_" class="st1" d="M518.9,122.9c-1.3,17.3-15.2,31.2-32.6,32.5v24H510c1.3-17.4,15.3-31.4,32.7-32.7v-23.8
				H518.9z M535.1,140.3c-15.5,3.8-27.8,16-31.6,31.5h-9.6v-10h-0.3c15.6-3.7,27.9-15.9,31.7-31.4h9.8V140.3z"/>
			<path id="XMLID_344_" class="st1" d="M362.8-161.7c17.3,1.3,31.2,15.1,32.6,32.4h23.8v-23.8c-17.5-1.3-31.4-15.2-32.7-32.7h-23.6
				V-161.7z M370.4-168.2v-10h9.6c3.8,15.5,16.1,27.8,31.6,31.5v9.8h-9.8c-3.9-15.5-16.1-27.6-31.7-31.4H370.4z"/>
			<path id="XMLID_341_" class="st1" d="M362.8-214.4v23.5h23.6c1.3-17.4,15.3-31.4,32.7-32.7v-23.9h-23.7
				C394.4-229.9,380.4-215.8,362.8-214.4z M402-239.9h9.7v9.9c-15.5,3.8-27.8,16-31.6,31.6h-9.6v-9.5
				C386-211.9,398.3-224.3,402-239.9z"/>
			<path id="XMLID_338_" class="st1" d="M486.3,84.9c17.4,1.3,31.4,15.3,32.6,32.8h23.8V93.9c-17.5-1.3-31.4-15.2-32.7-32.7h-23.6
				V84.9z M493.9,68.8h9.6c3.8,15.5,16,27.8,31.6,31.5v9.8h-9.7c-3.7-15.6-16-27.8-31.5-31.7V68.8z"/>
			<path id="XMLID_335_" class="st1" d="M210.2-191h23.9v-23.4c-17.6-1.2-31.8-15.4-32.9-33.1h-23.7v23.9
				C195-222.3,208.9-208.4,210.2-191z M185.1-239.9h9.7c3.7,15.8,16.1,28.2,31.8,32v9.4h-9.9c-3.8-15.5-16.1-27.8-31.6-31.6V-239.9z
				"/>
			<path id="XMLID_332_" class="st1" d="M448.2,122.9h-23.8v23.9c17.5,1.3,31.4,15.2,32.7,32.7h23.9v-24
				C463.6,154.2,449.6,140.3,448.2,122.9z M473.5,171.9h-9.9c-3.8-15.5-16.1-27.8-31.6-31.5v-9.9h9.8c3.8,15.5,16.1,27.7,31.7,31.4
				C473.5,161.9,473.5,171.9,473.5,171.9z"/>
			<path id="XMLID_329_" class="st1" d="M-12.8,278.7c-17.4-1.2-31.4-15-32.8-32.3h-23.8v23.9c17.5,1.3,31.4,15.2,32.7,32.7h23.9
				V278.7z M-20.4,295.3h-9.9c-3.8-15.5-16-27.8-31.6-31.5v-9.9h9.8c3.9,15.4,16.1,27.5,31.6,31.2V295.3z"/>
			<path id="XMLID_326_" class="st1" d="M-12.8,32.1c-17.5-1.2-31.6-15.2-32.8-32.7h-23.8v23.8C-52,24.6-38,38.5-36.7,56h23.9V32.1z
				 M-20.4,48.4h-9.9c-3.8-15.5-16-27.8-31.6-31.5V7h9.8c3.8,15.6,16.1,27.9,31.7,31.6V48.4z"/>
			<path id="XMLID_323_" class="st1" d="M48.8-223.6v-23.9H25.1C24-229.9,10-215.8-7.6-214.4v23.5h23.6
				C17.4-208.4,31.3-222.3,48.8-223.6z M9.6-198.5H0v-9.5c15.6-3.9,27.9-16.3,31.6-31.9h9.7v9.9C25.7-226.3,13.4-214,9.6-198.5z"/>
			<path id="XMLID_320_" class="st1" d="M448.2-124h-23.8v23.9c17.5,1.3,31.4,15.2,32.7,32.7h23.9v-23.6
				C463.5-92.4,449.4-106.5,448.2-124z M473.5-75.1h-9.9c-3.8-15.5-16.1-27.8-31.6-31.5v-9.9h9.7c3.7,15.7,16.1,28,31.8,31.8V-75.1z
				"/>
			<path id="XMLID_317_" class="st1" d="M324.8-0.6H301v23.9c17.5,1.3,31.4,15.2,32.7,32.7h23.9V32.1C340.1,30.9,326,16.9,324.8-0.6
				z M350,48.4h-9.9c-3.8-15.5-16.1-27.8-31.6-31.5V7h9.8c3.8,15.6,16.1,27.9,31.7,31.6V48.4z"/>
			<path id="XMLID_314_" class="st1" d="M518.9-0.6c-1.3,17.4-15.2,31.3-32.6,32.7V56H510c1.3-17.4,15.3-31.4,32.7-32.7V-0.6H518.9z
				 M535.1,16.9c-15.5,3.8-27.8,16-31.6,31.5h-9.6v-9.9c15.5-3.8,27.7-16.1,31.5-31.6h9.8V16.9z"/>
			<path id="XMLID_311_" class="st1" d="M148.5-5.8h23.8v-23.8c-17.5-1.3-31.4-15.2-32.7-32.7h-23.6v23.8
				C133.3-37.1,147.2-23.2,148.5-5.8z M123.5-54.7h9.6c3.8,15.5,16.1,27.8,31.6,31.5v9.8h-9.8c-3.8-15.5-16-27.7-31.5-31.5V-54.7z"
				/>
			<path id="XMLID_308_" class="st1" d="M25-129.3h23.8v-23.8c-17.5-1.3-31.4-15.2-32.7-32.7H-7.6v24C9.8-160.4,23.6-146.6,25-129.3
				z M0-168.2v-10h9.6c3.8,15.5,16.1,27.8,31.6,31.5v9.8h-9.8c-3.9-15.5-16.1-27.6-31.7-31.4H0z"/>
			<path id="XMLID_305_" class="st1" d="M486.3-38.4c17.4,1.3,31.3,15.2,32.6,32.6h23.8v-23.8c-17.5-1.3-31.4-15.2-32.7-32.7h-23.6
				V-38.4z M493.9-54.7h9.6c3.8,15.5,16,27.8,31.6,31.5v9.8h-9.8c-3.8-15.5-16-27.7-31.5-31.5V-54.7z"/>
			<path id="XMLID_302_" class="st1" d="M448.2-0.6h-23.8v23.9c17.5,1.3,31.4,15.2,32.7,32.7h23.9V32.1
				C463.5,30.9,449.5,16.9,448.2-0.6z M473.5,48.4h-9.9c-3.8-15.5-16.1-27.8-31.6-31.5V7h9.8c3.8,15.6,16.1,27.9,31.7,31.6V48.4z"/>
			<path id="XMLID_299_" class="st1" d="M-45.7,117.7c1.2-17.5,15.3-31.6,32.8-32.8V61.2h-23.9C-38,78.6-52,92.6-69.4,93.9v23.8
				H-45.7z M-61.9,100.3c15.5-3.8,27.8-16,31.6-31.5h9.9v9.6c-15.7,3.8-28,16.1-31.8,31.7h-9.7V100.3z"/>
			<path id="XMLID_296_" class="st1" d="M-12.8,155.4c-17.5-1.2-31.5-15.1-32.8-32.5h-23.8v23.8C-52,148-38,162-36.7,179.4h23.9
				V155.4z M-20.4,171.9h-9.9c-3.8-15.5-16-27.8-31.6-31.5v-9.9h9.8c3.8,15.5,16.1,27.7,31.7,31.4
				C-20.4,161.9-20.4,171.9-20.4,171.9z"/>
			<path id="XMLID_293_" class="st1" d="M115.9-214.4v23.5h23.6c1.3-17.4,15.3-31.4,32.7-32.7v-23.9h-23.7
				C147.4-229.9,133.4-215.8,115.9-214.4z M155-239.9h9.7v9.9c-15.5,3.8-27.8,16-31.6,31.6h-9.6v-9.5
				C139.1-211.9,151.4-224.3,155-239.9z"/>
			<path id="XMLID_290_" class="st1" d="M86.8-191h23.9v-23.4c-17.6-1.2-31.8-15.4-32.9-33.1H54.1v23.9
				C71.5-222.3,85.5-208.4,86.8-191z M61.6-239.9h9.7c3.7,15.8,16.1,28.2,31.8,32v9.4h-9.9c-3.8-15.5-16.1-27.8-31.6-31.6V-239.9z"
				/>
			<path id="XMLID_287_" class="st1" d="M448.2-247.5h-23.7v23.9c17.5,1.3,31.4,15.2,32.7,32.7h23.9v-23.4
				C463.4-215.7,449.3-229.8,448.2-247.5z M473.5-198.5h-9.9c-3.8-15.5-16.1-27.8-31.6-31.6v-9.9h9.7c3.7,15.8,16.1,28.2,31.8,32
				V-198.5z"/>
			<path id="XMLID_284_" class="st1" d="M424.5-153.1v23.8h23.8c1.4-17.4,15.4-31.2,32.8-32.5v-24h-23.9
				C455.9-168.3,441.9-154.3,424.5-153.1z M463.6-178.2h9.9v10c-15.5,3.7-27.8,15.9-31.7,31.4H432v-9.8
				C447.6-150.4,459.8-162.7,463.6-178.2z"/>
			<path id="XMLID_281_" class="st1" d="M486.3-285c17.3,1.3,31.1,15,32.6,32.2h23.8v-23.8c-17.5-1.3-31.4-15.2-32.7-32.7h-23.6
				V-285z M493.9-301.6h9.6c3.8,15.5,16,27.8,31.6,31.5v9.8h-9.9c-3.9-15.3-16-27.3-31.4-31.1V-301.6z"/>
			<path id="XMLID_278_" class="st1" d="M362.8-38.4c17.4,1.3,31.3,15.2,32.6,32.6h23.8v-23.8c-17.5-1.3-31.4-15.2-32.7-32.7h-23.6
				V-38.4z M370.4-54.7h9.6c3.8,15.5,16.1,27.8,31.6,31.5v9.8h-9.8c-3.8-15.5-16-27.7-31.5-31.5V-54.7z"/>
			<path id="XMLID_275_" class="st1" d="M210.2-67.5h23.9v-23.6c-17.6-1.2-31.7-15.3-32.8-32.9h-23.8v23.9
				C195-98.9,208.9-84.9,210.2-67.5z M185.1-116.5h9.7c3.7,15.7,16.1,28,31.8,31.8v9.6h-9.9c-3.8-15.5-16.1-27.8-31.6-31.5V-116.5z"
				/>
			<path id="XMLID_272_" class="st1" d="M271.9,246.4c-1.4,17.2-15.3,31-32.6,32.3v24.2H263c1.3-17.4,15.3-31.4,32.7-32.7v-23.9
				H271.9z M256.6,295.3h-9.6v-10.2c15.4-3.8,27.5-15.9,31.4-31.2h9.8v9.9C272.6,267.6,260.4,279.8,256.6,295.3z"/>
			<path id="XMLID_269_" class="st1" d="M272,122.9c-1.3,17.3-15.2,31.2-32.6,32.5v24H263c1.3-17.4,15.3-31.4,32.7-32.7v-23.9H272z
				 M256.6,171.9h-9.6v-10h-0.3c15.6-3.7,27.9-15.9,31.7-31.4h9.8v9.9C272.6,144.1,260.4,156.4,256.6,171.9z"/>
			<path id="XMLID_266_" class="st1" d="M481.1,278.7c-17.4-1.2-31.4-15-32.8-32.3h-23.8v23.9c17.5,1.3,31.4,15.2,32.7,32.7h23.9
				V278.7z M473.5,295.3h-9.9c-3.8-15.5-16.1-27.8-31.6-31.5v-9.9h9.8c3.9,15.4,16.1,27.5,31.6,31.2V295.3z"/>
			<path id="XMLID_263_" class="st1" d="M357.6,155.4c-17.5-1.2-31.5-15.1-32.8-32.5H301v23.9c17.5,1.3,31.4,15.2,32.7,32.7h23.9
				V155.4z M350,171.9h-9.9c-3.8-15.5-16.1-27.8-31.6-31.5v-9.9h9.8c3.8,15.5,16.1,27.7,31.7,31.4C350,161.9,350,171.9,350,171.9z"
				/>
			<path id="XMLID_260_" class="st1" d="M110.7,32.1C93.1,30.9,79.1,16.9,77.8-0.6H54.1v23.9C71.5,24.6,85.5,38.5,86.8,56h23.9V32.1
				z M103.1,48.4h-9.9c-3.8-15.5-16.1-27.8-31.6-31.5V7h9.8c3.8,15.6,16.1,27.9,31.7,31.6V48.4z"/>
			<path id="XMLID_257_" class="st1" d="M424.5-29.6v23.8h23.8c1.3-17.5,15.3-31.4,32.8-32.6v-23.8h-23.9
				C455.9-44.8,441.9-30.9,424.5-29.6z M463.6-54.7h9.9v9.8c-15.6,3.7-27.9,16-31.7,31.5H432v-9.8C447.6-26.9,459.8-39.2,463.6-54.7
				z"/>
			<path id="XMLID_254_" class="st1" d="M234.1,278.7c-17.4-1.2-31.4-15-32.8-32.3h-23.8v23.9c17.5,1.3,31.4,15.2,32.7,32.7h23.9
				V278.7z M226.6,295.3h-9.9c-3.8-15.5-16.1-27.8-31.6-31.5v-9.9h9.8c3.9,15.4,16.1,27.5,31.6,31.2V295.3z"/>
			<path id="XMLID_251_" class="st1" d="M148.5,122.9c-1.4,17.3-15.2,31.2-32.6,32.5v24h23.6c1.3-17.4,15.3-31.4,32.7-32.7v-23.9
				H148.5z M133.1,171.9h-9.6v-10h-0.3c15.6-3.7,27.9-15.9,31.7-31.4h9.8v9.9C149.2,144.1,136.9,156.4,133.1,171.9z"/>
			<path id="XMLID_248_" class="st1" d="M395.4,246.4c-1.4,17.2-15.3,31-32.6,32.3v24.2h23.6c1.3-17.4,15.3-31.4,32.7-32.7v-23.9
				H395.4z M380,295.3h-9.6v-10.2c15.4-3.8,27.5-15.9,31.4-31.2h9.8v9.9C396.1,267.6,383.8,279.8,380,295.3z"/>
			<path id="XMLID_245_" class="st1" d="M357.6,278.7c-17.4-1.2-31.4-15-32.8-32.3H301v23.9c17.5,1.3,31.4,15.2,32.7,32.7h23.9
				V278.7z M350,295.3h-9.9c-3.8-15.5-16.1-27.8-31.6-31.5v-9.9h9.8c3.9,15.4,16.1,27.5,31.6,31.2V295.3z"/>
			<path id="XMLID_242_" class="st1" d="M110.7,155.4c-17.5-1.2-31.5-15.1-32.8-32.5H54.1v23.9c17.5,1.3,31.4,15.2,32.7,32.7h23.9
				V155.4z M103.1,171.9h-9.9c-3.8-15.5-16.1-27.8-31.6-31.5v-9.9h9.8c3.8,15.5,16.1,27.7,31.7,31.4
				C103.1,161.9,103.1,171.9,103.1,171.9z"/>
			<path id="XMLID_239_" class="st1" d="M77.8,117.7c1.2-17.5,15.3-31.6,32.8-32.8V61.2H86.8c-1.3,17.4-15.3,31.4-32.7,32.7v23.8
				H77.8z M93.2,68.8h9.9v9.6c-15.7,3.8-28,16.1-31.8,31.7h-9.7v-9.8C77.2,96.5,89.4,84.3,93.2,68.8z"/>
			<path id="XMLID_236_" class="st1" d="M395.4-124c-1.2,17.5-15.1,31.5-32.6,32.9v23.7h23.6c1.3-17.4,15.3-31.4,32.7-32.7V-124
				H395.4z M380-75.1h-9.6v-9.7c15.6-3.8,27.8-16.2,31.5-31.7h9.7v9.9C396.1-102.8,383.8-90.6,380-75.1z"/>
			<path id="XMLID_233_" class="st1" d="M234.1,155.4c-17.5-1.2-31.5-15.1-32.8-32.5h-23.8v23.9c17.5,1.3,31.4,15.2,32.7,32.7h23.9
				V155.4z M226.6,171.9h-9.9c-3.8-15.5-16.1-27.8-31.6-31.5v-9.9h9.8c3.8,15.5,16.1,27.7,31.7,31.4
				C226.6,161.9,226.6,171.9,226.6,171.9z"/>
			<path id="XMLID_230_" class="st1" d="M172.3-100.2V-124h-23.8c-1.2,17.5-15.1,31.5-32.6,32.9v23.7h23.6
				C140.8-84.9,154.8-98.9,172.3-100.2z M133.1-75.1h-9.6v-9.7c15.6-3.8,27.8-16.2,31.5-31.7h9.7v9.9
				C149.2-102.8,136.9-90.6,133.1-75.1z"/>
			<path id="XMLID_227_" class="st1" d="M239.4-91.2v23.7H263c1.3-17.4,15.3-31.4,32.7-32.7V-124H272
				C270.8-106.5,256.8-92.5,239.4-91.2z M278.5-116.5h9.7v9.9c-15.5,3.8-27.8,16-31.6,31.5h-9.6v-9.7
				C262.5-88.6,274.7-100.9,278.5-116.5z"/>
			<path id="XMLID_224_" class="st1" d="M201.3-129.3c1.4-17.4,15.4-31.2,32.8-32.5v-24h-23.9c-1.3,17.4-15.3,31.4-32.7,32.7v23.8
				H201.3z M216.7-178.2h9.9v10c-15.5,3.7-27.8,15.9-31.7,31.4h-9.8v-9.8C200.6-150.4,212.9-162.7,216.7-178.2z"/>
			<path id="XMLID_221_" class="st1" d="M77.8-5.8c1.3-17.5,15.3-31.4,32.8-32.6v-23.8H86.8c-1.3,17.4-15.3,31.4-32.7,32.7v23.8
				H77.8z M93.2-54.7h9.9v9.8c-15.6,3.7-27.9,16-31.7,31.5h-9.8v-9.8C77.2-26.9,89.4-39.2,93.2-54.7z"/>
			<path id="XMLID_218_" class="st1" d="M115.9-161.7c17.3,1.3,31.2,15.1,32.6,32.4h23.8v-23.8c-17.5-1.3-31.4-15.2-32.7-32.7h-23.6
				V-161.7z M123.5-168.2v-10h9.6c3.8,15.5,16.1,27.8,31.6,31.5v9.8h-9.8c-3.9-15.5-16.1-27.6-31.7-31.4H123.5z"/>
			<path id="XMLID_215_" class="st1" d="M110.7,278.7c-17.4-1.2-31.4-15-32.8-32.3H54.1v23.9c17.5,1.3,31.4,15.2,32.7,32.7h23.9
				V278.7z M103.1,295.3h-9.9c-3.8-15.5-16.1-27.8-31.6-31.5v-9.9h9.8c3.9,15.4,16.1,27.5,31.6,31.2V295.3z"/>
			<path id="XMLID_212_" class="st1" d="M-45.6-5.8c1.3-17.4,15.3-31.4,32.8-32.6v-23.8h-23.9C-38-44.8-52-30.9-69.4-29.6v23.8
				H-45.6z M-61.9-23.2c15.5-3.8,27.8-16,31.6-31.5h9.9v9.8c-15.6,3.8-27.9,16-31.7,31.5h-9.8V-23.2z"/>
			<path id="XMLID_209_" class="st1" d="M77.8-129.3c1.4-17.4,15.4-31.2,32.8-32.5v-24H86.8c-1.3,17.4-15.3,31.4-32.7,32.7v23.8
				H77.8z M93.2-178.2h9.9v10c-15.5,3.7-27.8,15.9-31.7,31.4h-9.8v-9.8C77.2-150.4,89.4-162.7,93.2-178.2z"/>
			<path id="XMLID_206_" class="st1" d="M239.4-161.7c17.3,1.3,31.2,15.1,32.6,32.4h23.8v-23.8c-17.5-1.3-31.4-15.2-32.7-32.7h-23.7
				V-161.7z M246.9-168.2v-10h9.6c3.8,15.5,16.1,27.8,31.6,31.5v9.8h-9.8c-3.9-15.5-16.1-27.6-31.7-31.4H246.9z"/>
			<path id="XMLID_203_" class="st1" d="M486.3,208.1c17.5,1.4,31.5,15.4,32.6,33h23.7v-23.8c-17.5-1.3-31.4-15.2-32.7-32.7h-23.6
				V208.1z M493.9,192.2h9.6c3.8,15.5,16,27.8,31.6,31.5v9.8h-9.7c-3.7-15.6-16-28-31.6-31.9V192.2z"/>
			<path id="XMLID_200_" class="st1" d="M362.8,84.9c17.4,1.3,31.4,15.3,32.6,32.8h23.8V93.9c-17.5-1.3-31.4-15.2-32.7-32.7h-23.6
				V84.9z M370.4,68.8h9.6c3.8,15.5,16.1,27.8,31.6,31.5v9.8h-9.7c-3.7-15.6-16-27.8-31.5-31.7V68.8z"/>
			<path id="XMLID_197_" class="st1" d="M518.9,246.4c-1.4,17.2-15.3,31-32.6,32.3v24.2h23.6c1.3-17.4,15.3-31.4,32.7-32.7v-23.9
				H518.9z M535.1,263.8c-15.5,3.8-27.8,16-31.6,31.5h-9.6v-10.2c15.4-3.8,27.5-15.9,31.4-31.2h9.8V263.8z"/>
			<path id="XMLID_194_" class="st1" d="M110.7-91.1C93.1-92.4,79-106.5,77.8-124H54.1v23.9c17.5,1.3,31.4,15.2,32.7,32.7h23.9
				V-91.1z M103.1-75.1h-9.9c-3.8-15.5-16.1-27.8-31.6-31.5v-9.9h9.7c3.7,15.7,16.1,28,31.8,31.8V-75.1z"/>
			<path id="XMLID_191_" class="st1" d="M239.4-38.4c17.4,1.3,31.3,15.2,32.6,32.6h23.8v-23.8c-17.5-1.3-31.4-15.2-32.7-32.7h-23.7
				V-38.4z M246.9-54.7h9.6c3.8,15.5,16.1,27.8,31.6,31.5v9.8h-9.8c-3.8-15.5-16-27.7-31.5-31.5V-54.7z"/>
			<path id="XMLID_188_" class="st1" d="M386.5,184.7h-23.6v23.5c17.5,1.3,31.5,15.4,32.6,33h23.7v-23.8
				C401.8,216.1,387.8,202.1,386.5,184.7z M411.6,233.6H402c-3.7-15.6-16-28-31.6-31.9v-9.5h9.6c3.8,15.5,16.1,27.8,31.6,31.6V233.6
				z"/>
			<path id="XMLID_185_" class="st1" d="M395.4-0.6c-1.3,17.4-15.2,31.3-32.6,32.7V56h23.6c1.3-17.4,15.3-31.4,32.7-32.7V-0.6H395.4
				z M380,48.4h-9.6v-9.9c15.5-3.8,27.7-16.1,31.5-31.6h9.8v9.9C396.1,20.6,383.8,32.9,380,48.4z"/>
			<path id="XMLID_182_" class="st1" d="M148.5,246.4c-1.4,17.2-15.3,31-32.6,32.3v24.2h23.6c1.3-17.4,15.3-31.4,32.7-32.7v-23.9
				H148.5z M133.1,295.3h-9.6v-10.2c15.4-3.8,27.5-15.9,31.4-31.2h9.8v9.9C149.2,267.6,136.9,279.8,133.1,295.3z"/>
			<path id="XMLID_179_" class="st1" d="M395.4,122.9c-1.4,17.3-15.2,31.2-32.6,32.5v24h23.6c1.3-17.4,15.3-31.4,32.7-32.7v-23.9
				H395.4z M380,171.9h-9.6v-10h-0.3c15.6-3.7,27.9-15.9,31.7-31.4h9.8v9.9C396.1,144.1,383.8,156.4,380,171.9z"/>
			<path id="XMLID_176_" class="st1" d="M115.9-285c17.3,1.3,31.1,15,32.6,32.2h23.8v-23.8c-17.5-1.3-31.4-15.2-32.7-32.7h-23.6
				V-285z M123.5-301.6h9.6c3.8,15.5,16.1,27.8,31.6,31.5v9.8h-9.9c-3.9-15.3-16-27.3-31.4-31.1V-301.6z"/>
			<path id="XMLID_173_" class="st1" d="M139.6,184.7h-23.6v23.5c17.5,1.3,31.5,15.4,32.6,33h23.7v-23.8
				C154.8,216.1,140.8,202.1,139.6,184.7z M164.7,233.6H155c-3.7-15.6-16-28-31.6-31.9v-9.5h9.6c3.8,15.5,16.1,27.8,31.6,31.6V233.6
				z"/>
			<path id="XMLID_170_" class="st1" d="M201.3-5.8c1.3-17.5,15.3-31.4,32.8-32.6v-23.8h-23.9c-1.3,17.4-15.3,31.4-32.7,32.7v23.8
				H201.3z M216.7-54.7h9.9v9.8c-15.6,3.7-27.9,16-31.7,31.5h-9.8v-9.8C200.6-26.9,212.9-39.2,216.7-54.7z"/>
			<path id="XMLID_167_" class="st1" d="M25,117.7h23.8V93.9c-17.5-1.3-31.4-15.2-32.7-32.7H-7.6v23.7C9.9,86.2,23.8,100.2,25,117.7
				z M0,68.8h9.6c3.8,15.5,16.1,27.8,31.6,31.5v9.8h-9.7C27.8,94.6,15.5,82.3,0,78.4V68.8z"/>
			<path id="XMLID_164_" class="st1" d="M234.1,84.8V61.2h-23.9c-1.3,17.4-15.3,31.4-32.7,32.7v23.8h23.8
				C202.5,100.1,216.6,86.1,234.1,84.8z M194.8,110.1h-9.7v-9.8c15.5-3.8,27.8-16,31.6-31.5h9.9v9.6
				C210.9,82.1,198.6,94.5,194.8,110.1z"/>
			<path id="XMLID_161_" class="st1" d="M518.9-247.5c-1.1,17.6-15.1,31.7-32.6,33.1v23.5H510c1.3-17.4,15.3-31.4,32.7-32.7v-23.8
				H518.9z M535.1-230.1c-15.5,3.8-27.8,16-31.6,31.5h-9.6v-9.5c15.6-3.9,27.9-16.3,31.6-31.9h9.7V-230.1z"/>
			<path id="XMLID_158_" class="st1" d="M-12.8-214.4c-17.6-1.2-31.8-15.4-32.9-33.1h-23.7v23.8C-52-222.4-38-208.4-36.7-191h23.9
				V-214.4z M-20.4-198.5h-9.9c-3.8-15.5-16-27.8-31.6-31.5v-9.9h9.7c3.7,15.8,16.1,28.2,31.8,32V-198.5z"/>
			<path id="XMLID_155_" class="st1" d="M-45.6-129.3c1.4-17.4,15.4-31.2,32.8-32.5v-24h-23.9C-38-168.3-52-154.3-69.4-153v23.8
				H-45.6z M-61.9-146.6c15.5-3.8,27.8-16,31.6-31.5h9.9v10c-15.5,3.7-27.8,15.9-31.7,31.4h-9.8V-146.6z"/>
			<path id="XMLID_152_" class="st1" d="M357.6,208.1v-23.4h-23.9c-1.3,17.4-15.3,31.4-32.7,32.7v23.8h23.7
				C325.9,223.5,340,209.4,357.6,208.1z M318.2,233.6h-9.7v-9.8c15.5-3.8,27.8-16,31.6-31.6h9.9v9.4
				C334.3,205.4,321.9,217.9,318.2,233.6z"/>
			<path id="XMLID_149_" class="st1" d="M301,93.9v23.8h23.8c1.2-17.5,15.3-31.6,32.8-32.8V61.2h-23.9
				C332.4,78.6,318.4,92.6,301,93.9z M340.1,68.8h9.9v9.6c-15.7,3.8-28,16.1-31.8,31.7h-9.7v-9.8C324.1,96.5,336.4,84.3,340.1,68.8z
				"/>
			<path id="XMLID_146_" class="st1" d="M110.7,208.1v-23.4H86.8c-1.3,17.4-15.3,31.4-32.7,32.7v23.8h23.7
				C78.9,223.5,93,209.4,110.7,208.1z M71.3,233.6h-9.7v-9.8c15.5-3.8,27.8-16,31.6-31.6h9.9v9.4C87.4,205.4,75,217.9,71.3,233.6z"
				/>
			<path id="XMLID_143_" class="st1" d="M48.8,23.3V-0.6H25C23.8,16.8,9.8,30.8-7.6,32.1V56h23.6C17.4,38.5,31.3,24.6,48.8,23.3z
				 M9.6,48.4H0v-9.9C15.5,34.7,27.7,22.5,31.5,7h9.7v9.9C25.7,20.6,13.4,32.9,9.6,48.4z"/>
			<path id="XMLID_140_" class="st1" d="M172.3,23.3V-0.6h-23.8c-1.3,17.4-15.2,31.3-32.6,32.7V56h23.6
				C140.8,38.5,154.8,24.6,172.3,23.3z M133.1,48.4h-9.6v-9.9C139,34.7,151.2,22.5,155,7h9.7v9.9C149.2,20.6,136.9,32.9,133.1,48.4z
				"/>
			<path id="XMLID_137_" class="st1" d="M77.9-252.7c1.5-17.3,15.4-31,32.8-32.3v-24.2H86.8c-1.3,17.4-15.3,31.4-32.7,32.7v23.8
				H77.9z M93.2-301.6h9.9v10.2c-15.5,3.7-27.7,15.8-31.6,31.2h-9.9v-9.8C77.2-273.9,89.4-286.1,93.2-301.6z"/>
			<path id="XMLID_134_" class="st1" d="M-7.6-285c17.3,1.3,31.1,15,32.6,32.2h23.8v-23.8c-17.5-1.3-31.4-15.2-32.7-32.7H-7.6V-285z
				 M0-301.6h9.6c3.8,15.5,16.1,27.8,31.6,31.5v9.8h-9.9c-3.9-15.3-16-27.3-31.4-31.1V-301.6z"/>
			<path id="XMLID_131_" class="st1" d="M424.5,93.9v23.8h23.8c1.2-17.5,15.3-31.6,32.8-32.8V61.2h-23.9
				C455.9,78.6,441.9,92.6,424.5,93.9z M463.6,68.8h9.9v9.6c-15.7,3.8-28,16.1-31.8,31.7H432v-9.8C447.6,96.5,459.8,84.3,463.6,68.8
				z"/>
			<path id="XMLID_128_" class="st1" d="M234.1,32.1c-17.5-1.2-31.6-15.2-32.8-32.7h-23.8v23.9c17.5,1.3,31.4,15.2,32.7,32.7h23.9
				V32.1z M226.6,48.4h-9.9c-3.8-15.5-16.1-27.8-31.6-31.5V7h9.8c3.8,15.6,16.1,27.9,31.7,31.6V48.4z"/>
			<path id="XMLID_125_" class="st1" d="M324.8-252.7c1.5-17.3,15.4-31,32.8-32.3v-24.2h-23.9c-1.3,17.4-15.3,31.4-32.7,32.7v23.8
				H324.8z M340.1-301.6h9.9v10.2c-15.5,3.7-27.7,15.8-31.6,31.2h-9.9v-9.8C324.1-273.9,336.4-286.1,340.1-301.6z"/>
			<path id="XMLID_122_" class="st1" d="M16.1,184.7H-7.6v23.5c17.5,1.3,31.5,15.4,32.6,33h23.7v-23.8
				C31.3,216.1,17.4,202.1,16.1,184.7z M41.2,233.6h-9.7c-3.7-15.6-16-28-31.6-31.9v-9.5h9.6c3.8,15.5,16.1,27.8,31.6,31.6V233.6z"
				/>
			<path id="XMLID_119_" class="st1" d="M-45.6-252.7c1.5-17.3,15.4-31,32.8-32.3v-24.2h-23.9c-1.3,17.4-15.3,31.4-32.7,32.7v23.8
				H-45.6z M-61.9-270.1c15.5-3.8,27.8-16,31.6-31.5h9.9v10.2c-15.5,3.7-27.7,15.8-31.6,31.2h-9.9V-270.1z"/>
			<path id="XMLID_116_" class="st1" d="M263,184.7h-23.7v23.5c17.5,1.3,31.5,15.4,32.6,33h23.7v-23.8
				C278.3,216.1,264.3,202.1,263,184.7z M288.2,233.6h-9.7c-3.7-15.6-16-28-31.6-31.9v-9.5h9.6c3.8,15.5,16,27.8,31.6,31.6V233.6z"
				/>
			<path id="XMLID_113_" class="st1" d="M139.6,61.2h-23.6v23.7c17.4,1.3,31.4,15.3,32.6,32.8h23.8V93.9
				C154.8,92.6,140.8,78.6,139.6,61.2z M164.7,110.1H155c-3.7-15.6-16-27.8-31.5-31.7v-9.7h9.6c3.8,15.5,16.1,27.8,31.6,31.5V110.1z
				"/>
			<path id="XMLID_110_" class="st1" d="M272-0.6c-1.3,17.4-15.2,31.3-32.6,32.7V56H263c1.3-17.4,15.3-31.4,32.7-32.7V-0.6H272z
				 M256.6,48.4h-9.6v-9.9c15.5-3.8,27.7-16.1,31.5-31.6h9.8v9.9C272.6,20.6,260.4,32.9,256.6,48.4z"/>
			<path id="XMLID_107_" class="st1" d="M48.8,146.8v-23.9H25c-1.4,17.3-15.2,31.2-32.6,32.5v24h23.6
				C17.4,162,31.3,148.1,48.8,146.8z M9.6,171.9H0v-10h-0.3c15.6-3.7,27.9-15.9,31.7-31.4h9.8v9.9C25.7,144.1,13.4,156.4,9.6,171.9z
				"/>
			<path id="XMLID_104_" class="st1" d="M486.3-161.7c17.3,1.3,31.2,15.2,32.6,32.4h23.8V-153c-17.5-1.3-31.4-15.2-32.7-32.7h-23.6
				V-161.7z M493.9-168.2v-10h9.6c3.8,15.5,16,27.8,31.6,31.5v9.8h-9.8c-3.9-15.5-16.1-27.6-31.7-31.4H493.9z"/>
			<path id="XMLID_101_" class="st1" d="M518.9-124c-1.2,17.5-15.1,31.5-32.6,32.9v23.7H510c1.3-17.4,15.3-31.4,32.7-32.7V-124
				H518.9z M535.1-106.6c-15.5,3.8-27.8,16-31.6,31.5h-9.6v-9.7c15.6-3.8,27.8-16.2,31.5-31.7h9.7V-106.6z"/>
			<path id="XMLID_98_" class="st1" d="M25-5.8h23.8v-23.8c-17.5-1.3-31.4-15.2-32.7-32.7H-7.6v23.8C9.8-37.1,23.7-23.2,25-5.8z
				 M0-54.7h9.6c3.8,15.5,16.1,27.8,31.6,31.5v9.8h-9.8C27.7-28.8,15.5-41,0-44.8V-54.7z"/>
			<path id="XMLID_95_" class="st1" d="M-12.8-91.1c-17.6-1.2-31.7-15.3-32.8-32.9h-23.8v23.9C-52-98.9-38-84.9-36.7-67.5h23.9
				V-91.1z M-20.4-75.1h-9.9c-3.8-15.5-16-27.8-31.6-31.5v-9.9h9.7c3.7,15.7,16.1,28,31.8,31.8V-75.1z"/>
			<path id="XMLID_92_" class="st1" d="M424.5,217.3v23.8h23.7c1.1-17.6,15.2-31.8,32.9-33v-23.4h-23.9
				C455.9,202.1,441.9,216.1,424.5,217.3z M463.6,192.2h9.9v9.4c-15.7,3.8-28.1,16.2-31.8,31.9H432v-9.8
				C447.6,220,459.8,207.8,463.6,192.2z"/>
			<path id="XMLID_89_" class="st1" d="M234.1,208.1v-23.4h-23.9c-1.3,17.4-15.3,31.4-32.7,32.7v23.8h23.7
				C202.4,223.5,216.5,209.4,234.1,208.1z M194.8,233.6h-9.7v-9.8c15.5-3.8,27.8-16,31.6-31.6h9.9v9.4
				C210.8,205.4,198.5,217.9,194.8,233.6z"/>
			<path id="XMLID_86_" class="st1" d="M201.3-252.7c1.5-17.3,15.4-31,32.8-32.3v-24.2h-23.9c-1.3,17.4-15.3,31.4-32.7,32.7v23.8
				H201.3z M216.7-301.6h9.9v10.2c-15.5,3.7-27.7,15.8-31.6,31.2h-9.9v-9.8C200.6-273.9,212.9-286.1,216.7-301.6z"/>
			<path id="XMLID_83_" class="st1" d="M48.8-100.2V-124H25.1C23.9-106.5,9.9-92.5-7.6-91.2v23.7h23.6
				C17.4-84.9,31.3-98.9,48.8-100.2z M9.6-75.1H0v-9.7c15.6-3.8,27.8-16.2,31.5-31.7h9.7v9.9C25.7-102.8,13.4-90.6,9.6-75.1z"/>
			<path id="XMLID_80_" class="st1" d="M263,61.2h-23.7v23.7c17.4,1.3,31.4,15.3,32.6,32.8h23.8V93.9
				C278.3,92.6,264.3,78.6,263,61.2z M288.2,110.1h-9.7c-3.7-15.6-16-27.8-31.5-31.7v-9.7h9.6c3.8,15.5,16,27.8,31.6,31.5V110.1z"/>
			<path id="XMLID_77_" class="st1" d="M448.3-252.7c1.5-17.3,15.4-31,32.8-32.3v-24.2h-23.9c-1.3,17.4-15.3,31.4-32.7,32.7v23.8
				H448.3z M463.6-301.6h9.9v10.2c-15.5,3.7-27.7,15.8-31.6,31.2H432v-9.8C447.6-273.9,459.8-286.1,463.6-301.6z"/>
			<path id="XMLID_76_" class="st1" d="M522.7-311.8h-7.6c0,16.6,13.5,30.1,30.2,30.1v-7.6C532.8-289.2,522.7-299.4,522.7-311.8z"/>
			<path id="XMLID_75_" class="st1" d="M515.1-188.4c0,16.6,13.5,30.2,30.2,30.2v-7.6c-12.5,0-22.6-10.1-22.6-22.6
				c0-12.5,10.2-22.6,22.6-22.6v-7.6C528.6-218.5,515.1-205,515.1-188.4z"/>
			<path id="XMLID_74_" class="st1" d="M515.1-64.9c0,16.6,13.5,30.1,30.2,30.1v-7.6c-12.5,0-22.6-10.1-22.6-22.6
				c0-12.5,10.2-22.6,22.6-22.6V-95C528.6-95,515.1-81.5,515.1-64.9z"/>
			<path id="XMLID_73_" class="st1" d="M515.1,58.6c0,16.6,13.5,30.1,30.2,30.1v-7.6c-12.5,0-22.6-10.1-22.6-22.6
				c0-12.5,10.2-22.6,22.6-22.6v-7.6C528.6,28.4,515.1,42,515.1,58.6z"/>
			<path id="XMLID_72_" class="st1" d="M515.1,182.1c0,16.6,13.5,30.2,30.2,30.2v-7.6c-12.5,0-22.6-10.1-22.6-22.6
				c0-12.5,10.2-22.6,22.6-22.6v-7.6C528.6,151.9,515.1,165.4,515.1,182.1z"/>
			<path id="XMLID_71_" class="st1" d="M-72,275.4v7.6c12.5,0,22.6,10.1,22.6,22.6h7.6C-41.9,288.9-55.4,275.4-72,275.4z"/>
			<path id="XMLID_70_" class="st1" d="M51.4,275.4c-16.7,0-30.2,13.5-30.2,30.1h7.6c0-12.5,10.1-22.6,22.6-22.6
				c12.5,0,22.6,10.1,22.6,22.6h7.6C81.6,288.9,68.1,275.4,51.4,275.4z"/>
			<path id="XMLID_69_" class="st1" d="M174.9,275.4c-16.7,0-30.2,13.5-30.2,30.1h7.6c0-12.5,10.1-22.6,22.6-22.6
				c12.5,0,22.6,10.1,22.6,22.6h7.6C205.1,288.9,191.5,275.4,174.9,275.4z"/>
			<path id="XMLID_68_" class="st1" d="M298.4,275.4c-16.7,0-30.2,13.5-30.2,30.1h7.6c0-12.5,10.2-22.6,22.6-22.6
				c12.5,0,22.6,10.1,22.6,22.6h7.6C328.6,288.9,315,275.4,298.4,275.4z"/>
			<path id="XMLID_67_" class="st1" d="M421.8,275.4c-16.7,0-30.2,13.5-30.2,30.1h7.6c0-12.5,10.1-22.6,22.6-22.6
				c12.5,0,22.6,10.1,22.6,22.6h7.6C452,288.9,438.5,275.4,421.8,275.4z"/>
			<path id="XMLID_66_" class="st1" d="M515.1,305.5h7.6c0-12.5,10.2-22.6,22.6-22.6v-7.6C528.6,275.4,515.1,288.9,515.1,305.5z"/>
			<path id="XMLID_65_" class="st1" d="M51.4-281.7c16.7,0,30.2-13.5,30.2-30.1h-7.6c0,12.5-10.2,22.6-22.6,22.6
				c-12.5,0-22.6-10.1-22.6-22.6h-7.6C21.2-295.2,34.8-281.7,51.4-281.7z"/>
			<path id="XMLID_64_" class="st1" d="M174.9-281.7c16.7,0,30.2-13.5,30.2-30.1h-7.6c0,12.5-10.1,22.6-22.6,22.6
				c-12.5,0-22.6-10.1-22.6-22.6h-7.6C144.7-295.2,158.2-281.7,174.9-281.7z"/>
			<path id="XMLID_63_" class="st1" d="M298.4-281.7c16.7,0,30.2-13.5,30.2-30.1H321c0,12.5-10.2,22.6-22.6,22.6
				c-12.5,0-22.6-10.1-22.6-22.6h-7.6C268.2-295.2,281.7-281.7,298.4-281.7z"/>
			<path id="XMLID_62_" class="st1" d="M421.8-281.7c16.7,0,30.2-13.5,30.2-30.1h-7.6c0,12.5-10.1,22.6-22.6,22.6
				c-12.5,0-22.6-10.1-22.6-22.6h-7.6C391.6-295.2,405.2-281.7,421.8-281.7z"/>
			<path id="XMLID_61_" class="st1" d="M-41.9-188.4c0-16.6-13.5-30.1-30.2-30.1v7.6c12.5,0,22.6,10.1,22.6,22.6
				c0,12.5-10.1,22.6-22.6,22.6v7.6C-55.4-158.2-41.9-171.7-41.9-188.4z"/>
			<path id="XMLID_58_" class="st1" d="M51.4-158.2c16.6,0,30.2-13.5,30.2-30.1c0-16.6-13.5-30.1-30.2-30.1
				c-16.6,0-30.2,13.5-30.2,30.1C21.2-171.7,34.8-158.2,51.4-158.2z M51.4-210.9c12.5,0,22.6,10.1,22.6,22.6
				c0,12.5-10.2,22.6-22.6,22.6s-22.6-10.1-22.6-22.6C28.8-200.8,38.9-210.9,51.4-210.9z"/>
			<path id="XMLID_55_" class="st1" d="M174.9-158.2c16.6,0,30.2-13.5,30.2-30.1c0-16.6-13.5-30.1-30.2-30.1
				c-16.7,0-30.2,13.5-30.2,30.1C144.7-171.7,158.2-158.2,174.9-158.2z M174.9-210.9c12.5,0,22.6,10.1,22.6,22.6
				c0,12.5-10.2,22.6-22.6,22.6s-22.6-10.1-22.6-22.6C152.3-200.8,162.4-210.9,174.9-210.9z"/>
			<path id="XMLID_52_" class="st1" d="M298.4-158.2c16.6,0,30.2-13.5,30.2-30.1c0-16.6-13.5-30.1-30.2-30.1
				c-16.6,0-30.2,13.5-30.2,30.1C268.2-171.7,281.7-158.2,298.4-158.2z M298.4-210.9c12.5,0,22.6,10.1,22.6,22.6
				c0,12.5-10.2,22.6-22.6,22.6c-12.5,0-22.6-10.1-22.6-22.6C275.7-200.8,285.9-210.9,298.4-210.9z"/>
			<path id="XMLID_49_" class="st1" d="M421.8-218.5c-16.7,0-30.2,13.5-30.2,30.1c0,16.6,13.5,30.1,30.2,30.1
				c16.6,0,30.2-13.5,30.2-30.1C452-205,438.5-218.5,421.8-218.5z M421.8-165.8c-12.5,0-22.6-10.1-22.6-22.6
				c0-12.5,10.2-22.6,22.6-22.6c12.5,0,22.6,10.1,22.6,22.6C444.5-175.9,434.3-165.8,421.8-165.8z"/>
			<path id="XMLID_48_" class="st1" d="M-41.9-64.9C-41.9-81.5-55.4-95-72-95v7.6c12.5,0,22.6,10.1,22.6,22.6
				c0,12.5-10.1,22.6-22.6,22.6v7.6C-55.4-34.7-41.9-48.3-41.9-64.9z"/>
			<path id="XMLID_45_" class="st1" d="M51.4-34.7c16.6,0,30.2-13.5,30.2-30.1S68.1-95,51.4-95c-16.6,0-30.2,13.5-30.2,30.1
				S34.8-34.7,51.4-34.7z M51.4-87.5c12.5,0,22.6,10.1,22.6,22.6c0,12.5-10.2,22.6-22.6,22.6S28.8-52.4,28.8-64.9
				C28.8-77.3,38.9-87.5,51.4-87.5z"/>
			<path id="XMLID_42_" class="st1" d="M174.9-34.7c16.6,0,30.2-13.5,30.2-30.1S191.5-95,174.9-95c-16.7,0-30.2,13.5-30.2,30.1
				S158.2-34.7,174.9-34.7z M174.9-87.5c12.5,0,22.6,10.1,22.6,22.6c0,12.5-10.2,22.6-22.6,22.6s-22.6-10.1-22.6-22.6
				C152.3-77.3,162.4-87.5,174.9-87.5z"/>
			<path id="XMLID_39_" class="st1" d="M298.4-95c-16.6,0-30.2,13.5-30.2,30.1s13.5,30.1,30.2,30.1c16.6,0,30.2-13.5,30.2-30.1
				S315-95,298.4-95z M298.4-42.3c-12.5,0-22.6-10.1-22.6-22.6c0-12.5,10.2-22.6,22.6-22.6c12.5,0,22.6,10.1,22.6,22.6
				C321-52.4,310.8-42.3,298.4-42.3z"/>
			<path id="XMLID_36_" class="st1" d="M421.8-95c-16.7,0-30.2,13.5-30.2,30.1s13.5,30.1,30.2,30.1c16.6,0,30.2-13.5,30.2-30.1
				S438.5-95,421.8-95z M421.8-42.3c-12.5,0-22.6-10.1-22.6-22.6c0-12.5,10.2-22.6,22.6-22.6c12.5,0,22.6,10.1,22.6,22.6
				C444.5-52.4,434.3-42.3,421.8-42.3z"/>
			<path id="XMLID_35_" class="st1" d="M-41.9,58.6c0-16.6-13.5-30.1-30.2-30.1V36c12.5,0,22.6,10.1,22.6,22.6
				c0,12.5-10.1,22.6-22.6,22.6v7.6C-55.4,88.7-41.9,75.2-41.9,58.6z"/>
			<path id="XMLID_32_" class="st1" d="M51.4,88.7c16.6,0,30.2-13.5,30.2-30.1c0-16.6-13.5-30.1-30.2-30.1
				c-16.6,0-30.2,13.5-30.2,30.1C21.2,75.2,34.8,88.7,51.4,88.7z M51.4,36c12.5,0,22.6,10.1,22.6,22.6c0,12.5-10.2,22.6-22.6,22.6
				S28.8,71,28.8,58.6C28.8,46.1,38.9,36,51.4,36z"/>
			<path id="XMLID_29_" class="st1" d="M174.9,28.4c-16.7,0-30.2,13.5-30.2,30.1c0,16.6,13.5,30.1,30.2,30.1
				c16.6,0,30.2-13.5,30.2-30.1C205.1,42,191.5,28.4,174.9,28.4z M174.9,81.2c-12.5,0-22.6-10.1-22.6-22.6
				c0-12.5,10.2-22.6,22.6-22.6s22.6,10.1,22.6,22.6C197.5,71,187.4,81.2,174.9,81.2z"/>
			<path id="XMLID_26_" class="st1" d="M298.4,28.4c-16.6,0-30.2,13.5-30.2,30.1c0,16.6,13.5,30.1,30.2,30.1
				c16.6,0,30.2-13.5,30.2-30.1C328.6,42,315,28.4,298.4,28.4z M298.4,81.2c-12.5,0-22.6-10.1-22.6-22.6c0-12.5,10.2-22.6,22.6-22.6
				c12.5,0,22.6,10.1,22.6,22.6C321,71,310.8,81.2,298.4,81.2z"/>
			<path id="XMLID_23_" class="st1" d="M421.8,28.4c-16.7,0-30.2,13.5-30.2,30.1c0,16.6,13.5,30.1,30.2,30.1
				c16.6,0,30.2-13.5,30.2-30.1C452,42,438.5,28.4,421.8,28.4z M421.8,81.2c-12.5,0-22.6-10.1-22.6-22.6c0-12.5,10.2-22.6,22.6-22.6
				c12.5,0,22.6,10.1,22.6,22.6C444.5,71,434.3,81.2,421.8,81.2z"/>
			<path id="XMLID_22_" class="st1" d="M-41.9,182.1c0-16.6-13.5-30.1-30.2-30.1v7.6c12.5,0,22.6,10.1,22.6,22.6
				c0,12.5-10.1,22.6-22.6,22.6v7.6C-55.4,212.2-41.9,198.7-41.9,182.1z"/>
			<path id="XMLID_19_" class="st1" d="M51.4,151.9c-16.6,0-30.2,13.5-30.2,30.2c0,16.6,13.5,30.1,30.2,30.1
				c16.6,0,30.2-13.5,30.2-30.1C81.6,165.4,68.1,151.9,51.4,151.9z M51.4,204.7c-12.5,0-22.6-10.1-22.6-22.6
				c0-12.5,10.2-22.6,22.6-22.6s22.6,10.1,22.6,22.6C74.1,194.5,63.9,204.7,51.4,204.7z"/>
			<path id="XMLID_16_" class="st1" d="M174.9,151.9c-16.7,0-30.2,13.5-30.2,30.2c0,16.6,13.5,30.1,30.2,30.1
				c16.6,0,30.2-13.5,30.2-30.1C205.1,165.4,191.5,151.9,174.9,151.9z M174.9,204.7c-12.5,0-22.6-10.1-22.6-22.6
				c0-12.5,10.2-22.6,22.6-22.6s22.6,10.1,22.6,22.6C197.5,194.5,187.4,204.7,174.9,204.7z"/>
			<path id="XMLID_13_" class="st1" d="M298.4,151.9c-16.6,0-30.2,13.5-30.2,30.2c0,16.6,13.5,30.1,30.2,30.1
				c16.6,0,30.2-13.5,30.2-30.1C328.6,165.4,315,151.9,298.4,151.9z M298.4,204.7c-12.5,0-22.6-10.1-22.6-22.6
				c0-12.5,10.2-22.6,22.6-22.6c12.5,0,22.6,10.1,22.6,22.6C321,194.5,310.8,204.7,298.4,204.7z"/>
			<path id="XMLID_10_" class="st1" d="M421.8,151.9c-16.7,0-30.2,13.5-30.2,30.2c0,16.6,13.5,30.1,30.2,30.1
				c16.6,0,30.2-13.5,30.2-30.1C452,165.4,438.5,151.9,421.8,151.9z M421.8,204.7c-12.5,0-22.6-10.1-22.6-22.6
				c0-12.5,10.2-22.6,22.6-22.6c12.5,0,22.6,10.1,22.6,22.6C444.5,194.5,434.3,204.7,421.8,204.7z"/>
			<path id="XMLID_7_" class="st1" d="M-10.3-33.3c-16.6,0-30.2,13.5-30.2,30.1C-40.5,13.5-27,27-10.3,27C6.3,27,19.9,13.5,19.9-3.1
				C19.9-19.8,6.3-33.3-10.3-33.3z M-10.3,19.4c-12.5,0-22.6-10.1-22.6-22.6c0-12.5,10.2-22.6,22.6-22.6c12.5,0,22.6,10.1,22.6,22.6
				C12.3,9.3,2.2,19.4-10.3,19.4z"/>
		</g>
	</g>
</g>
</svg>
