<?xml version="1.0" encoding="utf-8"?>
<!-- Generator: Adobe Illustrator 19.0.0, SVG Export Plug-In . SVG Version: 6.00 Build 0)  -->
<svg version="1.1" id="Capa_1" xmlns="http://www.w3.org/2000/svg" xmlns:xlink="http://www.w3.org/1999/xlink" x="0px" y="0px"
	 viewBox="0 0 26.5 26.4" style="enable-background:new 0 0 26.5 26.4;" xml:space="preserve">
<style type="text/css">
	.st0{fill:#2D0010;}
</style>
<g id="XMLID_16_">
	<g id="XMLID_21_">
		<g id="XMLID_22_">
			<path id="XMLID_23_" class="st0" d="M16.7,5.4l-2,0c-2.2,0-3.7,1.5-3.7,3.8V11H9c-0.2,0-0.3,0.1-0.3,0.3v2.5
				c0,0.2,0.1,0.3,0.3,0.3h2v6.4c0,0.2,0.1,0.3,0.3,0.3H14c0.2,0,0.3-0.1,0.3-0.3v-6.4h2.4c0.2,0,0.3-0.1,0.3-0.3l0-2.5
				c0-0.1,0-0.2-0.1-0.2C16.8,11,16.7,11,16.6,11h-2.4V9.5c0-0.7,0.2-1.1,1.1-1.1l1.3,0c0.2,0,0.3-0.1,0.3-0.3V5.8
				C17.1,5.6,16.9,5.4,16.7,5.4L16.7,5.4z M16.7,5.4"/>
		</g>
	</g>
	<g id="XMLID_17_">
		<path id="XMLID_18_" class="st0" d="M13.2,26.1c-7.1,0-13-5.8-13-13s5.8-13,13-13c7.1,0,13,5.8,13,13S20.4,26.1,13.2,26.1z
			 M13.2,0.7C6.4,0.7,0.8,6.3,0.8,13.2s5.6,12.5,12.5,12.5c6.9,0,12.5-5.6,12.5-12.5S20.1,0.7,13.2,0.7z"/>
	</g>
</g>
</svg>
