<?xml version="1.0" encoding="utf-8"?>
<!-- Generator: Adobe Illustrator 19.0.0, SVG Export Plug-In . SVG Version: 6.00 Build 0)  -->
<svg version="1.1" id="Capa_1" xmlns="http://www.w3.org/2000/svg" xmlns:xlink="http://www.w3.org/1999/xlink" x="0px" y="0px"
	 viewBox="0 0 221.1 615.1" style="enable-background:new 0 0 221.1 615.1;" xml:space="preserve">
<style type="text/css">
	.st0{clip-path:url(#SVGID_2_);}
	.st1{fill:#CFB471;}
</style>
<g>
	<defs>
		<rect id="SVGID_1_" width="221.1" height="615.1"/>
	</defs>
	<clipPath id="SVGID_2_">
		<use xlink:href="#SVGID_1_"  style="overflow:visible;"/>
	</clipPath>
	<g class="st0">
		<g>
			<path class="st1" d="M-564.8,34c-17.4,0-31.6,14.1-31.6,31.5c0,17.4,14.2,31.5,31.6,31.5c17.4,0,31.6-14.1,31.6-31.5
				C-533.2,48.2-547.4,34-564.8,34z M-564.8,89.2c-13,0-23.7-10.6-23.7-23.6c0-13,10.6-23.6,23.7-23.6c13,0,23.7,10.6,23.7,23.6
				C-541.1,78.6-551.7,89.2-564.8,89.2z"/>
			<path class="st1" d="M-435.7,97.1c17.4,0,31.6-14.1,31.6-31.5c0-17.4-14.2-31.5-31.6-31.5c-17.4,0-31.6,14.1-31.6,31.5
				C-467.3,82.9-453.1,97.1-435.7,97.1z M-435.7,41.9c13,0,23.7,10.6,23.7,23.6c0,13-10.6,23.6-23.7,23.6c-13,0-23.7-10.6-23.7-23.6
				C-459.3,52.5-448.7,41.9-435.7,41.9z"/>
			<path class="st1" d="M-306.6,97.1c17.4,0,31.6-14.1,31.6-31.5c0-17.4-14.2-31.5-31.6-31.5c-17.4,0-31.6,14.1-31.6,31.5
				C-338.2,82.9-324,97.1-306.6,97.1z M-306.6,41.9c13,0,23.7,10.6,23.7,23.6c0,13-10.6,23.6-23.7,23.6c-13,0-23.7-10.6-23.7-23.6
				C-330.3,52.5-319.7,41.9-306.6,41.9z"/>
			<path class="st1" d="M-177.5,97.1c17.4,0,31.6-14.1,31.6-31.5c0-17.4-14.2-31.5-31.6-31.5c-17.4,0-31.6,14.1-31.6,31.5
				C-209.1,82.9-194.9,97.1-177.5,97.1z M-177.5,41.9c13,0,23.7,10.6,23.7,23.6c0,13-10.6,23.6-23.7,23.6c-13,0-23.7-10.6-23.7-23.6
				C-201.2,52.5-190.6,41.9-177.5,41.9z"/>
			<path class="st1" d="M-48.5,34C-65.9,34-80,48.2-80,65.5c0,17.4,14.2,31.5,31.6,31.5c17.4,0,31.6-14.1,31.6-31.5
				C-16.9,48.2-31.1,34-48.5,34z M-48.5,89.2c-13,0-23.7-10.6-23.7-23.6c0-13,10.6-23.6,23.7-23.6c13,0,23.7,10.6,23.7,23.6
				C-24.8,78.6-35.4,89.2-48.5,89.2z"/>
			<path class="st1" d="M-564.8,162.9c-17.4,0-31.6,14.1-31.6,31.5c0,17.4,14.2,31.5,31.6,31.5c17.4,0,31.6-14.1,31.6-31.5
				C-533.2,177.1-547.4,162.9-564.8,162.9z M-564.8,218.1c-13,0-23.7-10.6-23.7-23.6c0-13,10.6-23.6,23.7-23.6
				c13,0,23.7,10.6,23.7,23.6C-541.1,207.5-551.7,218.1-564.8,218.1z"/>
			<path class="st1" d="M-435.7,162.9c-17.4,0-31.6,14.1-31.6,31.5c0,17.4,14.2,31.5,31.6,31.5c17.4,0,31.6-14.1,31.6-31.5
				C-404.1,177.1-418.3,162.9-435.7,162.9z M-435.7,218.1c-13,0-23.7-10.6-23.7-23.6c0-13,10.6-23.6,23.7-23.6
				c13,0,23.7,10.6,23.7,23.6C-412,207.5-422.6,218.1-435.7,218.1z"/>
			<path class="st1" d="M-306.6,226c17.4,0,31.6-14.1,31.6-31.5c0-17.4-14.2-31.5-31.6-31.5c-17.4,0-31.6,14.1-31.6,31.5
				C-338.2,211.8-324,226-306.6,226z M-306.6,170.8c13,0,23.7,10.6,23.7,23.6c0,13-10.6,23.6-23.7,23.6c-13,0-23.7-10.6-23.7-23.6
				C-330.3,181.4-319.7,170.8-306.6,170.8z"/>
			<path class="st1" d="M-177.5,226c17.4,0,31.6-14.1,31.6-31.5c0-17.4-14.2-31.5-31.6-31.5c-17.4,0-31.6,14.1-31.6,31.5
				C-209.1,211.8-194.9,226-177.5,226z M-177.5,170.8c13,0,23.7,10.6,23.7,23.6c0,13-10.6,23.6-23.7,23.6c-13,0-23.7-10.6-23.7-23.6
				C-201.2,181.4-190.6,170.8-177.5,170.8z"/>
			<path class="st1" d="M-48.5,226c17.4,0,31.6-14.1,31.6-31.5c0-17.4-14.2-31.5-31.6-31.5c-17.4,0-31.6,14.1-31.6,31.5
				C-80,211.8-65.9,226-48.5,226z M-48.5,170.8c13,0,23.7,10.6,23.7,23.6c0,13-10.6,23.6-23.7,23.6c-13,0-23.7-10.6-23.7-23.6
				C-72.1,181.4-61.5,170.8-48.5,170.8z"/>
			<path class="st1" d="M-435.7,291.8c-17.4,0-31.6,14.1-31.6,31.5c0,17.4,14.2,31.5,31.6,31.5c17.4,0,31.6-14.1,31.6-31.5
				C-404.1,305.9-418.3,291.8-435.7,291.8z M-435.7,346.9c-13,0-23.7-10.6-23.7-23.6c0-13,10.6-23.6,23.7-23.6
				c13,0,23.7,10.6,23.7,23.6C-412,336.3-422.6,346.9-435.7,346.9z"/>
			<path class="st1" d="M-306.6,354.8c17.4,0,31.6-14.1,31.6-31.5c0-17.4-14.2-31.5-31.6-31.5c-17.4,0-31.6,14.1-31.6,31.5
				C-338.2,340.7-324,354.8-306.6,354.8z M-306.6,299.7c13,0,23.7,10.6,23.7,23.6c0,13-10.6,23.6-23.7,23.6
				c-13,0-23.7-10.6-23.7-23.6C-330.3,310.3-319.7,299.7-306.6,299.7z"/>
			<path class="st1" d="M-177.5,354.8c17.4,0,31.6-14.1,31.6-31.5c0-17.4-14.2-31.5-31.6-31.5c-17.4,0-31.6,14.1-31.6,31.5
				C-209.1,340.7-194.9,354.8-177.5,354.8z M-177.5,299.7c13,0,23.7,10.6,23.7,23.6c0,13-10.6,23.6-23.7,23.6
				c-13,0-23.7-10.6-23.7-23.6C-201.2,310.3-190.6,299.7-177.5,299.7z"/>
			<path class="st1" d="M-48.5,354.8c17.4,0,31.6-14.1,31.6-31.5c0-17.4-14.2-31.5-31.6-31.5c-17.4,0-31.6,14.1-31.6,31.5
				C-80,340.7-65.9,354.8-48.5,354.8z M-48.5,299.7c13,0,23.7,10.6,23.7,23.6c0,13-10.6,23.6-23.7,23.6c-13,0-23.7-10.6-23.7-23.6
				C-72.1,310.3-61.5,299.7-48.5,299.7z"/>
			<path class="st1" d="M-564.8,420.7c-17.4,0-31.6,14.1-31.6,31.5c0,17.4,14.2,31.5,31.6,31.5c17.4,0,31.6-14.1,31.6-31.5
				C-533.2,434.8-547.4,420.7-564.8,420.7z M-564.8,475.8c-13,0-23.7-10.6-23.7-23.6c0-13,10.6-23.6,23.7-23.6
				c13,0,23.7,10.6,23.7,23.6C-541.1,465.2-551.7,475.8-564.8,475.8z"/>
			<path class="st1" d="M-435.7,420.7c-17.4,0-31.6,14.1-31.6,31.5c0,17.4,14.2,31.5,31.6,31.5c17.4,0,31.6-14.1,31.6-31.5
				C-404.1,434.8-418.3,420.7-435.7,420.7z M-435.7,475.8c-13,0-23.7-10.6-23.7-23.6c0-13,10.6-23.6,23.7-23.6
				c13,0,23.7,10.6,23.7,23.6C-412,465.2-422.6,475.8-435.7,475.8z"/>
			<path class="st1" d="M-306.6,420.7c-17.4,0-31.6,14.1-31.6,31.5c0,17.4,14.2,31.5,31.6,31.5c17.4,0,31.6-14.1,31.6-31.5
				C-275.1,434.8-289.2,420.7-306.6,420.7z M-306.6,475.8c-13,0-23.7-10.6-23.7-23.6c0-13,10.6-23.6,23.7-23.6
				c13,0,23.7,10.6,23.7,23.6C-283,465.2-293.6,475.8-306.6,475.8z"/>
			<path class="st1" d="M-177.5,483.7c17.4,0,31.6-14.1,31.6-31.5c0-17.4-14.2-31.5-31.6-31.5c-17.4,0-31.6,14.1-31.6,31.5
				C-209.1,469.6-194.9,483.7-177.5,483.7z M-177.5,428.6c13,0,23.7,10.6,23.7,23.6c0,13-10.6,23.6-23.7,23.6
				c-13,0-23.7-10.6-23.7-23.6C-201.2,439.2-190.6,428.6-177.5,428.6z"/>
			<path class="st1" d="M-48.5,483.7c17.4,0,31.6-14.1,31.6-31.5c0-17.4-14.2-31.5-31.6-31.5c-17.4,0-31.6,14.1-31.6,31.5
				C-80,469.6-65.9,483.7-48.5,483.7z M-48.5,428.6c13,0,23.7,10.6,23.7,23.6c0,13-10.6,23.6-23.7,23.6c-13,0-23.7-10.6-23.7-23.6
				C-72.1,439.2-61.5,428.6-48.5,428.6z"/>
			<path class="st1" d="M-564.8,549.6c-17.4,0-31.6,14.1-31.6,31.5c0,17.4,14.2,31.5,31.6,31.5c17.4,0,31.6-14.1,31.6-31.5
				C-533.2,563.7-547.4,549.6-564.8,549.6z M-564.8,604.7c-13,0-23.7-10.6-23.7-23.6c0-13,10.6-23.6,23.7-23.6
				c13,0,23.7,10.6,23.7,23.6C-541.1,594.1-551.7,604.7-564.8,604.7z"/>
			<path class="st1" d="M-435.7,549.6c-17.4,0-31.6,14.1-31.6,31.5c0,17.4,14.2,31.5,31.6,31.5c17.4,0,31.6-14.1,31.6-31.5
				C-404.1,563.7-418.3,549.6-435.7,549.6z M-435.7,604.7c-13,0-23.7-10.6-23.7-23.6c0-13,10.6-23.6,23.7-23.6
				c13,0,23.7,10.6,23.7,23.6C-412,594.1-422.6,604.7-435.7,604.7z"/>
			<path class="st1" d="M-306.6,549.6c-17.4,0-31.6,14.1-31.6,31.5c0,17.4,14.2,31.5,31.6,31.5c17.4,0,31.6-14.1,31.6-31.5
				C-275.1,563.7-289.2,549.6-306.6,549.6z M-306.6,604.7c-13,0-23.7-10.6-23.7-23.6c0-13,10.6-23.6,23.7-23.6
				c13,0,23.7,10.6,23.7,23.6C-283,594.1-293.6,604.7-306.6,604.7z"/>
			<path class="st1" d="M-177.5,549.6c-17.4,0-31.6,14.1-31.6,31.5c0,17.4,14.2,31.5,31.6,31.5c17.4,0,31.6-14.1,31.6-31.5
				C-146,563.7-160.1,549.6-177.5,549.6z M-177.5,604.7c-13,0-23.7-10.6-23.7-23.6c0-13,10.6-23.6,23.7-23.6
				c13,0,23.7,10.6,23.7,23.6C-153.9,594.1-164.5,604.7-177.5,604.7z"/>
			<path class="st1" d="M-48.5,612.6c17.4,0,31.6-14.1,31.6-31.5c0-17.4-14.2-31.5-31.6-31.5c-17.4,0-31.6,14.1-31.6,31.5
				C-80,598.5-65.9,612.6-48.5,612.6z M-48.5,557.5c13,0,23.7,10.6,23.7,23.6c0,13-10.6,23.6-23.7,23.6c-13,0-23.7-10.6-23.7-23.6
				C-72.1,568.1-61.5,557.5-48.5,557.5z"/>
			<path class="st1" d="M-597.7,0.6h-7.9c0,13-10.6,23.6-23.7,23.6v7.9C-611.9,32.1-597.7,18-597.7,0.6z"/>
			<path class="st1" d="M-214.5,191.5c1.5-18.2,16.1-32.6,34.3-33.9v-25.1h-25c-1.3,18.2-16,32.8-34.2,34.1v24.9H-214.5z
				 M-198.4,140.3h10.3v10.4c-16.2,3.9-29.1,16.6-33.1,32.8h-10.3v-10.2C-215.2,169.4-202.4,156.6-198.4,140.3z"/>
			<path class="st1" d="M-205.1,127h25v-24.5c-18.4-1.3-33.2-16.1-34.4-34.6h-24.8v24.9C-221.1,94.2-206.5,108.7-205.1,127z
				 M-231.4,75.8h10.1c3.9,16.5,16.8,29.5,33.3,33.4v9.9h-10.3c-4-16.2-16.8-29-33-33V75.8z"/>
			<path class="st1" d="M-239.3,295.7v24.9h24.8c1.4-18.2,16-32.8,34.3-34.1v-24.9h-25C-206.5,279.7-221.1,294.3-239.3,295.7z
				 M-198.4,269.4h10.3v10.3c-16.3,3.9-29.2,16.7-33.2,33h-10.2v-10.2C-215.2,298.4-202.4,285.6-198.4,269.4z"/>
			<path class="st1" d="M-174.7,28.7c18,1.4,32.5,15.7,34,33.7h24.9V37.5C-134,36.2-148.6,21.6-150,3.4h-24.7V28.7z M-166.8,11.3
				h10.1c4,16.2,16.8,29,33,33v10.3H-134c-4.1-16-16.8-28.6-32.8-32.5V11.3z"/>
			<path class="st1" d="M-303.7,102.4V127h24.7c1.3-18.2,16-32.8,34.2-34.1V67.9h-24.8C-270.8,86.2-285.4,101-303.7,102.4z
				 M-262.8,75.8h10.1v10.3c-16.3,4-29.1,16.8-33,33h-10.1v-9.9C-279.5,105.1-266.7,92.1-262.8,75.8z"/>
			<path class="st1" d="M-601.7,578.7c1.2-18.4,15.9-33.2,34.3-34.5v-24.5h-25c-1.3,18.2-16,32.8-34.2,34.2v24.9H-601.7z
				 M-618.7,560.6c16.3-4,29.1-16.8,33-33h10.3v9.9c-16.4,4-29.4,16.9-33.2,33.4h-10.1V560.6z"/>
			<path class="st1" d="M-303.7,28.7c18,1.4,32.5,15.7,34,33.7h24.9V37.5c-18.2-1.3-32.9-15.9-34.2-34.1h-24.7V28.7z M-295.8,11.3
				h10.1c4,16.2,16.8,29,33,33v10.3H-263c-4.1-16-16.8-28.6-32.8-32.5V11.3z"/>
			<path class="st1" d="M-527.9,584.2c-1.5,18-16,32.4-34,33.8v25.3h24.7c1.3-18.2,16-32.8,34.2-34.1v-24.9H-527.9z M-543.9,635.4
				H-554v-10.7c16.1-4,28.8-16.6,32.8-32.6h10.3v10.3C-527.1,606.4-540,619.1-543.9,635.4z"/>
			<path class="st1" d="M-214.5,196.9h-24.8v24.9c18.2,1.3,32.9,15.9,34.2,34.1h25v-24.7C-198.5,230-213.3,215.3-214.5,196.9z
				 M-188.1,248.1h-10.3c-4-16.2-16.8-29-33-33v-10.3h10.1c3.9,16.4,16.8,29.3,33.2,33.2V248.1z"/>
			<path class="st1" d="M-11.5,455.1c-1.4,18.1-15.9,32.6-34.1,34v25.1h24.7c1.3-18.2,15.9-32.8,34.2-34.2v-24.9H-11.5z M5.4,473.3
				c-16.3,4-29.1,16.8-33,33h-10.1v-10.4H-38C-21.7,492-8.8,479.2-4.8,463H5.4V473.3z"/>
			<path class="st1" d="M-174.7,157.6c18.1,1.4,32.6,15.8,34,33.9h24.9v-24.9c-18.2-1.3-32.9-15.9-34.2-34.1h-24.7V157.6z
				 M-166.8,150.8v-10.4h10.1c4,16.2,16.8,29,33,33v10.2h-10.3c-4-16.2-16.9-28.9-33.1-32.8H-166.8z"/>
			<path class="st1" d="M-174.7,102.4V127h24.7c1.3-18.2,15.9-32.8,34.2-34.1V67.9h-24.8C-141.7,86.2-156.3,101-174.7,102.4z
				 M-133.8,75.8h10.1v10.3c-16.3,4-29.1,16.8-33,33h-10.1v-9.9C-150.4,105.1-137.6,92.1-133.8,75.8z"/>
			<path class="st1" d="M-45.6,415.3c18.2,1.4,32.8,16,34.1,34.3h24.8v-24.9c-18.2-1.3-32.9-15.9-34.2-34.2h-24.7V415.3z
				 M-37.7,398.5h10.1c4,16.2,16.8,29,33,33v10.2H-4.7c-3.9-16.3-16.7-29.1-32.9-33.1V398.5z"/>
			<path class="st1" d="M-334.2,127h25v-24.5c-18.4-1.3-33.2-16.1-34.4-34.6h-24.8v24.9C-350.2,94.2-335.6,108.7-334.2,127z
				 M-360.5,75.8h10.1c3.9,16.5,16.8,29.5,33.3,33.4v9.9h-10.3c-4-16.2-16.8-29-33-33V75.8z"/>
			<path class="st1" d="M-85.4,455.1h-24.9v25c18.2,1.3,32.9,15.9,34.2,34.1h25v-25.1C-69.3,487.8-84,473.3-85.4,455.1z M-59,506.3
				h-10.3c-4-16.2-16.8-29-33-33V463h10.2c4,16.2,16.9,29,33.1,32.9C-59,495.9-59,506.3-59,506.3z"/>
			<path class="st1" d="M-567.4,618c-18.2-1.3-32.8-15.7-34.3-33.8h-24.9v24.9c18.2,1.3,32.9,15.9,34.2,34.2h25V618z M-575.3,635.4
				h-10.3c-4-16.2-16.8-29-33-33v-10.3h10.3c4.1,16.1,16.9,28.8,33.1,32.7V635.4z"/>
			<path class="st1" d="M-567.4,360.2c-18.3-1.3-33-15.9-34.3-34.2h-24.9V351c18.2,1.3,32.9,15.9,34.2,34.2h25V360.2z M-575.3,377.2
				h-10.3c-4-16.2-16.8-29-33-33v-10.3h10.2c4,16.3,16.8,29.1,33.2,33.1V377.2z"/>
			<path class="st1" d="M-503,92.8V67.9h-24.8c-1.1,18.4-15.8,33.2-34.1,34.6V127h24.7C-535.8,108.7-521.2,94.2-503,92.8z
				 M-543.9,119.1H-554v-9.9c16.3-4,29.2-17,33-33.4h10.1v10.3C-527.1,90-540,102.8-543.9,119.1z"/>
			<path class="st1" d="M-85.4,196.9h-24.8v24.9c18.2,1.3,32.9,15.9,34.2,34.1h25v-24.7C-69.5,230-84.2,215.3-85.4,196.9z
				 M-59,248.1h-10.3c-4-16.2-16.8-29-33-33v-10.3h10.1c3.9,16.4,16.8,29.3,33.2,33.2V248.1z"/>
			<path class="st1" d="M-214.5,326h-24.8V351c18.2,1.3,32.9,15.9,34.2,34.1h25v-24.9C-198.5,358.9-213.2,344.3-214.5,326z
				 M-188.1,377.2h-10.3c-4-16.2-16.8-29-33-33v-10.3h10.2c4,16.3,16.8,29.1,33.2,33.1V377.2z"/>
			<path class="st1" d="M-11.5,326c-1.3,18.2-15.9,32.8-34.1,34.2v24.9h24.7c1.3-18.2,16-32.8,34.2-34.2V326H-11.5z M5.4,344.2
				c-16.3,4-29.1,16.8-33,33h-10.1v-10.3c16.2-4,29-16.8,32.9-33H5.4V344.2z"/>
			<path class="st1" d="M-398.8,320.5h24.9v-24.9c-18.2-1.3-32.9-15.9-34.2-34.1h-24.7v24.9C-414.6,287.8-400.1,302.4-398.8,320.5z
				 M-424.9,269.4h10.1c4,16.2,16.8,29,33,33v10.2H-392c-4-16.2-16.7-28.9-32.9-32.9V269.4z"/>
			<path class="st1" d="M-527.8,191.5h24.9v-24.9c-18.2-1.3-32.9-15.9-34.2-34.1h-24.7v25.1C-543.8,158.9-529.3,173.4-527.8,191.5z
				 M-554,150.8v-10.4h10.1c4,16.2,16.8,29,33,33v10.2h-10.3c-4-16.2-16.9-28.9-33.1-32.8H-554z"/>
			<path class="st1" d="M-45.6,286.4c18.2,1.4,32.7,15.9,34.1,34.1h24.9v-24.9c-18.2-1.3-32.9-15.9-34.2-34.2h-24.7V286.4z
				 M-37.7,269.4h10.1c4,16.2,16.8,29,33,33v10.2H-4.8c-4-16.2-16.7-28.9-32.9-32.9V269.4z"/>
			<path class="st1" d="M-85.4,326h-24.8V351c18.2,1.3,32.9,15.9,34.2,34.1h25v-24.9C-69.4,358.9-84.1,344.3-85.4,326z M-59,377.2
				h-10.3c-4-16.2-16.8-29-33-33v-10.3h10.2c4,16.3,16.8,29.1,33.2,33.1V377.2z"/>
			<path class="st1" d="M-601.7,449.6c1.3-18.3,16-33,34.3-34.3v-24.7h-25c-1.3,18.2-16,32.8-34.2,34.2v24.9H-601.7z M-618.7,431.5
				c16.3-4,29.1-16.8,33-33h10.3v10.1c-16.4,3.9-29.3,16.8-33.2,33.2h-10.2V431.5z"/>
			<path class="st1" d="M-567.4,489.1c-18.3-1.3-32.9-15.8-34.3-34h-24.9V480c18.2,1.3,32.9,15.9,34.2,34.2h25V489.1z M-575.3,506.3
				h-10.3c-4-16.2-16.8-29-33-33V463h10.2c4,16.2,16.9,29,33.1,32.9C-575.3,495.9-575.3,506.3-575.3,506.3z"/>
			<path class="st1" d="M-432.8,102.4V127h24.7c1.3-18.2,15.9-32.8,34.2-34.1V67.9h-24.8C-399.9,86.2-414.5,101-432.8,102.4z
				 M-391.9,75.8h10.1v10.3c-16.3,4-29.1,16.8-33,33h-10.1v-9.9C-408.6,105.1-395.7,92.1-391.9,75.8z"/>
			<path class="st1" d="M-463.3,127h25v-24.5c-18.4-1.3-33.2-16.1-34.4-34.6h-24.8v24.9C-479.2,94.2-464.6,108.7-463.3,127z
				 M-489.6,75.8h10.1c3.9,16.5,16.8,29.5,33.3,33.4v9.9h-10.3c-4-16.2-16.8-29-33-33V75.8z"/>
			<path class="st1" d="M-85.4,67.9h-24.8v24.9c18.2,1.3,32.9,15.9,34.2,34.1h25v-24.5C-69.5,101.2-84.3,86.3-85.4,67.9z M-59,119.1
				h-10.3c-4-16.2-16.8-29-33-33V75.8h10.1c3.9,16.5,16.8,29.5,33.3,33.4V119.1z"/>
			<path class="st1" d="M-110.3,166.6v24.9h24.9c1.5-18.2,16.1-32.6,34.3-33.9v-25.1h-25C-77.4,150.7-92,165.2-110.3,166.6z
				 M-69.3,140.3H-59v10.4c-16.2,3.9-29.1,16.6-33.1,32.8h-10.3v-10.2C-86.1,169.4-73.3,156.6-69.3,140.3z"/>
			<path class="st1" d="M-45.6,28.7c18,1.4,32.5,15.7,34,33.7h24.9V37.5C-4.9,36.2-19.5,21.6-20.9,3.4h-24.7V28.7z M-37.7,11.3h10.1
				c4,16.2,16.8,29,33,33v10.2H-4.9C-9,38.5-21.6,25.9-37.7,22V11.3z"/>
			<path class="st1" d="M-174.7,286.4c18.2,1.4,32.7,15.9,34.1,34.1h24.9v-24.9c-18.2-1.3-32.9-15.9-34.2-34.1h-24.7V286.4z
				 M-166.8,269.4h10.1c4,16.2,16.8,29,33,33v10.2h-10.2c-4-16.2-16.7-28.9-32.9-32.9V269.4z"/>
			<path class="st1" d="M-334.2,256h25v-24.7c-18.4-1.3-33.1-16-34.3-34.4h-24.8v24.9C-350.2,223.2-335.6,237.8-334.2,256z
				 M-360.5,204.8h10.1c3.9,16.4,16.8,29.3,33.2,33.2v10.1h-10.3c-4-16.2-16.8-29-33-33V204.8z"/>
			<path class="st1" d="M-269.7,584.2c-1.5,18-16,32.4-34,33.8v25.3h24.7c1.3-18.2,16-32.8,34.2-34.1v-24.9H-269.7z M-285.8,635.4
				h-10.1v-10.7c16.1-4,28.8-16.6,32.8-32.6h10.3v10.3C-269,606.4-281.8,619.1-285.8,635.4z"/>
			<path class="st1" d="M-269.7,455.1c-1.4,18.1-15.9,32.6-34.1,34v25.1h24.7c1.3-18.2,16-32.8,34.2-34.1v-25H-269.7z M-285.8,506.3
				h-10.1v-10.4h-0.3c16.3-3.9,29.1-16.7,33.1-32.9h10.2v10.3C-269,477.3-281.8,490.1-285.8,506.3z"/>
			<path class="st1" d="M-51.1,618c-18.2-1.3-32.8-15.7-34.3-33.8h-24.9v24.9C-92,610.5-77.4,625-76,643.3h25V618z M-59,635.4h-10.3
				c-4-16.2-16.8-29-33-33v-10.3h10.3c4.1,16.1,16.9,28.8,33.1,32.7V635.4z"/>
			<path class="st1" d="M-180.2,489.1c-18.3-1.3-32.9-15.8-34.3-34h-24.9v25c18.2,1.3,32.9,15.9,34.2,34.1h25V489.1z M-188.1,506.3
				h-10.3c-4-16.2-16.8-29-33-33V463h10.2c4,16.2,16.9,29,33.1,32.9C-188.1,495.9-188.1,506.3-188.1,506.3z"/>
			<path class="st1" d="M-438.3,360.2c-18.3-1.3-33-15.9-34.3-34.2h-24.9V351c18.2,1.3,32.9,15.9,34.2,34.1h25V360.2z M-446.2,377.2
				h-10.3c-4-16.2-16.8-29-33-33v-10.3h10.2c4,16.3,16.8,29.1,33.2,33.1V377.2z"/>
			<path class="st1" d="M-110.3,295.7v24.9h24.8c1.4-18.2,16-32.8,34.3-34.1v-24.9h-25C-77.4,279.7-92,294.3-110.3,295.7z
				 M-69.3,269.4H-59v10.2c-16.3,3.9-29.2,16.7-33.2,33h-10.2v-10.2C-86.1,298.4-73.3,285.6-69.3,269.4z"/>
			<path class="st1" d="M-309.2,618c-18.2-1.3-32.8-15.7-34.3-33.8h-24.9v24.9c18.2,1.3,32.9,15.9,34.2,34.1h25V618z M-317.1,635.4
				h-10.3c-4-16.2-16.8-29-33-33v-10.3h10.3c4.1,16.1,16.9,28.8,33.1,32.7V635.4z"/>
			<path class="st1" d="M-398.8,455.1c-1.4,18.1-15.9,32.6-34.1,34v25.1h24.7c1.3-18.2,15.9-32.8,34.2-34.1v-25H-398.8z
				 M-414.8,506.3h-10.1v-10.4h-0.3c16.3-3.9,29.1-16.7,33.1-32.9h10.2v10.3C-398.1,477.3-410.9,490.1-414.8,506.3z"/>
			<path class="st1" d="M-140.6,584.2c-1.5,18-16,32.4-34,33.8v25.3h24.7c1.3-18.2,16-32.8,34.2-34.1v-24.9H-140.6z M-156.7,635.4
				h-10.1v-10.7c16.1-4,28.8-16.6,32.8-32.6h10.3v10.3C-139.9,606.4-152.7,619.1-156.7,635.4z"/>
			<path class="st1" d="M-180.2,618c-18.2-1.3-32.8-15.7-34.3-33.8h-24.9v24.9c18.2,1.3,32.9,15.9,34.2,34.1h25V618z M-188.1,635.4
				h-10.3c-4-16.2-16.8-29-33-33v-10.3h10.3c4.1,16.1,16.9,28.8,33.1,32.7V635.4z"/>
			<path class="st1" d="M-438.3,489.1c-18.3-1.3-32.9-15.8-34.3-34h-24.9V480c18.2,1.3,32.9,15.9,34.2,34.1h25V489.1z M-446.2,506.3
				h-10.3c-4-16.2-16.8-29-33-33V463h10.2c4,16.2,16.9,29,33.1,32.9C-446.2,495.9-446.2,506.3-446.2,506.3z"/>
			<path class="st1" d="M-472.6,449.6c1.3-18.3,16-33,34.3-34.3v-24.7h-25c-1.3,18.2-16,32.8-34.2,34.1v24.9H-472.6z M-456.5,398.5
				h10.3v10.1c-16.4,3.9-29.3,16.8-33.2,33.2h-10.2v-10.2C-473.3,427.5-460.5,414.7-456.5,398.5z"/>
			<path class="st1" d="M-140.6,196.9c-1.2,18.3-15.8,33-34.1,34.4V256h24.7c1.3-18.2,15.9-32.8,34.2-34.1v-24.9H-140.6z
				 M-156.7,248.1h-10.1V238c16.3-4,29.1-16.9,33-33.2h10.1v10.3C-139.9,219.1-152.7,231.9-156.7,248.1z"/>
			<path class="st1" d="M-309.2,489.1c-18.3-1.3-32.9-15.8-34.3-34h-24.9V480c18.2,1.3,32.9,15.9,34.2,34.1h25V489.1z M-317.1,506.3
				h-10.3c-4-16.2-16.8-29-33-33V463h10.2c4,16.2,16.9,29,33.1,32.9C-317.1,495.9-317.1,506.3-317.1,506.3z"/>
			<path class="st1" d="M-373.9,221.9v-24.9h-24.8c-1.2,18.3-15.8,33-34.1,34.4V256h24.7C-406.8,237.8-392.1,223.2-373.9,221.9z
				 M-414.8,248.1h-10.1V238c16.3-4,29.1-16.9,33-33.2h10.1v10.3C-398.1,219.1-410.9,231.9-414.8,248.1z"/>
			<path class="st1" d="M-303.7,231.3V256h24.7c1.3-18.2,16-32.8,34.2-34.1v-24.9h-24.8C-270.9,215.2-285.5,229.9-303.7,231.3z
				 M-262.9,204.8h10.1v10.3c-16.3,4-29.1,16.8-33,33h-10.1V238C-279.6,234-266.8,221.1-262.9,204.8z"/>
			<path class="st1" d="M-343.5,191.5c1.5-18.2,16.1-32.6,34.3-33.9v-25.1h-25c-1.3,18.2-16,32.8-34.2,34.1v24.9H-343.5z
				 M-327.5,140.3h10.3v10.4c-16.2,3.9-29.1,16.6-33.1,32.8h-10.3v-10.2C-344.3,169.4-331.4,156.6-327.5,140.3z"/>
			<path class="st1" d="M-472.6,320.5c1.4-18.2,16-32.8,34.3-34.1v-24.9h-25c-1.3,18.2-16,32.8-34.2,34.1v24.9H-472.6z
				 M-456.5,269.4h10.3v10.3c-16.3,3.9-29.2,16.7-33.1,33h-10.2v-10.2C-473.3,298.4-460.5,285.6-456.5,269.4z"/>
			<path class="st1" d="M-432.8,157.6c18.1,1.4,32.6,15.8,34.1,33.9h24.9v-24.9c-18.2-1.3-32.9-15.9-34.2-34.1h-24.7V157.6z
				 M-424.9,150.8v-10.4h10.1c4,16.2,16.8,29,33,33v10.2h-10.3c-4-16.2-16.9-28.9-33.1-32.8H-424.9z"/>
			<path class="st1" d="M-438.3,618c-18.2-1.3-32.8-15.7-34.3-33.8h-24.9v24.9c18.2,1.3,32.9,15.9,34.2,34.1h25V618z M-446.2,635.4
				h-10.3c-4-16.2-16.8-29-33-33v-10.3h10.3c4.1,16.1,16.9,28.8,33.1,32.7V635.4z"/>
			<path class="st1" d="M-601.7,320.5c1.4-18.2,16-32.8,34.3-34.1v-24.9h-25c-1.3,18.2-16,32.8-34.2,34.2v24.9H-601.7z
				 M-618.7,302.4c16.3-4,29.1-16.8,33-33h10.3v10.3c-16.3,3.9-29.2,16.7-33.1,33h-10.2V302.4z"/>
			<path class="st1" d="M-472.6,191.5c1.5-18.2,16.1-32.6,34.3-33.9v-25.1h-25c-1.3,18.2-16,32.8-34.2,34.1v24.9H-472.6z
				 M-456.5,140.3h10.3v10.4c-16.2,3.9-29.1,16.6-33.1,32.8h-10.3v-10.2C-473.3,169.4-460.5,156.6-456.5,140.3z"/>
			<path class="st1" d="M-303.7,157.6c18.1,1.4,32.6,15.8,34.1,33.9h24.9v-24.9c-18.2-1.3-32.9-15.9-34.2-34.1h-24.7V157.6z
				 M-295.8,150.8v-10.4h10.1c4,16.2,16.8,29,33,33v10.2H-263c-4-16.2-16.9-28.9-33.1-32.8H-295.8z"/>
			<path class="st1" d="M-45.6,544.2c18.3,1.4,32.9,16.1,34.1,34.5h24.8v-24.9c-18.2-1.3-32.9-15.9-34.2-34.2h-24.7V544.2z
				 M-37.7,527.6h10.1c4,16.2,16.8,29,33,33v10.2H-4.7c-3.9-16.3-16.7-29.3-33-33.3V527.6z"/>
			<path class="st1" d="M-174.7,415.3c18.2,1.4,32.8,16,34.1,34.3h24.8v-24.9c-18.2-1.3-32.9-15.9-34.2-34.1h-24.7V415.3z
				 M-166.8,398.5h10.1c4,16.2,16.8,29,33,33v10.2h-10.2c-3.9-16.3-16.7-29.1-32.9-33.1V398.5z"/>
			<path class="st1" d="M-11.5,584.2c-1.5,18-16,32.4-34,33.8v25.3h24.7c1.3-18.2,16-32.8,34.2-34.2v-24.9H-11.5z M5.4,602.4
				c-16.3,4-29.1,16.8-33,33h-10.1v-10.7c16.1-4,28.8-16.6,32.8-32.6H5.4V602.4z"/>
			<path class="st1" d="M-438.3,231.3c-18.4-1.3-33.1-16-34.3-34.4h-24.8v24.9c18.2,1.3,32.9,15.9,34.2,34.1h25V231.3z
				 M-446.2,248.1h-10.3c-4-16.2-16.8-29-33-33v-10.3h10.2c3.9,16.4,16.8,29.3,33.2,33.2V248.1z"/>
			<path class="st1" d="M-303.7,286.4c18.2,1.4,32.7,15.9,34.1,34.1h24.9v-24.9c-18.2-1.3-32.9-15.9-34.2-34.1h-24.7V286.4z
				 M-295.8,269.4h10.1c4,16.2,16.8,29,33,33v10.2h-10.2c-4-16.2-16.7-28.9-32.9-32.9V269.4z"/>
			<path class="st1" d="M-149.9,519.7h-24.7v24.5c18.3,1.4,32.9,16.1,34.1,34.5h24.8v-24.9C-134,552.5-148.6,537.9-149.9,519.7z
				 M-123.7,570.8h-10.1c-3.9-16.3-16.7-29.3-33-33.3v-9.9h10.1c4,16.2,16.8,29,33,33V570.8z"/>
			<path class="st1" d="M-140.6,326c-1.3,18.2-15.9,32.8-34.1,34.2v24.9h24.7c1.3-18.2,15.9-32.8,34.2-34.1V326H-140.6z
				 M-156.7,377.2h-10.1v-10.3c16.2-4,29-16.8,32.9-33h10.2v10.3C-139.9,348.2-152.7,361-156.7,377.2z"/>
			<path class="st1" d="M-398.8,584.2c-1.5,18-16,32.4-34,33.8v25.3h24.7c1.3-18.2,16-32.8,34.2-34.1v-24.9H-398.8z M-414.8,635.4
				h-10.1v-10.7c16.1-4,28.8-16.6,32.8-32.6h10.3v10.3C-398.1,606.4-410.9,619.1-414.8,635.4z"/>
			<path class="st1" d="M-140.6,455.1c-1.4,18.1-15.9,32.6-34.1,34v25.1h24.7c1.3-18.2,15.9-32.8,34.2-34.1v-25H-140.6z
				 M-156.7,506.3h-10.1v-10.4h-0.3c16.3-3.9,29.1-16.7,33.1-32.9h10.2v10.3C-139.9,477.3-152.7,490.1-156.7,506.3z"/>
			<path class="st1" d="M-432.8,28.7c18,1.4,32.5,15.7,34,33.7h24.9V37.5c-18.2-1.3-32.9-15.9-34.2-34.1h-24.7V28.7z M-424.9,11.3
				h10.1c4,16.2,16.8,29,33,33v10.3h-10.3c-4.1-16-16.8-28.6-32.8-32.5V11.3z"/>
			<path class="st1" d="M-408.1,519.7h-24.7v24.5c18.3,1.4,32.9,16.1,34.1,34.5h24.8v-24.9C-392.1,552.5-406.8,537.9-408.1,519.7z
				 M-381.8,570.8h-10.1c-3.9-16.3-16.7-29.3-33-33.3v-9.9h10.1c4,16.2,16.8,29,33,33V570.8z"/>
			<path class="st1" d="M-343.6,320.5c1.4-18.2,16-32.8,34.3-34.1v-24.9h-25c-1.3,18.2-16,32.8-34.2,34.1v24.9H-343.6z
				 M-327.5,269.4h10.3v10.3c-16.3,3.9-29.2,16.7-33.2,33h-10.2v-10.2C-344.3,298.4-331.4,285.6-327.5,269.4z"/>
			<path class="st1" d="M-527.8,449.6h24.8v-24.9c-18.2-1.3-32.9-15.9-34.2-34.1h-24.7v24.7C-543.7,416.7-529.1,431.4-527.8,449.6z
				 M-554,398.5h10.1c4,16.2,16.8,29,33,33v10.2H-521c-3.9-16.3-16.7-29.1-32.9-33.1V398.5z"/>
			<path class="st1" d="M-309.2,415.3v-24.7h-25c-1.3,18.2-16,32.8-34.2,34.1v24.9h24.8C-342.3,431.3-327.6,416.6-309.2,415.3z
				 M-350.3,441.7h-10.2v-10.2c16.3-4,29.1-16.8,33-33h10.3v10.1C-333.5,412.5-346.4,425.4-350.3,441.7z"/>
			<path class="st1" d="M-11.5,67.9c-1.1,18.4-15.8,33.1-34.1,34.6V127h24.7c1.3-18.2,16-32.8,34.2-34.2V67.9H-11.5z M5.4,86.1
				c-16.3,4-29.1,16.8-33,33h-10.1v-9.9c16.3-4,29.2-17,33-33.4H5.4V86.1z"/>
			<path class="st1" d="M-567.4,102.4c-18.4-1.3-33.2-16.1-34.4-34.6h-24.8v24.9c18.2,1.3,32.9,15.9,34.2,34.2h25V102.4z
				 M-575.3,119.1h-10.3c-4-16.2-16.8-29-33-33V75.8h10.1c3.9,16.5,16.8,29.5,33.3,33.4V119.1z"/>
			<path class="st1" d="M-601.7,191.5c1.5-18.2,16.1-32.6,34.3-33.9v-25.1h-25c-1.3,18.2-16,32.8-34.2,34.2v24.9H-601.7z
				 M-618.7,173.3c16.3-4,29.1-16.8,33-33h10.3v10.4c-16.2,3.9-29.1,16.6-33.1,32.8h-10.3V173.3z"/>
			<path class="st1" d="M-180.2,544.2v-24.5h-25c-1.3,18.2-16,32.8-34.2,34.1v24.9h24.8C-213.3,560.3-198.6,545.5-180.2,544.2z
				 M-221.3,570.8h-10.1v-10.2c16.3-4,29.1-16.8,33-33h10.3v9.9C-204.5,541.4-217.4,554.4-221.3,570.8z"/>
			<path class="st1" d="M-239.3,424.7v24.9h24.8c1.3-18.3,16-33,34.3-34.3v-24.7h-25C-206.5,408.8-221.1,423.4-239.3,424.7z
				 M-198.4,398.5h10.3v10.1c-16.4,3.9-29.3,16.8-33.2,33.2h-10.2v-10.2C-215.2,427.5-202.4,414.7-198.4,398.5z"/>
			<path class="st1" d="M-438.3,544.2v-24.5h-25c-1.3,18.2-16,32.8-34.2,34.1v24.9h24.8C-471.5,560.3-456.7,545.5-438.3,544.2z
				 M-479.5,570.8h-10.1v-10.2c16.3-4,29.1-16.8,33-33h10.3v9.9C-462.6,541.4-475.6,554.4-479.5,570.8z"/>
			<path class="st1" d="M-503,351V326h-24.8c-1.3,18.2-15.9,32.8-34.1,34.2v24.9h24.7C-535.8,366.9-521.2,352.3-503,351z
				 M-543.9,377.2H-554v-10.3c16.2-4,29-16.8,32.9-33h10.2v10.3C-527.1,348.2-540,361-543.9,377.2z"/>
			<path class="st1" d="M-373.9,351V326h-24.8c-1.3,18.2-15.9,32.8-34.1,34.2v24.9h24.7C-406.8,366.9-392.1,352.3-373.9,351z
				 M-414.8,377.2h-10.1v-10.3c16.2-4,29-16.8,32.9-33h10.2v10.3C-398.1,348.2-410.9,361-414.8,377.2z"/>
			<path class="st1" d="M-472.6,62.4c1.5-18.1,16.1-32.5,34.3-33.7V3.4h-25c-1.3,18.2-16,32.8-34.2,34.1v24.9H-472.6z M-456.6,11.3
				h10.3v10.6c-16.2,3.9-29,16.5-33.1,32.6h-10.3V44.2C-473.3,40.3-460.5,27.5-456.6,11.3z"/>
			<path class="st1" d="M-561.9,28.7c18,1.4,32.5,15.7,34,33.7h24.9V37.5c-18.2-1.3-32.9-15.9-34.2-34.1h-24.7V28.7z M-554,11.3
				h10.1c4,16.2,16.8,29,33,33v10.3h-10.3c-4.1-16-16.8-28.6-32.8-32.5V11.3z"/>
			<path class="st1" d="M-110.3,424.7v24.9h24.8c1.3-18.3,16-33,34.3-34.3v-24.7h-25C-77.4,408.8-92,423.4-110.3,424.7z
				 M-69.3,398.5H-59v10.1c-16.4,3.9-29.3,16.8-33.2,33.2h-10.2v-10.2C-86.1,427.5-73.3,414.7-69.3,398.5z"/>
			<path class="st1" d="M-309.2,360.2c-18.3-1.3-33-15.9-34.3-34.2h-24.8V351c18.2,1.3,32.9,15.9,34.2,34.1h25V360.2z M-317.1,377.2
				h-10.3c-4-16.2-16.8-29-33-33v-10.3h10.2c4,16.3,16.8,29.1,33.2,33.1V377.2z"/>
			<path class="st1" d="M-214.5,62.4c1.5-18.1,16.1-32.5,34.3-33.7V3.4h-25c-1.3,18.2-16,32.8-34.2,34.1v24.9H-214.5z M-198.4,11.3
				h10.3v10.6c-16.2,3.9-29,16.5-33.1,32.6h-10.3V44.2C-215.2,40.3-202.4,27.5-198.4,11.3z"/>
			<path class="st1" d="M-537.2,519.7h-24.7v24.5c18.3,1.4,32.9,16.1,34.1,34.5h24.8v-24.9C-521.2,552.5-535.8,537.9-537.2,519.7z
				 M-510.9,570.8H-521c-3.9-16.4-16.7-29.3-33-33.3v-9.9h10.1c4,16.2,16.8,29,33,33V570.8z"/>
			<path class="st1" d="M-601.7,62.4c1.5-18.1,16.1-32.5,34.3-33.7V3.4h-25c-1.3,18.2-16,32.8-34.2,34.2v24.9H-601.7z M-618.7,44.2
				c16.3-4,29.1-16.8,33-33h10.3v10.6c-16.2,3.9-29,16.5-33.1,32.6h-10.3V44.2z"/>
			<path class="st1" d="M-279,519.7h-24.7v24.5c18.3,1.4,32.9,16.1,34.1,34.5h24.8v-24.9C-263.1,552.5-277.7,537.9-279,519.7z
				 M-252.7,570.8h-10.1c-3.9-16.3-16.7-29.3-33-33.3v-9.9h10.1c4,16.2,16.8,29,33,33V570.8z"/>
			<path class="st1" d="M-408.1,390.6h-24.7v24.7c18.2,1.4,32.8,16,34.1,34.3h24.8v-24.9C-392.1,423.4-406.8,408.8-408.1,390.6z
				 M-381.8,441.7H-392c-3.9-16.3-16.7-29.1-32.9-33.1v-10.1h10.1c4,16.2,16.8,29,33,33V441.7z"/>
			<path class="st1" d="M-269.7,326c-1.3,18.2-15.9,32.8-34.1,34.2v24.9h24.7c1.3-18.2,16-32.8,34.2-34.1V326H-269.7z M-285.8,377.2
				h-10.1v-10.3c16.2-4,29-16.8,32.9-33h10.2v10.3C-269,348.2-281.8,361-285.8,377.2z"/>
			<path class="st1" d="M-503,480v-25h-24.9c-1.4,18.1-15.9,32.6-34.1,34v25.1h24.7C-535.8,496-521.2,481.4-503,480z M-543.9,506.3
				H-554v-10.4h-0.3c16.3-3.9,29.1-16.7,33.1-32.9h10.2v10.3C-527.1,477.3-540,490.1-543.9,506.3z"/>
			<path class="st1" d="M-45.6,157.6c18.1,1.4,32.6,15.8,34,33.9h24.9v-24.9c-18.2-1.3-32.9-15.9-34.2-34.2h-24.7V157.6z
				 M-37.7,150.8v-10.4h10.1c4,16.2,16.8,29,33,33v10.2H-4.8c-4-16.2-16.9-28.9-33.1-32.8H-37.7z"/>
			<path class="st1" d="M-11.5,196.9c-1.2,18.3-15.8,33-34.1,34.4V256h24.7c1.3-18.2,16-32.8,34.2-34.2v-24.9H-11.5z M5.4,215.2
				c-16.3,4-29.1,16.8-33,33h-10.1V238c16.3-4,29.1-16.9,33-33.2H5.4V215.2z"/>
			<path class="st1" d="M-527.8,320.5h24.8v-24.9c-18.2-1.3-32.9-15.9-34.2-34.1h-24.7v24.9C-543.7,287.8-529.2,302.4-527.8,320.5z
				 M-554,269.4h10.1c4,16.2,16.8,29,33,33v10.2h-10.2c-4-16.2-16.7-28.9-32.9-32.9V269.4z"/>
			<path class="st1" d="M-567.4,231.3c-18.4-1.3-33.1-16-34.3-34.4h-24.8v24.9c18.2,1.3,32.9,15.9,34.2,34.2h25V231.3z
				 M-575.3,248.1h-10.3c-4-16.2-16.8-29-33-33v-10.3h10.2c3.9,16.4,16.8,29.3,33.2,33.2V248.1z"/>
			<path class="st1" d="M-110.3,553.8v24.9h24.8c1.2-18.4,15.9-33.2,34.4-34.5v-24.5h-25C-77.4,537.9-92,552.5-110.3,553.8z
				 M-69.3,527.6H-59v9.9c-16.4,3.9-29.4,16.9-33.2,33.4h-10.1v-10.2C-86.1,556.6-73.3,543.8-69.3,527.6z"/>
			<path class="st1" d="M-309.2,544.2v-24.5h-25c-1.3,18.2-16,32.8-34.2,34.1v24.9h24.8C-342.4,560.3-327.7,545.5-309.2,544.2z
				 M-350.4,570.8h-10.1v-10.2c16.3-4,29.1-16.8,33-33h10.3v9.9C-333.6,541.4-346.5,554.4-350.4,570.8z"/>
			<path class="st1" d="M-343.5,62.4c1.5-18.1,16.1-32.5,34.3-33.7V3.4h-25c-1.3,18.2-16,32.8-34.2,34.1v24.9H-343.5z M-327.5,11.3
				h10.3v10.6c-16.2,3.9-29,16.5-33.1,32.6h-10.3V44.2C-344.3,40.3-331.4,27.5-327.5,11.3z"/>
			<path class="st1" d="M-503,221.9v-24.9h-24.8c-1.2,18.3-15.8,33-34.1,34.4V256h24.7C-535.8,237.8-521.2,223.2-503,221.9z
				 M-543.9,248.1H-554V238c16.3-4,29.1-16.9,33-33.2h10.1v10.3C-527.1,219.1-540,231.9-543.9,248.1z"/>
			<path class="st1" d="M-279,390.6h-24.7v24.7c18.2,1.4,32.8,16,34.1,34.3h24.8v-24.9C-263.1,423.4-277.7,408.8-279,390.6z
				 M-252.7,441.7h-10.2c-3.9-16.3-16.7-29.1-32.9-33.1v-10.1h10.1c4,16.2,16.8,29,33,33V441.7z"/>
			<path class="st1" d="M-85.4,62.4c1.5-18.1,16.1-32.5,34.3-33.7V3.4h-25c-1.3,18.2-16,32.8-34.2,34.1v24.9H-85.4z M-69.3,11.3H-59
				v10.6C-75.2,25.8-88,38.4-92,54.5h-10.3V44.2C-86.1,40.3-73.3,27.5-69.3,11.3z"/>
			<path class="st1" d="M-7.6,0.6h-7.9c0,17.4,14.2,31.5,31.6,31.5v-7.9C3,24.2-7.6,13.7-7.6,0.6z"/>
			<path class="st1" d="M-15.5,129.7c0,17.4,14.2,31.5,31.6,31.5v-7.9c-13,0-23.7-10.6-23.7-23.6c0-13,10.6-23.6,23.7-23.6v-7.9
				C-1.3,98.2-15.5,112.3-15.5,129.7z"/>
			<path class="st1" d="M-15.5,258.8c0,17.4,14.2,31.5,31.6,31.5v-7.9c-13,0-23.7-10.6-23.7-23.6c0-13,10.6-23.6,23.7-23.6v-7.9
				C-1.3,227.3-15.5,241.4-15.5,258.8z"/>
			<path class="st1" d="M-15.5,387.9c0,17.4,14.2,31.5,31.6,31.5v-7.9c-13,0-23.7-10.6-23.7-23.6c0-13,10.6-23.6,23.7-23.6v-7.9
				C-1.3,356.3-15.5,370.5-15.5,387.9z"/>
			<path class="st1" d="M-15.5,516.9c0,17.4,14.2,31.5,31.6,31.5v-7.9c-13,0-23.7-10.6-23.7-23.6c0-13,10.6-23.6,23.7-23.6v-7.9
				C-1.3,485.4-15.5,499.6-15.5,516.9z"/>
			<path class="st1" d="M-629.3,614.5v7.9c13,0,23.7,10.6,23.7,23.6h7.9C-597.7,628.6-611.9,614.5-629.3,614.5z"/>
			<path class="st1" d="M-500.2,614.5c-17.4,0-31.6,14.1-31.6,31.5h7.9c0-13,10.6-23.6,23.7-23.6c13,0,23.7,10.6,23.7,23.6h7.9
				C-468.7,628.6-482.8,614.5-500.2,614.5z"/>
			<path class="st1" d="M-371.2,614.5c-17.4,0-31.6,14.1-31.6,31.5h7.9c0-13,10.6-23.6,23.7-23.6c13,0,23.7,10.6,23.7,23.6h7.9
				C-339.6,628.6-353.7,614.5-371.2,614.5z"/>
			<path class="st1" d="M-242.1,614.5c-17.4,0-31.6,14.1-31.6,31.5h7.9c0-13,10.6-23.6,23.7-23.6c13,0,23.7,10.6,23.7,23.6h7.9
				C-210.5,628.6-224.7,614.5-242.1,614.5z"/>
			<path class="st1" d="M-113,614.5c-17.4,0-31.6,14.1-31.6,31.5h7.9c0-13,10.6-23.6,23.7-23.6c13,0,23.7,10.6,23.7,23.6h7.9
				C-81.4,628.6-95.6,614.5-113,614.5z"/>
			<path class="st1" d="M-15.5,646h7.9c0-13,10.6-23.6,23.7-23.6v-7.9C-1.3,614.5-15.5,628.6-15.5,646z"/>
			<path class="st1" d="M-500.2,32.1c17.4,0,31.6-14.1,31.6-31.5h-7.9c0,13-10.6,23.6-23.7,23.6c-13,0-23.7-10.6-23.7-23.6h-7.9
				C-531.8,18-517.6,32.1-500.2,32.1z"/>
			<path class="st1" d="M-371.2,32.1c17.4,0,31.6-14.1,31.6-31.5h-7.9c0,13-10.6,23.6-23.7,23.6c-13,0-23.7-10.6-23.7-23.6h-7.9
				C-402.7,18-388.6,32.1-371.2,32.1z"/>
			<path class="st1" d="M-242.1,32.1c17.4,0,31.6-14.1,31.6-31.5h-7.9c0,13-10.6,23.6-23.7,23.6c-13,0-23.7-10.6-23.7-23.6h-7.9
				C-273.6,18-259.5,32.1-242.1,32.1z"/>
			<path class="st1" d="M-113,32.1c17.4,0,31.6-14.1,31.6-31.5h-7.9c0,13-10.6,23.6-23.7,23.6c-13,0-23.7-10.6-23.7-23.6h-7.9
				C-144.6,18-130.4,32.1-113,32.1z"/>
			<path class="st1" d="M-597.7,129.7c0-17.4-14.2-31.5-31.6-31.5v7.9c13,0,23.7,10.6,23.7,23.6c0,13-10.6,23.6-23.7,23.6v7.9
				C-611.9,161.2-597.7,147.1-597.7,129.7z"/>
			<path class="st1" d="M-500.2,161.2c17.4,0,31.6-14.1,31.6-31.5c0-17.4-14.2-31.5-31.6-31.5c-17.4,0-31.6,14.1-31.6,31.5
				C-531.8,147.1-517.6,161.2-500.2,161.2z M-500.2,106.1c13,0,23.7,10.6,23.7,23.6c0,13-10.6,23.6-23.7,23.6
				c-13,0-23.7-10.6-23.7-23.6C-523.9,116.7-513.3,106.1-500.2,106.1z"/>
			<path class="st1" d="M-371.2,161.2c17.4,0,31.6-14.1,31.6-31.5c0-17.4-14.2-31.5-31.6-31.5c-17.4,0-31.6,14.1-31.6,31.5
				C-402.7,147.1-388.6,161.2-371.2,161.2z M-371.2,106.1c13,0,23.7,10.6,23.7,23.6c0,13-10.6,23.6-23.7,23.6
				c-13,0-23.7-10.6-23.7-23.6C-394.8,116.7-384.2,106.1-371.2,106.1z"/>
			<path class="st1" d="M-242.1,161.2c17.4,0,31.6-14.1,31.6-31.5c0-17.4-14.2-31.5-31.6-31.5c-17.4,0-31.6,14.1-31.6,31.5
				C-273.6,147.1-259.5,161.2-242.1,161.2z M-242.1,106.1c13,0,23.7,10.6,23.7,23.6c0,13-10.6,23.6-23.7,23.6
				c-13,0-23.7-10.6-23.7-23.6C-265.7,116.7-255.1,106.1-242.1,106.1z"/>
			<path class="st1" d="M-113,98.2c-17.4,0-31.6,14.1-31.6,31.5c0,17.4,14.2,31.5,31.6,31.5c17.4,0,31.6-14.1,31.6-31.5
				C-81.4,112.3-95.6,98.2-113,98.2z M-113,153.3c-13,0-23.7-10.6-23.7-23.6c0-13,10.6-23.6,23.7-23.6c13,0,23.7,10.6,23.7,23.6
				C-89.3,142.7-100,153.3-113,153.3z"/>
			<path class="st1" d="M-597.7,258.8c0-17.4-14.2-31.5-31.6-31.5v7.9c13,0,23.7,10.6,23.7,23.6c0,13-10.6,23.6-23.7,23.6v7.9
				C-611.9,290.3-597.7,276.2-597.7,258.8z"/>
			<path class="st1" d="M-500.2,290.3c17.4,0,31.6-14.1,31.6-31.5c0-17.4-14.2-31.5-31.6-31.5c-17.4,0-31.6,14.1-31.6,31.5
				C-531.8,276.2-517.6,290.3-500.2,290.3z M-500.2,235.2c13,0,23.7,10.6,23.7,23.6c0,13-10.6,23.6-23.7,23.6
				c-13,0-23.7-10.6-23.7-23.6C-523.9,245.8-513.3,235.2-500.2,235.2z"/>
			<path class="st1" d="M-371.2,290.3c17.4,0,31.6-14.1,31.6-31.5c0-17.4-14.2-31.5-31.6-31.5c-17.4,0-31.6,14.1-31.6,31.5
				C-402.7,276.2-388.6,290.3-371.2,290.3z M-371.2,235.2c13,0,23.7,10.6,23.7,23.6c0,13-10.6,23.6-23.7,23.6
				c-13,0-23.7-10.6-23.7-23.6C-394.8,245.8-384.2,235.2-371.2,235.2z"/>
			<path class="st1" d="M-242.1,227.3c-17.4,0-31.6,14.1-31.6,31.5c0,17.4,14.2,31.5,31.6,31.5c17.4,0,31.6-14.1,31.6-31.5
				C-210.5,241.4-224.7,227.3-242.1,227.3z M-242.1,282.4c-13,0-23.7-10.6-23.7-23.6c0-13,10.6-23.6,23.7-23.6
				c13,0,23.7,10.6,23.7,23.6C-218.4,271.8-229,282.4-242.1,282.4z"/>
			<path class="st1" d="M-113,227.3c-17.4,0-31.6,14.1-31.6,31.5c0,17.4,14.2,31.5,31.6,31.5c17.4,0,31.6-14.1,31.6-31.5
				C-81.4,241.4-95.6,227.3-113,227.3z M-113,282.4c-13,0-23.7-10.6-23.7-23.6c0-13,10.6-23.6,23.7-23.6c13,0,23.7,10.6,23.7,23.6
				C-89.3,271.8-100,282.4-113,282.4z"/>
			<path class="st1" d="M-597.7,387.9c0-17.4-14.2-31.5-31.6-31.5v7.9c13,0,23.7,10.6,23.7,23.6c0,13-10.6,23.6-23.7,23.6v7.9
				C-611.9,419.4-597.7,405.2-597.7,387.9z"/>
			<path class="st1" d="M-500.2,419.4c17.4,0,31.6-14.1,31.6-31.5c0-17.4-14.2-31.5-31.6-31.5c-17.4,0-31.6,14.1-31.6,31.5
				C-531.8,405.2-517.6,419.4-500.2,419.4z M-500.2,364.2c13,0,23.7,10.6,23.7,23.6c0,13-10.6,23.6-23.7,23.6
				c-13,0-23.7-10.6-23.7-23.6C-523.9,374.8-513.3,364.2-500.2,364.2z"/>
			<path class="st1" d="M-371.2,356.3c-17.4,0-31.6,14.1-31.6,31.5c0,17.4,14.2,31.5,31.6,31.5c17.4,0,31.6-14.1,31.6-31.5
				C-339.6,370.5-353.8,356.3-371.2,356.3z M-371.2,411.5c-13,0-23.7-10.6-23.7-23.6c0-13,10.6-23.6,23.7-23.6
				c13,0,23.7,10.6,23.7,23.6C-347.5,400.9-358.1,411.5-371.2,411.5z"/>
			<path class="st1" d="M-242.1,356.3c-17.4,0-31.6,14.1-31.6,31.5c0,17.4,14.2,31.5,31.6,31.5c17.4,0,31.6-14.1,31.6-31.5
				C-210.5,370.5-224.7,356.3-242.1,356.3z M-242.1,411.5c-13,0-23.7-10.6-23.7-23.6c0-13,10.6-23.6,23.7-23.6
				c13,0,23.7,10.6,23.7,23.6C-218.4,400.9-229,411.5-242.1,411.5z"/>
			<path class="st1" d="M-113,356.3c-17.4,0-31.6,14.1-31.6,31.5c0,17.4,14.2,31.5,31.6,31.5c17.4,0,31.6-14.1,31.6-31.5
				C-81.4,370.5-95.6,356.3-113,356.3z M-113,411.5c-13,0-23.7-10.6-23.7-23.6c0-13,10.6-23.6,23.7-23.6c13,0,23.7,10.6,23.7,23.6
				C-89.3,400.9-100,411.5-113,411.5z"/>
			<path class="st1" d="M-597.7,516.9c0-17.4-14.2-31.5-31.6-31.5v7.9c13,0,23.7,10.6,23.7,23.6c0,13-10.6,23.6-23.7,23.6v7.9
				C-611.9,548.5-597.7,534.3-597.7,516.9z"/>
			<path class="st1" d="M-500.2,485.4c-17.4,0-31.6,14.1-31.6,31.5c0,17.4,14.2,31.5,31.6,31.5c17.4,0,31.6-14.1,31.6-31.5
				C-468.7,499.6-482.8,485.4-500.2,485.4z M-500.2,540.6c-13,0-23.7-10.6-23.7-23.6c0-13,10.6-23.6,23.7-23.6
				c13,0,23.7,10.6,23.7,23.6C-476.6,530-487.2,540.6-500.2,540.6z"/>
			<path class="st1" d="M-371.2,485.4c-17.4,0-31.6,14.1-31.6,31.5c0,17.4,14.2,31.5,31.6,31.5c17.4,0,31.6-14.1,31.6-31.5
				C-339.6,499.6-353.8,485.4-371.2,485.4z M-371.2,540.6c-13,0-23.7-10.6-23.7-23.6c0-13,10.6-23.6,23.7-23.6
				c13,0,23.7,10.6,23.7,23.6C-347.5,530-358.1,540.6-371.2,540.6z"/>
			<path class="st1" d="M-242.1,485.4c-17.4,0-31.6,14.1-31.6,31.5c0,17.4,14.2,31.5,31.6,31.5c17.4,0,31.6-14.1,31.6-31.5
				C-210.5,499.6-224.7,485.4-242.1,485.4z M-242.1,540.6c-13,0-23.7-10.6-23.7-23.6c0-13,10.6-23.6,23.7-23.6
				c13,0,23.7,10.6,23.7,23.6C-218.4,530-229,540.6-242.1,540.6z"/>
			<path class="st1" d="M-113,485.4c-17.4,0-31.6,14.1-31.6,31.5c0,17.4,14.2,31.5,31.6,31.5c17.4,0,31.6-14.1,31.6-31.5
				C-81.4,499.6-95.6,485.4-113,485.4z M-113,540.6c-13,0-23.7-10.6-23.7-23.6c0-13,10.6-23.6,23.7-23.6c13,0,23.7,10.6,23.7,23.6
				C-89.3,530-100,540.6-113,540.6z"/>
			<path class="st1" d="M-564.8,291.8c-17.4,0-31.6,14.1-31.6,31.5c0,17.4,14.2,31.5,31.6,31.5c17.4,0,31.6-14.1,31.6-31.5
				C-533.2,305.9-547.4,291.8-564.8,291.8z M-564.8,346.9c-13,0-23.7-10.6-23.7-23.6c0-13,10.6-23.6,23.7-23.6
				c13,0,23.7,10.6,23.7,23.6C-541.1,336.3-551.7,346.9-564.8,346.9z"/>
		</g>
		<g>
			<path class="st1" d="M80.6,34c-17.4,0-31.6,14.1-31.6,31.5c0,17.4,14.2,31.5,31.6,31.5c17.4,0,31.6-14.1,31.6-31.5
				C112.2,48.2,98,34,80.6,34z M80.6,89.2c-13,0-23.7-10.6-23.7-23.6c0-13,10.6-23.6,23.7-23.6c13,0,23.7,10.6,23.7,23.6
				C104.3,78.6,93.7,89.2,80.6,89.2z"/>
			<path class="st1" d="M209.7,97.1c17.4,0,31.6-14.1,31.6-31.5c0-17.4-14.2-31.5-31.6-31.5c-17.4,0-31.6,14.1-31.6,31.5
				C178.1,82.9,192.3,97.1,209.7,97.1z M209.7,41.9c13,0,23.7,10.6,23.7,23.6c0,13-10.6,23.6-23.7,23.6c-13,0-23.7-10.6-23.7-23.6
				C186,52.5,196.7,41.9,209.7,41.9z"/>
			<path class="st1" d="M338.8,97.1c17.4,0,31.6-14.1,31.6-31.5c0-17.4-14.2-31.5-31.6-31.5c-17.4,0-31.6,14.1-31.6,31.5
				C307.2,82.9,321.4,97.1,338.8,97.1z M338.8,41.9c13,0,23.7,10.6,23.7,23.6c0,13-10.6,23.6-23.7,23.6c-13,0-23.7-10.6-23.7-23.6
				C315.1,52.5,325.7,41.9,338.8,41.9z"/>
			<path class="st1" d="M467.9,97.1c17.4,0,31.6-14.1,31.6-31.5c0-17.4-14.2-31.5-31.6-31.5c-17.4,0-31.6,14.1-31.6,31.5
				C436.3,82.9,450.4,97.1,467.9,97.1z M467.9,41.9c13,0,23.7,10.6,23.7,23.6c0,13-10.6,23.6-23.7,23.6c-13,0-23.7-10.6-23.7-23.6
				C444.2,52.5,454.8,41.9,467.9,41.9z"/>
			<path class="st1" d="M596.9,34c-17.4,0-31.6,14.1-31.6,31.5c0,17.4,14.2,31.5,31.6,31.5c17.4,0,31.6-14.1,31.6-31.5
				C628.5,48.2,614.3,34,596.9,34z M596.9,89.2c-13,0-23.7-10.6-23.7-23.6c0-13,10.6-23.6,23.7-23.6c13,0,23.7,10.6,23.7,23.6
				C620.6,78.6,610,89.2,596.9,89.2z"/>
			<path class="st1" d="M80.6,162.9c-17.4,0-31.6,14.1-31.6,31.5c0,17.4,14.2,31.5,31.6,31.5c17.4,0,31.6-14.1,31.6-31.5
				C112.2,177.1,98,162.9,80.6,162.9z M80.6,218.1c-13,0-23.7-10.6-23.7-23.6c0-13,10.6-23.6,23.7-23.6c13,0,23.7,10.6,23.7,23.6
				C104.3,207.5,93.7,218.1,80.6,218.1z"/>
			<path class="st1" d="M209.7,162.9c-17.4,0-31.6,14.1-31.6,31.5c0,17.4,14.2,31.5,31.6,31.5c17.4,0,31.6-14.1,31.6-31.5
				C241.3,177.1,227.1,162.9,209.7,162.9z M209.7,218.1c-13,0-23.7-10.6-23.7-23.6c0-13,10.6-23.6,23.7-23.6
				c13,0,23.7,10.6,23.7,23.6C233.4,207.5,222.7,218.1,209.7,218.1z"/>
			<path class="st1" d="M338.8,226c17.4,0,31.6-14.1,31.6-31.5c0-17.4-14.2-31.5-31.6-31.5c-17.4,0-31.6,14.1-31.6,31.5
				C307.2,211.8,321.4,226,338.8,226z M338.8,170.8c13,0,23.7,10.6,23.7,23.6c0,13-10.6,23.6-23.7,23.6c-13,0-23.7-10.6-23.7-23.6
				C315.1,181.4,325.7,170.8,338.8,170.8z"/>
			<path class="st1" d="M467.9,226c17.4,0,31.6-14.1,31.6-31.5c0-17.4-14.2-31.5-31.6-31.5c-17.4,0-31.6,14.1-31.6,31.5
				C436.3,211.8,450.4,226,467.9,226z M467.9,170.8c13,0,23.7,10.6,23.7,23.6c0,13-10.6,23.6-23.7,23.6c-13,0-23.7-10.6-23.7-23.6
				C444.2,181.4,454.8,170.8,467.9,170.8z"/>
			<path class="st1" d="M596.9,226c17.4,0,31.6-14.1,31.6-31.5c0-17.4-14.2-31.5-31.6-31.5c-17.4,0-31.6,14.1-31.6,31.5
				C565.4,211.8,579.5,226,596.9,226z M596.9,170.8c13,0,23.7,10.6,23.7,23.6c0,13-10.6,23.6-23.7,23.6c-13,0-23.7-10.6-23.7-23.6
				C573.3,181.4,583.9,170.8,596.9,170.8z"/>
			<path class="st1" d="M209.7,291.8c-17.4,0-31.6,14.1-31.6,31.5c0,17.4,14.2,31.5,31.6,31.5c17.4,0,31.6-14.1,31.6-31.5
				C241.3,305.9,227.1,291.8,209.7,291.8z M209.7,346.9c-13,0-23.7-10.6-23.7-23.6c0-13,10.6-23.6,23.7-23.6
				c13,0,23.7,10.6,23.7,23.6C233.4,336.3,222.7,346.9,209.7,346.9z"/>
			<path class="st1" d="M338.8,354.8c17.4,0,31.6-14.1,31.6-31.5c0-17.4-14.2-31.5-31.6-31.5c-17.4,0-31.6,14.1-31.6,31.5
				C307.2,340.7,321.4,354.8,338.8,354.8z M338.8,299.7c13,0,23.7,10.6,23.7,23.6c0,13-10.6,23.6-23.7,23.6
				c-13,0-23.7-10.6-23.7-23.6C315.1,310.3,325.7,299.7,338.8,299.7z"/>
			<path class="st1" d="M467.9,354.8c17.4,0,31.6-14.1,31.6-31.5c0-17.4-14.2-31.5-31.6-31.5c-17.4,0-31.6,14.1-31.6,31.5
				C436.3,340.7,450.4,354.8,467.9,354.8z M467.9,299.7c13,0,23.7,10.6,23.7,23.6c0,13-10.6,23.6-23.7,23.6
				c-13,0-23.7-10.6-23.7-23.6C444.2,310.3,454.8,299.7,467.9,299.7z"/>
			<path class="st1" d="M596.9,354.8c17.4,0,31.6-14.1,31.6-31.5c0-17.4-14.2-31.5-31.6-31.5c-17.4,0-31.6,14.1-31.6,31.5
				C565.4,340.7,579.5,354.8,596.9,354.8z M596.9,299.7c13,0,23.7,10.6,23.7,23.6c0,13-10.6,23.6-23.7,23.6
				c-13,0-23.7-10.6-23.7-23.6C573.3,310.3,583.9,299.7,596.9,299.7z"/>
			<path class="st1" d="M80.6,420.7c-17.4,0-31.6,14.1-31.6,31.5c0,17.4,14.2,31.5,31.6,31.5c17.4,0,31.6-14.1,31.6-31.5
				C112.2,434.8,98,420.7,80.6,420.7z M80.6,475.8c-13,0-23.7-10.6-23.7-23.6c0-13,10.6-23.6,23.7-23.6c13,0,23.7,10.6,23.7,23.6
				C104.3,465.2,93.7,475.8,80.6,475.8z"/>
			<path class="st1" d="M209.7,420.7c-17.4,0-31.6,14.1-31.6,31.5c0,17.4,14.2,31.5,31.6,31.5c17.4,0,31.6-14.1,31.6-31.5
				C241.3,434.8,227.1,420.7,209.7,420.7z M209.7,475.8c-13,0-23.7-10.6-23.7-23.6c0-13,10.6-23.6,23.7-23.6
				c13,0,23.7,10.6,23.7,23.6C233.4,465.2,222.7,475.8,209.7,475.8z"/>
			<path class="st1" d="M338.8,420.7c-17.4,0-31.6,14.1-31.6,31.5c0,17.4,14.2,31.5,31.6,31.5c17.4,0,31.6-14.1,31.6-31.5
				C370.3,434.8,356.2,420.7,338.8,420.7z M338.8,475.8c-13,0-23.7-10.6-23.7-23.6c0-13,10.6-23.6,23.7-23.6
				c13,0,23.7,10.6,23.7,23.6C362.4,465.2,351.8,475.8,338.8,475.8z"/>
			<path class="st1" d="M467.9,483.7c17.4,0,31.6-14.1,31.6-31.5c0-17.4-14.2-31.5-31.6-31.5c-17.4,0-31.6,14.1-31.6,31.5
				C436.3,469.6,450.4,483.7,467.9,483.7z M467.9,428.6c13,0,23.7,10.6,23.7,23.6c0,13-10.6,23.6-23.7,23.6
				c-13,0-23.7-10.6-23.7-23.6C444.2,439.2,454.8,428.6,467.9,428.6z"/>
			<path class="st1" d="M596.9,483.7c17.4,0,31.6-14.1,31.6-31.5c0-17.4-14.2-31.5-31.6-31.5c-17.4,0-31.6,14.1-31.6,31.5
				C565.4,469.6,579.5,483.7,596.9,483.7z M596.9,428.6c13,0,23.7,10.6,23.7,23.6c0,13-10.6,23.6-23.7,23.6
				c-13,0-23.7-10.6-23.7-23.6C573.3,439.2,583.9,428.6,596.9,428.6z"/>
			<path class="st1" d="M80.6,549.6c-17.4,0-31.6,14.1-31.6,31.5c0,17.4,14.2,31.5,31.6,31.5c17.4,0,31.6-14.1,31.6-31.5
				C112.2,563.7,98,549.6,80.6,549.6z M80.6,604.7c-13,0-23.7-10.6-23.7-23.6c0-13,10.6-23.6,23.7-23.6c13,0,23.7,10.6,23.7,23.6
				C104.3,594.1,93.7,604.7,80.6,604.7z"/>
			<path class="st1" d="M209.7,549.6c-17.4,0-31.6,14.1-31.6,31.5c0,17.4,14.2,31.5,31.6,31.5c17.4,0,31.6-14.1,31.6-31.5
				C241.3,563.7,227.1,549.6,209.7,549.6z M209.7,604.7c-13,0-23.7-10.6-23.7-23.6c0-13,10.6-23.6,23.7-23.6
				c13,0,23.7,10.6,23.7,23.6C233.4,594.1,222.7,604.7,209.7,604.7z"/>
			<path class="st1" d="M338.8,549.6c-17.4,0-31.6,14.1-31.6,31.5c0,17.4,14.2,31.5,31.6,31.5c17.4,0,31.6-14.1,31.6-31.5
				C370.3,563.7,356.2,549.6,338.8,549.6z M338.8,604.7c-13,0-23.7-10.6-23.7-23.6c0-13,10.6-23.6,23.7-23.6
				c13,0,23.7,10.6,23.7,23.6C362.4,594.1,351.8,604.7,338.8,604.7z"/>
			<path class="st1" d="M467.9,549.6c-17.4,0-31.6,14.1-31.6,31.5c0,17.4,14.2,31.5,31.6,31.5c17.4,0,31.6-14.1,31.6-31.5
				C499.4,563.7,485.3,549.6,467.9,549.6z M467.9,604.7c-13,0-23.7-10.6-23.7-23.6c0-13,10.6-23.6,23.7-23.6
				c13,0,23.7,10.6,23.7,23.6C491.5,594.1,480.9,604.7,467.9,604.7z"/>
			<path class="st1" d="M596.9,612.6c17.4,0,31.6-14.1,31.6-31.5c0-17.4-14.2-31.5-31.6-31.5c-17.4,0-31.6,14.1-31.6,31.5
				C565.4,598.5,579.5,612.6,596.9,612.6z M596.9,557.5c13,0,23.7,10.6,23.7,23.6c0,13-10.6,23.6-23.7,23.6
				c-13,0-23.7-10.6-23.7-23.6C573.3,568.1,583.9,557.5,596.9,557.5z"/>
			<path class="st1" d="M47.6,0.6h-7.9c0,13-10.6,23.6-23.7,23.6v7.9C33.5,32.1,47.6,18,47.6,0.6z"/>
			<path class="st1" d="M430.9,191.5c1.5-18.2,16.1-32.6,34.3-33.9v-25.1h-25c-1.3,18.2-16,32.8-34.2,34.1v24.9H430.9z M447,140.3
				h10.3v10.4c-16.2,3.9-29.1,16.6-33.1,32.8H414v-10.2C430.2,169.4,443,156.6,447,140.3z"/>
			<path class="st1" d="M440.3,127h25v-24.5c-18.4-1.3-33.2-16.1-34.4-34.6h-24.8v24.9C424.3,94.2,438.9,108.7,440.3,127z M414,75.8
				h10.1c3.9,16.5,16.8,29.5,33.3,33.4v9.9H447c-4-16.2-16.8-29-33-33V75.8z"/>
			<path class="st1" d="M406.1,295.7v24.9h24.8c1.4-18.2,16-32.8,34.3-34.1v-24.9h-25C438.9,279.7,424.3,294.3,406.1,295.7z
				 M447,269.4h10.3v10.3c-16.3,3.9-29.2,16.7-33.2,33H414v-10.2C430.2,298.4,443,285.6,447,269.4z"/>
			<path class="st1" d="M470.7,28.7c18,1.4,32.5,15.7,34,33.7h24.9V37.5c-18.2-1.3-32.9-15.9-34.2-34.1h-24.7V28.7z M478.6,11.3
				h10.1c4,16.2,16.8,29,33,33v10.3h-10.3c-4.1-16-16.7-28.6-32.8-32.5V11.3z"/>
			<path class="st1" d="M341.6,102.4V127h24.7c1.3-18.2,15.9-32.8,34.2-34.1V67.9h-24.8C374.6,86.2,360,101,341.6,102.4z
				 M382.6,75.8h10.1v10.3c-16.3,4-29.1,16.8-33,33h-10.1v-9.9C365.9,105.1,378.7,92.1,382.6,75.8z"/>
			<path class="st1" d="M43.7,578.7c1.2-18.4,15.9-33.2,34.3-34.5v-24.5H53c-1.3,18.2-16,32.8-34.2,34.2v24.9H43.7z M26.7,560.6
				c16.3-4,29.1-16.8,33-33h10.3v9.9c-16.4,4-29.4,16.9-33.2,33.4H26.7V560.6z"/>
			<path class="st1" d="M341.6,28.7c18,1.4,32.5,15.7,34,33.7h24.9V37.5c-18.2-1.3-32.9-15.9-34.2-34.1h-24.7V28.7z M349.6,11.3
				h10.1c4,16.2,16.8,29,33,33v10.3h-10.3c-4.1-16-16.8-28.6-32.8-32.5V11.3z"/>
			<path class="st1" d="M117.5,584.2c-1.5,18-16,32.4-34,33.8v25.3h24.7c1.3-18.2,16-32.8,34.2-34.1v-24.9H117.5z M101.5,635.4H91.4
				v-10.7c16.1-4,28.8-16.6,32.8-32.6h10.3v10.3C118.3,606.4,105.4,619.1,101.5,635.4z"/>
			<path class="st1" d="M430.9,196.9h-24.8v24.9c18.2,1.3,32.9,15.9,34.2,34.1h25v-24.7C446.9,230,432.1,215.3,430.9,196.9z
				 M457.3,248.1H447c-4-16.2-16.8-29-33-33v-10.3h10.1c3.9,16.4,16.8,29.3,33.2,33.2V248.1z"/>
			<path class="st1" d="M633.9,455.1c-1.4,18.1-15.9,32.6-34.1,34v25.1h24.7c1.3-18.2,15.9-32.8,34.2-34.2v-24.9H633.9z
				 M650.8,473.3c-16.3,4-29.1,16.8-33,33h-10.1v-10.4h-0.3c16.3-3.9,29.1-16.7,33.1-32.9h10.2V473.3z"/>
			<path class="st1" d="M470.7,157.6c18.1,1.4,32.6,15.8,34.1,33.9h24.9v-24.9c-18.2-1.3-32.9-15.9-34.2-34.1h-24.7V157.6z
				 M478.6,150.8v-10.4h10.1c4,16.2,16.8,29,33,33v10.2h-10.3c-4-16.2-16.9-28.9-33.1-32.8H478.6z"/>
			<path class="st1" d="M470.7,102.4V127h24.7c1.3-18.2,15.9-32.8,34.2-34.1V67.9h-24.8C503.7,86.2,489.1,101,470.7,102.4z
				 M511.6,75.8h10.1v10.3c-16.3,4-29.1,16.8-33,33h-10.1v-9.9C495,105.1,507.8,92.1,511.6,75.8z"/>
			<path class="st1" d="M599.8,415.3c18.2,1.4,32.8,16,34.1,34.3h24.8v-24.9c-18.2-1.3-32.9-15.9-34.2-34.2h-24.7V415.3z
				 M607.7,398.5h10.1c4,16.2,16.8,29,33,33v10.2h-10.2c-3.9-16.3-16.7-29.1-32.9-33.1V398.5z"/>
			<path class="st1" d="M311.2,127h25v-24.5c-18.4-1.3-33.2-16.1-34.4-34.6H277v24.9C295.2,94.2,309.8,108.7,311.2,127z M284.9,75.8
				H295c3.9,16.5,16.8,29.5,33.3,33.4v9.9h-10.3c-4-16.2-16.8-29-33-33V75.8z"/>
			<path class="st1" d="M560,455.1h-24.9v25c18.2,1.3,32.9,15.9,34.2,34.1h25v-25.1C576.1,487.8,561.4,473.3,560,455.1z
				 M586.4,506.3h-10.3c-4-16.2-16.8-29-33-33V463h10.2c4,16.2,16.9,29,33.1,32.9C586.4,495.9,586.4,506.3,586.4,506.3z"/>
			<path class="st1" d="M78,618c-18.2-1.3-32.8-15.7-34.3-33.8H18.8v24.9c18.2,1.3,32.9,15.9,34.2,34.2h25V618z M70.1,635.4H59.8
				c-4-16.2-16.8-29-33-33v-10.3H37c4.1,16.1,16.9,28.8,33.1,32.7V635.4z"/>
			<path class="st1" d="M78,360.2c-18.3-1.3-33-15.9-34.3-34.2H18.8V351c18.2,1.3,32.9,15.9,34.2,34.2h25V360.2z M70.1,377.2H59.8
				c-4-16.2-16.8-29-33-33v-10.3h10.2c4,16.3,16.8,29.1,33.2,33.1V377.2z"/>
			<path class="st1" d="M142.4,92.8V67.9h-24.8c-1.1,18.4-15.8,33.2-34.1,34.6V127h24.7C109.6,108.7,124.2,94.2,142.4,92.8z
				 M101.5,119.1H91.4v-9.9c16.3-4,29.2-17,33-33.4h10.1v10.3C118.3,90,105.4,102.8,101.5,119.1z"/>
			<path class="st1" d="M560,196.9h-24.8v24.9c18.2,1.3,32.9,15.9,34.2,34.1h25v-24.7C575.9,230,561.2,215.3,560,196.9z
				 M586.4,248.1h-10.3c-4-16.2-16.8-29-33-33v-10.3h10.1c3.9,16.4,16.8,29.3,33.2,33.2V248.1z"/>
			<path class="st1" d="M430.9,326h-24.8V351c18.2,1.3,32.9,15.9,34.2,34.1h25v-24.9C446.9,358.9,432.2,344.3,430.9,326z
				 M457.3,377.2H447c-4-16.2-16.8-29-33-33v-10.3h10.2c4,16.3,16.8,29.1,33.2,33.1V377.2z"/>
			<path class="st1" d="M633.9,326c-1.3,18.2-15.9,32.8-34.1,34.2v24.9h24.7c1.3-18.2,15.9-32.8,34.2-34.2V326H633.9z M650.8,344.2
				c-16.3,4-29.1,16.8-33,33h-10.1v-10.3c16.2-4,29-16.8,32.9-33h10.2V344.2z"/>
			<path class="st1" d="M246.6,320.5h24.9v-24.9c-18.2-1.3-32.9-15.9-34.2-34.1h-24.7v24.9C230.7,287.8,245.3,302.4,246.6,320.5z
				 M220.5,269.4h10.1c4,16.2,16.8,29,33,33v10.2h-10.2c-4-16.2-16.7-28.9-32.9-32.9V269.4z"/>
			<path class="st1" d="M117.5,191.5h24.9v-24.9c-18.2-1.3-32.9-15.9-34.2-34.1H83.5v25.1C101.6,158.9,116.1,173.4,117.5,191.5z
				 M91.4,150.8v-10.4h10.1c4,16.2,16.8,29,33,33v10.2h-10.3c-4-16.2-16.9-28.9-33.1-32.8H91.4z"/>
			<path class="st1" d="M599.8,286.4c18.2,1.4,32.7,15.9,34.1,34.1h24.9v-24.9c-18.2-1.3-32.9-15.9-34.2-34.2h-24.7V286.4z
				 M607.7,269.4h10.1c4,16.2,16.8,29,33,33v10.2h-10.2c-4-16.2-16.7-28.9-32.9-32.9V269.4z"/>
			<path class="st1" d="M560,326h-24.8V351c18.2,1.3,32.9,15.9,34.2,34.1h25v-24.9C576,358.9,561.3,344.3,560,326z M586.4,377.2
				h-10.3c-4-16.2-16.8-29-33-33v-10.3h10.2c4,16.3,16.8,29.1,33.2,33.1V377.2z"/>
			<path class="st1" d="M43.7,449.6c1.3-18.3,16-33,34.3-34.3v-24.7H53c-1.3,18.2-16,32.8-34.2,34.2v24.9H43.7z M26.7,431.5
				c16.3-4,29.1-16.8,33-33h10.3v10.1c-16.4,3.9-29.3,16.8-33.2,33.2H26.7V431.5z"/>
			<path class="st1" d="M78,489.1c-18.3-1.3-32.9-15.8-34.3-34H18.8V480c18.2,1.3,32.9,15.9,34.2,34.2h25V489.1z M70.1,506.3H59.8
				c-4-16.2-16.8-29-33-33V463H37c4,16.2,16.9,29,33.1,32.9C70.1,495.9,70.1,506.3,70.1,506.3z"/>
			<path class="st1" d="M212.6,102.4V127h24.7c1.3-18.2,16-32.8,34.2-34.1V67.9h-24.8C245.5,86.2,230.9,101,212.6,102.4z
				 M253.5,75.8h10.1v10.3c-16.3,4-29.1,16.8-33,33h-10.1v-9.9C236.8,105.1,249.7,92.1,253.5,75.8z"/>
			<path class="st1" d="M182.1,127h25v-24.5c-18.4-1.3-33.2-16.1-34.4-34.6h-24.8v24.9C166.1,94.2,180.8,108.7,182.1,127z
				 M155.8,75.8h10.1c3.9,16.5,16.8,29.5,33.3,33.4v9.9h-10.3c-4-16.2-16.8-29-33-33V75.8z"/>
			<path class="st1" d="M560,67.9h-24.8v24.9c18.2,1.3,32.9,15.9,34.2,34.1h25v-24.5C575.9,101.2,561.1,86.3,560,67.9z M586.4,119.1
				h-10.3c-4-16.2-16.8-29-33-33V75.8h10.1c3.9,16.5,16.8,29.5,33.3,33.4V119.1z"/>
			<path class="st1" d="M535.1,166.6v24.9H560c1.5-18.2,16.1-32.6,34.3-33.9v-25.1h-25C568,150.7,553.4,165.2,535.1,166.6z
				 M576.1,140.3h10.3v10.4c-16.2,3.9-29.1,16.6-33.1,32.8H543v-10.2C559.3,169.4,572.1,156.6,576.1,140.3z"/>
			<path class="st1" d="M599.8,28.7c18,1.4,32.5,15.7,34,33.7h24.9V37.5c-18.2-1.3-32.9-15.9-34.2-34.2h-24.7V28.7z M607.7,11.3
				h10.1c4,16.2,16.8,29,33,33v10.2h-10.3c-4.1-16-16.8-28.6-32.8-32.5V11.3z"/>
			<path class="st1" d="M470.7,286.4c18.2,1.4,32.7,15.9,34.1,34.1h24.9v-24.9c-18.2-1.3-32.9-15.9-34.2-34.1h-24.7V286.4z
				 M478.6,269.4h10.1c4,16.2,16.8,29,33,33v10.2h-10.2c-4-16.2-16.7-28.9-32.9-32.9V269.4z"/>
			<path class="st1" d="M311.2,256h25v-24.7c-18.4-1.3-33.1-16-34.3-34.4H277v24.9C295.2,223.2,309.8,237.8,311.2,256z M284.9,204.8
				H295c3.9,16.4,16.8,29.3,33.2,33.2v10.1h-10.3c-4-16.2-16.8-29-33-33V204.8z"/>
			<path class="st1" d="M375.7,584.2c-1.5,18-16,32.4-34,33.8v25.3h24.7c1.3-18.2,16-32.8,34.2-34.1v-24.9H375.7z M359.6,635.4
				h-10.1v-10.7c16.1-4,28.8-16.6,32.8-32.6h10.3v10.3C376.4,606.4,363.6,619.1,359.6,635.4z"/>
			<path class="st1" d="M375.7,455.1c-1.4,18.1-15.9,32.6-34.1,34v25.1h24.7c1.3-18.2,15.9-32.8,34.2-34.1v-25H375.7z M359.6,506.3
				h-10.1v-10.4h-0.3c16.3-3.9,29.1-16.7,33.1-32.9h10.2v10.3C376.4,477.3,363.6,490.1,359.6,506.3z"/>
			<path class="st1" d="M594.3,618c-18.2-1.3-32.8-15.7-34.3-33.8h-24.9v24.9c18.2,1.3,32.9,15.9,34.2,34.1h25V618z M586.4,635.4
				h-10.3c-4-16.2-16.8-29-33-33v-10.3h10.3c4.1,16.1,16.9,28.8,33.1,32.7V635.4z"/>
			<path class="st1" d="M465.2,489.1c-18.3-1.3-32.9-15.8-34.3-34h-24.9v25c18.2,1.3,32.9,15.9,34.2,34.1h25V489.1z M457.3,506.3
				H447c-4-16.2-16.8-29-33-33V463h10.2c4,16.2,16.9,29,33.1,32.9C457.3,495.9,457.3,506.3,457.3,506.3z"/>
			<path class="st1" d="M207.1,360.2c-18.3-1.3-33-15.9-34.3-34.2h-24.9V351c18.2,1.3,32.9,15.9,34.2,34.1h25V360.2z M199.2,377.2
				h-10.3c-4-16.2-16.8-29-33-33v-10.3H166c4,16.3,16.8,29.1,33.2,33.1V377.2z"/>
			<path class="st1" d="M535.1,295.7v24.9H560c1.4-18.2,16-32.8,34.3-34.1v-24.9h-25C568,279.7,553.4,294.3,535.1,295.7z
				 M576.1,269.4h10.3v10.2c-16.3,3.9-29.2,16.7-33.2,33H543v-10.2C559.3,298.4,572.1,285.6,576.1,269.4z"/>
			<path class="st1" d="M336.2,618c-18.2-1.3-32.8-15.7-34.3-33.8H277v24.9c18.2,1.3,32.9,15.9,34.2,34.1h25V618z M328.2,635.4
				h-10.3c-4-16.2-16.8-29-33-33v-10.3h10.3c4.1,16.1,16.9,28.8,33.1,32.7V635.4z"/>
			<path class="st1" d="M246.6,455.1c-1.4,18.1-15.9,32.6-34.1,34v25.1h24.7c1.3-18.2,16-32.8,34.2-34.1v-25H246.6z M230.5,506.3
				h-10.1v-10.4h-0.3c16.3-3.9,29.1-16.7,33.1-32.9h10.2v10.3C247.3,477.3,234.5,490.1,230.5,506.3z"/>
			<path class="st1" d="M504.8,584.2c-1.5,18-16,32.4-34,33.8v25.3h24.7c1.3-18.2,16-32.8,34.2-34.1v-24.9H504.8z M488.7,635.4
				h-10.1v-10.7c16.1-4,28.8-16.6,32.8-32.6h10.3v10.3C505.5,606.4,492.7,619.1,488.7,635.4z"/>
			<path class="st1" d="M465.2,618c-18.2-1.3-32.8-15.7-34.3-33.8h-24.9v24.9c18.2,1.3,32.9,15.9,34.2,34.1h25V618z M457.3,635.4
				H447c-4-16.2-16.8-29-33-33v-10.3h10.3c4.1,16.1,16.9,28.8,33.1,32.7V635.4z"/>
			<path class="st1" d="M207.1,489.1c-18.3-1.3-32.9-15.8-34.3-34h-24.9V480c18.2,1.3,32.9,15.9,34.2,34.1h25V489.1z M199.2,506.3
				h-10.3c-4-16.2-16.8-29-33-33V463h10.2c4,16.2,16.9,29,33.1,32.9C199.2,495.9,199.2,506.3,199.2,506.3z"/>
			<path class="st1" d="M172.7,449.6c1.3-18.3,16-33,34.3-34.3v-24.7h-25c-1.3,18.2-16,32.8-34.2,34.1v24.9H172.7z M188.8,398.5
				h10.3v10.1c-16.4,3.9-29.3,16.8-33.2,33.2h-10.2v-10.2C172.1,427.5,184.9,414.7,188.8,398.5z"/>
			<path class="st1" d="M504.8,196.9c-1.2,18.3-15.8,33-34.1,34.4V256h24.7c1.3-18.2,15.9-32.8,34.2-34.1v-24.9H504.8z M488.7,248.1
				h-10.1V238c16.3-4,29.1-16.9,33-33.2h10.1v10.3C505.5,219.1,492.7,231.9,488.7,248.1z"/>
			<path class="st1" d="M336.2,489.1c-18.3-1.3-32.9-15.8-34.3-34H277V480c18.2,1.3,32.9,15.9,34.2,34.1h25V489.1z M328.2,506.3
				h-10.3c-4-16.2-16.8-29-33-33V463h10.2c4,16.2,16.9,29,33.1,32.9C328.2,495.9,328.2,506.3,328.2,506.3z"/>
			<path class="st1" d="M271.5,221.9v-24.9h-24.8c-1.2,18.3-15.8,33-34.1,34.4V256h24.7C238.6,237.8,253.2,223.2,271.5,221.9z
				 M230.5,248.1h-10.1V238c16.3-4,29.1-16.9,33-33.2h10.1v10.3C247.3,219.1,234.5,231.9,230.5,248.1z"/>
			<path class="st1" d="M341.6,231.3V256h24.7c1.3-18.2,15.9-32.8,34.2-34.1v-24.9h-24.8C374.5,215.2,359.9,229.9,341.6,231.3z
				 M382.5,204.8h10.1v10.3c-16.3,4-29.1,16.8-33,33h-10.1V238C365.8,234,378.6,221.1,382.5,204.8z"/>
			<path class="st1" d="M301.8,191.5c1.5-18.2,16.1-32.6,34.3-33.9v-25.1h-25c-1.3,18.2-16,32.8-34.2,34.1v24.9H301.8z M317.9,140.3
				h10.3v10.4c-16.2,3.9-29.1,16.6-33.1,32.8h-10.3v-10.2C301.1,169.4,314,156.6,317.9,140.3z"/>
			<path class="st1" d="M172.8,320.5c1.4-18.2,16-32.8,34.3-34.1v-24.9h-25c-1.3,18.2-16,32.8-34.2,34.1v24.9H172.8z M188.8,269.4
				h10.3v10.3c-16.3,3.9-29.2,16.7-33.2,33h-10.2v-10.2C172.1,298.4,184.9,285.6,188.8,269.4z"/>
			<path class="st1" d="M212.6,157.6c18.1,1.4,32.6,15.8,34.1,33.9h24.9v-24.9c-18.2-1.3-32.9-15.9-34.2-34.1h-24.7V157.6z
				 M220.5,150.8v-10.4h10.1c4,16.2,16.8,29,33,33v10.2h-10.3c-4-16.2-16.9-28.9-33.1-32.8H220.5z"/>
			<path class="st1" d="M207.1,618c-18.2-1.3-32.8-15.7-34.3-33.8h-24.9v24.9c18.2,1.3,32.9,15.9,34.2,34.1h25V618z M199.2,635.4
				h-10.3c-4-16.2-16.8-29-33-33v-10.3h10.3c4.1,16.1,16.9,28.8,33.1,32.7V635.4z"/>
			<path class="st1" d="M43.7,320.5c1.4-18.2,16-32.8,34.3-34.1v-24.9H53c-1.3,18.2-16,32.8-34.2,34.2v24.9H43.7z M26.7,302.4
				c16.3-4,29.1-16.8,33-33h10.3v10.3c-16.3,3.9-29.2,16.7-33.1,33H26.7V302.4z"/>
			<path class="st1" d="M172.8,191.5c1.5-18.2,16.1-32.6,34.3-33.9v-25.1h-25c-1.3,18.2-16,32.8-34.2,34.1v24.9H172.8z M188.8,140.3
				h10.3v10.4c-16.2,3.9-29.1,16.6-33.1,32.8h-10.3v-10.2C172.1,169.4,184.9,156.6,188.8,140.3z"/>
			<path class="st1" d="M341.6,157.6c18.1,1.4,32.6,15.8,34.1,33.9h24.9v-24.9c-18.2-1.3-32.8-15.9-34.2-34.1h-24.7V157.6z
				 M349.6,150.8v-10.4h10.1c4,16.2,16.8,29,33,33v10.2h-10.3c-4-16.2-16.9-28.9-33.1-32.8H349.6z"/>
			<path class="st1" d="M599.8,544.2c18.3,1.4,32.9,16.1,34.1,34.5h24.8v-24.9c-18.2-1.3-32.9-15.9-34.2-34.2h-24.7V544.2z
				 M607.7,527.6h10.1c4,16.2,16.8,29,33,33v10.2h-10.1c-3.9-16.3-16.7-29.3-33-33.3V527.6z"/>
			<path class="st1" d="M470.7,415.3c18.2,1.4,32.8,16,34.1,34.3h24.8v-24.9c-18.2-1.3-32.9-15.9-34.2-34.1h-24.7V415.3z
				 M478.6,398.5h10.1c4,16.2,16.8,29,33,33v10.2h-10.2c-3.9-16.3-16.7-29.1-32.9-33.1V398.5z"/>
			<path class="st1" d="M633.8,584.2c-1.5,18-16,32.4-34,33.8v25.3h24.7c1.3-18.2,16-32.8,34.2-34.2v-24.9H633.8z M650.8,602.4
				c-16.3,4-29.1,16.8-33,33h-10.1v-10.7c16.1-4,28.8-16.6,32.8-32.6h10.3V602.4z"/>
			<path class="st1" d="M207.1,231.3c-18.4-1.3-33.1-16-34.3-34.4h-24.8v24.9c18.2,1.3,32.9,15.9,34.2,34.1h25V231.3z M199.2,248.1
				h-10.3c-4-16.2-16.8-29-33-33v-10.3H166c3.9,16.4,16.8,29.3,33.2,33.2V248.1z"/>
			<path class="st1" d="M341.6,286.4c18.2,1.4,32.7,15.9,34.1,34.1h24.9v-24.9c-18.2-1.3-32.8-15.9-34.2-34.1h-24.7V286.4z
				 M349.6,269.4h10.1c4,16.2,16.8,29,33,33v10.2h-10.2c-4-16.2-16.7-28.9-32.9-32.9V269.4z"/>
			<path class="st1" d="M495.4,519.7h-24.7v24.5c18.3,1.4,32.9,16.1,34.1,34.5h24.8v-24.9C511.4,552.5,496.8,537.9,495.4,519.7z
				 M521.7,570.8h-10.1c-3.9-16.3-16.7-29.3-33-33.3v-9.9h10.1c4,16.2,16.8,29,33,33V570.8z"/>
			<path class="st1" d="M504.8,326c-1.3,18.2-15.9,32.8-34.1,34.2v24.9h24.7c1.3-18.2,15.9-32.8,34.2-34.1V326H504.8z M488.7,377.2
				h-10.1v-10.3c16.2-4,29-16.8,32.9-33h10.2v10.3C505.5,348.2,492.7,361,488.7,377.2z"/>
			<path class="st1" d="M246.6,584.2c-1.5,18-16,32.4-34,33.8v25.3h24.7c1.3-18.2,16-32.8,34.2-34.1v-24.9H246.6z M230.6,635.4
				h-10.1v-10.7c16.1-4,28.8-16.6,32.8-32.6h10.3v10.3C247.3,606.4,234.5,619.1,230.6,635.4z"/>
			<path class="st1" d="M504.8,455.1c-1.4,18.1-15.9,32.6-34.1,34v25.1h24.7c1.3-18.2,15.9-32.8,34.2-34.1v-25H504.8z M488.7,506.3
				h-10.1v-10.4h-0.3c16.3-3.9,29.1-16.7,33.1-32.9h10.2v10.3C505.5,477.3,492.7,490.1,488.7,506.3z"/>
			<path class="st1" d="M212.6,28.7c18,1.4,32.5,15.7,34,33.7h24.9V37.5c-18.2-1.3-32.9-15.9-34.2-34.1h-24.7V28.7z M220.5,11.3
				h10.1c4,16.2,16.8,29,33,33v10.3h-10.3c-4.1-16-16.8-28.6-32.8-32.5V11.3z"/>
			<path class="st1" d="M237.3,519.7h-24.7v24.5c18.3,1.4,32.9,16.1,34.1,34.5h24.8v-24.9C253.2,552.5,238.6,537.9,237.3,519.7z
				 M263.6,570.8h-10.1c-3.9-16.3-16.7-29.3-33-33.3v-9.9h10.1c4,16.2,16.8,29,33,33V570.8z"/>
			<path class="st1" d="M301.8,320.5c1.4-18.2,16-32.8,34.3-34.1v-24.9h-25c-1.3,18.2-16,32.8-34.2,34.1v24.9H301.8z M317.9,269.4
				h10.3v10.3c-16.3,3.9-29.2,16.7-33.2,33h-10.2v-10.2C301.1,298.4,314,285.6,317.9,269.4z"/>
			<path class="st1" d="M117.6,449.6h24.8v-24.9c-18.2-1.3-32.9-15.9-34.2-34.1H83.5v24.7C101.7,416.7,116.3,431.4,117.6,449.6z
				 M91.4,398.5h10.1c4,16.2,16.8,29,33,33v10.2h-10.2c-3.9-16.3-16.7-29.1-32.9-33.1V398.5z"/>
			<path class="st1" d="M336.2,415.3v-24.7h-25c-1.3,18.2-16,32.8-34.2,34.1v24.9h24.8C303.1,431.3,317.8,416.6,336.2,415.3z
				 M295.1,441.7h-10.2v-10.2c16.3-4,29.1-16.8,33-33h10.3v10.1C311.9,412.5,299,425.4,295.1,441.7z"/>
			<path class="st1" d="M633.9,67.9c-1.1,18.4-15.8,33.1-34.1,34.6V127h24.7c1.3-18.2,15.9-32.8,34.2-34.2V67.9H633.9z M650.8,86.1
				c-16.3,4-29.1,16.8-33,33h-10.1v-9.9c16.3-4,29.2-17,33-33.4h10.1V86.1z"/>
			<path class="st1" d="M78,102.4c-18.4-1.3-33.2-16.1-34.4-34.6H18.8v24.9C37.1,94.1,51.7,108.7,53,127h25V102.4z M70.1,119.1H59.8
				c-4-16.2-16.8-29-33-33V75.8h10.1c3.9,16.5,16.8,29.5,33.3,33.4V119.1z"/>
			<path class="st1" d="M43.7,191.5c1.5-18.2,16.1-32.6,34.3-33.9v-25.1H53c-1.3,18.2-16,32.8-34.2,34.2v24.9H43.7z M26.7,173.3
				c16.3-4,29.1-16.8,33-33h10.3v10.4C53.9,154.7,41,167.4,37,183.6H26.7V173.3z"/>
			<path class="st1" d="M465.2,544.2v-24.5h-25c-1.3,18.2-16,32.8-34.2,34.1v24.9h24.8C432.1,560.3,446.8,545.5,465.2,544.2z
				 M424.1,570.8H414v-10.2c16.3-4,29.1-16.8,33-33h10.3v9.9C440.9,541.4,428,554.4,424.1,570.8z"/>
			<path class="st1" d="M406.1,424.7v24.9h24.8c1.3-18.3,16-33,34.3-34.3v-24.7h-25C438.9,408.8,424.3,423.4,406.1,424.7z
				 M447,398.5h10.3v10.1c-16.4,3.9-29.3,16.8-33.2,33.2H414v-10.2C430.2,427.5,443,414.7,447,398.5z"/>
			<path class="st1" d="M207.1,544.2v-24.5h-25c-1.3,18.2-16,32.8-34.2,34.1v24.9h24.8C173.9,560.3,188.7,545.5,207.1,544.2z
				 M165.9,570.8h-10.1v-10.2c16.3-4,29.1-16.8,33-33h10.3v9.9C182.7,541.4,169.8,554.4,165.9,570.8z"/>
			<path class="st1" d="M142.4,351V326h-24.8c-1.3,18.2-15.9,32.8-34.1,34.2v24.9h24.7C109.6,366.9,124.2,352.3,142.4,351z
				 M101.5,377.2H91.4v-10.3c16.2-4,29-16.8,32.9-33h10.2v10.3C118.3,348.2,105.4,361,101.5,377.2z"/>
			<path class="st1" d="M271.5,351V326h-24.8c-1.3,18.2-15.9,32.8-34.1,34.2v24.9h24.7C238.6,366.9,253.2,352.3,271.5,351z
				 M230.5,377.2h-10.1v-10.3c16.2-4,29-16.8,32.9-33h10.2v10.3C247.3,348.2,234.5,361,230.5,377.2z"/>
			<path class="st1" d="M172.8,62.4c1.5-18.1,16.1-32.5,34.3-33.7V3.4h-25c-1.3,18.2-16,32.8-34.2,34.1v24.9H172.8z M188.8,11.3
				h10.3v10.6c-16.2,3.9-29,16.5-33.1,32.6h-10.3V44.2C172.1,40.3,184.9,27.5,188.8,11.3z"/>
			<path class="st1" d="M83.5,28.7c18,1.4,32.5,15.7,34,33.7h24.9V37.5c-18.2-1.3-32.9-15.9-34.2-34.1H83.5V28.7z M91.4,11.3h10.1
				c4,16.2,16.8,29,33,33v10.3h-10.3c-4.1-16-16.8-28.6-32.8-32.5V11.3z"/>
			<path class="st1" d="M535.1,424.7v24.9H560c1.3-18.3,16-33,34.3-34.3v-24.7h-25C568,408.8,553.4,423.4,535.1,424.7z M576.1,398.5
				h10.3v10.1c-16.4,3.9-29.3,16.8-33.2,33.2H543v-10.2C559.3,427.5,572.1,414.7,576.1,398.5z"/>
			<path class="st1" d="M336.2,360.2c-18.3-1.3-33-15.9-34.3-34.2H277V351c18.2,1.3,32.9,15.9,34.2,34.1h25V360.2z M328.2,377.2
				h-10.3c-4-16.2-16.8-29-33-33v-10.3h10.2c4,16.3,16.8,29.1,33.2,33.1V377.2z"/>
			<path class="st1" d="M430.9,62.4c1.5-18.1,16.1-32.5,34.3-33.7V3.4h-25c-1.3,18.2-16,32.8-34.2,34.1v24.9H430.9z M447,11.3h10.3
				v10.6c-16.2,3.9-29,16.5-33.1,32.6H414V44.2C430.2,40.3,443,27.5,447,11.3z"/>
			<path class="st1" d="M108.2,519.7H83.5v24.5c18.3,1.4,32.9,16.1,34.1,34.5h24.8v-24.9C124.2,552.5,109.6,537.9,108.2,519.7z
				 M134.5,570.8h-10.1c-3.9-16.4-16.7-29.3-33-33.3v-9.9h10.1c4,16.2,16.8,29,33,33V570.8z"/>
			<path class="st1" d="M43.7,62.4C45.3,44.3,59.8,29.9,78,28.7V3.4H53c-1.3,18.2-16,32.8-34.2,34.2v24.9H43.7z M26.7,44.2
				c16.3-4,29.1-16.8,33-33h10.3v10.6c-16.2,3.9-29,16.5-33.1,32.6H26.7V44.2z"/>
			<path class="st1" d="M366.4,519.7h-24.7v24.5c18.3,1.4,32.9,16.1,34.1,34.5h24.8v-24.9C382.3,552.5,367.7,537.9,366.4,519.7z
				 M392.7,570.8h-10.1c-3.9-16.3-16.7-29.3-33-33.3v-9.9h10.1c4,16.2,16.8,29,33,33V570.8z"/>
			<path class="st1" d="M237.3,390.6h-24.7v24.7c18.2,1.4,32.8,16,34.1,34.3h24.8v-24.9C253.2,423.4,238.6,408.8,237.3,390.6z
				 M263.6,441.7h-10.2c-3.9-16.3-16.7-29.1-32.9-33.1v-10.1h10.1c4,16.2,16.8,29,33,33V441.7z"/>
			<path class="st1" d="M375.7,326c-1.3,18.2-15.9,32.8-34.1,34.2v24.9h24.7c1.3-18.2,15.9-32.8,34.2-34.1V326H375.7z M359.6,377.2
				h-10.1v-10.3c16.2-4,29-16.8,32.9-33h10.2v10.3C376.4,348.2,363.6,361,359.6,377.2z"/>
			<path class="st1" d="M142.4,480v-25h-24.9c-1.4,18.1-15.9,32.6-34.1,34v25.1h24.7C109.6,496,124.2,481.4,142.4,480z M101.5,506.3
				H91.4v-10.4h-0.3c16.3-3.9,29.1-16.7,33.1-32.9h10.2v10.3C118.3,477.3,105.4,490.1,101.5,506.3z"/>
			<path class="st1" d="M599.8,157.6c18.1,1.4,32.6,15.8,34,33.9h24.9v-24.9c-18.2-1.3-32.9-15.9-34.2-34.2h-24.7V157.6z
				 M607.7,150.8v-10.4h10.1c4,16.2,16.8,29,33,33v10.2h-10.3c-4-16.2-16.9-28.9-33.1-32.8H607.7z"/>
			<path class="st1" d="M633.9,196.9c-1.2,18.3-15.8,33-34.1,34.4V256h24.7c1.3-18.2,16-32.8,34.2-34.2v-24.9H633.9z M650.8,215.2
				c-16.3,4-29.1,16.8-33,33h-10.1V238c16.3-4,29.1-16.9,33-33.2h10.2V215.2z"/>
			<path class="st1" d="M117.6,320.5h24.8v-24.9c-18.2-1.3-32.9-15.9-34.2-34.1H83.5v24.9C101.7,287.8,116.2,302.4,117.6,320.5z
				 M91.4,269.4h10.1c4,16.2,16.8,29,33,33v10.2h-10.2c-4-16.2-16.7-28.9-32.9-32.9V269.4z"/>
			<path class="st1" d="M78,231.3c-18.4-1.3-33.1-16-34.3-34.4H18.8v24.9c18.2,1.3,32.9,15.9,34.2,34.2h25V231.3z M70.1,248.1H59.8
				c-4-16.2-16.8-29-33-33v-10.3h10.2c3.9,16.4,16.8,29.3,33.2,33.2V248.1z"/>
			<path class="st1" d="M535.1,553.8v24.9H560c1.2-18.4,15.9-33.2,34.4-34.5v-24.5h-25C568,537.9,553.4,552.5,535.1,553.8z
				 M576.1,527.6h10.3v9.9c-16.4,3.9-29.4,16.9-33.2,33.4H543v-10.2C559.3,556.6,572.1,543.8,576.1,527.6z"/>
			<path class="st1" d="M336.2,544.2v-24.5h-25c-1.3,18.2-16,32.8-34.2,34.1v24.9h24.8C303,560.3,317.7,545.5,336.2,544.2z
				 M295,570.8h-10.1v-10.2c16.3-4,29.1-16.8,33-33h10.3v9.9C311.8,541.4,298.9,554.4,295,570.8z"/>
			<path class="st1" d="M301.9,62.4c1.5-18.1,16.1-32.5,34.3-33.7V3.4h-25c-1.3,18.2-16,32.8-34.2,34.1v24.9H301.9z M317.9,11.3
				h10.3v10.6c-16.2,3.9-29,16.5-33.1,32.6h-10.3V44.2C301.1,40.3,314,27.5,317.9,11.3z"/>
			<path class="st1" d="M142.4,221.9v-24.9h-24.8c-1.2,18.3-15.8,33-34.1,34.4V256h24.7C109.6,237.8,124.2,223.2,142.4,221.9z
				 M101.5,248.1H91.4V238c16.3-4,29.1-16.9,33-33.2h10.1v10.3C118.3,219.1,105.4,231.9,101.5,248.1z"/>
			<path class="st1" d="M366.4,390.6h-24.7v24.7c18.2,1.4,32.8,16,34.1,34.3h24.8v-24.9C382.3,423.4,367.7,408.8,366.4,390.6z
				 M392.7,441.7h-10.2c-3.9-16.3-16.7-29.1-32.9-33.1v-10.1h10.1c4,16.2,16.8,29,33,33V441.7z"/>
			<path class="st1" d="M560,62.4c1.5-18.1,16.1-32.5,34.3-33.7V3.4h-25c-1.3,18.2-16,32.8-34.2,34.1v24.9H560z M576.1,11.3h10.3
				v10.6c-16.2,3.9-29,16.5-33.1,32.6H543V44.2C559.3,40.3,572.1,27.5,576.1,11.3z"/>
			<path class="st1" d="M637.8,0.6h-7.9c0,17.4,14.2,31.5,31.6,31.5v-7.9C648.4,24.2,637.8,13.7,637.8,0.6z"/>
			<path class="st1" d="M629.9,129.7c0,17.4,14.2,31.5,31.6,31.5v-7.9c-13,0-23.7-10.6-23.7-23.6c0-13,10.6-23.6,23.7-23.6v-7.9
				C644.1,98.2,629.9,112.3,629.9,129.7z"/>
			<path class="st1" d="M629.9,258.8c0,17.4,14.2,31.5,31.6,31.5v-7.9c-13,0-23.7-10.6-23.7-23.6c0-13,10.6-23.6,23.7-23.6v-7.9
				C644.1,227.3,629.9,241.4,629.9,258.8z"/>
			<path class="st1" d="M629.9,387.9c0,17.4,14.2,31.5,31.6,31.5v-7.9c-13,0-23.7-10.6-23.7-23.6c0-13,10.6-23.6,23.7-23.6v-7.9
				C644.1,356.3,629.9,370.5,629.9,387.9z"/>
			<path class="st1" d="M629.9,516.9c0,17.4,14.2,31.5,31.6,31.5v-7.9c-13,0-23.7-10.6-23.7-23.6c0-13,10.6-23.6,23.7-23.6v-7.9
				C644.1,485.4,629.9,499.6,629.9,516.9z"/>
			<path class="st1" d="M16.1,614.5v7.9c13,0,23.7,10.6,23.7,23.6h7.9C47.6,628.6,33.5,614.5,16.1,614.5z"/>
			<path class="st1" d="M145.2,614.5c-17.4,0-31.6,14.1-31.6,31.5h7.9c0-13,10.6-23.6,23.7-23.6c13,0,23.7,10.6,23.7,23.6h7.9
				C176.7,628.6,162.6,614.5,145.2,614.5z"/>
			<path class="st1" d="M274.2,614.5c-17.4,0-31.6,14.1-31.6,31.5h7.9c0-13,10.6-23.6,23.7-23.6c13,0,23.7,10.6,23.7,23.6h7.9
				C305.8,628.6,291.6,614.5,274.2,614.5z"/>
			<path class="st1" d="M403.3,614.5c-17.4,0-31.6,14.1-31.6,31.5h7.9c0-13,10.6-23.6,23.7-23.6c13,0,23.7,10.6,23.7,23.6h7.9
				C434.9,628.6,420.7,614.5,403.3,614.5z"/>
			<path class="st1" d="M532.4,614.5c-17.4,0-31.6,14.1-31.6,31.5h7.9c0-13,10.6-23.6,23.7-23.6c13,0,23.7,10.6,23.7,23.6h7.9
				C564,628.6,549.8,614.5,532.4,614.5z"/>
			<path class="st1" d="M629.9,646h7.9c0-13,10.6-23.6,23.7-23.6v-7.9C644.1,614.5,629.9,628.6,629.9,646z"/>
			<path class="st1" d="M145.2,32.1c17.4,0,31.6-14.1,31.6-31.5h-7.9c0,13-10.6,23.6-23.7,23.6c-13,0-23.7-10.6-23.7-23.6h-7.9
				C113.6,18,127.8,32.1,145.2,32.1z"/>
			<path class="st1" d="M274.2,32.1c17.4,0,31.6-14.1,31.6-31.5h-7.9c0,13-10.6,23.6-23.7,23.6c-13,0-23.7-10.6-23.7-23.6h-7.9
				C242.7,18,256.8,32.1,274.2,32.1z"/>
			<path class="st1" d="M403.3,32.1c17.4,0,31.6-14.1,31.6-31.5H427c0,13-10.6,23.6-23.7,23.6c-13,0-23.7-10.6-23.7-23.6h-7.9
				C371.8,18,385.9,32.1,403.3,32.1z"/>
			<path class="st1" d="M532.4,32.1C549.8,32.1,564,18,564,0.6H556c0,13-10.6,23.6-23.7,23.6c-13,0-23.7-10.6-23.7-23.6h-7.9
				C500.8,18,515,32.1,532.4,32.1z"/>
			<path class="st1" d="M47.6,129.7c0-17.4-14.2-31.5-31.6-31.5v7.9c13,0,23.7,10.6,23.7,23.6c0,13-10.6,23.6-23.7,23.6v7.9
				C33.5,161.2,47.6,147.1,47.6,129.7z"/>
			<path class="st1" d="M145.2,161.2c17.4,0,31.6-14.1,31.6-31.5c0-17.4-14.2-31.5-31.6-31.5c-17.4,0-31.6,14.1-31.6,31.5
				C113.6,147.1,127.8,161.2,145.2,161.2z M145.2,106.1c13,0,23.7,10.6,23.7,23.6c0,13-10.6,23.6-23.7,23.6
				c-13,0-23.7-10.6-23.7-23.6C121.5,116.7,132.1,106.1,145.2,106.1z"/>
			<path class="st1" d="M274.2,161.2c17.4,0,31.6-14.1,31.6-31.5c0-17.4-14.2-31.5-31.6-31.5c-17.4,0-31.6,14.1-31.6,31.5
				C242.7,147.1,256.8,161.2,274.2,161.2z M274.2,106.1c13,0,23.7,10.6,23.7,23.6c0,13-10.6,23.6-23.7,23.6
				c-13,0-23.7-10.6-23.7-23.6C250.6,116.7,261.2,106.1,274.2,106.1z"/>
			<path class="st1" d="M403.3,161.2c17.4,0,31.6-14.1,31.6-31.5c0-17.4-14.2-31.5-31.6-31.5c-17.4,0-31.6,14.1-31.6,31.5
				C371.7,147.1,385.9,161.2,403.3,161.2z M403.3,106.1c13,0,23.7,10.6,23.7,23.6c0,13-10.6,23.6-23.7,23.6
				c-13,0-23.7-10.6-23.7-23.6C379.7,116.7,390.3,106.1,403.3,106.1z"/>
			<path class="st1" d="M532.4,98.2c-17.4,0-31.6,14.1-31.6,31.5c0,17.4,14.2,31.5,31.6,31.5c17.4,0,31.6-14.1,31.6-31.5
				C564,112.3,549.8,98.2,532.4,98.2z M532.4,153.3c-13,0-23.7-10.6-23.7-23.6c0-13,10.6-23.6,23.7-23.6c13,0,23.7,10.6,23.7,23.6
				C556,142.7,545.4,153.3,532.4,153.3z"/>
			<path class="st1" d="M47.6,258.8c0-17.4-14.2-31.5-31.6-31.5v7.9c13,0,23.7,10.6,23.7,23.6c0,13-10.6,23.6-23.7,23.6v7.9
				C33.5,290.3,47.6,276.2,47.6,258.8z"/>
			<path class="st1" d="M145.2,290.3c17.4,0,31.6-14.1,31.6-31.5c0-17.4-14.2-31.5-31.6-31.5c-17.4,0-31.6,14.1-31.6,31.5
				C113.6,276.2,127.8,290.3,145.2,290.3z M145.2,235.2c13,0,23.7,10.6,23.7,23.6c0,13-10.6,23.6-23.7,23.6
				c-13,0-23.7-10.6-23.7-23.6C121.5,245.8,132.1,235.2,145.2,235.2z"/>
			<path class="st1" d="M274.2,290.3c17.4,0,31.6-14.1,31.6-31.5c0-17.4-14.2-31.5-31.6-31.5c-17.4,0-31.6,14.1-31.6,31.5
				C242.7,276.2,256.8,290.3,274.2,290.3z M274.2,235.2c13,0,23.7,10.6,23.7,23.6c0,13-10.6,23.6-23.7,23.6
				c-13,0-23.7-10.6-23.7-23.6C250.6,245.8,261.2,235.2,274.2,235.2z"/>
			<path class="st1" d="M403.3,227.3c-17.4,0-31.6,14.1-31.6,31.5c0,17.4,14.2,31.5,31.6,31.5c17.4,0,31.6-14.1,31.6-31.5
				C434.9,241.4,420.7,227.3,403.3,227.3z M403.3,282.4c-13,0-23.7-10.6-23.7-23.6c0-13,10.6-23.6,23.7-23.6
				c13,0,23.7,10.6,23.7,23.6C427,271.8,416.4,282.4,403.3,282.4z"/>
			<path class="st1" d="M532.4,227.3c-17.4,0-31.6,14.1-31.6,31.5c0,17.4,14.2,31.5,31.6,31.5c17.4,0,31.6-14.1,31.6-31.5
				C564,241.4,549.8,227.3,532.4,227.3z M532.4,282.4c-13,0-23.7-10.6-23.7-23.6c0-13,10.6-23.6,23.7-23.6c13,0,23.7,10.6,23.7,23.6
				C556,271.8,545.4,282.4,532.4,282.4z"/>
			<path class="st1" d="M47.6,387.9c0-17.4-14.2-31.5-31.6-31.5v7.9c13,0,23.7,10.6,23.7,23.6c0,13-10.6,23.6-23.7,23.6v7.9
				C33.5,419.4,47.6,405.2,47.6,387.9z"/>
			<path class="st1" d="M145.2,419.4c17.4,0,31.6-14.1,31.6-31.5c0-17.4-14.2-31.5-31.6-31.5c-17.4,0-31.6,14.1-31.6,31.5
				C113.6,405.2,127.8,419.4,145.2,419.4z M145.2,364.2c13,0,23.7,10.6,23.7,23.6c0,13-10.6,23.6-23.7,23.6
				c-13,0-23.7-10.6-23.7-23.6C121.5,374.8,132.1,364.2,145.2,364.2z"/>
			<path class="st1" d="M274.2,356.3c-17.4,0-31.6,14.1-31.6,31.5c0,17.4,14.2,31.5,31.6,31.5c17.4,0,31.6-14.1,31.6-31.5
				C305.8,370.5,291.6,356.3,274.2,356.3z M274.2,411.5c-13,0-23.7-10.6-23.7-23.6c0-13,10.6-23.6,23.7-23.6
				c13,0,23.7,10.6,23.7,23.6C297.9,400.9,287.3,411.5,274.2,411.5z"/>
			<path class="st1" d="M403.3,356.3c-17.4,0-31.6,14.1-31.6,31.5c0,17.4,14.2,31.5,31.6,31.5c17.4,0,31.6-14.1,31.6-31.5
				C434.9,370.5,420.7,356.3,403.3,356.3z M403.3,411.5c-13,0-23.7-10.6-23.7-23.6c0-13,10.6-23.6,23.7-23.6
				c13,0,23.7,10.6,23.7,23.6C427,400.9,416.4,411.5,403.3,411.5z"/>
			<path class="st1" d="M532.4,356.3c-17.4,0-31.6,14.1-31.6,31.5c0,17.4,14.2,31.5,31.6,31.5c17.4,0,31.6-14.1,31.6-31.5
				C564,370.5,549.8,356.3,532.4,356.3z M532.4,411.5c-13,0-23.7-10.6-23.7-23.6c0-13,10.6-23.6,23.7-23.6c13,0,23.7,10.6,23.7,23.6
				C556,400.9,545.4,411.5,532.4,411.5z"/>
			<path class="st1" d="M47.6,516.9c0-17.4-14.2-31.5-31.6-31.5v7.9c13,0,23.7,10.6,23.7,23.6c0,13-10.6,23.6-23.7,23.6v7.9
				C33.5,548.5,47.6,534.3,47.6,516.9z"/>
			<path class="st1" d="M145.2,485.4c-17.4,0-31.6,14.1-31.6,31.5c0,17.4,14.2,31.5,31.6,31.5c17.4,0,31.6-14.1,31.6-31.5
				C176.7,499.6,162.6,485.4,145.2,485.4z M145.2,540.6c-13,0-23.7-10.6-23.7-23.6c0-13,10.6-23.6,23.7-23.6
				c13,0,23.7,10.6,23.7,23.6C168.8,530,158.2,540.6,145.2,540.6z"/>
			<path class="st1" d="M274.2,485.4c-17.4,0-31.6,14.1-31.6,31.5c0,17.4,14.2,31.5,31.6,31.5c17.4,0,31.6-14.1,31.6-31.5
				C305.8,499.6,291.6,485.4,274.2,485.4z M274.2,540.6c-13,0-23.7-10.6-23.7-23.6c0-13,10.6-23.6,23.7-23.6
				c13,0,23.7,10.6,23.7,23.6C297.9,530,287.3,540.6,274.2,540.6z"/>
			<path class="st1" d="M403.3,485.4c-17.4,0-31.6,14.1-31.6,31.5c0,17.4,14.2,31.5,31.6,31.5c17.4,0,31.6-14.1,31.6-31.5
				C434.9,499.6,420.7,485.4,403.3,485.4z M403.3,540.6c-13,0-23.7-10.6-23.7-23.6c0-13,10.6-23.6,23.7-23.6
				c13,0,23.7,10.6,23.7,23.6C427,530,416.4,540.6,403.3,540.6z"/>
			<path class="st1" d="M532.4,485.4c-17.4,0-31.6,14.1-31.6,31.5c0,17.4,14.2,31.5,31.6,31.5c17.4,0,31.6-14.1,31.6-31.5
				C564,499.6,549.8,485.4,532.4,485.4z M532.4,540.6c-13,0-23.7-10.6-23.7-23.6c0-13,10.6-23.6,23.7-23.6c13,0,23.7,10.6,23.7,23.6
				C556,530,545.4,540.6,532.4,540.6z"/>
			<path class="st1" d="M80.6,291.8c-17.4,0-31.6,14.1-31.6,31.5c0,17.4,14.2,31.5,31.6,31.5c17.4,0,31.6-14.1,31.6-31.5
				C112.2,305.9,98,291.8,80.6,291.8z M80.6,346.9c-13,0-23.7-10.6-23.7-23.6c0-13,10.6-23.6,23.7-23.6c13,0,23.7,10.6,23.7,23.6
				C104.3,336.3,93.7,346.9,80.6,346.9z"/>
		</g>
	</g>
</g>
</svg>
