<?xml version="1.0" encoding="utf-8"?>
<!-- Generator: Adobe Illustrator 19.0.0, SVG Export Plug-In . SVG Version: 6.00 Build 0)  -->
<svg version="1.1" id="Capa_1" xmlns="http://www.w3.org/2000/svg" xmlns:xlink="http://www.w3.org/1999/xlink" x="0px" y="0px"
	 viewBox="0 0 44.1 46.7" style="enable-background:new 0 0 44.1 46.7;" xml:space="preserve">
<style type="text/css">
	.st0{fill:#B29347;}
</style>
<path id="pool_1_" class="st0" d="M38.9,30.9c1-2.3,1.5-4.9,1.5-7.6c0-2.7-0.5-5.2-1.5-7.5c2.4-1.3,4-3.9,4-6.8
	c0-4.2-3.3-7.7-7.4-7.7c-2.9,0-5.4,1.7-6.6,4.2c-2.2-1-4.6-1.5-7.1-1.5c-2.4,0-4.8,0.5-6.9,1.4C13.8,3,11.3,1.3,8.5,1.3
	C4.4,1.3,1.1,4.7,1.1,9c0,2.9,1.6,5.4,3.9,6.7c-1,2.3-1.5,4.9-1.5,7.6C3.5,26,4,28.6,5,31c-2.3,1.3-3.9,3.8-3.9,6.8
	c0,4.2,3.3,7.7,7.4,7.7c2.9,0,5.4-1.8,6.6-4.3c2.1,0.9,4.4,1.4,6.8,1.4c2.5,0,4.9-0.5,7-1.5c1.2,2.6,3.7,4.4,6.6,4.4
	c4.1,0,7.4-3.4,7.4-7.7C42.9,34.7,41.3,32.1,38.9,30.9z M39.3,23.3c0,5-1.9,9.5-5.1,12.8l-5.1-5.3c1.8-1.9,3-4.6,3-7.5
	c0-2.7-1-5.2-2.6-7.1l5.1-5.3C37.5,14.1,39.3,18.5,39.3,23.3z M12.8,23.3c0-5.2,4.1-9.5,9.1-9.5c5,0,9.1,4.3,9.1,9.5
	c0,5.2-4.1,9.5-9.1,9.5C16.9,32.8,12.8,28.5,12.8,23.3z M35.6,2.4c3.5,0,6.3,2.9,6.3,6.5c0,2.5-1.4,4.7-3.4,5.8
	C36.6,11,33.7,7.9,30,6C31,3.9,33.1,2.4,35.6,2.4z M21.9,5.1c4.6,0,8.8,1.9,11.9,4.9l-5.1,5.3c-1.8-1.7-4.2-2.7-6.8-2.7
	c-2.6,0-5,1-6.8,2.7L10,10.1C13.1,7,17.3,5.1,21.9,5.1z M2.2,9c0-3.6,2.8-6.5,6.3-6.5c2.4,0,4.5,1.4,5.5,3.5
	c-3.7,1.8-6.7,4.9-8.6,8.8C3.5,13.5,2.2,11.4,2.2,9z M4.5,23.3c0-4.8,1.8-9.2,4.7-12.4l5.1,5.3c-1.6,1.9-2.6,4.4-2.6,7.1
	c0,2.9,1.1,5.5,2.9,7.5L9.6,36C6.5,32.8,4.5,28.2,4.5,23.3z M8.5,44.3c-3.5,0-6.3-2.9-6.3-6.5c0-2.5,1.3-4.6,3.3-5.7
	c1.9,3.8,4.9,6.8,8.6,8.7C13,42.8,10.9,44.3,8.5,44.3z M21.9,41.4c-4.4,0-8.5-1.7-11.6-4.6l5.1-5.3c1.8,1.5,4,2.4,6.4,2.4
	c2.4,0,4.7-0.9,6.4-2.4l5.1,5.3C30.4,39.7,26.3,41.4,21.9,41.4z M35.6,44.3c-2.5,0-4.6-1.5-5.6-3.7c3.6-1.8,6.6-4.9,8.4-8.7
	c2,1.1,3.5,3.3,3.5,5.8C41.8,41.4,39,44.3,35.6,44.3z"/>
</svg>
