<?xml version="1.0" encoding="utf-8"?>
<!-- Generator: Adobe Illustrator 19.0.0, SVG Export Plug-In . SVG Version: 6.00 Build 0)  -->
<svg version="1.1" id="Capa_1" xmlns="http://www.w3.org/2000/svg" xmlns:xlink="http://www.w3.org/1999/xlink" x="0px" y="0px"
	 viewBox="0 0 80.9 37.6" style="enable-background:new 0 0 80.9 37.6;" xml:space="preserve">
<style type="text/css">
	.st0{fill:#B29347;}
</style>
<g id="XMLID_447_">
	<path id="XMLID_480_" class="st0" d="M34.5,7c0.5-2.4,2.6-4.2,5.2-4.2c2.6,0,4.8,1.9,5.2,4.3c0.3,0.1,0.7,0.1,1.1,0.2
		c-0.4-3.1-3-5.5-6.3-5.5c-3.2,0-5.9,2.4-6.3,5.5C33.8,7.2,34.2,7.1,34.5,7z"/>
	<path id="XMLID_479_" class="st0" d="M5,36.2C7.7,19.7,22.3,7,39.8,7C57.4,7,72,19.7,74.7,36.2h1C73,19.1,57.9,6,39.8,6
		C21.7,6,6.7,19.1,3.9,36.2H5z"/>
	<g id="XMLID_451_">
		<line id="XMLID_453_" class="st0" x1="0.8" y1="35.7" x2="79" y2="35.7"/>
		<rect id="XMLID_452_" x="0.8" y="35.2" class="st0" width="78.1" height="1"/>
	</g>
	<path id="XMLID_448_" class="st0" d="M71.9,32.7L71.9,32.7c0-0.1,0-0.1-0.1-0.2c0,0,0-0.1,0-0.1c0,0,0,0,0,0
		c-4.4-13.3-17.1-23-32-23c-15,0-27.7,9.7-32,23.1h0l0,0.1c0,0.1-0.1,0.2-0.1,0.2h0l-0.1,0.5h0.7h0.1h62.6h0.3H72
		C72,33.1,71.9,32.9,71.9,32.7z M8.7,32.2c4.4-12.8,16.6-22,31-22s26.7,9.2,31,22H8.7z"/>
</g>
</svg>
