<?xml version="1.0" encoding="utf-8"?>
<!-- Generator: Adobe Illustrator 19.0.0, SVG Export Plug-In . SVG Version: 6.00 Build 0)  -->
<svg version="1.1" id="Capa_1" xmlns="http://www.w3.org/2000/svg" xmlns:xlink="http://www.w3.org/1999/xlink" x="0px" y="0px"
	 viewBox="0 0 59.9 60.8" style="enable-background:new 0 0 59.9 60.8;" xml:space="preserve">
<style type="text/css">
	.st0{fill:#B29347;}
</style>
<g id="XMLID_315_">
	<g id="XMLID_450_">
		<path id="XMLID_451_" class="st0" d="M30,55.6c-13.9,0-25.2-11.3-25.2-25.2C4.8,16.5,16.1,5.2,30,5.2c13.9,0,25.2,11.3,25.2,25.2
			C55.3,44.3,43.9,55.6,30,55.6z M30,6.6C16.9,6.6,6.2,17.3,6.2,30.4c0,13.1,10.7,23.8,23.8,23.8c13.1,0,23.8-10.7,23.8-23.8
			C53.8,17.3,43.1,6.6,30,6.6z"/>
	</g>
	<g id="XMLID_317_">
		<path id="XMLID_447_" class="st0" d="M30,59C14.3,59,1.5,46.1,1.5,30.4C1.5,14.6,14.3,1.8,30,1.8c15.8,0,28.6,12.8,28.6,28.6
			C58.6,46.1,45.8,59,30,59z M30,3.5C15.2,3.5,3.1,15.5,3.1,30.4c0,14.9,12.1,26.9,26.9,26.9S57,45.2,57,30.4
			C57,15.5,44.9,3.5,30,3.5z"/>
	</g>
	<polygon id="XMLID_316_" class="st0" points="30.9,29.6 30.9,17.6 29.2,17.6 29.2,29.6 29.2,29.6 29.2,31.2 47,31.2 47,29.6 	"/>
</g>
</svg>
