<?xml version="1.0" encoding="utf-8"?>
<!-- Generator: Adobe Illustrator 19.0.0, SVG Export Plug-In . SVG Version: 6.00 Build 0)  -->
<svg version="1.1" id="Capa_1" xmlns="http://www.w3.org/2000/svg" xmlns:xlink="http://www.w3.org/1999/xlink" x="0px" y="0px"
	 viewBox="0 0 44.1 57.3" style="enable-background:new 0 0 44.1 57.3;" xml:space="preserve">
<style type="text/css">
	.st0{fill:#B29347;}
</style>
<g id="XMLID_317_">
	<g id="XMLID_453_">
		<path id="XMLID_479_" class="st0" d="M22.6,43.3c-1.6,0-2.9-1.3-2.9-3c0-0.6,0-1.2,0-1.7v-0.8v-0.7c0-0.6,0-1.1,0-1.7
			c0-1.7,1.3-2.9,2.9-2.9c1.6,0,2.9,1.3,2.9,2.9c0,1.6,0,3.3,0,4.9C25.5,42,24.3,43.3,22.6,43.3L22.6,43.3z M22.7,34.1
			c-0.7,0-1.2,0.5-1.2,1.3c0,0.6,0,1.1,0,1.7l0,0.7l0,0.8c0,0.6,0,1.2,0,1.7c0,0.7,0.5,1.3,1.2,1.3v0.8l0-0.8c0.7,0,1.2-0.6,1.2-1.3
			c0-1.6,0-3.3,0-4.9C23.9,34.7,23.3,34.1,22.7,34.1z"/>
	</g>
	<g id="XMLID_449_">
		<path id="XMLID_450_" class="st0" d="M22.7,56.2c-11.8,0-21.4-9.6-21.4-21.4c0-11.8,9.6-21.4,21.4-21.4c11.8,0,21.4,9.6,21.4,21.4
			C44.1,46.6,34.5,56.2,22.7,56.2z M22.7,15C11.8,15,2.9,23.9,2.9,34.8c0,10.9,8.8,19.7,19.7,19.7c10.9,0,19.7-8.8,19.7-19.7
			C42.4,23.9,33.5,15,22.7,15z"/>
	</g>
	<g id="XMLID_447_">
		<path id="XMLID_448_" class="st0" d="M14.6,12.4c-0.1-0.4-0.1-0.8-0.1-1.3c0-4.5,3.6-8.1,8.1-8.1c4.5,0,8.1,3.6,8.1,8.1
			c0,0.5,0,1-0.1,1.4c0.5,0.2,1,0.4,1.6,0.7c0.2-0.7,0.2-1.4,0.2-2.1c0-5.4-4.4-9.8-9.8-9.8c-5.4,0-9.8,4.4-9.8,9.8
			c0,0.7,0.1,1.3,0.2,1.9C13.5,12.8,14.1,12.6,14.6,12.4z"/>
	</g>
</g>
</svg>
