<?xml version="1.0" encoding="utf-8"?>
<!-- Generator: Adobe Illustrator 19.0.0, SVG Export Plug-In . SVG Version: 6.00 Build 0)  -->
<svg version="1.1" id="Capa_1" xmlns="http://www.w3.org/2000/svg" xmlns:xlink="http://www.w3.org/1999/xlink" x="0px" y="0px"
	 viewBox="0 0 80.6 60.8" style="enable-background:new 0 0 80.6 60.8;" xml:space="preserve">
<style type="text/css">
	.st0{fill:#B29347;}
</style>
<g id="wifi_2_">
	<path id="XMLID_317_" class="st0" d="M36.6,55.1c0-2.3,1.9-4,4.2-4c2.2,0,4,1.9,4,4.1c0,2.2-1.9,4.1-4.1,4.1
		C38.4,59.3,36.6,57.4,36.6,55.1z"/>
	<path id="XMLID_316_" class="st0" d="M40.7,37c-5.7,0-10.9,2.5-14.4,6.5l1.2,1.2c3.2-3.7,7.9-6,13.2-6c5.1,0,9.6,2.2,12.8,5.6
		l1.2-1.2C51.2,39.3,46.2,37,40.7,37z"/>
	<path id="XMLID_315_" class="st0" d="M2.4,19.9C12,9.6,25.6,3.1,40.7,3.1c14.9,0,28.4,6.3,37.9,16.4l1.2-1.2
		C70,7.9,56.1,1.4,40.7,1.4c-15.6,0-29.6,6.7-39.5,17.3L2.4,19.9z"/>
	<path id="XMLID_314_" class="st0" d="M15.5,32.7c6-7.3,15.1-12,25.3-12c10,0,18.9,4.5,24.9,11.5l1.2-1.2c-6.3-7.4-15.7-12-26.1-12
		c-10.6,0-20.2,4.9-26.5,12.5L15.5,32.7z"/>
</g>
</svg>
