<?xml version="1.0" encoding="utf-8"?>
<!-- Generator: Adobe Illustrator 19.0.0, SVG Export Plug-In . SVG Version: 6.00 Build 0)  -->
<svg version="1.1" id="Capa_1" xmlns="http://www.w3.org/2000/svg" xmlns:xlink="http://www.w3.org/1999/xlink" x="0px" y="0px"
	 viewBox="0 0 26.5 26.4" style="enable-background:new 0 0 26.5 26.4;" xml:space="preserve">
<style type="text/css">
	.st0{fill:#2D0010;}
</style>
<g id="XMLID_16_">
	<g id="XMLID_21_">
		<g id="XMLID_22_">
			<path id="XMLID_23_" class="st0" d="M8.7,7.1h9c0.9,0,1.6,0.7,1.6,1.6v9c0,0.9-0.7,1.6-1.6,1.6h-9c-0.9,0-1.6-0.7-1.6-1.6v-9
				C7.2,7.8,7.9,7.1,8.7,7.1L8.7,7.1z M16,8.4c-0.3,0-0.5,0.2-0.5,0.5v1.3c0,0.3,0.2,0.5,0.5,0.5h1.4c0.3,0,0.5-0.2,0.5-0.5V9
				c0-0.3-0.2-0.5-0.5-0.5H16z M17.9,12.2h-1.1c0.1,0.3,0.2,0.7,0.2,1c0,2-1.7,3.6-3.8,3.6s-3.8-1.6-3.8-3.6c0-0.4,0.1-0.7,0.2-1
				H8.5v5.1c0,0.3,0.2,0.5,0.5,0.5h8.4c0.3,0,0.5-0.2,0.5-0.5V12.2z M13.3,10.8c-1.3,0-2.4,1.1-2.4,2.4c0,1.3,1.1,2.4,2.4,2.4
				c1.3,0,2.4-1.1,2.4-2.4C15.7,11.8,14.6,10.8,13.3,10.8L13.3,10.8z M13.3,10.8"/>
		</g>
	</g>
	<g id="XMLID_17_">
		<path id="XMLID_18_" class="st0" d="M13.2,26.1c-7.1,0-13-5.8-13-13s5.8-13,13-13s13,5.8,13,13S20.4,26.1,13.2,26.1z M13.2,0.7
			C6.4,0.7,0.8,6.3,0.8,13.1s5.6,12.5,12.5,12.5c6.9,0,12.5-5.6,12.5-12.5S20.1,0.7,13.2,0.7z"/>
	</g>
</g>
</svg>
