<?xml version="1.0" encoding="utf-8"?>
<!-- Generator: Adobe Illustrator 19.0.0, SVG Export Plug-In . SVG Version: 6.00 Build 0)  -->
<svg version="1.1" id="Capa_1" xmlns="http://www.w3.org/2000/svg" xmlns:xlink="http://www.w3.org/1999/xlink" x="0px" y="0px"
	 viewBox="0 0 159.2 48.2" style="enable-background:new 0 0 159.2 48.2;" xml:space="preserve">
<style type="text/css">
	.st0{fill:#2D0010;}
</style>
<g>
	<g id="XMLID_1431_">
		<g id="XMLID_1621_">
			<path id="XMLID_1633_" class="st0" d="M1.5,24.8V1.7h3.8v19.7h8.4v3.4H1.5z"/>
			<path id="XMLID_1630_" class="st0" d="M48.4,13.3c0,1.6-0.3,3.2-0.9,4.6c-0.6,1.5-1.5,2.8-2.7,3.9c-1.2,1.1-2.5,2-4,2.6
				c-1.5,0.6-3.1,0.9-4.7,0.9c-1.7,0-3.2-0.3-4.8-0.9c-1.5-0.6-2.8-1.5-4-2.6c-1.2-1.1-2.1-2.4-2.7-3.9c-0.6-1.5-0.9-3-0.9-4.7
				c0-1.6,0.3-3.2,0.9-4.7c0.6-1.5,1.5-2.8,2.7-3.9c1.2-1.1,2.5-2,4-2.6c1.5-0.6,3.1-0.9,4.7-0.9c1.7,0,3.2,0.3,4.7,0.9
				c1.5,0.6,2.8,1.5,4,2.6c1.2,1.2,2.1,2.5,2.7,3.9C48.1,10.1,48.4,11.6,48.4,13.3z M44.5,13.3c0-1.2-0.2-2.3-0.6-3.3
				c-0.4-1-1-2-1.8-2.8c-0.8-0.8-1.7-1.4-2.7-1.9c-1-0.4-2.1-0.7-3.2-0.7c-1.1,0-2.2,0.2-3.2,0.6c-1,0.4-1.9,1.1-2.7,1.9
				c-0.8,0.8-1.4,1.7-1.8,2.8c-0.4,1-0.6,2.2-0.6,3.3c0,1.2,0.2,2.3,0.6,3.3c0.4,1,1,2,1.8,2.8c0.8,0.8,1.7,1.4,2.7,1.9
				c1,0.4,2.1,0.6,3.2,0.6c1.1,0,2.2-0.2,3.2-0.6c1-0.4,1.9-1.1,2.7-1.9c0.8-0.8,1.4-1.8,1.8-2.8C44.3,15.5,44.5,14.4,44.5,13.3z"/>
			<path id="XMLID_1628_" class="st0" d="M67,25.7l-10.3-24h3.9L65.8,14c0.3,0.7,0.6,1.4,0.8,2c0.2,0.6,0.4,1.2,0.5,1.7
				c0.1-0.6,0.3-1.2,0.5-1.8c0.2-0.6,0.5-1.3,0.7-1.9l5.2-12.3h3.9L67,25.7z"/>
			<path id="XMLID_1626_" class="st0" d="M86.8,24.8V1.7h12.9v3.2h-9.1v5.8h9.1V14h-9.1v7.5h9.1v3.4H86.8z"/>
			<path id="XMLID_1624_" class="st0" d="M124.3,24.8V1.7h3.8v23.1H124.3z"/>
			<path id="XMLID_1622_" class="st0" d="M151.9,4.9v19.9h-3.8V4.9H142V1.7h16v3.2H151.9z"/>
		</g>
		<g id="XMLID_1432_">
			<g id="XMLID_1609_">
				<g id="XMLID_1615_">
					<path id="XMLID_1619_" class="st0" d="M5.2,41.8c-0.4-0.6-0.9-0.7-1.5-0.7c-0.6,0-1.5,0.2-1.5,1c0,0.6,0.7,0.8,1.5,0.9
						c0.9,0.2,1.9,0.4,1.9,1.4c0,1.1-1.1,1.4-1.9,1.4c-0.8,0-1.6-0.3-2-1.1L2,44.6c0.3,0.6,1.1,0.9,1.7,0.9c0.6,0,1.6-0.2,1.6-1
						c0-0.7-0.8-0.9-1.6-1.1c-0.9-0.2-1.8-0.4-1.8-1.3c0-1,1.1-1.4,1.9-1.4c0.7,0,1.3,0.1,1.8,0.8L5.2,41.8z"/>
					<path id="XMLID_1616_" class="st0" d="M3.7,45.9c-0.7,0-1.7-0.3-2.1-1.1l-0.1-0.1l0.5-0.3l0.1,0.1c0.3,0.5,1,0.8,1.6,0.8
						c0.4,0,1.5-0.1,1.5-0.9c0-0.6-0.6-0.8-1.5-0.9c-0.9-0.2-1.9-0.4-1.9-1.4c0-0.4,0.1-0.7,0.3-0.9c0.3-0.3,1-0.6,1.6-0.6
						c0.8,0,1.4,0.2,1.9,0.9l0.1,0.1l-0.5,0.3l-0.1-0.1c-0.3-0.5-0.9-0.6-1.4-0.6c-0.1,0-1.4,0-1.4,0.9c0,0.5,0.6,0.7,1.4,0.8l0.1,0
						c0.9,0.2,2,0.4,2,1.5C5.7,45.8,4.2,45.9,3.7,45.9z M1.8,44.8c0.4,0.7,1.2,0.9,1.9,0.9c0.6,0,1.8-0.1,1.8-1.3
						c0-1-0.9-1.1-1.8-1.3l-0.1,0c-0.8-0.1-1.6-0.3-1.6-1C2.1,41.3,3,41,3.7,41c0.5,0,1.1,0.1,1.5,0.6l0.1-0.1
						c-0.4-0.6-0.9-0.7-1.6-0.7c-0.6,0-1.2,0.2-1.5,0.5c-0.2,0.2-0.3,0.5-0.3,0.8c0,0.8,0.8,1,1.7,1.2c0.8,0.2,1.7,0.3,1.7,1.2
						c0,0.7-0.6,1.2-1.7,1.2c-0.6,0-1.4-0.3-1.7-0.9L1.8,44.8z"/>
				</g>
				<g id="XMLID_1610_">
					<path id="XMLID_1612_" class="st0" d="M3.7,45.9c-0.7,0-1.7-0.3-2.1-1.1l0-0.1l0.5-0.3l0,0.1c0.3,0.6,1,0.8,1.6,0.8
						c0.4,0,1.5-0.1,1.5-0.9c0-0.6-0.6-0.8-1.5-1c-0.9-0.2-1.9-0.4-1.9-1.4c0-0.4,0.1-0.7,0.3-0.9c0.3-0.3,0.9-0.6,1.6-0.6
						c0.8,0,1.4,0.2,1.9,0.9l0.1,0.1l-0.5,0.3l-0.1-0.1c-0.3-0.5-0.9-0.6-1.4-0.6c-0.1,0-1.4,0-1.4,0.9c0,0.5,0.6,0.7,1.4,0.8l0.1,0
						c0.9,0.2,2,0.4,2,1.5C5.7,45.8,4.2,45.9,3.7,45.9z M1.8,44.8c0.4,0.7,1.2,0.9,1.9,0.9c0.6,0,1.8-0.1,1.8-1.3
						c0-1-0.9-1.1-1.8-1.3l-0.1,0c-0.8-0.1-1.6-0.3-1.6-1C2.1,41.3,3,41,3.7,41c0.5,0,1.1,0.1,1.5,0.6l0.1-0.1
						c-0.4-0.6-1-0.7-1.7-0.7c-0.6,0-1.2,0.2-1.5,0.5c-0.2,0.2-0.3,0.5-0.3,0.8c0,0.8,0.8,1,1.7,1.2c0.8,0.2,1.7,0.3,1.7,1.2
						c0,0.7-0.6,1.1-1.7,1.1c-0.6,0-1.4-0.3-1.7-0.9L1.8,44.8z"/>
					<path id="XMLID_1611_" class="st0" d="M3.7,46c-0.8,0-1.8-0.3-2.2-1.2l-0.1-0.2l0.7-0.4l0.1,0.2c0.3,0.5,0.9,0.8,1.5,0.8
						c0.4,0,1.4-0.1,1.4-0.8c0-0.5-0.4-0.6-1.4-0.8c-0.9-0.2-2-0.4-2-1.5c0-0.4,0.1-0.7,0.4-1c0.4-0.4,1-0.6,1.7-0.6
						c0.7,0,1.4,0.1,2,0.9l0.1,0.2L5.1,42L5,41.9c-0.3-0.5-0.7-0.6-1.3-0.6c-0.1,0-1.3,0-1.3,0.8c0,0.4,0.4,0.5,1.3,0.7l0.1,0
						c0.9,0.2,2.1,0.4,2.1,1.6C5.8,45.9,4.2,46,3.7,46z"/>
				</g>
			</g>
			<g id="XMLID_1597_">
				<g id="XMLID_1603_">
					<path id="XMLID_1607_" class="st0" d="M9.8,45.7v-4.9h0.4v4.9H9.8z"/>
					<path id="XMLID_1604_" class="st0" d="M10.3,45.8H9.7v-5.1h0.6V45.8z M9.9,45.6h0.2v-4.7H9.9V45.6z"/>
				</g>
				<g id="XMLID_1598_">
					<path id="XMLID_1600_" class="st0" d="M10.3,45.8H9.7v-5.1h0.6V45.8z M9.9,45.6h0.2v-4.7H9.9V45.6z"/>
					<rect id="XMLID_1599_" x="9.6" y="40.6" class="st0" width="0.8" height="5.3"/>
				</g>
			</g>
			<g id="XMLID_1585_">
				<g id="XMLID_1591_">
					<path id="XMLID_1595_" class="st0" d="M18.5,41.7c-0.4-0.4-1-0.6-1.6-0.6c-1.4,0-2.2,1.1-2.2,2.2c0,1.2,0.7,2.2,2.2,2.2
						c0.5,0,1.1-0.2,1.5-0.6v-1.4h-1.7v-0.3h2.1V45c-0.5,0.5-1.1,0.8-1.9,0.8c-1.7,0-2.5-1.2-2.5-2.5c0-1.5,1-2.5,2.5-2.5
						c0.6,0,1.3,0.2,1.8,0.7L18.5,41.7z"/>
					<path id="XMLID_1592_" class="st0" d="M16.9,45.9c-1.8,0-2.6-1.3-2.6-2.6c0-0.8,0.2-1.4,0.7-1.9c0.5-0.5,1.1-0.7,1.9-0.7
						c0.7,0,1.4,0.3,1.9,0.8l0.1,0.1l-0.4,0.4l-0.1-0.1c-0.4-0.4-0.9-0.6-1.5-0.6c-0.6,0-1.1,0.2-1.5,0.6c-0.4,0.4-0.6,0.9-0.6,1.5
						c0,1,0.6,2,2.1,2c0.5,0,1-0.2,1.4-0.5v-1.2h-1.7V43h2.3v2l0,0C18.3,45.6,17.7,45.9,16.9,45.9z M16.9,40.9
						c-0.7,0-1.3,0.2-1.8,0.7c-0.4,0.4-0.7,1-0.7,1.8c0,1.2,0.8,2.4,2.4,2.4c0.7,0,1.2-0.2,1.7-0.7v-1.7h-1.8v0.1h1.7v1.5l0,0
						c-0.4,0.4-1,0.6-1.6,0.6c-1.6,0-2.3-1.1-2.3-2.3c0-0.7,0.2-1.3,0.6-1.7c0.4-0.4,1-0.6,1.6-0.6c0.6,0,1.2,0.2,1.6,0.6l0.1-0.1
						C18.1,41.1,17.6,40.9,16.9,40.9z"/>
				</g>
				<g id="XMLID_1586_">
					<path id="XMLID_1588_" class="st0" d="M16.9,45.9c-1.8,0-2.6-1.3-2.6-2.6c0-0.8,0.2-1.4,0.7-1.9c0.5-0.5,1.1-0.7,1.9-0.7
						c0.7,0,1.4,0.3,1.9,0.8l0.1,0.1l-0.4,0.4l-0.1-0.1c-0.4-0.4-0.9-0.6-1.5-0.6c-0.6,0-1.1,0.2-1.5,0.6c-0.4,0.4-0.6,0.9-0.6,1.5
						c0,1.4,1,2.1,2.1,2.1c0.5,0,1-0.2,1.4-0.5v-1.2h-1.7v-0.5h2.3v2l0,0C18.3,45.6,17.7,45.9,16.9,45.9z M16.9,40.8
						c-0.7,0-1.3,0.2-1.8,0.7c-0.4,0.4-0.7,1-0.7,1.8c0,1.2,0.8,2.4,2.4,2.4c0.7,0,1.2-0.2,1.8-0.7v-1.7h-1.9v0.1h1.7v1.5l0,0
						c-0.4,0.4-1,0.6-1.6,0.6c-1.6,0-2.3-1.1-2.3-2.3c0-0.7,0.2-1.2,0.6-1.7c0.4-0.4,1-0.6,1.6-0.6c0.6,0,1.2,0.2,1.6,0.6l0.1-0.1
						C18.1,41.1,17.6,40.8,16.9,40.8z"/>
					<path id="XMLID_1587_" class="st0" d="M16.9,46c-1.9,0-2.7-1.4-2.7-2.7c0-0.8,0.3-1.5,0.8-2c0.5-0.5,1.2-0.8,2-0.8
						c0.7,0,1.4,0.3,1.9,0.8l0.1,0.1L18.5,42l-0.2-0.2c-0.4-0.4-0.9-0.6-1.4-0.6c-0.6,0-1.1,0.2-1.4,0.5c-0.4,0.4-0.6,0.9-0.6,1.4
						c0,1.3,1,1.9,2,1.9c0.5,0,0.9-0.2,1.3-0.5v-1.1h-1.7v-0.8H19v2.1l-0.1,0.1C18.4,45.7,17.7,46,16.9,46z"/>
				</g>
			</g>
			<g id="XMLID_1573_">
				<g id="XMLID_1579_">
					<path id="XMLID_1583_" class="st0" d="M23.4,40.8l3.3,4.1v-4.1H27v4.9h-0.1l-3.3-4.1v4.1h-0.4v-4.9H23.4z"/>
					<path id="XMLID_1580_" class="st0" d="M27.2,45.8h-0.3l0,0L23.7,42v3.9h-0.6v-5.1h0.3l0,0l3.1,3.8v-3.9h0.6V45.8z M23.3,45.6
						h0.2v-4.3l3.5,4.2v-4.7h-0.2v4.3l-3.5-4.3V45.6z"/>
				</g>
				<g id="XMLID_1574_">
					<path id="XMLID_1576_" class="st0" d="M27.1,45.8h-0.3L23.7,42v3.9h-0.6v-5.1h0.3l3.2,3.9v-3.9h0.6V45.8z M23.3,45.6h0.2v-4.2
						l3.5,4.2v-4.7h-0.2v4.3l-3.5-4.3h0V45.6z"/>
					<polygon id="XMLID_1575_" class="st0" points="27.3,45.9 26.8,45.9 26.8,45.9 23.8,42.3 23.8,45.9 23,45.9 23,40.6 23.5,40.6 
						23.5,40.6 26.5,44.3 26.5,40.6 27.3,40.6 					"/>
				</g>
			</g>
			<g id="XMLID_1555_">
				<g id="XMLID_1565_">
					<path id="XMLID_1570_" class="st0" d="M35.4,45.7l-0.5-1.2H32l-0.5,1.2H31l2.2-4.9h0.4l2.2,4.9H35.4z M34.7,44.2l-1.3-3l-1.3,3
						H34.7z"/>
					<path id="XMLID_1566_" class="st0" d="M36,45.8h-0.7l-0.5-1.2H32l-0.5,1.2h-0.7l2.3-5.1h0.6L36,45.8z M35.5,45.6h0.2l-2.1-4.7
						h-0.1l1.5,3.4h-3l1.5-3.4h-0.1l-2.1,4.7h0.2l0.5-1.2H35L35.5,45.6z M32.3,44.1h2.3l-1.2-2.6L32.3,44.1z"/>
				</g>
				<g id="XMLID_1556_">
					<path id="XMLID_1560_" class="st0" d="M36,45.8h-0.6l-0.5-1.2H32l-0.5,1.2h-0.6l2.3-5.1h0.5L36,45.8z M35.5,45.6h0.2l-2.1-4.7
						h-0.3l-2.1,4.7h0.2l0.5-1.2H35L35.5,45.6z M34.9,44.3h-3l1.5-3.3L34.9,44.3z M32.3,44.1h2.3l-1.2-2.6L32.3,44.1z"/>
					<path id="XMLID_1557_" class="st0" d="M36.2,45.9h-0.9l-0.5-1.2h-2.7l-0.5,1.2h-0.9l2.4-5.3h0.7L36.2,45.9z M32.4,44h2l-1-2.3
						L32.4,44z"/>
				</g>
			</g>
			<g id="XMLID_1543_">
				<g id="XMLID_1549_">
					<path id="XMLID_1553_" class="st0" d="M40.4,41.2h-1.8v-0.3h3.9v0.3h-1.8v4.6h-0.4V41.2z"/>
					<path id="XMLID_1550_" class="st0" d="M40.9,45.8h-0.6v-4.6h-1.8v-0.6h4.2v0.6h-1.8V45.8z M40.6,45.6h0.2V41h1.8v-0.1h-3.7V41
						h1.8V45.6z"/>
				</g>
				<g id="XMLID_1544_">
					<path id="XMLID_1546_" class="st0" d="M40.9,45.8h-0.6v-4.6h-1.8v-0.5h4.1v0.5h-1.8V45.8z M40.5,45.6h0.2v-4.6h1.8v-0.1h-3.7
						v0.1h1.8V45.6z"/>
					<polygon id="XMLID_1545_" class="st0" points="41,45.9 40.2,45.9 40.2,41.4 38.4,41.4 38.4,40.6 42.8,40.6 42.8,41.4 41,41.4 
											"/>
				</g>
			</g>
			<g id="XMLID_1531_">
				<g id="XMLID_1537_">
					<path id="XMLID_1541_" class="st0" d="M50.6,40.8v3.1c0,2.6-3.8,2.6-3.8,0v-3.1h0.4v3.1c0,2.1,3,2.1,3,0v-3.1H50.6z"/>
					<path id="XMLID_1538_" class="st0" d="M48.7,45.9c-1,0-2-0.6-2-2v-3.2h0.6v3.2c0,1,0.7,1.5,1.4,1.5c0.7,0,1.4-0.5,1.4-1.5v-3.2
						h0.6v3.2C50.7,45.2,49.7,45.9,48.7,45.9z M46.9,40.9v2.9c0,1.3,0.9,1.8,1.8,1.8s1.8-0.6,1.8-1.8v-2.9h-0.2v2.9
						c0,1.1-0.8,1.7-1.6,1.7c-0.8,0-1.6-0.5-1.6-1.7v-2.9H46.9z"/>
				</g>
				<g id="XMLID_1532_">
					<path id="XMLID_1534_" class="st0" d="M48.7,45.9c-1,0-2-0.6-2-2v-3.2h0.6v3.2c0,1,0.7,1.5,1.4,1.5s1.4-0.5,1.4-1.5v-3.2h0.6
						v3.2C50.7,45.3,49.7,45.9,48.7,45.9z M46.9,40.9v3c0,1.3,0.9,1.8,1.8,1.8c0.9,0,1.8-0.6,1.8-1.8v-3h-0.2v3
						c0,1.1-0.8,1.7-1.6,1.7c-0.8,0-1.6-0.5-1.6-1.7v-3H46.9z"/>
					<path id="XMLID_1533_" class="st0" d="M48.7,46c-1,0-2.1-0.7-2.1-2.1v-3.3h0.8v3.3c0,0.9,0.7,1.4,1.3,1.4
						c0.6,0,1.3-0.4,1.3-1.4v-3.3h0.8v3.3C50.8,45.3,49.7,46,48.7,46z"/>
				</g>
			</g>
			<g id="XMLID_1512_">
				<g id="XMLID_1522_">
					<path id="XMLID_1528_" class="st0" d="M58.9,45.7h-0.5l-1.7-1.9h-1.3v1.9H55v-4.9c0.7,0,1.4,0,2.2,0c1.1,0,1.6,0.8,1.6,1.5
						c0,0.8-0.5,1.5-1.6,1.5L58.9,45.7z M55.4,43.5h1.7c0.9,0,1.2-0.5,1.2-1.2c0-0.6-0.4-1.2-1.2-1.2h-1.8V43.5z"/>
					<path id="XMLID_1523_" class="st0" d="M59.2,45.8h-0.8l0,0L56.7,44h-1.2v1.9h-0.6v-5.1h2.3c1.2,0,1.7,0.9,1.7,1.6
						c0,0.4-0.2,0.9-0.4,1.1c-0.3,0.3-0.6,0.4-1,0.5L59.2,45.8z M58.5,45.6h0.2l-1.7-1.9h0.3c0.5,0,0.8-0.1,1.1-0.4
						c0.2-0.2,0.4-0.6,0.4-1c0-0.7-0.5-1.4-1.5-1.4h-2.1v4.7h0.2v-1.9h1.5l0,0L58.5,45.6z M57.1,43.6h-1.9v-2.6h1.9
						c0.4,0,0.7,0.1,1,0.4c0.2,0.2,0.4,0.6,0.4,0.9C58.5,43.2,58,43.6,57.1,43.6z M55.5,43.4h1.6c0.9,0,1.1-0.6,1.1-1.1
						c0-0.3-0.1-0.6-0.3-0.8c-0.2-0.2-0.5-0.3-0.8-0.3h-1.7V43.4z"/>
				</g>
				<g id="XMLID_1513_">
					<path id="XMLID_1517_" class="st0" d="M59.2,45.8h-0.8L56.7,44h-1.2v1.9h-0.6v-5.1h2.3c1.2,0,1.7,0.8,1.7,1.6
						c0,0.4-0.2,0.9-0.4,1.1c-0.3,0.3-0.6,0.4-1,0.5L59.2,45.8z M58.5,45.6h0.2L57,43.7h0.2c0.5,0,0.9-0.1,1.1-0.4
						c0.2-0.2,0.4-0.6,0.4-1c0-0.7-0.5-1.4-1.5-1.4h-2.1v4.7h0.2v-1.9h1.5L58.5,45.6z M57.1,43.6h-1.8v-2.5h1.9
						c0.4,0,0.7,0.1,0.9,0.4c0.2,0.2,0.4,0.6,0.4,0.9C58.5,43.1,58,43.6,57.1,43.6z M55.5,43.4h1.6c0.9,0,1.1-0.6,1.1-1.1
						c0-0.3-0.1-0.6-0.3-0.8c-0.2-0.2-0.5-0.3-0.8-0.3h-1.7V43.4z"/>
					<path id="XMLID_1514_" class="st0" d="M59.4,45.9h-1.1l0,0l-1.7-1.8h-1v1.9h-0.8v-5.3h2.4c1.2,0,1.8,0.9,1.8,1.7
						c0,0.5-0.2,0.9-0.5,1.2C58.3,43.8,58,44,57.6,44L59.4,45.9z M55.6,43.3h1.5c0.7,0,1-0.3,1-1c0-0.3-0.1-0.5-0.3-0.7
						c-0.2-0.2-0.4-0.3-0.7-0.3h-1.6V43.3z"/>
				</g>
			</g>
			<g id="XMLID_1500_">
				<g id="XMLID_1506_">
					<path id="XMLID_1510_" class="st0" d="M63.3,43.1h2.9v0.3h-2.9v1.9h3.1v0.4h-3.5v-4.9h3.4v0.4h-3V43.1z"/>
					<path id="XMLID_1507_" class="st0" d="M66.5,45.8h-3.7v-5.1h3.6v0.6h-3V43h2.9v0.6h-2.9v1.7h3.1V45.8z M63.1,45.6h3.3v-0.1
						h-3.1v-2.2h2.9v-0.1h-2.9v-2.1h3v-0.1h-3.2V45.6z"/>
				</g>
				<g id="XMLID_1501_">
					<path id="XMLID_1503_" class="st0" d="M66.5,45.8h-3.7v-5.1h3.6v0.6h-3V43h2.9v0.5h-2.9v1.7h3.1V45.8z M63,45.6h3.3v-0.2h-3.1
						v-2.1h2.9v-0.1h-2.9v-2.1h3v-0.2H63V45.6z"/>
					<polygon id="XMLID_1502_" class="st0" points="66.6,45.9 62.7,45.9 62.7,40.6 66.5,40.6 66.5,41.4 63.5,41.4 63.5,42.9 
						66.4,42.9 66.4,43.6 63.5,43.6 63.5,45.2 66.6,45.2 					"/>
				</g>
			</g>
			<g id="XMLID_1488_">
				<g id="XMLID_1494_">
					<path id="XMLID_1498_" class="st0" d="M79.5,45.7v-2.2h-3.1v2.2h-0.4v-4.9h0.4v2.3h3.1v-2.3h0.4v4.9H79.5z"/>
					<path id="XMLID_1495_" class="st0" d="M80,45.8h-0.6v-2.2h-2.9v2.2h-0.6v-5.1h0.6V43h2.9v-2.3H80V45.8z M79.6,45.6h0.2v-4.7
						h-0.2v2.3h-3.4v-2.3h-0.2v4.7h0.2v-2.2h3.4V45.6z"/>
				</g>
				<g id="XMLID_1489_">
					<path id="XMLID_1491_" class="st0" d="M79.9,45.8h-0.6v-2.2h-2.9v2.2h-0.6v-5.1h0.6v2.3h2.9v-2.3h0.6V45.8z M79.6,45.6h0.2
						v-4.7h-0.2v2.3h-3.3v-2.3H76v4.7h0.2v-2.2h3.3V45.6z"/>
					<polygon id="XMLID_1490_" class="st0" points="80.1,45.9 79.2,45.9 79.2,43.7 76.5,43.7 76.5,45.9 75.7,45.9 75.7,40.6 
						76.5,40.6 76.5,42.9 79.2,42.9 79.2,40.6 80.1,40.6 					"/>
				</g>
			</g>
			<g id="XMLID_1469_">
				<g id="XMLID_1479_">
					<path id="XMLID_1485_" class="st0" d="M89,43.3c0,1.3-0.8,2.5-2.5,2.5c-1.7,0-2.5-1.3-2.5-2.6c0-1.3,0.8-2.5,2.5-2.5
						C88.2,40.7,89.1,42,89,43.3z M84.5,43.3c0,1.1,0.7,2.2,2.1,2.2c1.4,0,2.1-1.1,2.1-2.2c0-1.1-0.7-2.2-2.1-2.2
						C85.2,41.1,84.5,42.1,84.5,43.3z"/>
					<path id="XMLID_1480_" class="st0" d="M86.6,45.9c-1.8,0-2.6-1.4-2.6-2.7c0-1.3,0.8-2.6,2.6-2.6c0.8,0,1.4,0.2,1.9,0.7
						c0.5,0.5,0.7,1.2,0.7,1.9C89.2,44.6,88.3,45.9,86.6,45.9z M86.6,40.8c-1.6,0-2.4,1.2-2.4,2.4c0,1.2,0.7,2.4,2.4,2.4
						c1.6,0,2.4-1.2,2.4-2.4c0-0.7-0.2-1.4-0.7-1.8C87.8,41.1,87.3,40.8,86.6,40.8z M86.6,45.6c-1.5,0-2.2-1.2-2.2-2.3
						c0-0.7,0.2-1.3,0.6-1.7c0.4-0.4,0.9-0.6,1.6-0.6c1.5,0,2.2,1.2,2.2,2.3C88.8,44.4,88.1,45.6,86.6,45.6z M86.6,41.2
						c-0.6,0-1.1,0.2-1.4,0.5c-0.4,0.4-0.6,0.9-0.6,1.5c0,1,0.6,2.1,2,2.1c1.4,0,2-1.1,2-2.1C88.6,42.2,88,41.2,86.6,41.2z"/>
				</g>
				<g id="XMLID_1470_">
					<path id="XMLID_1474_" class="st0" d="M86.6,45.9c-1.8,0-2.6-1.4-2.6-2.7c0-1.3,0.8-2.6,2.6-2.6c0.7,0,1.4,0.2,1.8,0.7
						c0.5,0.5,0.7,1.2,0.7,1.9C89.1,44.6,88.3,45.9,86.6,45.9z M86.6,40.8c-1.6,0-2.4,1.2-2.4,2.4c0,1.2,0.7,2.5,2.4,2.5
						c1.2,0,2.4-0.8,2.4-2.4c0-0.7-0.2-1.4-0.7-1.8C87.8,41.1,87.3,40.8,86.6,40.8z M86.6,45.6c-1.5,0-2.2-1.2-2.2-2.3
						c0-0.7,0.2-1.3,0.6-1.7c0.4-0.4,0.9-0.6,1.6-0.6c1.5,0,2.2,1.2,2.2,2.3C88.8,44.4,88.1,45.6,86.6,45.6z M86.6,41.2
						c-0.6,0-1.1,0.2-1.4,0.5c-0.4,0.4-0.6,0.9-0.6,1.5c0,1,0.6,2.1,2,2.1c1.4,0,2-1.1,2-2.1C88.6,42.2,88,41.2,86.6,41.2z"/>
					<path id="XMLID_1471_" class="st0" d="M86.6,46c-1.8,0-2.7-1.4-2.7-2.8c0-1.4,0.8-2.7,2.7-2.7c0.8,0,1.4,0.3,1.9,0.7
						c0.5,0.5,0.8,1.2,0.8,2C89.3,44.6,88.4,46,86.6,46z M86.6,41.3c-0.6,0-1,0.2-1.4,0.5c-0.4,0.4-0.5,0.9-0.5,1.5c0,1,0.6,2,1.9,2
						c1.3,0,1.9-1,1.9-2C88.5,42.3,87.9,41.3,86.6,41.3z"/>
				</g>
			</g>
			<g id="XMLID_1457_">
				<g id="XMLID_1463_">
					<path id="XMLID_1467_" class="st0" d="M94.4,41.2h-1.8v-0.3h3.9v0.3h-1.8v4.6h-0.4V41.2z"/>
					<path id="XMLID_1464_" class="st0" d="M94.9,45.8h-0.6v-4.6h-1.8v-0.6h4.2v0.6h-1.8V45.8z M94.5,45.6h0.2V41h1.8v-0.1h-3.7V41
						h1.8V45.6z"/>
				</g>
				<g id="XMLID_1458_">
					<path id="XMLID_1460_" class="st0" d="M94.9,45.8h-0.6v-4.6h-1.8v-0.5h4.1v0.5h-1.8V45.8z M94.5,45.6h0.2v-4.6h1.8v-0.1h-3.7
						v0.1h1.8V45.6z"/>
					<polygon id="XMLID_1459_" class="st0" points="95,45.9 94.2,45.9 94.2,41.4 92.4,41.4 92.4,40.6 96.8,40.6 96.8,41.4 95,41.4 
											"/>
				</g>
			</g>
			<g id="XMLID_1445_">
				<g id="XMLID_1451_">
					<path id="XMLID_1455_" class="st0" d="M101.1,43.1h2.9v0.3h-2.9v1.9h3.1v0.4h-3.5v-4.9h3.4v0.4h-3V43.1z"/>
					<path id="XMLID_1452_" class="st0" d="M104.3,45.8h-3.7v-5.1h3.6v0.6h-3V43h2.9v0.6h-2.9v1.7h3.1V45.8z M100.8,45.6h3.3v-0.1
						h-3.1v-2.2h2.9v-0.1h-2.9v-2.1h3v-0.1h-3.2V45.6z"/>
				</g>
				<g id="XMLID_1446_">
					<path id="XMLID_1448_" class="st0" d="M104.3,45.8h-3.7v-5.1h3.6v0.6h-3V43h2.9v0.5h-2.9v1.7h3.1V45.8z M100.8,45.6h3.3v-0.2
						H101v-2.1h2.9v-0.1H101v-2.1h3v-0.2h-3.2V45.6z"/>
					<polygon id="XMLID_1447_" class="st0" points="104.4,45.9 100.5,45.9 100.5,40.6 104.3,40.6 104.3,41.4 101.3,41.4 101.3,42.9 
						104.1,42.9 104.1,43.6 101.3,43.6 101.3,45.2 104.4,45.2 					"/>
				</g>
			</g>
			<g id="XMLID_1433_">
				<g id="XMLID_1439_">
					<path id="XMLID_1443_" class="st0" d="M108.7,40.8v4.6h2.8v0.4h-3.2v-4.9H108.7z"/>
					<path id="XMLID_1440_" class="st0" d="M111.6,45.8h-3.4v-5.1h0.6v4.6h2.8V45.8z M108.5,45.6h2.9v-0.1h-2.8v-4.6h-0.2V45.6z"/>
				</g>
				<g id="XMLID_1434_">
					<path id="XMLID_1436_" class="st0" d="M111.6,45.8h-3.4v-5.1h0.6v4.6h2.8V45.8z M108.5,45.6h2.9v-0.2h-2.8v-4.6h-0.2V45.6z"/>
					<polygon id="XMLID_1435_" class="st0" points="111.7,45.9 108.2,45.9 108.2,40.6 109,40.6 109,45.2 111.7,45.2 					"/>
				</g>
			</g>
		</g>
	</g>
</g>
</svg>
