<?xml version="1.0" encoding="utf-8"?>
<!-- Generator: Adobe Illustrator 19.0.0, SVG Export Plug-In . SVG Version: 6.00 Build 0)  -->
<svg version="1.1" id="Capa_1" xmlns="http://www.w3.org/2000/svg" xmlns:xlink="http://www.w3.org/1999/xlink" x="0px" y="0px"
	 viewBox="0 0 96.9 95.5" style="enable-background:new 0 0 96.9 95.5;" xml:space="preserve">
<style type="text/css">
	.st0{fill:#2D0010;}
	.st1{opacity:0.52;}
</style>
<g id="XMLID_93_">
	<g id="XMLID_100_">
		<g id="XMLID_128_">
			<path id="XMLID_132_" class="st0" d="M56.3,9.7c-2.5,0-5,0.9-6.9,2.4l0,0c0,0,0,0-0.1,0.1c-0.2,0.2-0.4,0.3-0.6,0.5
				c-2.1-1.9-4.8-3-7.6-3c-6.3,0-11.5,5.1-11.5,11.5c0,2.8,1,5.4,2.8,7.5L48.9,47L65.6,28l0.1-0.1c1.4-2,2.1-4.3,2.1-6.7
				C67.8,14.9,62.7,9.7,56.3,9.7z M49,16c-0.2,0.2-0.4,0.4-0.4,0.4C48.7,16.3,48.9,16.1,49,16z M48.6,16.4l0.2,0.2
				c2.1,2.2,4.5,5.7,2.4,9.1c-0.3,0.5-1.4,1.7-2.5,1.8c-1.2-0.1-2.2-1.3-2.5-1.7c-1.9-3.1-0.2-6.3,1.7-8.4l0,0
				C47.9,17.3,48.2,16.9,48.6,16.4z M63.7,26.4L48.9,43.3L34.3,27.1c-1.4-1.6-2.2-3.7-2.2-5.9c0-5,4-9,9-9c2.2,0,4.3,0.7,5.9,2.2
				c-0.3,0.3-0.6,0.6-0.9,1h0c-3.5,3.9-4.2,8-2,11.6c0.1,0.1,1.8,2.8,4.6,2.9h0h0c2.7-0.1,4.5-2.8,4.6-2.9c2.3-3.7,1.3-8.1-2.8-12.1
				l-0.2-0.2c0.2-0.2,0.4-0.3,0.6-0.5l0,0c1.6-1.2,3.4-2,5.4-2c5,0,9,4,9,9C65.3,23.1,64.8,24.9,63.7,26.4z"/>
			<g id="XMLID_129_" class="st1">
				<path id="XMLID_131_" class="st0" d="M48.7,12.7c-0.4-0.4-3.6-3.3-8.4-3v2.5c0,0,3.3-0.7,6.7,2.2C47.7,13.6,48.5,13,48.7,12.7z"
					/>
				<path id="XMLID_130_" class="st0" d="M50.3,14.6l-1.7,1.8c2.1,2.1,4.7,5.8,2.6,9.3c-0.3,0.5-1.4,1.7-2.5,1.8
					c-1.2-0.1-2.2-1.3-2.5-1.7c-0.2-0.4-0.4-0.7-0.5-1.1c-0.7,0.4-1.5,0.7-2.3,1c0.2,0.5,0.4,1,0.7,1.4c0.1,0.1,1.8,2.8,4.6,2.9h0h0
					c2.7-0.1,4.5-2.8,4.6-2.9C55.6,23.2,54.5,18.7,50.3,14.6z"/>
			</g>
		</g>
		<g id="XMLID_119_">
			<path id="XMLID_123_" class="st0" d="M11.6,39.5c0,2.5,0.9,5,2.4,6.9l0,0c0,0,0,0,0.1,0.1c0.2,0.2,0.3,0.4,0.5,0.6
				c-1.9,2.1-3,4.8-3,7.6c0,6.3,5.1,11.5,11.5,11.5c2.8,0,5.4-1,7.5-2.8L48.9,47L29.8,30.3l-0.1-0.1c-2-1.4-4.3-2.1-6.7-2.1
				C16.7,28.1,11.6,33.2,11.6,39.5z M17.8,46.9c0.2,0.2,0.4,0.4,0.4,0.4C18.1,47.1,18,47,17.8,46.9z M18.3,47.3l0.2-0.2
				c2.2-2.1,5.7-4.5,9.1-2.4c0.5,0.3,1.7,1.4,1.8,2.5c-0.1,1.2-1.3,2.2-1.7,2.5c-3.1,1.9-6.3,0.2-8.4-1.7l0,0
				C19.1,48,18.7,47.7,18.3,47.3z M28.2,32.2L45.2,47L28.9,61.6c-1.6,1.4-3.7,2.2-5.9,2.2c-5,0-9-4-9-9c0-2.2,0.7-4.3,2.2-5.9
				c0.3,0.3,0.6,0.6,1,0.9v0c3.9,3.5,8,4.2,11.6,2c0.1-0.1,2.8-1.8,2.9-4.6v0v0c-0.1-2.7-2.8-4.5-2.9-4.6c-3.7-2.3-8.1-1.3-12.1,2.8
				l-0.2,0.2c-0.2-0.2-0.3-0.4-0.5-0.6v0c-1.2-1.6-2-3.4-2-5.4c0-5,4-9,9-9C24.9,30.5,26.7,31.1,28.2,32.2z"/>
			<g id="XMLID_120_" class="st1">
				<path id="XMLID_122_" class="st0" d="M14.6,47.2c-0.4,0.4-3.3,3.6-3,8.4h2.5c0,0-0.7-3.3,2.2-6.7C15.5,48.2,14.8,47.4,14.6,47.2
					z"/>
				<path id="XMLID_121_" class="st0" d="M16.5,45.6l1.8,1.7c2.1-2.1,5.8-4.7,9.3-2.6c0.5,0.3,1.7,1.4,1.8,2.5
					c-0.1,1.2-1.3,2.2-1.7,2.5c-0.4,0.2-0.7,0.4-1.1,0.5c0.4,0.7,0.7,1.5,1,2.3c0.5-0.2,1-0.4,1.4-0.7c0.1-0.1,2.8-1.8,2.9-4.6v0v0
					c-0.1-2.7-2.8-4.5-2.9-4.6C25.1,40.3,20.6,41.4,16.5,45.6z"/>
			</g>
		</g>
		<g id="XMLID_110_">
			<path id="XMLID_114_" class="st0" d="M41.4,84.3c2.5,0,5-0.9,6.9-2.4h0c0,0,0,0,0.1-0.1c0.2-0.2,0.4-0.3,0.6-0.5
				c2.1,1.9,4.8,3,7.6,3c6.3,0,11.5-5.1,11.5-11.5c0-2.8-1-5.4-2.8-7.5L48.9,47L32.2,66.1l-0.1,0.1c-1.4,2-2.1,4.3-2.1,6.7
				C30,79.2,35.1,84.3,41.4,84.3z M48.8,78.1c0.2-0.2,0.4-0.4,0.4-0.4C49,77.8,48.9,78,48.8,78.1z M49.2,77.6L49,77.5
				c-2.1-2.2-4.5-5.7-2.4-9.1c0.3-0.5,1.4-1.7,2.5-1.8c1.2,0.1,2.2,1.3,2.5,1.7c1.9,3.1,0.2,6.3-1.7,8.4l0,0
				C49.8,76.8,49.6,77.2,49.2,77.6z M34.1,67.7l14.8-16.9L63.5,67c1.4,1.6,2.2,3.7,2.2,5.9c0,5-4,9-9,9c-2.2,0-4.3-0.7-5.9-2.2
				c0.3-0.3,0.6-0.6,0.9-1h0c3.5-3.9,4.2-8,2-11.6c-0.1-0.1-1.8-2.8-4.6-2.9h0h0c-2.7,0.1-4.5,2.8-4.6,2.9
				c-2.3,3.7-1.3,8.1,2.8,12.1l0.2,0.2c-0.2,0.2-0.4,0.3-0.6,0.5l0,0c-1.6,1.2-3.4,2-5.4,2c-5,0-9-4-9-9C32.4,71,33,69.2,34.1,67.7z
				"/>
			<g id="XMLID_111_" class="st1">
				<path id="XMLID_113_" class="st0" d="M49.1,81.3c0.4,0.4,3.6,3.3,8.4,3v-2.5c0,0-3.3,0.7-6.7-2.2C50.1,80.4,49.3,81.1,49.1,81.3
					z"/>
				<path id="XMLID_112_" class="st0" d="M47.5,79.4l1.7-1.8c-2.1-2.1-4.7-5.8-2.6-9.3c0.3-0.5,1.4-1.7,2.5-1.8
					c1.2,0.1,2.2,1.3,2.5,1.7c0.2,0.4,0.4,0.7,0.5,1.1c0.7-0.4,1.5-0.7,2.3-1c-0.2-0.5-0.4-1-0.7-1.4c-0.1-0.1-1.8-2.8-4.6-2.9l0,0
					l0,0c-2.7,0.1-4.5,2.8-4.6,2.9C42.2,70.8,43.3,75.3,47.5,79.4z"/>
			</g>
		</g>
		<g id="XMLID_101_">
			<path id="XMLID_105_" class="st0" d="M86.2,54.4c0-2.5-0.9-5-2.4-6.9l0,0c0,0,0,0-0.1-0.1c-0.2-0.2-0.3-0.4-0.5-0.6
				c1.9-2.1,3-4.8,3-7.6c0-6.3-5.1-11.5-11.5-11.5c-2.8,0-5.4,1-7.5,2.8L48.9,47l19.1,16.7l0.1,0.1c2,1.4,4.3,2.2,6.7,2.2
				C81,65.9,86.2,60.8,86.2,54.4z M80,47.1c-0.2-0.2-0.4-0.4-0.5-0.4C79.6,46.8,79.8,47,80,47.1z M79.5,46.7l-0.2,0.2
				c-2.2,2.1-5.7,4.5-9.1,2.4c-0.5-0.3-1.7-1.4-1.8-2.5c0.1-1.2,1.3-2.2,1.7-2.5c3.1-1.9,6.3-0.2,8.4,1.7l0,0
				C78.6,46,79,46.3,79.5,46.7z M69.5,61.8L52.6,47l16.2-14.6c1.6-1.4,3.7-2.2,5.9-2.2c5,0,9,4,9,9c0,2.2-0.7,4.3-2.2,5.9
				c-0.3-0.3-0.6-0.6-1-0.9l0,0c-3.9-3.5-8-4.2-11.6-2c-0.1,0.1-2.8,1.8-2.9,4.6v0v0c0.1,2.7,2.8,4.5,2.9,4.6
				c3.7,2.3,8.1,1.3,12.1-2.8l0.2-0.2c0.2,0.2,0.3,0.4,0.5,0.6v0c1.2,1.6,2,3.4,2,5.4c0,5-4,9-9,9C72.8,63.4,71,62.9,69.5,61.8z"/>
			<g id="XMLID_102_" class="st1">
				<path id="XMLID_104_" class="st0" d="M83.2,46.8c0.4-0.4,3.3-3.6,3-8.4h-2.5c0,0,0.7,3.3-2.2,6.7C82.3,45.8,82.9,46.6,83.2,46.8
					z"/>
				<path id="XMLID_103_" class="st0" d="M81.3,48.4l-1.8-1.7c-2.1,2.1-5.8,4.7-9.3,2.6c-0.5-0.3-1.7-1.4-1.8-2.5
					c0.1-1.2,1.3-2.2,1.7-2.5c0.4-0.2,0.7-0.4,1.1-0.5c-0.4-0.7-0.7-1.5-1-2.3c-0.5,0.2-1,0.4-1.4,0.7c-0.1,0.1-2.8,1.8-2.9,4.6l0,0
					l0,0c0.1,2.7,2.8,4.5,2.9,4.6C72.7,53.7,77.2,52.6,81.3,48.4z"/>
			</g>
		</g>
	</g>
	<g id="XMLID_97_">
		<path id="XMLID_99_" class="st0" d="M6.1,46.8c0,1.3-1,2.3-2.3,2.3c-1.3,0-2.3-1-2.3-2.3c0-1.3,1-2.3,2.3-2.3
			C5.1,44.5,6.1,45.5,6.1,46.8z"/>
		<path id="XMLID_98_" class="st0" d="M94.3,46.8c0,1.3-1,2.3-2.3,2.3c-1.3,0-2.3-1-2.3-2.3c0-1.3,1-2.3,2.3-2.3
			C93.3,44.5,94.3,45.5,94.3,46.8z"/>
	</g>
	<g id="XMLID_94_">
		<circle id="XMLID_96_" class="st0" cx="48.9" cy="91.5" r="2.3"/>
		<circle id="XMLID_95_" class="st0" cx="48.9" cy="3.2" r="2.3"/>
	</g>
</g>
</svg>
