<?xml version="1.0" encoding="utf-8"?>
<!-- Generator: Adobe Illustrator 19.0.0, SVG Export Plug-In . SVG Version: 6.00 Build 0)  -->
<svg version="1.1" id="Capa_1" xmlns="http://www.w3.org/2000/svg" xmlns:xlink="http://www.w3.org/1999/xlink" x="0px" y="0px"
	 viewBox="0 0 26.5 26.4" style="enable-background:new 0 0 26.5 26.4;" xml:space="preserve">
<style type="text/css">
	.st0{fill:#2D0010;}
</style>
<g id="XMLID_15_">
	<g id="XMLID_20_">
		<path id="XMLID_21_" class="st0" d="M19.8,9.4c-0.5,0.2-1,0.3-1.5,0.4c0.6-0.3,1-0.8,1.2-1.4c-0.5,0.3-1.1,0.5-1.7,0.6
			c-0.5-0.5-1.1-0.9-1.9-0.9c-1.4,0-2.7,1.1-2.7,2.6c0,0.2,0,0.4,0.1,0.6C11.1,11.1,9.2,10,8,8.3C7.7,8.7,7.6,9.2,7.6,9.7
			c0,0.9,0.4,1.7,1.1,2.2c-0.4,0-0.8-0.2-1.2-0.4v0c0,1.3,0.8,2.4,2,2.6c-0.2,0.1-0.5,0.1-0.7,0.1c-0.2,0-0.3,0-0.5-0.1
			c0.3,1.1,1.3,1.8,2.4,1.9c-0.9,0.7-2.1,1.1-3.3,1c-0.2,0-0.4,0-0.6-0.1c1.1,0.8,2.5,1.2,4,1.3c4.8,0.1,7.6-3.8,7.7-7.3v-0.3
			C19,10.4,19.5,9.9,19.8,9.4L19.8,9.4z M19.8,9.4"/>
	</g>
	<g id="XMLID_16_">
		<path id="XMLID_17_" class="st0" d="M13.3,26.2c-7.1,0-13-5.8-13-13s5.8-13,13-13c7.1,0,13,5.8,13,13S20.5,26.2,13.3,26.2z
			 M13.3,0.7C6.5,0.7,0.9,6.3,0.9,13.2s5.6,12.5,12.5,12.5c6.9,0,12.5-5.6,12.5-12.5S20.2,0.7,13.3,0.7z"/>
	</g>
</g>
</svg>
